<svg xmlns="http://www.w3.org/2000/svg" xmlns:xlink="http://www.w3.org/1999/xlink" width="103" height="103" viewBox="0 0 103 103">
  <defs>
    <filter id="Trazado_904820" x="0" y="0" width="103" height="103" filterUnits="userSpaceOnUse">
      <feOffset dy="3" input="SourceAlpha"/>
      <feGaussianBlur stdDeviation="3" result="blur"/>
      <feFlood flood-opacity="0.161"/>
      <feComposite operator="in" in2="blur"/>
      <feComposite in="SourceGraphic"/>
    </filter>
  </defs>
  <g id="Grupo_1240447" data-name="Grupo 1240447" transform="translate(-171 -810)">
    <g id="Grupo_1225967" data-name="Grupo 1225967" transform="translate(0 -497.779)">
      <g id="Grupo_1224992" data-name="Grupo 1224992" transform="translate(180 1313.779)">
        <g id="Grupo_1223798" data-name="Grupo 1223798" transform="translate(0 0)">
          <g id="Grupo_1223164" data-name="Grupo 1223164" transform="translate(0 0)">
            <g id="Grupo_1203639" data-name="Grupo 1203639">
              <g id="Grupo_1202437" data-name="Grupo 1202437">
                <g id="Grupo_1177315" data-name="Grupo 1177315">
                  <g id="Grupo_1173585" data-name="Grupo 1173585">
                    <g id="Grupo_1173428" data-name="Grupo 1173428">
                      <g id="Grupo_1171958" data-name="Grupo 1171958">
                        <g id="Grupo_1167341" data-name="Grupo 1167341">
                          <g id="Grupo_1166792" data-name="Grupo 1166792">
                            <g transform="matrix(1, 0, 0, 1, -9, -6)" filter="url(#Trazado_904820)">
                              <g id="Trazado_904820-2" data-name="Trazado 904820" transform="translate(9 6)" fill="#ebe9f0">
                                <path d="M 42.49993515014648 83.49986267089844 C 36.96432495117188 83.49986267089844 31.59508895874023 82.41603851318359 26.5413703918457 80.27849578857422 C 21.65931129455566 78.21355438232422 17.27445220947266 75.25711059570312 13.50860595703125 71.49126434326172 C 9.742758750915527 67.72541046142578 6.786311626434326 63.34055328369141 4.721370220184326 58.45849609375 C 2.583829164505005 53.40477752685547 1.500005722045898 48.03554153442383 1.500005722045898 42.49993133544922 C 1.500005722045898 36.96430969238281 2.583829164505005 31.59507179260254 4.721370220184326 26.54136657714844 C 6.786311626434326 21.6593074798584 9.742758750915527 17.27444839477539 13.50860595703125 13.50860214233398 C 17.27445220947266 9.742754936218262 21.65931129455566 6.786295890808105 26.5413703918457 4.721366405487061 C 31.59508895874023 2.583825349807739 36.96432495117188 1.500001907348633 42.49993515014648 1.500001907348633 C 48.03555679321289 1.500001907348633 53.40479278564453 2.583825349807739 58.45849990844727 4.721366405487061 C 63.34056854248047 6.786295890808105 67.72542572021484 9.742754936218262 71.49127960205078 13.50860214233398 C 75.25712585449219 17.27444839477539 78.21356964111328 21.6593074798584 80.27851104736328 26.54136657714844 C 82.41605377197266 31.59507179260254 83.4998779296875 36.96430969238281 83.4998779296875 42.49993133544922 C 83.4998779296875 48.03554153442383 82.41605377197266 53.40477752685547 80.27851104736328 58.45849609375 C 78.21356964111328 63.34055328369141 75.25712585449219 67.72541046142578 71.49127960205078 71.49126434326172 C 67.72542572021484 75.25711059570312 63.34056854248047 78.21355438232422 58.45849990844727 80.27849578857422 C 53.40479278564453 82.41603851318359 48.03555679321289 83.49986267089844 42.49993515014648 83.49986267089844 Z" stroke="none"/>
                                <path d="M 42.49993515014648 3 C 37.16616058349609 3 31.99352264404297 4.043960571289062 27.12569427490234 6.102867126464844 C 22.42242813110352 8.092185974121094 18.19784545898438 10.94068908691406 14.56926727294922 14.56926727294922 C 10.94069671630859 18.19783782958984 8.092185974121094 22.42242431640625 6.102867126464844 27.12569046020508 C 4.043960571289062 31.9935188293457 3 37.16615676879883 3 42.49993133544922 C 3 47.83370590209961 4.043960571289062 53.00634384155273 6.102867126464844 57.87417221069336 C 8.092185974121094 62.57743835449219 10.94069671630859 66.80202484130859 14.56926727294922 70.43059539794922 C 18.19784545898438 74.05917358398438 22.42242813110352 76.90767669677734 27.12569427490234 78.89699554443359 C 31.99352264404297 80.95590209960938 37.16616058349609 81.99986267089844 42.49993515014648 81.99986267089844 C 47.83370971679688 81.99986267089844 53.00634765625 80.95590209960938 57.87417602539062 78.89699554443359 C 62.57744216918945 76.90767669677734 66.80203247070312 74.05917358398438 70.43060302734375 70.43059539794922 C 74.05917358398438 66.80202484130859 76.90768432617188 62.57743835449219 78.89700317382812 57.87417221069336 C 80.95590972900391 53.00634384155273 81.99987030029297 47.83370590209961 81.99987030029297 42.49993133544922 C 81.99987030029297 37.16615676879883 80.95590972900391 31.9935188293457 78.89700317382812 27.12569046020508 C 76.90768432617188 22.42242431640625 74.05917358398438 18.19783782958984 70.43060302734375 14.56926727294922 C 66.80203247070312 10.94068908691406 62.57744216918945 8.092185974121094 57.87417602539062 6.102867126464844 C 53.00634765625 4.043960571289062 47.83370971679688 3 42.49993515014648 3 M 42.49993515014648 0 C 65.97200012207031 0 84.99987030029297 19.02786254882812 84.99987030029297 42.49993133544922 C 84.99987030029297 65.97200012207031 65.97200012207031 84.99986267089844 42.49993515014648 84.99986267089844 C 19.02787017822266 84.99986267089844 0 65.97200012207031 0 42.49993133544922 C 0 19.02786254882812 19.02787017822266 0 42.49993515014648 0 Z" stroke="none" fill="#c6c0d6"/>
                              </g>
                            </g>
                          </g>
                        </g>
                      </g>
                    </g>
                  </g>
                </g>
              </g>
            </g>
          </g>
        </g>
      </g>
    </g>
    <g id="creatividad_1_" data-name="creatividad (1)" transform="translate(200.092 826.338)">
      <path id="Trazado_1215066" data-name="Trazado 1215066" d="M226,143.36l5.215-10.549a2.189,2.189,0,0,0-1.007-2.931l-4.187-2.042a2.2,2.2,0,0,0-2.935,1.008l-7.24,14.765Zm0,0" transform="translate(-188.297 -111.583)" fill="#b8f9ff"/>
      <path id="Trazado_1215067" data-name="Trazado 1215067" d="M70.038,269.784v8.858H84.829v-5.108H88.18a13.248,13.248,0,0,0,13.248-13.248v-.159h.83a1.965,1.965,0,0,0,1.63-2.994,20.948,20.948,0,0,1-3.2-10.946H70.038Zm0,0" transform="translate(-60.803 -215.259)" fill="#faded2"/>
      <path id="Trazado_1215068" data-name="Trazado 1215068" d="M168.449,257.133a20.956,20.956,0,0,1-3.2-10.946h-5.515c0,5.218.745,13.94.745,13.94v.159a13.248,13.248,0,0,1-13.248,13.248h-3.351v5.108h5.515v-5.108h3.351a13.248,13.248,0,0,0,13.248-13.248v-.159h.83A1.965,1.965,0,0,0,168.449,257.133Zm0,0" transform="translate(-125.364 -215.258)" fill="#fad7c8"/>
      <path id="Trazado_1215069" data-name="Trazado 1215069" d="M143.319,23.751l.024-7.178c.018-3.314-1.648-6.518-4.709-9.053-3.089,2.55-4.791,5.763-4.809,9.076l-.024,7.155.971,2.268a4.716,4.716,0,0,0,3.751,1.826,4.8,4.8,0,0,0,3.767-1.838Zm0,0" transform="translate(-116.555 -6.575)" fill="#e1e2e5"/>
      <path id="Trazado_1215070" data-name="Trazado 1215070" d="M157.044,7.52a15.648,15.648,0,0,0-2.075,2.057,10.9,10.9,0,0,1,2.649,7l-.024,7.178-1.03,2.256a4.835,4.835,0,0,1-1.707,1.367,4.731,4.731,0,0,0,2.076.471,4.8,4.8,0,0,0,3.766-1.838l1.03-2.256.024-7.178c.018-3.314-1.648-6.518-4.709-9.053Zm0,0" transform="translate(-134.965 -6.575)" fill="#c1c5cc"/>
      <path id="Trazado_1215071" data-name="Trazado 1215071" d="M139.28,7.519a12.392,12.392,0,0,0-4.74,7.981l9.394-.015a12.146,12.146,0,0,0-4.654-7.966Zm0,0" transform="translate(-117.201 -6.575)" fill="#f0a8d0"/>
      <path id="Trazado_1215072" data-name="Trazado 1215072" d="M139.28,7.52A15.618,15.618,0,0,0,137.2,9.576a11.178,11.178,0,0,1,2.593,5.91l-5.257.008s0,0,0,.006l9.394-.015A12.147,12.147,0,0,0,139.28,7.52Zm0,0" transform="translate(-117.201 -6.575)" fill="#ea89bf"/>
      <path id="Trazado_1215073" data-name="Trazado 1215073" d="M123.611,119.08c-.005.988-3.97,5.873-3.97,5.873s.026-4.8.032-5.863a1.967,1.967,0,0,1,1.98-1.933,1.93,1.93,0,0,1,1.958,1.923Zm0,0" transform="translate(-104.174 -102.438)" fill="#f0a8d0"/>
      <path id="Trazado_1215074" data-name="Trazado 1215074" d="M191.926,118.913c-.005.988,3.906,5.854,3.906,5.854s.026-4.8.032-5.863a1.93,1.93,0,0,0-1.959-1.923,1.968,1.968,0,0,0-1.98,1.933Zm0,0" transform="translate(-167.378 -102.284)" fill="#f0a8d0"/>
      <path id="Trazado_1215075" data-name="Trazado 1215075" d="M26.757,135.621l-7.2-6.047-1.955,9.355,5.354.378Zm0,0" transform="translate(-14.957 -113.296)" fill="#fce49d"/>
      <path id="Trazado_1215076" data-name="Trazado 1215076" d="M29.853,186.907l-3.1-9.2-3.9,3.653-5.252-.344,2.1,6.143Zm0,0" transform="translate(-14.958 -155.381)" fill="#feda5f"/>
      <path id="Trazado_1215077" data-name="Trazado 1215077" d="M28.987,129.574l-.6,2.872,2.856-.977Zm0,0" transform="translate(-24.384 -113.295)" fill="#86919e"/>
      <path id="Trazado_1215078" data-name="Trazado 1215078" d="M63.064,177.707l-3.9,3.653-.035,0,1.892,5.677,5.138-.127Zm0,0" transform="translate(-51.264 -155.381)" fill="#f4c84e"/>
      <path id="Trazado_1215079" data-name="Trazado 1215079" d="M23.906,261.29a4.324,4.324,0,0,1,0-8.648,4.915,4.915,0,0,1,3.7,2.039,10.11,10.11,0,0,0,4.011-8.493H8.8s-4.387,16.64,7.082,23.626a16.126,16.126,0,0,0,8.084-8.523" transform="translate(-6.541 -215.258)" fill="#86919e"/>
      <path id="Trazado_1215080" data-name="Trazado 1215080" d="M43.888,146.432a19.955,19.955,0,0,1-3.068-10.458.94.94,0,0,0-.94-.94h-.2l4.087-8.348a3.129,3.129,0,0,0-1.439-4.189l-4.187-2.042a3.14,3.14,0,0,0-4.191,1.439l-6.433,13.14H24.731V129.3a.941.941,0,0,0-1.88,0v5.732H21.222V129.3a.941.941,0,0,0-1.88,0v5.732H15.4l-2.711-7.967a.949.949,0,0,0-.285-.417l-7.2-6.047a.94.94,0,0,0-1.525.527l-1.955,9.356a.953.953,0,0,0,.03.5l1.379,4.053H2.263a.94.94,0,0,0-.909.7A32.114,32.114,0,0,0,.5,143.119c-.016,5.541,1.432,10.264,4.189,13.66a.94.94,0,0,0,1.459-1.185c-5.173-6.374-3.675-16.019-3.131-18.68H24.1a9.319,9.319,0,0,1-2.912,6.26,5.749,5.749,0,0,0-3.819-1.686A5.264,5.264,0,0,0,16.05,151.85,15.491,15.491,0,0,1,9.2,158.631a.939.939,0,0,0-.908.938v8.859a.94.94,0,0,0,.94.94H24.026a.94.94,0,0,0,.94-.94v-4.167h2.411a14.206,14.206,0,0,0,14.166-13.41,2.844,2.844,0,0,0,2.4-1.483,2.892,2.892,0,0,0-.058-2.936Zm-8.25-23.71a1.258,1.258,0,0,1,1.678-.577l4.187,2.042a1.26,1.26,0,0,1,.574,1.672l-.738,1.506-1.651-.805a.941.941,0,0,0-.824,1.69l1.649.8-1.438,2.938-2.68-1.307a.94.94,0,0,0-.824,1.689l2.678,1.307-.663,1.353H29.61ZM10.195,135.034l-1.232-3.719,2.416-2.263,2.035,5.982ZM4.811,124.923l1.872-.623,3.7,3.109-2.83,2.65-3.765-.247Zm-.82,6.786,3.19.21,1.032,3.116H5.123ZM42.3,148.457a.98.98,0,0,1-.857.517h-.819a.988.988,0,0,0-.94,1.1,12.321,12.321,0,0,1-12.307,12.307H24.026a.94.94,0,0,0-.94.94v4.167H10.175v-7.236a17.1,17.1,0,0,0,8.125-8.827.939.939,0,0,0-.911-1.288h-.025a3.384,3.384,0,0,1,0-6.768A4,4,0,0,1,20.3,145.02a.94.94,0,0,0,1.263.241,10.85,10.85,0,0,0,4.413-8.347H38.961a21.98,21.98,0,0,0,3.32,10.494,1.032,1.032,0,0,1,.02,1.048Zm0,0" transform="translate(0 -105.045)"/>
      <path id="Trazado_1215081" data-name="Trazado 1215081" d="M230.266,276.8a3.45,3.45,0,0,0-3.446,3.447.941.941,0,0,0,1.88,0,1.566,1.566,0,1,1,3.132,0,.941.941,0,0,0,1.88,0,3.45,3.45,0,0,0-3.447-3.447Zm0,0" transform="translate(-197.888 -242.023)"/>
      <path id="Trazado_1215082" data-name="Trazado 1215082" d="M38.991,40.959h.975v.975a.941.941,0,0,0,1.88,0v-.975h.975a.941.941,0,0,0,0-1.88h-.975V38.1a.941.941,0,0,0-1.88,0v.975h-.975A.941.941,0,0,0,38.991,40.959Zm0,0" transform="translate(-32.861 -32.522)"/>
      <path id="Trazado_1215083" data-name="Trazado 1215083" d="M233.911,4.045h.975v.974a.941.941,0,0,0,1.88,0V4.045h.975a.941.941,0,0,0,0-1.88h-.975V1.19a.941.941,0,0,0-1.88,0v.975h-.975a.941.941,0,0,0,0,1.881Zm0,0" transform="translate(-203.293 -0.245)"/>
      <path id="Trazado_1215084" data-name="Trazado 1215084" d="M285.787,59.915h.975v.974a.941.941,0,0,0,1.88,0v-.974h.975a.941.941,0,0,0,0-1.88h-.975V57.06a.941.941,0,0,0-1.88,0v.975h-.975A.941.941,0,0,0,285.787,59.915Zm0,0" transform="translate(-248.652 -49.096)"/>
      <path id="Trazado_1215085" data-name="Trazado 1215085" d="M112.783,23.4a.981.981,0,0,0,1.046-.292c.039-.048.933-1.151,1.881-2.426a5.628,5.628,0,0,0,3.878,1.528h.015a5.7,5.7,0,0,0,3.9-1.547c.931,1.267,1.809,2.361,1.848,2.409a.95.95,0,0,0,1.673-.584l.032-5.863a2.815,2.815,0,0,0-.829-2.016,2.883,2.883,0,0,0-.891-.607l.022-4c.02-3.594-1.774-7.068-5.05-9.782a.941.941,0,0,0-1.2,1.448,11.7,11.7,0,0,1,4.145,6.3l-7.167.017a10.211,10.211,0,0,1,1.328-3.093.941.941,0,0,0-1.59-1,11.462,11.462,0,0,0-1.865,6.127l-.022,4.008a2.892,2.892,0,0,0-1.749,2.623l-.032,5.863a.939.939,0,0,0,.623.89Zm1.289-6.743a1.028,1.028,0,0,1,1.042-1h0a1.024,1.024,0,0,1,.733.3.95.95,0,0,1,.28.63,18.347,18.347,0,0,1-2.074,3.169Zm11.09,3.085a18.047,18.047,0,0,1-2.04-3.156,1.03,1.03,0,0,1,1.04-.949h0a1.025,1.025,0,0,1,.733.3.951.951,0,0,1,.281.679ZM123.48,9.849c0,.048,0,.1,0,.143l-.021,3.85a2.9,2.9,0,0,0-2.219,2.782c0,.36.1.887,1.166,2.48a3.84,3.84,0,0,1-2.81,1.225h-.01a3.763,3.763,0,0,1-2.771-1.2c1.08-1.6,1.191-2.124,1.193-2.483a2.816,2.816,0,0,0-.829-2.016,2.873,2.873,0,0,0-1.359-.764l.021-3.841c0-.053,0-.106,0-.158Zm0,0" transform="translate(-97.633 0)"/>
      <path id="Trazado_1215086" data-name="Trazado 1215086" d="M126.438,324.1a.941.941,0,0,0,0,1.88A.941.941,0,0,0,126.438,324.1Zm0,0" transform="translate(-109.324 -283.385)"/>
    </g>
  </g>
</svg>
