<svg xmlns="http://www.w3.org/2000/svg" xmlns:xlink="http://www.w3.org/1999/xlink" width="103" height="103" viewBox="0 0 103 103">
  <defs>
    <filter id="Trazado_904820" x="0" y="0" width="103" height="103" filterUnits="userSpaceOnUse">
      <feOffset dy="3" input="SourceAlpha"/>
      <feGaussianBlur stdDeviation="3" result="blur"/>
      <feFlood flood-opacity="0.161"/>
      <feComposite operator="in" in2="blur"/>
      <feComposite in="SourceGraphic"/>
    </filter>
  </defs>
  <g id="Grupo_1240541" data-name="Grupo 1240541" transform="translate(-170.999 -2514.724)">
    <g id="Grupo_1225971" data-name="Grupo 1225971" transform="translate(-0.001 1206.945)">
      <g id="Grupo_1224992" data-name="Grupo 1224992" transform="translate(180 1313.779)">
        <g id="Grupo_1223798" data-name="Grupo 1223798" transform="translate(0 0)">
          <g id="Grupo_1223164" data-name="Grupo 1223164" transform="translate(0 0)">
            <g id="Grupo_1203639" data-name="Grupo 1203639">
              <g id="Grupo_1202437" data-name="Grupo 1202437">
                <g id="Grupo_1177315" data-name="Grupo 1177315">
                  <g id="Grupo_1173585" data-name="Grupo 1173585">
                    <g id="Grupo_1173428" data-name="Grupo 1173428">
                      <g id="Grupo_1171958" data-name="Grupo 1171958">
                        <g id="Grupo_1167341" data-name="Grupo 1167341">
                          <g id="Grupo_1166792" data-name="Grupo 1166792">
                            <g transform="matrix(1, 0, 0, 1, -9, -6)" filter="url(#Trazado_904820)">
                              <g id="Trazado_904820-2" data-name="Trazado 904820" transform="translate(9 6)" fill="#ebe9f0">
                                <path d="M 42.49993515014648 83.49986267089844 C 36.96432495117188 83.49986267089844 31.59508895874023 82.41603851318359 26.5413703918457 80.27849578857422 C 21.65931129455566 78.21355438232422 17.27445220947266 75.25711059570312 13.50860595703125 71.49126434326172 C 9.742758750915527 67.72541046142578 6.786311626434326 63.34055328369141 4.721370220184326 58.45849609375 C 2.583829164505005 53.40477752685547 1.500005722045898 48.03554153442383 1.500005722045898 42.49993133544922 C 1.500005722045898 36.96430969238281 2.583829164505005 31.59507179260254 4.721370220184326 26.54136657714844 C 6.786311626434326 21.6593074798584 9.742758750915527 17.27444839477539 13.50860595703125 13.50860214233398 C 17.27445220947266 9.742754936218262 21.65931129455566 6.786295890808105 26.5413703918457 4.721366405487061 C 31.59508895874023 2.583825349807739 36.96432495117188 1.500001907348633 42.49993515014648 1.500001907348633 C 48.03555679321289 1.500001907348633 53.40479278564453 2.583825349807739 58.45849990844727 4.721366405487061 C 63.34056854248047 6.786295890808105 67.72542572021484 9.742754936218262 71.49127960205078 13.50860214233398 C 75.25712585449219 17.27444839477539 78.21356964111328 21.6593074798584 80.27851104736328 26.54136657714844 C 82.41605377197266 31.59507179260254 83.4998779296875 36.96430969238281 83.4998779296875 42.49993133544922 C 83.4998779296875 48.03554153442383 82.41605377197266 53.40477752685547 80.27851104736328 58.45849609375 C 78.21356964111328 63.34055328369141 75.25712585449219 67.72541046142578 71.49127960205078 71.49126434326172 C 67.72542572021484 75.25711059570312 63.34056854248047 78.21355438232422 58.45849990844727 80.27849578857422 C 53.40479278564453 82.41603851318359 48.03555679321289 83.49986267089844 42.49993515014648 83.49986267089844 Z" stroke="none"/>
                                <path d="M 42.49993515014648 3 C 37.16616058349609 3 31.99352264404297 4.043960571289062 27.12569427490234 6.102867126464844 C 22.42242813110352 8.092185974121094 18.19784545898438 10.94068908691406 14.56926727294922 14.56926727294922 C 10.94069671630859 18.19783782958984 8.092185974121094 22.42242431640625 6.102867126464844 27.12569046020508 C 4.043960571289062 31.9935188293457 3 37.16615676879883 3 42.49993133544922 C 3 47.83370590209961 4.043960571289062 53.00634384155273 6.102867126464844 57.87417221069336 C 8.092185974121094 62.57743835449219 10.94069671630859 66.80202484130859 14.56926727294922 70.43059539794922 C 18.19784545898438 74.05917358398438 22.42242813110352 76.90767669677734 27.12569427490234 78.89699554443359 C 31.99352264404297 80.95590209960938 37.16616058349609 81.99986267089844 42.49993515014648 81.99986267089844 C 47.83370971679688 81.99986267089844 53.00634765625 80.95590209960938 57.87417602539062 78.89699554443359 C 62.57744216918945 76.90767669677734 66.80203247070312 74.05917358398438 70.43060302734375 70.43059539794922 C 74.05917358398438 66.80202484130859 76.90768432617188 62.57743835449219 78.89700317382812 57.87417221069336 C 80.95590972900391 53.00634384155273 81.99987030029297 47.83370590209961 81.99987030029297 42.49993133544922 C 81.99987030029297 37.16615676879883 80.95590972900391 31.9935188293457 78.89700317382812 27.12569046020508 C 76.90768432617188 22.42242431640625 74.05917358398438 18.19783782958984 70.43060302734375 14.56926727294922 C 66.80203247070312 10.94068908691406 62.57744216918945 8.092185974121094 57.87417602539062 6.102867126464844 C 53.00634765625 4.043960571289062 47.83370971679688 3 42.49993515014648 3 M 42.49993515014648 0 C 65.97200012207031 0 84.99987030029297 19.02786254882812 84.99987030029297 42.49993133544922 C 84.99987030029297 65.97200012207031 65.97200012207031 84.99986267089844 42.49993515014648 84.99986267089844 C 19.02787017822266 84.99986267089844 0 65.97200012207031 0 42.49993133544922 C 0 19.02786254882812 19.02787017822266 0 42.49993515014648 0 Z" stroke="none" fill="#c6c0d6"/>
                              </g>
                            </g>
                          </g>
                        </g>
                      </g>
                    </g>
                  </g>
                </g>
              </g>
            </g>
          </g>
        </g>
      </g>
    </g>
    <g id="Page-1" transform="translate(195.057 2534.407)">
      <g id="_026---Idea" data-name="026---Idea" transform="translate(0.424)">
        <path id="Shape" d="M23.372,48.811l-.411,4.97H3.256a1.827,1.827,0,0,1-1.8-2.174l4-20.536a.914.914,0,0,1,.9-.74h2.54L5.851,48.619a.921.921,0,0,0,1.178,1.023,31.252,31.252,0,0,1,16.343-.831Z" transform="translate(-0.51 -2.623)" fill="sienna"/>
        <path id="Shape-2" data-name="Shape" d="M54.666,53.78h-19.7l-.411-4.97a31.252,31.252,0,0,1,16.343.831.921.921,0,0,0,1.178-1.023L49.029,30.33h2.54a.914.914,0,0,1,.9.74l4,20.536a1.827,1.827,0,0,1-1.8,2.174Z" transform="translate(-3.375 -2.623)" fill="sienna"/>
        <path id="Shape-3" data-name="Shape" d="M57.836,51.606l-4-20.536a.914.914,0,0,0-.9-.74H50.4l.006.037a.914.914,0,0,1,.688.7l4,20.536a1.827,1.827,0,0,1-1.8,2.174h2.741a1.827,1.827,0,0,0,1.8-2.174Z" transform="translate(-4.746 -2.623)" fill="#783e22"/>
        <path id="Shape-4" data-name="Shape" d="M48.446,49.4A31.252,31.252,0,0,0,32.1,48.568a21.149,21.149,0,0,0-4.157,1.315,21.149,21.149,0,0,0-4.157-1.315A31.252,31.252,0,0,0,7.447,49.4a.921.921,0,0,1-1.178-1.023L9.311,30.088l.256-1.544a.921.921,0,0,1,.767-.758c.621-.091,1.261-.183,1.9-.256a6.516,6.516,0,0,0,5.792,3.535,6.586,6.586,0,0,0,2.256-.4,4.812,4.812,0,0,0,8.194,1.571,7.924,7.924,0,0,0,2.868.539H31.4c.192,1.644,1.051,2.613,3.919,3.572a5,5,0,0,1,2.266,1.5,1.935,1.935,0,0,0,2.238.576,1.907,1.907,0,0,0,1.151-1.745,1.859,1.859,0,0,0-.091-.585,8.065,8.065,0,0,0-1.206-2.43,6.8,6.8,0,0,0,3.462-4.75,4.736,4.736,0,0,0,.85-1.334c.53.064,1.051.128,1.571.21a.921.921,0,0,1,.767.758l.256,1.544,3.042,18.289A.921.921,0,0,1,48.446,49.4Z" transform="translate(-0.928 -2.381)" fill="#f5f5f5"/>
        <path id="Shape-5" data-name="Shape" d="M53.153,48.381,50.111,30.092l-.256-1.544a.921.921,0,0,0-.767-.758c-.521-.082-1.041-.146-1.571-.21a4.75,4.75,0,0,1-.457.814.9.9,0,0,1,.052.154l.256,1.544L50.41,48.381a.884.884,0,0,1-.091.548c.548.143,1.1.3,1.651.476a.921.921,0,0,0,1.184-1.024Z" transform="translate(-4.457 -2.385)" fill="#cfd8dc"/>
        <path id="Shape-6" data-name="Shape" d="M34.135,55.53c0,1-2.046,1.827-4.568,1.827S25,56.534,25,55.53l.411-4.97a21.149,21.149,0,0,1,4.157,1.315,21.149,21.149,0,0,1,4.157-1.315Z" transform="translate(-2.549 -4.372)" fill="#783e22"/>
        <path id="Shape-7" data-name="Shape" d="M44.887,24.064a4.615,4.615,0,0,1-.4,1.909,4.736,4.736,0,0,1-.85,1.334,6.8,6.8,0,0,1-3.462,4.75,8.065,8.065,0,0,1,1.206,2.43,1.859,1.859,0,0,1,.091.585,1.907,1.907,0,0,1-1.151,1.745,1.935,1.935,0,0,1-2.238-.576,5,5,0,0,0-2.266-1.5c-2.868-.959-3.727-1.928-3.919-3.572h-.055a7.924,7.924,0,0,1-2.868-.539,4.812,4.812,0,0,1-8.194-1.571A6.526,6.526,0,0,1,13.3,19.03a2.668,2.668,0,0,1-.164-.932,2.846,2.846,0,0,1,2.284-2.8c-.009-.11-.018-.219-.018-.338a3.692,3.692,0,0,1,3.691-3.691,3.6,3.6,0,0,1,1.6.365A5.4,5.4,0,0,1,25.328,9a5.3,5.3,0,0,1,3.544,1.343,2.832,2.832,0,0,1,5.024.411,7.407,7.407,0,0,1,.786-.046,6.813,6.813,0,0,1,6.778,6.248h.027A2.832,2.832,0,0,1,44.32,19.8a2.931,2.931,0,0,1-.365,1.407,4.842,4.842,0,0,1,.932,2.859Z" transform="translate(-1.425 -0.778)" fill="#e91e63"/>
        <path id="Shape-8" data-name="Shape" d="M45.65,21.2a2.932,2.932,0,0,0,.365-1.407,2.832,2.832,0,0,0-2.832-2.841h-.027a6.813,6.813,0,0,0-6.778-6.248,7.407,7.407,0,0,0-.786.046A2.822,2.822,0,0,0,31.6,9.359a2.81,2.81,0,0,1,1.252,1.395,7.407,7.407,0,0,1,.786-.046,6.813,6.813,0,0,1,6.778,6.248h.027A2.832,2.832,0,0,1,43.275,19.8a2.931,2.931,0,0,1-.365,1.407,4.842,4.842,0,0,1,.932,2.859,4.615,4.615,0,0,1-.4,1.909,4.736,4.736,0,0,1-.85,1.334,6.8,6.8,0,0,1-3.462,4.75,8.065,8.065,0,0,1,1.206,2.43,1.859,1.859,0,0,1,.091.585,1.89,1.89,0,0,1-.532,1.288,1.886,1.886,0,0,0,3.272-1.288,1.859,1.859,0,0,0-.091-.585,8.065,8.065,0,0,0-1.206-2.43,6.8,6.8,0,0,0,3.462-4.75,4.736,4.736,0,0,0,.85-1.334,4.615,4.615,0,0,0,.4-1.909A4.842,4.842,0,0,0,45.65,21.2Z" transform="translate(-3.12 -0.778)" fill="#ad1457"/>
        <path id="Shape-9" data-name="Shape" d="M40.014,25.435a.914.914,0,1,0-1.632.822,1.36,1.36,0,0,1-.44,1.722,1.378,1.378,0,0,1-1.984-.506.914.914,0,1,0-1.634.818,3.183,3.183,0,1,0,5.691-2.852Z" transform="translate(-3.347 -2.156)" fill="#ad1457"/>
        <path id="Shape-10" data-name="Shape" d="M33.8,24.561a5.455,5.455,0,0,0,2.265-3.477.914.914,0,1,0-1.794-.343,3.641,3.641,0,0,1-1.513,2.319,3.729,3.729,0,0,1-4.809-.548.915.915,0,0,0-1.352,1.232,5.509,5.509,0,0,0,2.928,1.688A2.721,2.721,0,0,1,27.3,26.576a.914.914,0,0,0,0,1.827,4.53,4.53,0,0,0,4.256-2.93,5.5,5.5,0,0,0,2.243-.913Z" transform="translate(-2.666 -1.728)" fill="#ad1457"/>
        <path id="Shape-11" data-name="Shape" d="M20.785,27.014a1.37,1.37,0,0,1-1.751-1.3V25.69a.9.9,0,0,0-.914-.9.923.923,0,0,0-.914.924A3.188,3.188,0,0,0,20.388,28.9a3.241,3.241,0,0,0,.914-.134.914.914,0,0,0-.521-1.751Z" transform="translate(-1.875 -2.144)" fill="#ad1457"/>
        <path id="Shape-12" data-name="Shape" d="M27.316,16.914A.914.914,0,0,0,26.4,16a4.207,4.207,0,0,0-4.2,4.2.914.914,0,1,0,1.827,0A2.375,2.375,0,0,1,26.4,17.827a.914.914,0,0,0,.914-.914Z" transform="translate(-2.307 -1.384)" fill="#ad1457"/>
        <g id="Grupo_1240540" data-name="Grupo 1240540" transform="translate(5.006)">
          <path id="Shape-13" data-name="Shape" d="M29.914,2.741A.914.914,0,0,1,29,1.827V.914a.914.914,0,0,1,1.827,0v.914A.914.914,0,0,1,29.914,2.741Z" transform="translate(-7.901)" fill="#ffdc00"/>
          <path id="Shape-14" data-name="Shape" d="M46.031,9.622a.914.914,0,0,1-.646-1.559L46.3,7.15A.914.914,0,1,1,47.59,8.441l-.914.914a.914.914,0,0,1-.646.268Z" transform="translate(-9.295 -0.594)" fill="#ffdc00"/>
          <path id="Shape-15" data-name="Shape" d="M13.709,9.622a.914.914,0,0,1-.646-.268l-.914-.914A.914.914,0,1,1,13.441,7.15l.914.914a.914.914,0,0,1-.646,1.559Z" transform="translate(-6.419 -0.594)" fill="#ffdc00"/>
          <path id="Shape-16" data-name="Shape" d="M21.394,5.261A.914.914,0,0,1,20.55,4.7L19.5,2.165a.914.914,0,1,1,1.687-.7L22.239,4a.914.914,0,0,1-.494,1.195.926.926,0,0,1-.35.069Z" transform="translate(-7.073 -0.076)" fill="#ffdc00"/>
          <path id="Shape-17" data-name="Shape" d="M38.332,5.261a.926.926,0,0,1-.35-.069A.914.914,0,0,1,37.488,4l1.05-2.532a.914.914,0,1,1,1.687.7L39.177,4.7a.914.914,0,0,1-.844.564Z" transform="translate(-8.629 -0.076)" fill="#ffdc00"/>
          <path id="Shape-18" data-name="Shape" d="M50.238,17.31a.914.914,0,0,1-.35-1.759L52.421,14.5a.914.914,0,0,1,.7,1.688l-2.531,1.049a.914.914,0,0,1-.35.07Z" transform="translate(-9.658 -1.248)" fill="#ffdc00"/>
          <path id="Shape-19" data-name="Shape" d="M9.349,17.31a.914.914,0,0,1-.35-.07L6.468,16.191a.914.914,0,0,1,.7-1.688L9.7,15.551a.914.914,0,0,1-.35,1.759Z" transform="translate(-5.903 -1.248)" fill="#ffdc00"/>
        </g>
        <path id="Shape-20" data-name="Shape" d="M50.411,28.968a1.827,1.827,0,0,0-1.793-1.483H46.854l-.13-.777A1.836,1.836,0,0,0,45.2,25.194c-.174-.027-.349-.046-.522-.069a5.572,5.572,0,0,0-.694-4.073,3.738,3.738,0,0,0-2.709-5,7.773,7.773,0,0,0-7.594-6.345c-.091,0-.173.012-.259.015a3.716,3.716,0,0,0-5.685-.707A6.27,6.27,0,0,0,24.323,8a6.343,6.343,0,0,0-4.986,2.456,4.55,4.55,0,0,0-5.815,4.089,3.76,3.76,0,0,0-2.3,3.464,3.715,3.715,0,0,0,.091.779,7.352,7.352,0,0,0-.876,6.3c-.245.034-.5.064-.731.1A1.838,1.838,0,0,0,8.165,26.7l-.13.78H6.267a1.827,1.827,0,0,0-1.792,1.479L.474,49.5a2.741,2.741,0,0,0,2.7,3.263H22.221c.756,1.248,3.055,1.827,5.222,1.827,2.144,0,4.421-.565,5.2-1.827H51.714a2.741,2.741,0,0,0,2.7-3.262ZM13.982,19.662a1.929,1.929,0,0,1,.987-3.583,1.9,1.9,0,0,1,1.534.775.914.914,0,0,0,1.467-1.089A3.691,3.691,0,0,0,15.378,14.3a2.777,2.777,0,0,1,2.709-2.2,2.848,2.848,0,0,1,.333.037,6,6,0,0,0-.192.572A.914.914,0,0,0,20,13.17a4.443,4.443,0,0,1,.474-1.144,4.511,4.511,0,0,1,3.853-2.2,4.437,4.437,0,0,1,2.42.731,3.713,3.713,0,0,0-.215,1.2.914.914,0,0,0,1.827,0,1.922,1.922,0,1,1,3.843,0,.914.914,0,0,0,1.827,0c0-.07-.017-.137-.021-.207a5.93,5.93,0,0,1,5.41,4.573,3.693,3.693,0,0,0-1.181.589.914.914,0,1,0,1.1,1.462,1.926,1.926,0,0,1,2.825,2.491,1.949,1.949,0,0,1-.865.8.914.914,0,0,0,.389,1.736.9.9,0,0,0,.387-.087,3.752,3.752,0,0,0,.682-.427,3.9,3.9,0,0,1-.773,3.9l-.022.023a3.945,3.945,0,0,1-4.659.855,3.7,3.7,0,0,1-1.083-.815.914.914,0,1,0-1.347,1.234,5.538,5.538,0,0,0,1.6,1.211,5.627,5.627,0,0,0,4.22.39,5.823,5.823,0,0,1-3.762,2.307.914.914,0,0,0,.143,1.815.972.972,0,0,0,.145-.011,7.507,7.507,0,0,0,1.621-.473,8.168,8.168,0,0,1,.681,1.569.942.942,0,0,1,.048.3.986.986,0,0,1-.6.906,1.034,1.034,0,0,1-1.179-.317,5.831,5.831,0,0,0-2.674-1.777c-1.974-.661-2.736-1.252-3.059-1.9a8.77,8.77,0,0,0,1.4-.292.914.914,0,1,0-.537-1.747,6.923,6.923,0,0,1-1.577.29,6.78,6.78,0,0,1-3.027-.457.914.914,0,0,0-1.024.255,3.912,3.912,0,0,1-6.309-4.574.915.915,0,1,0-1.569-.942,5.658,5.658,0,0,0-.731,3.9,5.583,5.583,0,0,1-6.316-7.645,3.683,3.683,0,0,0,.68.542.914.914,0,0,0,.943-1.565ZM9.962,27c.421-.062.856-.117,1.288-.174a7.376,7.376,0,0,0,8.012,3.25A5.722,5.722,0,0,0,28.225,31.6a8.77,8.77,0,0,0,1.907.345c.441,1.674,1.717,2.688,4.4,3.586a4.049,4.049,0,0,1,1.86,1.225,2.91,2.91,0,0,0,2.207,1.037,2.774,2.774,0,0,0,1.084-.221,2.813,2.813,0,0,0,1.707-2.586,2.71,2.71,0,0,0-.139-.864,9.986,9.986,0,0,0-.808-1.859,7.7,7.7,0,0,0,3.036-4.643A5.723,5.723,0,0,0,44,26.88c.306.039.612.074.92.125l3.3,19.836a31.358,31.358,0,0,0-19.864,0V35.406a.914.914,0,1,0-1.827,0V46.845a31.363,31.363,0,0,0-19.864-.007Zm-7.5,23.6a.906.906,0,0,1-.192-.749l4-20.538H7.729L4.862,46.54A1.833,1.833,0,0,0,7.22,48.581a30.562,30.562,0,0,1,15.089-.957l-.272,3.312H3.17a.92.92,0,0,1-.712-.336Zm24.984,2.163c-2.2,0-3.463-.65-3.649-.94l.314-3.791a19.522,19.522,0,0,1,2.94.986.922.922,0,0,0,.395.091.908.908,0,0,0,.4-.091,19.458,19.458,0,0,1,2.939-.992l.314,3.8c-.185.291-1.448.941-3.649.941ZM52.426,50.6a.92.92,0,0,1-.712.336H32.851l-.274-3.318a30.571,30.571,0,0,1,15.095.966,1.833,1.833,0,0,0,2.35-2.045L47.158,29.313h1.462l4,20.536A.906.906,0,0,1,52.426,50.6Z" transform="translate(-0.424 -0.692)"/>
      </g>
    </g>
  </g>
</svg>
