<svg xmlns="http://www.w3.org/2000/svg" width="100.382" height="102.611" viewBox="0 0 100.382 102.611">
  <g id="funcion-cognitiva_4_" data-name="funcion-cognitiva (4)" transform="translate(-5.559)">
    <g id="Grupo_1240543" data-name="Grupo 1240543" transform="translate(7.061 1.503)">
      <g id="Grupo_1240542" data-name="Grupo 1240542" transform="translate(0 4.859)">
        <path id="Trazado_1215279" data-name="Trazado 1215279" d="M190.186,347.728l-6.8-39.294H148.044l-7.1,39.294Z" transform="translate(-115.312 -252.982)" fill="#ffbd86"/>
        <path id="Trazado_1215280" data-name="Trazado 1215280" d="M187.033,308.434H151.693l-6.188,34.234a34.313,34.313,0,0,0,26.056-13.341l2.071-2.686a40.657,40.657,0,0,0,15.04-8.736Z" transform="translate(-118.96 -252.982)" fill="#f6a96c"/>
        <path id="Trazado_1215281" data-name="Trazado 1215281" d="M89.985,66.515a34.771,34.771,0,1,0-69.541.333v3.317a15.5,15.5,0,0,1-1.984,7.587L13.379,86.8a2.458,2.458,0,0,0-.279.728,2.344,2.344,0,0,0,1.707,2.727l5.637,1.467-.931,2.868a1.306,1.306,0,0,0,.54,1.5l1.214.775a1.306,1.306,0,0,1,.22,2.025,1.3,1.3,0,0,0-.171,1.633l1.1,1.7a1.307,1.307,0,0,1,.21.71v5.483a6.954,6.954,0,0,0,6.954,6.954h8.9a28.251,28.251,0,0,0,22.37-11l1.888-2.448a7.159,7.159,0,0,1,3.43-2.408,34.785,34.785,0,0,0,23.82-33.009Z" transform="translate(-13.055 -31.744)" fill="#fed2a4"/>
        <path id="Trazado_1215282" data-name="Trazado 1215282" d="M128.2,74.3a34.784,34.784,0,0,0-23.269-32.821,8.758,8.758,0,0,0,1,6.706,8.813,8.813,0,0,0,0,17.1,8.813,8.813,0,0,0,12.094,12.094,8.789,8.789,0,0,0,1.524,3.207,4.045,4.045,0,0,1,.3,4.386,34.872,34.872,0,0,1-19.626,16.293,6.961,6.961,0,0,0-3.33,2.375l-1.888,2.448a28.251,28.251,0,0,1-22.37,11h-8.9a6.927,6.927,0,0,1-2.9-.633,6.953,6.953,0,0,0,6.948,6.707h8.9a28.251,28.251,0,0,0,22.37-11l1.888-2.448a7.162,7.162,0,0,1,3.43-2.408A34.784,34.784,0,0,0,128.2,74.3Z" transform="translate(-51.271 -39.525)" fill="#ffbd86"/>
      </g>
      <path id="Trazado_1215283" data-name="Trazado 1215283" d="M232.392,234l4.138,7.172a14.464,14.464,0,0,1,1.936,7.228v.986a1.62,1.62,0,0,0,1.62,1.62h3.239a1.62,1.62,0,0,0,1.619-1.62V234Z" transform="translate(-188.434 -188.606)" fill="#fe646f"/>
      <path id="Trazado_1215284" data-name="Trazado 1215284" d="M155.337,85.581a8.461,8.461,0,0,0-4.108-7.259,5.491,5.491,0,0,0-4.613-5.285,12.689,12.689,0,0,0-8.819-5.122,5.49,5.49,0,0,0-7.177-1.994,8.463,8.463,0,0,0-11.046,1.819,7.324,7.324,0,0,0-9.89,6.858,5.491,5.491,0,0,0-4.092,9.152,5.491,5.491,0,0,0,5.918,8.84,7.32,7.32,0,0,0,11.35,5.53,8.47,8.47,0,0,0,9.111,2.266,12.7,12.7,0,0,0,20.959-8.9,8.435,8.435,0,0,0,2.408-5.911Z" transform="translate(-85.928 -53.181)" fill="#fe99a0"/>
      <path id="Trazado_1215285" data-name="Trazado 1215285" d="M271.485,104.6a8.464,8.464,0,0,0-1.7-13.169,5.491,5.491,0,0,0-4.613-5.285,12.689,12.689,0,0,0-8.8-5.12,8.823,8.823,0,0,0,2.292,15.748.4.4,0,0,1,.237.574,8.816,8.816,0,0,0,11.26,12.21,12.636,12.636,0,0,0,1.326-4.958Z" transform="translate(-204.483 -66.295)" fill="#fd8087"/>
      <path id="Trazado_1215286" data-name="Trazado 1215286" d="M322.86,29.567a3.548,3.548,0,0,0-3-3.506l-4.037-.631a15.488,15.488,0,0,0-1.478-3.565l2.41-3.3a3.548,3.548,0,0,0-4.957-4.958l-3.3,2.41a15.488,15.488,0,0,0-3.565-1.478L304.3,10.5a3.548,3.548,0,0,0-7.011,0l-.631,4.037a15.485,15.485,0,0,0-3.565,1.478l-3.3-2.41a3.548,3.548,0,0,0-4.957,4.958l2.41,3.3a15.49,15.49,0,0,0-1.478,3.565l-4.037.631a3.548,3.548,0,0,0,0,7.011l4.037.631a15.487,15.487,0,0,0,1.478,3.565l-2.41,3.3a3.548,3.548,0,0,0,4.958,4.958l3.3-2.41a15.489,15.489,0,0,0,3.565,1.478l.631,4.037a3.548,3.548,0,0,0,7.011,0l.631-4.037a15.485,15.485,0,0,0,3.565-1.478l3.3,2.41a3.548,3.548,0,0,0,4.958-4.958l-2.41-3.3a15.486,15.486,0,0,0,1.478-3.565l4.037-.631a3.549,3.549,0,0,0,3-3.506Z" transform="translate(-225.482 -7.5)" fill="#80d261"/>
      <path id="Trazado_1215287" data-name="Trazado 1215287" d="M391.9,47.7l-4.037-.631a15.489,15.489,0,0,0-1.478-3.565l2.41-3.3a3.548,3.548,0,0,0-4.957-4.957l-2.277,1.662A19.925,19.925,0,0,1,368.829,67.05l.5,3.224a3.548,3.548,0,0,0,7.011,0l.631-4.037a15.485,15.485,0,0,0,3.565-1.478l3.3,2.41a3.548,3.548,0,0,0,4.958-4.957l-2.41-3.3a15.487,15.487,0,0,0,1.478-3.565l4.037-.631a3.548,3.548,0,0,0,0-7.012Z" transform="translate(-297.528 -29.14)" fill="#68ca44"/>
      <circle id="Elipse_12780" data-name="Elipse 12780" cx="6.478" cy="6.478" r="6.478" transform="translate(68.832 15.589)" fill="#4fc123"/>
    </g>
    <g id="Grupo_1240544" data-name="Grupo 1240544" transform="translate(5.559 0)">
      <path id="Trazado_1215288" data-name="Trazado 1215288" d="M369.55,425.446a1.5,1.5,0,0,0-2.962.513l2.525,14.59a1.5,1.5,0,0,0,1.479,1.247,1.531,1.531,0,0,0,.258-.022,1.5,1.5,0,0,0,1.225-1.738Z" transform="translate(-294.216 -339.184)"/>
      <path id="Trazado_1215289" data-name="Trazado 1215289" d="M101.67,18.579l-3.108-.486a17.02,17.02,0,0,0-.87-2.1l1.855-2.542a5.051,5.051,0,0,0-7.058-7.058L89.947,8.25a17.021,17.021,0,0,0-2.1-.87l-.486-3.108a5.051,5.051,0,0,0-9.981,0L76.9,7.379a17.036,17.036,0,0,0-2.1.87L72.254,6.395a5.026,5.026,0,0,0-6.549.509,5.087,5.087,0,0,0-1,1.422A36.356,36.356,0,0,0,49.226,4.858H49.2A35.716,35.716,0,0,0,27.853,11.9a1.5,1.5,0,1,0,1.786,2.418A32.73,32.73,0,0,1,49.2,7.864h.023a33.316,33.316,0,0,1,15.1,3.624,5.071,5.071,0,0,0,.871,1.965l1.855,2.542a17.02,17.02,0,0,0-.738,1.728,14.031,14.031,0,0,0-6.527-2.885,6.947,6.947,0,0,0-5.525-2.705,7.02,7.02,0,0,0-2.418.432,9.969,9.969,0,0,0-11.607,1.782,8.825,8.825,0,0,0-10.817,7.21,6.993,6.993,0,0,0-4.562,10.515,6.993,6.993,0,0,0,5.96,10.656q.312,0,.621-.028a8.823,8.823,0,0,0,12.318,5.6,9.923,9.923,0,0,0,7.681,2.33l2.416,4.186A12.977,12.977,0,0,1,55.589,61.3v.986A3.126,3.126,0,0,0,58.711,65.4h3.239a3.126,3.126,0,0,0,3.123-3.123V52.795A14.213,14.213,0,0,0,75.522,40.447a9.955,9.955,0,0,0,.714-.928c.218.084.438.165.66.24l.486,3.108a5.022,5.022,0,0,0,4.564,4.252A33.391,33.391,0,0,1,59.7,72.715a8.636,8.636,0,0,0-4.15,2.918L53.664,78.08A26.922,26.922,0,0,1,32.482,88.491H23.588a5.457,5.457,0,0,1-5.451-5.451V77.557a2.846,2.846,0,0,0-.451-1.53l-1.019-1.568a2.811,2.811,0,0,0-.586-4.239L15,69.529l.885-2.724a1.5,1.5,0,0,0-1.051-1.919L9.189,63.418a.836.836,0,0,1-.608-.982,1.019,1.019,0,0,1,.114-.282l5.083-9.05a17.057,17.057,0,0,0,2.176-8.322V41.468a33.7,33.7,0,0,1,8.716-22.644,1.5,1.5,0,1,0-2.23-2.016,36.7,36.7,0,0,0-9.493,24.661v3.315a14.045,14.045,0,0,1-1.791,6.851L6.069,60.691a4.035,4.035,0,0,0-.439,1.168,3.858,3.858,0,0,0,2.8,4.469l4.1,1.065-.439,1.351a2.809,2.809,0,0,0,1.161,3.237l1.016.647a2.827,2.827,0,0,0-.207,3.337l1.07,1.647V83.04A8.467,8.467,0,0,0,23.588,91.5h8.894c.14,0,.28,0,.419-.006l-1.69,9.349a1.5,1.5,0,0,0,1.212,1.747,1.521,1.521,0,0,0,.269.024,1.5,1.5,0,0,0,1.477-1.236l1.823-10.089a29.731,29.731,0,0,0,20.051-11.37l1.885-2.446a5.641,5.641,0,0,1,2.714-1.9A36.165,36.165,0,0,0,74.525,67.1l2.21,12.762a1.5,1.5,0,1,0,2.962-.513l-2.6-15.031a36.225,36.225,0,0,0,8.03-17.993,5.027,5.027,0,0,0,2.238-3.459l.486-3.108a17,17,0,0,0,2.1-.87l2.542,1.855a5.051,5.051,0,0,0,7.058-7.058l-1.855-2.542a17,17,0,0,0,.87-2.1l3.108-.486a5.051,5.051,0,0,0,0-9.981Zm-39.6,43.7a.117.117,0,0,1-.116.116H58.712a.117.117,0,0,1-.117-.116V61.3a15.987,15.987,0,0,0-2.137-7.979l-.687-1.191a14.2,14.2,0,0,0,5.613,1.157q.344,0,.683-.016v9.014Zm-.683-12a11.194,11.194,0,0,1-7.3-2.709,1.5,1.5,0,0,0-1.487-.276A6.963,6.963,0,0,1,45.1,45.429a1.5,1.5,0,0,0-1.944-.237,5.815,5.815,0,0,1-9.017-4.4,1.5,1.5,0,0,0-2-1.3,3.986,3.986,0,0,1-4.3-6.419,1.5,1.5,0,0,0,0-2.006,3.987,3.987,0,0,1,2.972-6.647,1.5,1.5,0,0,0,1.5-1.5,5.817,5.817,0,0,1,7.859-5.449,1.5,1.5,0,0,0,1.691-.456,6.96,6.96,0,0,1,9.084-1.5,1.5,1.5,0,0,0,1.485.063,3.985,3.985,0,0,1,5.213,1.449,1.5,1.5,0,0,0,1.109.7,11.126,11.126,0,0,1,3.575,1.024,5.049,5.049,0,0,0,.737,9.805l3.108.486a17,17,0,0,0,.87,2.1L65.2,33.687a5.051,5.051,0,0,0,7.058,7.058l.223-.163A11.2,11.2,0,0,1,61.384,50.278ZM101.206,25.59l-4.037.631a1.5,1.5,0,0,0-1.217,1.087,14,14,0,0,1-1.335,3.219,1.5,1.5,0,0,0,.092,1.63l2.41,3.3a2.045,2.045,0,0,1-2.857,2.857l-3.3-2.409a1.5,1.5,0,0,0-1.63-.092A14,14,0,0,1,86.11,37.15a1.5,1.5,0,0,0-1.087,1.217L84.393,42.4a2.045,2.045,0,0,1-4.041,0l-.631-4.037a1.5,1.5,0,0,0-1.087-1.217,14,14,0,0,1-3.219-1.335,1.5,1.5,0,0,0-1.63.092l-3.3,2.409a2.045,2.045,0,0,1-2.857-2.857l2.41-3.3a1.5,1.5,0,0,0,.092-1.63,14.008,14.008,0,0,1-1.335-3.219,1.5,1.5,0,0,0-1.217-1.087l-4.037-.631a2.045,2.045,0,0,1,0-4.041l4.037-.631a1.5,1.5,0,0,0,1.217-1.087,14,14,0,0,1,1.335-3.219,1.5,1.5,0,0,0-.092-1.63l-2.41-3.3a2.045,2.045,0,0,1,2.857-2.857l3.3,2.41a1.5,1.5,0,0,0,1.63.092A14,14,0,0,1,78.634,9.99a1.5,1.5,0,0,0,1.087-1.217l.631-4.037a2.045,2.045,0,0,1,4.041,0l.631,4.037A1.5,1.5,0,0,0,86.11,9.99a13.994,13.994,0,0,1,3.219,1.335,1.5,1.5,0,0,0,1.63-.092l3.3-2.41a2.045,2.045,0,0,1,2.857,2.857l-2.41,3.3a1.5,1.5,0,0,0-.092,1.63,14,14,0,0,1,1.335,3.219,1.5,1.5,0,0,0,1.218,1.087l4.037.631a2.045,2.045,0,0,1,0,4.041Z" transform="translate(-5.559 0)"/>
      <path id="Trazado_1215290" data-name="Trazado 1215290" d="M361.861,81.264a1.5,1.5,0,0,0-.556,2.052,4.976,4.976,0,1,1-4.574-2.494,1.5,1.5,0,1,0-.153-3,7.979,7.979,0,1,0,7.334,4,1.5,1.5,0,0,0-2.052-.555Z" transform="translate(-280.176 -62.222)"/>
    </g>
  </g>
</svg>
