<svg xmlns="http://www.w3.org/2000/svg" xmlns:xlink="http://www.w3.org/1999/xlink" width="97.533" height="97.533" viewBox="0 0 97.533 97.533">
  <defs>
    <filter id="Trazado_982547" x="0" y="0" width="97.533" height="97.533" filterUnits="userSpaceOnUse">
      <feOffset dy="3" input="SourceAlpha"/>
      <feGaussianBlur stdDeviation="3" result="blur"/>
      <feFlood flood-opacity="0.161"/>
      <feComposite operator="in" in2="blur"/>
      <feComposite in="SourceGraphic"/>
    </filter>
  </defs>
  <g id="Grupo_1240676" data-name="Grupo 1240676" transform="translate(-190.966 -4621.724)">
    <g id="Grupo_1224767" data-name="Grupo 1224767" transform="translate(-0.001 3721.724)">
      <g id="Grupo_1203701" data-name="Grupo 1203701" transform="translate(199.967 906)">
        <g id="Grupo_1203355" data-name="Grupo 1203355" transform="translate(0)">
          <g id="Grupo_1202156" data-name="Grupo 1202156">
            <g id="Grupo_1177900" data-name="Grupo 1177900">
              <g id="Grupo_1172010" data-name="Grupo 1172010">
                <g id="Grupo_1171046" data-name="Grupo 1171046">
                  <g id="Grupo_1148525" data-name="Grupo 1148525">
                    <g transform="matrix(1, 0, 0, 1, -9, -6)" filter="url(#Trazado_982547)">
                      <g id="Trazado_982547-2" data-name="Trazado 982547" transform="translate(9 6)" fill="#fdfbec">
                        <path d="M 39.7666015625 78.033203125 C 34.59997940063477 78.033203125 29.58870124816895 77.02164459228516 24.87196731567383 75.02663421630859 C 20.31538963317871 73.099365234375 16.22284507751465 70.34000396728516 12.70802402496338 66.82518005371094 C 9.193202018737793 63.31035614013672 6.433835029602051 59.21781158447266 4.506568431854248 54.66123580932617 C 2.511557102203369 49.94449996948242 1.500001549720764 44.93322372436523 1.500001549720764 39.7666015625 C 1.500001549720764 34.59997940063477 2.511557102203369 29.58870124816895 4.506568431854248 24.87196731567383 C 6.433835029602051 20.31538963317871 9.193202018737793 16.22284507751465 12.70802402496338 12.70802402496338 C 16.22284507751465 9.193202018737793 20.31538963317871 6.433835029602051 24.87196731567383 4.506568431854248 C 29.58870124816895 2.511557102203369 34.59997940063477 1.500001549720764 39.7666015625 1.500001549720764 C 44.93322372436523 1.500001549720764 49.94449996948242 2.511557102203369 54.66123580932617 4.506568431854248 C 59.21781158447266 6.433835029602051 63.31035614013672 9.193202018737793 66.82518005371094 12.70802402496338 C 70.34000396728516 16.22284507751465 73.099365234375 20.31538963317871 75.02663421630859 24.87196731567383 C 77.02164459228516 29.58870124816895 78.033203125 34.59997940063477 78.033203125 39.7666015625 C 78.033203125 44.93322372436523 77.02164459228516 49.94449996948242 75.02663421630859 54.66123580932617 C 73.099365234375 59.21781158447266 70.34000396728516 63.31035614013672 66.82518005371094 66.82518005371094 C 63.31035614013672 70.34000396728516 59.21781158447266 73.099365234375 54.66123580932617 75.02663421630859 C 49.94449996948242 77.02164459228516 44.93322372436523 78.033203125 39.7666015625 78.033203125 Z" stroke="none"/>
                        <path d="M 39.7666015625 3 C 34.80181503295898 3 29.98714065551758 3.971687316894531 25.45630264282227 5.888076782226562 C 21.07851409912109 7.739715576171875 17.146240234375 10.39113616943359 13.76869201660156 13.76869201660156 C 10.39113616943359 17.146240234375 7.739715576171875 21.07851409912109 5.888076782226562 25.45630264282227 C 3.971687316894531 29.98714065551758 3 34.80181503295898 3 39.7666015625 C 3 44.73138809204102 3.971687316894531 49.54606628417969 5.888076782226562 54.076904296875 C 7.739715576171875 58.45468902587891 10.39113616943359 62.386962890625 13.76869201660156 65.76451110839844 C 17.146240234375 69.14206695556641 21.07851409912109 71.79348754882812 25.45630264282227 73.64512634277344 C 29.98714065551758 75.56151580810547 34.80181503295898 76.533203125 39.7666015625 76.533203125 C 44.73138809204102 76.533203125 49.54606628417969 75.56151580810547 54.076904296875 73.64512634277344 C 58.45468902587891 71.79348754882812 62.386962890625 69.14206695556641 65.76451110839844 65.76451110839844 C 69.14206695556641 62.386962890625 71.79348754882812 58.45468902587891 73.64512634277344 54.076904296875 C 75.56151580810547 49.54606628417969 76.533203125 44.73138809204102 76.533203125 39.7666015625 C 76.533203125 34.80181503295898 75.56151580810547 29.98714065551758 73.64512634277344 25.45630264282227 C 71.79348754882812 21.07851409912109 69.14206695556641 17.146240234375 65.76451110839844 13.76869201660156 C 62.386962890625 10.39113616943359 58.45468902587891 7.739715576171875 54.076904296875 5.888076782226562 C 49.54606628417969 3.971687316894531 44.73138809204102 3 39.7666015625 3 M 39.7666015625 0 C 61.72908782958984 0 79.533203125 17.80411529541016 79.533203125 39.7666015625 C 79.533203125 61.72908782958984 61.72908782958984 79.533203125 39.7666015625 79.533203125 C 17.80411529541016 79.533203125 0 61.72908782958984 0 39.7666015625 C 0 17.80411529541016 17.80411529541016 0 39.7666015625 0 Z" stroke="none" fill="#83793c"/>
                      </g>
                    </g>
                  </g>
                </g>
              </g>
            </g>
          </g>
        </g>
      </g>
    </g>
    <g id="cognitivo_4_" data-name="cognitivo (4)" transform="translate(181.081 4629.957)">
      <g id="Grupo_1240675" data-name="Grupo 1240675" transform="translate(38.004 18.843)">
        <g id="Grupo_1240672" data-name="Grupo 1240672" transform="translate(21.579 0)">
          <path id="Trazado_1215496" data-name="Trazado 1215496" d="M263.558,96h2.668l1.258,3.267a16.826,16.826,0,0,1,4.927,2.043l3.2-1.422,3.774,3.773-1.422,3.2a16.823,16.823,0,0,1,2.043,4.928l3.267,1.257v5.337l-3.267,1.258a16.83,16.83,0,0,1-2.043,4.927l1.422,3.2-3.774,3.774-3.2-1.422a16.822,16.822,0,0,1-4.928,2.043l-1.257,3.267h-2.668V125.023a9.307,9.307,0,1,0,0-18.614Z" transform="translate(-263.558 -96)" fill="#ffe177" fill-rule="evenodd"/>
          <path id="Trazado_1215497" data-name="Trazado 1215497" d="M277.964,124.569l1.422,3.2-.51.511-1.33-2.994Q277.763,124.933,277.964,124.569Zm0-17.707a16.822,16.822,0,0,1,2.043,4.928l3.266,1.257v1.66l-3.266-1.257a22.4,22.4,0,0,0-2.461-5.647ZM263.557,96h2.668l1.258,3.267a16.826,16.826,0,0,1,4.927,2.043l3.2-1.422,3.773,3.773-.511,1.15-3.263-3.263-3.2,1.422a16.827,16.827,0,0,0-4.927-2.043l-1.258-3.267h-2.668V96Z" transform="translate(-263.557 -96)" fill="#ffd064" fill-rule="evenodd"/>
        </g>
        <g id="Grupo_1240673" data-name="Grupo 1240673" transform="translate(0 0)">
          <path id="Trazado_1215498" data-name="Trazado 1215498" d="M101.379,99.081a4.44,4.44,0,0,0-4.05,3.41,4.434,4.434,0,0,0-5.471,4.182,4.442,4.442,0,0,0-3.417,4.308,4.728,4.728,0,0,0,4.719,4.735H105.6a4.425,4.425,0,0,0,4.425-4.425V100.424a4.425,4.425,0,0,0-8.642-1.343Z" transform="translate(-88.441 -95.999)" fill="#fe646f" fill-rule="evenodd"/>
          <path id="Trazado_1215499" data-name="Trazado 1215499" d="M147.532,102.367a4.356,4.356,0,0,0-.462.041c.143.02.287.048.431.083.01-.042.02-.083.031-.124Zm8.235,13.349H157a4.425,4.425,0,0,0,4.425-4.425V100.424a4.427,4.427,0,0,0-5.043-4.381,4.44,4.44,0,0,1,3.811,4.381v10.867A4.424,4.424,0,0,1,155.768,115.715Z" transform="translate(-139.845 -95.999)" fill="#fd4755" fill-rule="evenodd"/>
        </g>
        <g id="Grupo_1240674" data-name="Grupo 1240674" transform="translate(0 19.716)">
          <path id="Trazado_1215500" data-name="Trazado 1215500" d="M101.379,272.633a4.44,4.44,0,0,1-4.05-3.41,4.434,4.434,0,0,1-5.471-4.182,4.442,4.442,0,0,1-3.417-4.308A4.728,4.728,0,0,1,93.16,256H105.6a4.425,4.425,0,0,1,4.425,4.425V271.29a4.425,4.425,0,0,1-8.642,1.343Z" transform="translate(-88.441 -255.998)" fill="#fe646f" fill-rule="evenodd"/>
          <path id="Trazado_1215501" data-name="Trazado 1215501" d="M147.532,269.349a4.354,4.354,0,0,1-.462-.041c.143-.02.287-.048.431-.083.01.042.02.083.031.124ZM155.768,256H157a4.425,4.425,0,0,1,4.425,4.425v10.867a4.427,4.427,0,0,1-5.043,4.381,4.44,4.44,0,0,0,3.811-4.381V260.425A4.424,4.424,0,0,0,155.768,256Z" transform="translate(-139.845 -256)" fill="#fd4755" fill-rule="evenodd"/>
        </g>
      </g>
      <path id="Trazado_1215502" data-name="Trazado 1215502" d="M55.119,45.287a.985.985,0,0,0-1.394-.038,3.416,3.416,0,0,1-3.258.826,3.457,3.457,0,0,1-2.495-2.71.986.986,0,0,0-1.941.353,5.427,5.427,0,0,0,5.341,4.45,5.377,5.377,0,0,0,3.708-1.488A.986.986,0,0,0,55.119,45.287Zm.039,12a3.438,3.438,0,0,1-2.583-5.71.985.985,0,1,0-1.48-1.3,5.435,5.435,0,0,0-1.343,3.612,3.465,3.465,0,0,1-1.9-2.332.986.986,0,0,0-1.194-.732,3.3,3.3,0,0,1-3.014-5.743.986.986,0,0,0-1.266-1.512,5.429,5.429,0,0,0-1.731,2.655,3.473,3.473,0,0,1-1.657-2.933,3.746,3.746,0,0,1,3.734-3.749h8.258a5.445,5.445,0,0,0-.6.9.985.985,0,1,0,1.74.926A3.44,3.44,0,0,1,58.6,42.983V53.855a3.444,3.444,0,0,1-3.439,3.435ZM42.723,37.574h8.258a5.441,5.441,0,0,1-.6-.9.985.985,0,1,1,1.74-.926A3.44,3.44,0,0,0,58.6,34.134V23.262a3.44,3.44,0,1,0-6.022,2.276.985.985,0,1,1-1.48,1.3,5.432,5.432,0,0,1-1.343-3.612,3.467,3.467,0,0,0-1.9,2.333.986.986,0,0,1-1.194.732,3.371,3.371,0,0,0-.811-.1,3.281,3.281,0,0,0-2.2,5.843.986.986,0,0,1-1.266,1.512,5.435,5.435,0,0,1-1.731-2.655,3.469,3.469,0,0,0-1.657,2.931A3.746,3.746,0,0,0,42.723,37.574ZM60.569,19.829v8.486a10.292,10.292,0,0,1,0,20.489V57.29h1.006l1.014-2.635a.982.982,0,0,1,.691-.6,15.829,15.829,0,0,0,4.639-1.923.983.983,0,0,1,.918-.061l2.582,1.147L74.235,50.4l-1.147-2.583a.988.988,0,0,1,.061-.917,15.832,15.832,0,0,0,1.923-4.639.989.989,0,0,1,.606-.691l2.636-1.014V36.568l-2.636-1.014a.984.984,0,0,1-.6-.693,15.817,15.817,0,0,0-1.924-4.639.985.985,0,0,1-.061-.917l1.146-2.583-2.816-2.816-2.583,1.147a.985.985,0,0,1-.916-.061,15.857,15.857,0,0,0-4.639-1.923.985.985,0,0,1-.691-.6l-1.014-2.636Zm-2.3,18.73a5.406,5.406,0,0,1,2.3,4.424v3.836a8.319,8.319,0,0,0,0-16.521v3.836A5.407,5.407,0,0,1,58.266,38.559Zm-3.108,20.7A5.389,5.389,0,0,1,50.235,56.1a5.46,5.46,0,0,1-4.017-3.216A5.43,5.43,0,0,1,40.5,48.347a5.469,5.469,0,0,1-3.483-5.054,5.723,5.723,0,0,1,2.507-4.735,5.723,5.723,0,0,1-2.507-4.735A5.469,5.469,0,0,1,40.5,28.77a5.432,5.432,0,0,1,5.717-4.536,5.465,5.465,0,0,1,4.017-3.217A5.41,5.41,0,0,1,58.6,19.093v-.25a.986.986,0,0,1,.986-.986h2.667a.985.985,0,0,1,.92.631l1.074,2.791A17.747,17.747,0,0,1,68.5,23.045l2.735-1.215a.986.986,0,0,1,1.1.2l3.773,3.774a.987.987,0,0,1,.2,1.1L75.1,29.639A17.75,17.75,0,0,1,76.862,33.9l2.792,1.075a.985.985,0,0,1,.632.919v5.337a.987.987,0,0,1-.632.921l-2.792,1.075A17.812,17.812,0,0,1,75.1,47.479l1.215,2.735a.986.986,0,0,1-.2,1.1l-3.773,3.774a.988.988,0,0,1-1.1.2L68.5,54.073a17.782,17.782,0,0,1-4.257,1.766l-1.073,2.79a.988.988,0,0,1-.921.632H59.583a.986.986,0,0,1-.986-.986v-.251a5.385,5.385,0,0,1-3.439,1.237Zm-9.327,1.651a.986.986,0,0,1-.493,1.841.971.971,0,0,1-.491-.132A27.729,27.729,0,0,1,30.915,38.559,27.738,27.738,0,0,1,58.652,10.822c.905,0,1.814.047,2.716.135l-1.3-1.264a.985.985,0,1,1,1.371-1.416l3.545,3.432a.986.986,0,0,1-.162,1.544l-4.182,2.618a.975.975,0,0,1-.523.151.986.986,0,0,1-.525-1.822l1.983-1.241A25.768,25.768,0,0,0,45.831,60.913ZM82.543,24.461A27.739,27.739,0,0,1,58.652,66.3c-.906,0-1.814-.046-2.716-.135l1.3,1.264a.986.986,0,1,1-1.372,1.416l-3.545-3.432a.985.985,0,0,1,.163-1.543l4.182-2.619a.986.986,0,0,1,1.046,1.67l-1.98,1.241A25.768,25.768,0,0,0,71.472,16.205a.986.986,0,0,1,.982-1.709,27.9,27.9,0,0,1,10.088,9.965ZM50.467,31.042a3.456,3.456,0,0,0-2.495,2.71.986.986,0,0,1-.97.809.906.906,0,0,1-.176-.016.985.985,0,0,1-.8-1.146,5.44,5.44,0,0,1,3.925-4.261,5.378,5.378,0,0,1,5.124,1.3.985.985,0,1,1-1.355,1.43A3.421,3.421,0,0,0,50.467,31.042Z" transform="translate(0 0)" fill-rule="evenodd"/>
    </g>
  </g>
</svg>
