<svg xmlns="http://www.w3.org/2000/svg" xmlns:xlink="http://www.w3.org/1999/xlink" width="295" height="403" viewBox="0 0 295 403">
  <defs>
    <clipPath id="clip-path">
      <rect id="Rectángulo_423832" data-name="Rectángulo 423832" width="295" height="403" transform="translate(1124.999 5053.724)" fill="#fff" stroke="#707070" stroke-width="1"/>
    </clipPath>
  </defs>
  <g id="Grupo_1241033" data-name="Grupo 1241033" transform="translate(-1124.999 -5053.724)">
    <rect id="Rectángulo_423998" data-name="Rectángulo 423998" width="258" height="330" transform="translate(1125 5054)" fill="#edf3fc"/>
    <g id="Enmascarar_grupo_1211465" data-name="Enmascarar grupo 1211465" clip-path="url(#clip-path)">
      <g id="Grupo_1240707" data-name="Grupo 1240707" transform="translate(6043.999 518.615)">
        <g id="Grupo_1240701" data-name="Grupo 1240701" transform="translate(-4919 4535.723)">
          <rect id="Rectángulo_423923" data-name="Rectángulo 423923" width="207.002" height="199.362" transform="translate(0 0)" fill="#f6e2d8"/>
          <rect id="Rectángulo_423924" data-name="Rectángulo 423924" width="63.3" height="199.362" transform="translate(143.702 0)" fill="#ffbdca"/>
          <rect id="Rectángulo_423925" data-name="Rectángulo 423925" width="63.3" height="36.652" transform="translate(143.702 22.623)" fill="#ff6987"/>
          <g id="Grupo_1240700" data-name="Grupo 1240700" transform="translate(15.168 29.825)">
            <g id="Grupo_1240699" data-name="Grupo 1240699">
              <path id="Trazado_1215503" data-name="Trazado 1215503" d="M931.317,532.959a2.587,2.587,0,0,1,.011.422.683.683,0,0,1-.055.3.256.256,0,0,1-.212.1,1.661,1.661,0,0,0-.233-.015q-.645.03-1.289.03h-1.29a.471.471,0,0,1-.411-.145,1.326,1.326,0,0,1-.122-.61q-.068-2.265-.067-4.559-.023-1.452,0-2.875t.022-2.875v-.349a2.166,2.166,0,0,0-.022-.32.337.337,0,0,0-.1-.232c-.052-.039-.115-.01-.189.086-.074.078-.152.156-.233.233a2.261,2.261,0,0,0-.233.261c-.251.272-.507.557-.767.857s-.522.586-.789.857q-.312.321-.5.3c-.126-.009-.278-.14-.456-.392q-.378-.551-.733-1.132t-.734-1.162a.731.731,0,0,1,.044-.9l.467-.552q.222-.261.445-.58a19.431,19.431,0,0,1,1.689-2.034q.888-.929,1.822-1.887a2.435,2.435,0,0,1,.456-.378.818.818,0,0,1,.522-.116q.667,0,1.3-.028a9.617,9.617,0,0,1,1.3.028c.207.02.333.058.377.116a1.35,1.35,0,0,1,.09.552q0,.436-.011.9t-.012.9q0,1.018.012,2t.011,1.975q-.045,3.049-.067,5.489,0,1.046-.011,2.047t-.023,1.8q-.011.8-.011,1.307C931.317,532.732,931.317,532.921,931.317,532.959Z" transform="translate(-914.423 -515.262)" fill="#fff"/>
              <path id="Trazado_1215504" data-name="Trazado 1215504" d="M1113.377,538.594h-4.068a2.877,2.877,0,0,1-.477-.03.392.392,0,0,1-.256-.144.625.625,0,0,1-.1-.349c-.008-.155-.012-.368-.012-.639V536.3q0-.521-.022-1.1a1.594,1.594,0,0,1,.422-1.279l.889-.929q.443-.464.889-.9a16.122,16.122,0,0,0,1.644-1.887,15.753,15.753,0,0,0,1.378-2.237,3.062,3.062,0,0,0,.322-.973,2.476,2.476,0,0,0-.078-1.06q-.244-1.074-1.133-1.162a1.715,1.715,0,0,0-.944.145,2.651,2.651,0,0,0-.811.61q-.378.465-.733,0-.4-.523-.8-1.032t-.8-1.031a.4.4,0,0,1-.122-.349.976.976,0,0,1,.145-.349,6.157,6.157,0,0,1,1.667-1.771,6.284,6.284,0,0,1,2.133-1.032,4.3,4.3,0,0,1,2.289.073,3.162,3.162,0,0,1,1.145.6,4.514,4.514,0,0,1,.9.973,5.712,5.712,0,0,1,.623,1.191,5.788,5.788,0,0,1,.333,1.278,9.828,9.828,0,0,1-.3,4.5,11.1,11.1,0,0,1-2.033,3.63q-.333.408-.678.8t-.677.8a.339.339,0,0,0-.056.174c-.007.078-.011.145-.011.2,0,.02.025.044.078.073a.285.285,0,0,0,.122.044h3.2a1.326,1.326,0,0,0,.211-.015,1.521,1.521,0,0,1,.212-.014q.311-.057.355.349.045.814.011,1.6t-.011,1.568a1.027,1.027,0,0,1-.133.639.849.849,0,0,1-.489.2h-.956c-.3,0-.629-.006-1-.015l-1.066-.028c-.341-.009-.627-.015-.856-.015S1113.377,538.575,1113.377,538.594Z" transform="translate(-1074.357 -519.206)" fill="#fff"/>
              <path id="Trazado_1215505" data-name="Trazado 1215505" d="M1275.971,540.025a2.545,2.545,0,0,1-1.056-.261q-.567-.262-1.078-.524a6.427,6.427,0,0,1-1.467-.987q-.689-.61-1.378-1.249a1.184,1.184,0,0,1-.189-.261.416.416,0,0,1,.033-.378l1.334-2.614c.1-.213.237-.241.4-.086.193.174.378.349.555.522s.356.349.533.524a4.464,4.464,0,0,0,1.234.624,4.949,4.949,0,0,0,1.256.217,1.447,1.447,0,0,0,.967-.247,1.881,1.881,0,0,0,.722-.885,1.83,1.83,0,0,0,.111-.653,2.718,2.718,0,0,0-.089-.7,2.154,2.154,0,0,0-.267-.61,1.353,1.353,0,0,0-.967-.639,3.155,3.155,0,0,0-.677-.014.989.989,0,0,1-.289-.2.656.656,0,0,1-.133-.407,5.029,5.029,0,0,1-.034-.755,5.719,5.719,0,0,0-.033-.785.805.805,0,0,1,.4-.841l.412-.161c.126-.047.248-.1.366-.144a3.013,3.013,0,0,0,.356-.175,3.061,3.061,0,0,0,.422-.3.825.825,0,0,0,.211-.349,3.745,3.745,0,0,0,.166-.58,4.736,4.736,0,0,0,.089-.625,2.607,2.607,0,0,0,0-.479,1.961,1.961,0,0,0-.178-.422,1.2,1.2,0,0,0-.389-.421,1.083,1.083,0,0,0-.622-.174,1.634,1.634,0,0,0-.856.319,3.73,3.73,0,0,0-.578.6,2.12,2.12,0,0,1-.533.508.831.831,0,0,1-.445.16c-.1-.01-.237-.111-.4-.3a5.139,5.139,0,0,1-.334-.494c-.1-.174-.214-.349-.333-.522q-.267-.408-.411-.654a.709.709,0,0,1,.033-.872c.1-.144.267-.343.489-.594a10.372,10.372,0,0,1,1.955-1.685,4.105,4.105,0,0,1,2.29-.668,3.436,3.436,0,0,1,2.333.886,5.138,5.138,0,0,1,1.378,2.541,6.254,6.254,0,0,1,.122,2.585,5.267,5.267,0,0,1-.989,2.295.751.751,0,0,0-.156.377q0,.146.222.291a2.842,2.842,0,0,1,.956,1.147,4.8,4.8,0,0,1,.422,1.524,6.926,6.926,0,0,1-.023,1.656,6.283,6.283,0,0,1-.378,1.51q-.2.495-.478,1.249a5.171,5.171,0,0,1-.855,1.467,4.831,4.831,0,0,1-1.567,1.22A5.681,5.681,0,0,1,1275.971,540.025Z" transform="translate(-1214.199 -520.006)" fill="#fff"/>
              <path id="Trazado_1215506" data-name="Trazado 1215506" d="M1460.242,536.869q0,2-.023,3.791t-.022,3.529q0,.465.022.885c.014.281.023.577.023.886a.543.543,0,0,1-.1.435.55.55,0,0,1-.433.087q-.6-.028-1.211,0t-1.212.03a.945.945,0,0,1-.555-.145,1.255,1.255,0,0,1-.111-.7q-.023-.755-.023-1.54t-.022-1.539a1.437,1.437,0,0,0-.122-.639.713.713,0,0,0-.478-.2q-1.289-.087-2.578-.072t-2.533.014a.793.793,0,0,1-.723-.13,1.409,1.409,0,0,1-.256-.857q-.045-.581-.044-1.133t-.022-1.132a1.666,1.666,0,0,1,.288-1.018q1.622-2.265,3.223-4.545t3.2-4.573a.8.8,0,0,1,.822-.436,8.662,8.662,0,0,0,1.223.03,8.473,8.473,0,0,1,1.222.028q.467,0,.467.61c0,.388.008.766.022,1.133s.014.746,0,1.132q-.022,1.569-.011,3.137T1460.242,536.869Zm-4.068.988q.4,0,.4-.464.022-1.51,0-3.05c0-.232-.044-.372-.134-.421s-.193,0-.311.159q-.445.553-.877,1.1t-.856,1.133q-.244.319-.522.638a1.668,1.668,0,0,0-.367.813,3.146,3.146,0,0,0,.4.044l.456.03c.14.009.314.014.522.014h1.289Z" transform="translate(-1368.437 -526.109)" fill="#fff"/>
              <path id="Trazado_1215507" data-name="Trazado 1215507" d="M1647.182,525.877q.867-.028,1.723-.028h1.722c.252,0,.4.028.445.087a1.637,1.637,0,0,1,.133.551q.09.581.178,1.177t.178,1.176a1.1,1.1,0,0,1,.011.261c-.007.078-.011.165-.011.261a.955.955,0,0,1-.134.552.62.62,0,0,1-.444.117c-.475-.039-.956-.063-1.445-.073s-.978,0-1.467.015a.643.643,0,0,0-.522.159,1.508,1.508,0,0,0-.189.654,6.761,6.761,0,0,1-.134.682.887.887,0,0,0,.022.6.237.237,0,0,0,.178.16.5.5,0,0,0,.233-.028c.08-.03.166-.059.255-.087a.847.847,0,0,1,.267-.044,5.445,5.445,0,0,1,1.767.406,4.765,4.765,0,0,1,1.567,1.1,2.95,2.95,0,0,1,.667.988,10.468,10.468,0,0,1,.422,1.22,6.518,6.518,0,0,1,.222,1.815,12.084,12.084,0,0,1-.189,2.12,10.608,10.608,0,0,1-.567,2.018,4.9,4.9,0,0,1-.911,1.539,4.467,4.467,0,0,1-.988.8,8.379,8.379,0,0,1-1.1.538,7.262,7.262,0,0,1-2.9.436,9.2,9.2,0,0,1-2.879-.669,3.142,3.142,0,0,1-.778-.494l-.755-.638a.929.929,0,0,1-.289-1.046q.222-.755.445-1.525t.467-1.524q.155-.464.534-.059a3.982,3.982,0,0,0,1.255,1,5.655,5.655,0,0,0,1.412.48,4.125,4.125,0,0,0,1.289.087,2.481,2.481,0,0,0,1.245-.494,3.617,3.617,0,0,0,.434-.406,2.621,2.621,0,0,0,.366-.524,2.2,2.2,0,0,0,.244-.827,2.939,2.939,0,0,0-.044-.886,2.641,2.641,0,0,0-.3-.8,1.855,1.855,0,0,0-.545-.594,3.069,3.069,0,0,0-.533-.3,1.4,1.4,0,0,0-.578-.131q-.6,0-1.2.044a2.328,2.328,0,0,0-1.178.45.293.293,0,0,1-.445,0,8.462,8.462,0,0,1-.833-.813,1.833,1.833,0,0,1-.4-.727,2.276,2.276,0,0,1-.034-.885q.066-.509.244-1.351.334-1.482.645-2.948t.622-2.947a1.521,1.521,0,0,1,.177-.522.413.413,0,0,1,.422-.145,5.211,5.211,0,0,0,.59.028h1.411Z" transform="translate(-1533.494 -524.377)" fill="#fff"/>
              <path id="Trazado_1215508" data-name="Trazado 1215508" d="M1852.81,536.5a15.5,15.5,0,0,1,.4-3.762,11.873,11.873,0,0,1,1-2.7,7.415,7.415,0,0,1,1.333-1.831,8.769,8.769,0,0,1,1.378-1.118,5.274,5.274,0,0,1,1.134-.566q.488-.159.622-.217a3.242,3.242,0,0,1,.978-.117c.415,0,.826.02,1.233.058a9.081,9.081,0,0,1,1.078.161c.311.067.489.141.534.217a2.057,2.057,0,0,1,.133.566q.067.45.111.988c.03.358.059.711.089,1.06s.052.61.067.784a.7.7,0,0,1-.044.407c-.044.058-.148.069-.311.029-.119-.019-.3-.053-.544-.1a8.134,8.134,0,0,0-.834-.116,6.526,6.526,0,0,0-.978-.015,2.359,2.359,0,0,0-1.556.669,5.539,5.539,0,0,0-.7.769,7.2,7.2,0,0,0-.644,1.016,4.539,4.539,0,0,0-.434,1.205,1,1,0,0,0-.022.232c0,.1.014.156.044.175.03.039.082.044.156.014a.348.348,0,0,0,.156-.1,2.932,2.932,0,0,1,.989-.711,5.844,5.844,0,0,1,1.1-.334,2.86,2.86,0,0,1,1.456.03,5.446,5.446,0,0,1,1.389.639,2.438,2.438,0,0,1,.723.784,6.313,6.313,0,0,1,.566,1.219,8.848,8.848,0,0,1,.378,1.54,10.969,10.969,0,0,1,.134,1.714,7.036,7.036,0,0,1-.59,3.021,6.816,6.816,0,0,1-2.033,2.381,4.552,4.552,0,0,1-2.057.8,4.265,4.265,0,0,1-1.944-.247,5.613,5.613,0,0,1-1.745-1.06,7.758,7.758,0,0,1-1.412-1.642,5.737,5.737,0,0,1-.656-1.407,12.433,12.433,0,0,1-.4-1.612q-.145-.814-.212-1.554C1852.831,537.272,1852.81,536.852,1852.81,536.5Zm6.156,4.037a1.414,1.414,0,0,1,.233.014.723.723,0,0,0,.122.014,1.139,1.139,0,0,0,.945-.479,2.028,2.028,0,0,0,.366-1.263q-.022-1.51-1.289-1.51a1.552,1.552,0,0,0-1.178.668c-.089.136-.174.261-.255.378a4.068,4.068,0,0,0-.233.377,1.2,1.2,0,0,0-.189.9.982.982,0,0,0,.545.639,1.941,1.941,0,0,0,.5.159A3.015,3.015,0,0,1,1858.966,540.54Z" transform="translate(-1715.595 -524.678)" fill="#fff"/>
              <path id="Trazado_1215509" data-name="Trazado 1215509" d="M2060.811,533.593q.867.016,1.733.044a4.236,4.236,0,0,0,.79-.014,3.071,3.071,0,0,1,.789.014.535.535,0,0,1,.4.219,1,1,0,0,1,.156.508,6.226,6.226,0,0,1,.011.987,8.581,8.581,0,0,0-.011.988.428.428,0,0,1-.033.247c-.037.086-.071.169-.1.247a29.459,29.459,0,0,0-1.366,3.224q-.589,1.654-1.167,3.34-.712,2-1.423,3.993t-1.423,3.993a1.961,1.961,0,0,1-.267.494.526.526,0,0,1-.445.2h-3.111q-.378,0-.222-.436c.089-.232.182-.464.278-.7s.189-.466.278-.7q1.023-2.817,2.034-5.563t2.034-5.561a1.826,1.826,0,0,0,.2-.871q-.067-.145-.711-.145H2057q-1.124,0-2.234.03a.613.613,0,0,1-.378-.1.567.567,0,0,1-.156-.422q-.045-.842-.033-1.7t-.011-1.7q-.023-.582.467-.639h.444q.49,0,1.178.014t1.312.015q.623,0,1.49-.03Q2059.944,533.579,2060.811,533.593Z" transform="translate(-1889.07 -531.041)" fill="#fff"/>
              <path id="Trazado_1215510" data-name="Trazado 1215510" d="M921.731,807.964a3.486,3.486,0,0,1,1.656.392,3.708,3.708,0,0,1,1.345,1.321,4.323,4.323,0,0,1,.522,1.307,6.657,6.657,0,0,1,.167,1.495,7.756,7.756,0,0,1-.134,1.468,4.547,4.547,0,0,1-.4,1.22,1.059,1.059,0,0,0-.178.479,1.594,1.594,0,0,0,.267.422,6.914,6.914,0,0,1,1.367,2.541,9.936,9.936,0,0,1,.366,3.064,5.88,5.88,0,0,1-.5,2.164,7.774,7.774,0,0,1-1.133,1.844,5.61,5.61,0,0,1-1.511,1.293,3.547,3.547,0,0,1-1.634.508,5.4,5.4,0,0,1-2.6-.813,6.3,6.3,0,0,1-2.045-1.99,6.548,6.548,0,0,1-.989-2.846,6.23,6.23,0,0,1,.611-3.355,7.4,7.4,0,0,1,1.556-2.352.968.968,0,0,0,.256-.392.741.741,0,0,0-.1-.508,2.9,2.9,0,0,1-.266-.886q-.068-.478-.134-.973a5.3,5.3,0,0,1,.067-1.887,7.694,7.694,0,0,1,.6-1.685,3.415,3.415,0,0,1,1.212-1.365A3.029,3.029,0,0,1,921.731,807.964Zm1.422,13.563a2.736,2.736,0,0,0-.1-.7,4.755,4.755,0,0,0-.255-.726,4.038,4.038,0,0,0-.355-.639,1.615,1.615,0,0,0-.422-.436.3.3,0,0,0-.378-.028,4.112,4.112,0,0,0-.8.682,2.511,2.511,0,0,0-.534,1,1.65,1.65,0,0,0-.066.813,1.671,1.671,0,0,0,.255.711,2.691,2.691,0,0,0,.489.582,1.5,1.5,0,0,0,.6.334,1.1,1.1,0,0,0,.611,0,.945.945,0,0,0,.355-.233,2.008,2.008,0,0,0,.311-.392,2.093,2.093,0,0,0,.212-.464A1.692,1.692,0,0,0,923.154,821.527Zm-1.356-9.759a.892.892,0,0,0-.489.175.591.591,0,0,0-.2.435,4.173,4.173,0,0,0,.089,1.235,1.943,1.943,0,0,0,.556.973.155.155,0,0,0,.133.058.158.158,0,0,0,.134-.058,4.033,4.033,0,0,0,.433-.885,2.589,2.589,0,0,0,.122-1.06C922.531,812.02,922.272,811.73,921.8,811.768Z" transform="translate(-908.806 -767.41)" fill="#fff"/>
              <path id="Trazado_1215511" data-name="Trazado 1215511" d="M1114.805,818.49q-.045,1.278-.166,2.5a14.193,14.193,0,0,1-.456,2.411,7.173,7.173,0,0,1-2.934,4.27,5.025,5.025,0,0,1-6.357-.436c-.163-.135-.334-.271-.511-.406a6.074,6.074,0,0,1-.512-.435.76.76,0,0,1-.089-.9q.311-.668.6-1.365c.192-.466.393-.919.6-1.365a.675.675,0,0,1,.212-.291c.066-.039.174-.009.322.087a15.692,15.692,0,0,0,1.845,1.248,1.914,1.914,0,0,0,1.3.32,4.185,4.185,0,0,0,1.3-.406,2.271,2.271,0,0,0,1.067-1.133,5.268,5.268,0,0,0,.4-1.8c.015-.135-.007-.222-.066-.261s-.127-.019-.2.058a.658.658,0,0,0-.188.145.694.694,0,0,1-.189.145q-2.29,1.743-4.4-.494a9.909,9.909,0,0,1-.811-.958,5.327,5.327,0,0,1-.634-1.132,5.474,5.474,0,0,1-.411-1.438,7.209,7.209,0,0,1-.066-1.6,7.67,7.67,0,0,1,.267-1.554,5.25,5.25,0,0,1,.566-1.337,11.022,11.022,0,0,1,1.156-1.524,4.225,4.225,0,0,1,1.378-1.06,1.861,1.861,0,0,1,.789-.233,6.4,6.4,0,0,1,2.312.189,3.624,3.624,0,0,1,1.034.45,4.381,4.381,0,0,1,1.712,1.99,12.143,12.143,0,0,1,.822,2.744,10.831,10.831,0,0,1,.211,1.771Q1114.739,817.589,1114.805,818.49Zm-4.068-2.73a2.64,2.64,0,0,0-.122-.958,2.123,2.123,0,0,0-.377-.711,1.2,1.2,0,0,0-.556-.378,1.09,1.09,0,0,0-.677.014,1.538,1.538,0,0,0-.556.364,1.056,1.056,0,0,0-.289.654c-.044.31-.093.624-.145.943a1.434,1.434,0,0,0,.211.974,1.582,1.582,0,0,0,.723.624,1.177,1.177,0,0,0,.9.072Q1110.671,817.1,1110.737,815.76Z" transform="translate(-1070.256 -768.743)" fill="#fff"/>
              <g id="Grupo_1240678" data-name="Grupo 1240678" transform="translate(51.724 40.522)">
                <path id="Trazado_1215512" data-name="Trazado 1215512" d="M1244.31,827.757a2.576,2.576,0,0,1,.011.422.678.678,0,0,1-.055.3.256.256,0,0,1-.212.1,1.66,1.66,0,0,0-.233-.015q-.644.03-1.289.03h-1.29a.47.47,0,0,1-.411-.145,1.323,1.323,0,0,1-.122-.61q-.068-2.265-.067-4.559-.023-1.452,0-2.875t.022-2.875v-.349a2.166,2.166,0,0,0-.022-.32.338.338,0,0,0-.1-.232c-.052-.039-.115-.009-.189.086-.074.078-.152.156-.233.233a2.277,2.277,0,0,0-.233.261c-.251.272-.507.557-.767.857s-.522.586-.789.857c-.208.214-.374.316-.5.305s-.278-.14-.456-.392q-.378-.551-.733-1.132t-.733-1.162a.731.731,0,0,1,.044-.9l.467-.552q.222-.261.445-.58a19.489,19.489,0,0,1,1.689-2.034q.888-.929,1.822-1.887a2.436,2.436,0,0,1,.456-.378.817.817,0,0,1,.522-.116q.667,0,1.3-.028a9.636,9.636,0,0,1,1.3.028c.207.02.333.058.377.116a1.358,1.358,0,0,1,.09.552q0,.436-.011.9t-.012.9q0,1.018.012,2t.011,1.975q-.045,3.049-.067,5.489,0,1.046-.011,2.047t-.023,1.8q-.011.8-.011,1.307C1244.31,827.53,1244.31,827.719,1244.31,827.757Z" transform="translate(-1235.775 -809.738)" fill="#fff"/>
                <path id="Trazado_1215513" data-name="Trazado 1215513" d="M1322.68,817.561q-.066.929-.1,1.728t-.123,1.554a11.1,11.1,0,0,1-.8,3.34,6.85,6.85,0,0,1-1.823,2.5,2.438,2.438,0,0,1-1.511.624,5.111,5.111,0,0,1-1.6-.16,4.232,4.232,0,0,1-1.523-.725,7.075,7.075,0,0,1-1.3-1.279,3.973,3.973,0,0,1-.678-1.249,8.419,8.419,0,0,1-.345-1.451,33.628,33.628,0,0,1-.389-4.284,24.263,24.263,0,0,1,.278-4.313q.156-.987.378-1.887a4.854,4.854,0,0,1,.756-1.656c.192-.271.385-.542.578-.813a6.012,6.012,0,0,1,.6-.727,3.237,3.237,0,0,1,2.056-1.016,4.164,4.164,0,0,1,2.189.436,4.492,4.492,0,0,1,2.167,2.062,9.209,9.209,0,0,1,.922,3.31q.111,1.046.167,2.078T1322.68,817.561Zm-3.2.377v-.987q0-.406.011-.857t.012-.769a4.7,4.7,0,0,0-.178-1.293,6.157,6.157,0,0,0-.467-1.176,1.34,1.34,0,0,0-.344-.436,1.277,1.277,0,0,0-.478-.247,1.143,1.143,0,0,0-.544-.014,1,1,0,0,0-.523.319,2.8,2.8,0,0,0-.689,1.118,9.059,9.059,0,0,0-.311,1.321,14,14,0,0,0-.177,2.934q.067,1.452.244,2.933a4.936,4.936,0,0,0,.145.74,3.026,3.026,0,0,0,.278.683,1.448,1.448,0,0,0,.522.61,1.082,1.082,0,0,0,.678.175,1.375,1.375,0,0,0,1.177-.9,9.015,9.015,0,0,0,.356-.9,3.012,3.012,0,0,0,.156-.958,9.866,9.866,0,0,1,.066-1.147A9.741,9.741,0,0,0,1319.479,817.938Z" transform="translate(-1301.854 -807.732)" fill="#fff"/>
              </g>
              <g id="Grupo_1240679" data-name="Grupo 1240679" transform="translate(79.36 40.845)">
                <path id="Trazado_1215514" data-name="Trazado 1215514" d="M1443.771,827.757a2.588,2.588,0,0,1,.011.422.683.683,0,0,1-.055.3.256.256,0,0,1-.212.1,1.66,1.66,0,0,0-.233-.015q-.644.03-1.289.03h-1.29a.47.47,0,0,1-.411-.145,1.325,1.325,0,0,1-.122-.61q-.068-2.265-.067-4.559-.023-1.452,0-2.875t.022-2.875v-.349a2.167,2.167,0,0,0-.022-.32.338.338,0,0,0-.1-.232c-.052-.039-.115-.009-.189.086-.074.078-.152.156-.233.233a2.267,2.267,0,0,0-.234.261c-.251.272-.507.557-.767.857s-.522.586-.788.857q-.312.321-.5.305c-.126-.01-.278-.14-.456-.392q-.378-.551-.733-1.132t-.733-1.162a.731.731,0,0,1,.044-.9l.467-.552q.223-.261.445-.58a19.473,19.473,0,0,1,1.689-2.034q.888-.929,1.822-1.887a2.436,2.436,0,0,1,.456-.378.818.818,0,0,1,.522-.116q.667,0,1.3-.028a9.636,9.636,0,0,1,1.3.028c.207.02.333.058.377.116a1.354,1.354,0,0,1,.089.552q0,.436-.011.9t-.012.9q0,1.018.012,2t.011,1.975q-.045,3.049-.067,5.489,0,1.046-.011,2.047t-.023,1.8q-.011.8-.011,1.307C1443.771,827.53,1443.771,827.719,1443.771,827.757Z" transform="translate(-1435.235 -810.06)" fill="#fff"/>
                <path id="Trazado_1215515" data-name="Trazado 1215515" d="M1520.452,827.757a2.6,2.6,0,0,1,.011.422.681.681,0,0,1-.055.3.256.256,0,0,1-.212.1,1.662,1.662,0,0,0-.233-.015q-.644.03-1.289.03h-1.29a.47.47,0,0,1-.41-.145,1.321,1.321,0,0,1-.122-.61q-.068-2.265-.067-4.559-.023-1.452,0-2.875t.022-2.875v-.349a2.184,2.184,0,0,0-.022-.32.338.338,0,0,0-.1-.232c-.052-.039-.115-.009-.189.086-.074.078-.152.156-.233.233a2.255,2.255,0,0,0-.233.261c-.251.272-.507.557-.767.857s-.522.586-.789.857q-.312.321-.5.305c-.126-.01-.278-.14-.456-.392q-.378-.551-.733-1.132t-.734-1.162a.731.731,0,0,1,.044-.9l.467-.552q.222-.261.445-.58a19.488,19.488,0,0,1,1.689-2.034q.889-.929,1.822-1.887a2.436,2.436,0,0,1,.456-.378.817.817,0,0,1,.522-.116q.667,0,1.3-.028a9.64,9.64,0,0,1,1.3.028c.207.02.333.058.377.116a1.351,1.351,0,0,1,.09.552q0,.436-.011.9t-.012.9q0,1.018.012,2t.011,1.975q-.045,3.049-.067,5.489,0,1.046-.011,2.047t-.022,1.8q-.011.8-.011,1.307C1520.452,827.53,1520.452,827.719,1520.452,827.757Z" transform="translate(-1501.292 -810.06)" fill="#fff"/>
              </g>
              <g id="Grupo_1240680" data-name="Grupo 1240680" transform="translate(105.439 40.921)">
                <path id="Trazado_1215516" data-name="Trazado 1215516" d="M1632,829.853a2.574,2.574,0,0,1,.011.422.678.678,0,0,1-.055.3.256.256,0,0,1-.212.1,1.643,1.643,0,0,0-.233-.015q-.644.03-1.289.03h-1.29a.47.47,0,0,1-.411-.145,1.324,1.324,0,0,1-.122-.61q-.068-2.265-.067-4.559-.023-1.452,0-2.875t.022-2.875v-.349a2.185,2.185,0,0,0-.022-.32.337.337,0,0,0-.1-.232c-.052-.039-.115-.009-.189.086-.074.078-.152.156-.233.233a2.237,2.237,0,0,0-.233.261q-.377.408-.767.857t-.789.857q-.312.321-.5.3c-.125-.009-.278-.139-.456-.392q-.378-.551-.733-1.132t-.733-1.162a.732.732,0,0,1,.044-.9l.467-.552q.222-.261.445-.58a19.455,19.455,0,0,1,1.689-2.034q.888-.929,1.822-1.887a2.429,2.429,0,0,1,.456-.378.817.817,0,0,1,.522-.116q.668,0,1.3-.028a9.659,9.659,0,0,1,1.3.028c.207.02.333.058.377.116a1.356,1.356,0,0,1,.09.552q0,.436-.011.9t-.012.9q0,1.018.012,2t.011,1.975q-.045,3.049-.067,5.489,0,1.046-.011,2.047t-.023,1.8q-.011.8-.011,1.307T1632,829.853Z" transform="translate(-1623.464 -811.942)" fill="#fff"/>
                <path id="Trazado_1215517" data-name="Trazado 1215517" d="M1705.066,829.367H1701a2.88,2.88,0,0,1-.478-.029.391.391,0,0,1-.256-.144.624.624,0,0,1-.1-.349c-.008-.155-.012-.368-.012-.639v-1.133q0-.521-.022-1.1a1.594,1.594,0,0,1,.422-1.279l.889-.929q.444-.464.889-.9a16.122,16.122,0,0,0,1.644-1.887,15.776,15.776,0,0,0,1.378-2.237,3.059,3.059,0,0,0,.322-.973,2.472,2.472,0,0,0-.077-1.06q-.245-1.074-1.133-1.162a1.714,1.714,0,0,0-.944.145,2.651,2.651,0,0,0-.811.61q-.378.464-.734,0-.4-.523-.8-1.032t-.8-1.031a.4.4,0,0,1-.122-.349.973.973,0,0,1,.145-.349,6.157,6.157,0,0,1,1.667-1.772,6.282,6.282,0,0,1,2.133-1.032,4.3,4.3,0,0,1,2.289.073,3.157,3.157,0,0,1,1.145.6,4.512,4.512,0,0,1,.9.973,5.716,5.716,0,0,1,.623,1.191,5.818,5.818,0,0,1,.333,1.278,9.833,9.833,0,0,1-.3,4.5,11.1,11.1,0,0,1-2.033,3.63q-.334.408-.678.8t-.677.8a.337.337,0,0,0-.056.174c-.007.078-.011.145-.011.2,0,.02.025.044.078.073a.284.284,0,0,0,.122.044h3.2a1.315,1.315,0,0,0,.211-.015,1.536,1.536,0,0,1,.212-.014q.311-.057.355.349.045.814.011,1.6t-.011,1.568a1.026,1.026,0,0,1-.133.639.851.851,0,0,1-.489.2h-.956c-.3,0-.629-.006-1-.015l-1.066-.029c-.341-.009-.627-.015-.856-.015S1705.066,829.348,1705.066,829.367Z" transform="translate(-1689.506 -810.613)" fill="#fff"/>
              </g>
              <g id="Grupo_1240681" data-name="Grupo 1240681" transform="translate(133.633 40.317)">
                <path id="Trazado_1215518" data-name="Trazado 1215518" d="M1835.492,826.6a2.59,2.59,0,0,1,.011.422.679.679,0,0,1-.055.3.256.256,0,0,1-.211.1,1.655,1.655,0,0,0-.233-.015q-.644.03-1.289.029h-1.29a.47.47,0,0,1-.411-.145,1.324,1.324,0,0,1-.122-.61q-.068-2.265-.067-4.559-.023-1.452,0-2.875t.022-2.875v-.349a2.149,2.149,0,0,0-.022-.32.336.336,0,0,0-.1-.232c-.052-.039-.115-.009-.189.086-.074.078-.152.156-.233.233a2.271,2.271,0,0,0-.233.261q-.377.408-.767.857t-.789.857q-.312.321-.5.3c-.126-.009-.278-.139-.456-.392q-.378-.551-.733-1.132t-.733-1.162a.732.732,0,0,1,.044-.9l.467-.552q.223-.261.445-.58a19.453,19.453,0,0,1,1.689-2.034q.888-.929,1.822-1.887a2.427,2.427,0,0,1,.456-.378.817.817,0,0,1,.522-.116q.668,0,1.3-.028a9.647,9.647,0,0,1,1.3.028c.207.02.333.058.377.116a1.355,1.355,0,0,1,.089.552q0,.436-.011.9t-.012.9q0,1.018.012,2t.011,1.975q-.044,3.049-.067,5.489,0,1.046-.011,2.047t-.023,1.8q-.011.8-.011,1.307Z" transform="translate(-1826.956 -808.536)" fill="#fff"/>
                <path id="Trazado_1215519" data-name="Trazado 1215519" d="M1907.082,825.506a2.543,2.543,0,0,1-1.055-.261q-.567-.262-1.078-.524a6.424,6.424,0,0,1-1.467-.987q-.689-.61-1.378-1.249a1.185,1.185,0,0,1-.189-.261.416.416,0,0,1,.033-.378l1.334-2.614c.1-.213.237-.241.4-.086.193.174.378.349.555.522s.356.349.534.524a4.462,4.462,0,0,0,1.234.624,4.945,4.945,0,0,0,1.256.217,1.446,1.446,0,0,0,.967-.247,1.884,1.884,0,0,0,.723-.885,1.836,1.836,0,0,0,.11-.653,2.728,2.728,0,0,0-.089-.7,2.154,2.154,0,0,0-.267-.61,1.352,1.352,0,0,0-.967-.639,3.16,3.16,0,0,0-.677-.014.988.988,0,0,1-.289-.2.657.657,0,0,1-.133-.406,5.062,5.062,0,0,1-.034-.755,5.682,5.682,0,0,0-.033-.785.806.806,0,0,1,.4-.841c.148-.059.286-.112.412-.161s.248-.1.366-.144a3.006,3.006,0,0,0,.356-.175,3.072,3.072,0,0,0,.422-.3.826.826,0,0,0,.211-.349,3.757,3.757,0,0,0,.167-.58,4.737,4.737,0,0,0,.089-.625,2.607,2.607,0,0,0,0-.479,1.954,1.954,0,0,0-.178-.422,1.2,1.2,0,0,0-.389-.421,1.082,1.082,0,0,0-.622-.174,1.634,1.634,0,0,0-.856.319,3.729,3.729,0,0,0-.578.6,2.122,2.122,0,0,1-.534.508.83.83,0,0,1-.445.16c-.1-.01-.237-.111-.4-.3a5.094,5.094,0,0,1-.334-.494c-.1-.174-.214-.349-.333-.522q-.267-.408-.411-.654a.709.709,0,0,1,.033-.872c.1-.144.267-.343.489-.594a10.373,10.373,0,0,1,1.955-1.685,4.105,4.105,0,0,1,2.29-.668,3.436,3.436,0,0,1,2.333.886,5.137,5.137,0,0,1,1.378,2.541,6.256,6.256,0,0,1,.122,2.585,5.268,5.268,0,0,1-.989,2.3.749.749,0,0,0-.156.377q0,.146.223.291a2.844,2.844,0,0,1,.956,1.147,4.809,4.809,0,0,1,.422,1.525,6.919,6.919,0,0,1-.023,1.656,6.283,6.283,0,0,1-.378,1.51q-.2.495-.477,1.249a5.18,5.18,0,0,1-.856,1.467,4.826,4.826,0,0,1-1.567,1.219A5.68,5.68,0,0,1,1907.082,825.506Z" transform="translate(-1891.502 -806.25)" fill="#fff"/>
              </g>
              <g id="Grupo_1240682" data-name="Grupo 1240682" transform="translate(161.699 40.615)">
                <path id="Trazado_1215520" data-name="Trazado 1215520" d="M2038.059,826.334a2.55,2.55,0,0,1,.011.422.682.682,0,0,1-.055.3.256.256,0,0,1-.212.1,1.673,1.673,0,0,0-.233-.015q-.645.03-1.289.029h-1.29a.47.47,0,0,1-.411-.145,1.323,1.323,0,0,1-.122-.61q-.068-2.266-.067-4.559-.023-1.452,0-2.875t.022-2.875v-.349a2.181,2.181,0,0,0-.022-.32.336.336,0,0,0-.1-.232c-.052-.039-.115-.009-.189.086-.074.078-.152.156-.233.233a2.275,2.275,0,0,0-.233.261q-.377.408-.767.857t-.789.857q-.312.321-.5.3c-.126-.009-.278-.139-.456-.392q-.379-.551-.733-1.132t-.733-1.162a.731.731,0,0,1,.044-.9l.467-.552q.223-.261.445-.58a19.445,19.445,0,0,1,1.689-2.034q.888-.929,1.822-1.887a2.425,2.425,0,0,1,.456-.378.816.816,0,0,1,.522-.116q.667,0,1.3-.029a9.629,9.629,0,0,1,1.3.029c.207.02.333.058.377.116a1.362,1.362,0,0,1,.089.552q0,.436-.011.9t-.012.9q0,1.018.012,2t.011,1.975q-.045,3.049-.067,5.489,0,1.046-.011,2.047t-.023,1.8q-.011.8-.011,1.307Z" transform="translate(-2029.523 -808.605)" fill="#fff"/>
                <path id="Trazado_1215521" data-name="Trazado 1215521" d="M2116.63,817.422q0,2.005-.022,3.791t-.022,3.529q0,.465.022.885c.014.281.022.577.022.886a.543.543,0,0,1-.1.435.55.55,0,0,1-.433.087q-.6-.028-1.211,0c-.408.019-.811.03-1.212.03a.943.943,0,0,1-.555-.145,1.253,1.253,0,0,1-.111-.7q-.023-.755-.023-1.54t-.022-1.539a1.437,1.437,0,0,0-.122-.639.714.714,0,0,0-.478-.2q-1.289-.087-2.578-.072t-2.533.014a.793.793,0,0,1-.723-.13,1.408,1.408,0,0,1-.256-.857q-.045-.581-.044-1.133t-.022-1.132a1.668,1.668,0,0,1,.288-1.017q1.623-2.266,3.223-4.545t3.2-4.574a.8.8,0,0,1,.822-.436,8.66,8.66,0,0,0,1.223.03,8.471,8.471,0,0,1,1.222.028q.467,0,.467.61,0,.582.022,1.133c.014.368.014.746,0,1.132q-.022,1.569-.011,3.136T2116.63,817.422Zm-4.069.988q.4,0,.4-.464.022-1.51,0-3.05c0-.232-.044-.372-.134-.421s-.193,0-.311.16q-.445.553-.877,1.1t-.856,1.133q-.245.319-.522.638a1.665,1.665,0,0,0-.367.813,3.14,3.14,0,0,0,.4.044l.456.029q.21.014.522.014Z" transform="translate(-2095.58 -808.406)" fill="#fff"/>
              </g>
              <g id="Grupo_1240683" data-name="Grupo 1240683" transform="translate(0 75.558)">
                <path id="Trazado_1215522" data-name="Trazado 1215522" d="M870.987,1078.888a2.582,2.582,0,0,1,.011.422.681.681,0,0,1-.055.3.256.256,0,0,1-.212.1,1.645,1.645,0,0,0-.233-.015q-.644.03-1.289.03h-1.29a.47.47,0,0,1-.411-.145,1.324,1.324,0,0,1-.122-.61q-.068-2.266-.067-4.559-.023-1.452,0-2.875t.022-2.875v-.349a2.183,2.183,0,0,0-.022-.32.337.337,0,0,0-.1-.232c-.052-.039-.115-.009-.189.086-.074.078-.152.156-.233.233a2.265,2.265,0,0,0-.233.261q-.377.408-.767.857t-.789.857q-.312.321-.5.305c-.126-.01-.278-.14-.456-.392q-.378-.551-.733-1.132t-.734-1.162a.732.732,0,0,1,.044-.9l.467-.552q.223-.261.445-.58a19.461,19.461,0,0,1,1.689-2.034q.889-.929,1.822-1.887a2.428,2.428,0,0,1,.456-.378.817.817,0,0,1,.522-.116q.667,0,1.3-.028a9.6,9.6,0,0,1,1.3.028c.207.02.333.058.377.116a1.354,1.354,0,0,1,.089.552q0,.436-.011.9t-.012.9q0,1.018.012,2t.011,1.975q-.045,3.049-.067,5.489,0,1.046-.011,2.047t-.023,1.8q-.011.8-.011,1.307T870.987,1078.888Z" transform="translate(-862.452 -1061.11)" fill="#fff"/>
                <path id="Trazado_1215523" data-name="Trazado 1215523" d="M940.207,1060.637q.867-.028,1.723-.028h1.722c.252,0,.4.028.445.087a1.647,1.647,0,0,1,.133.551q.09.581.178,1.177t.178,1.176a1.087,1.087,0,0,1,.011.261c-.007.078-.011.166-.011.261a.957.957,0,0,1-.134.552.62.62,0,0,1-.444.117c-.475-.039-.956-.063-1.445-.073s-.978,0-1.467.015a.643.643,0,0,0-.522.159,1.508,1.508,0,0,0-.189.654,6.752,6.752,0,0,1-.134.682.887.887,0,0,0,.023.6.236.236,0,0,0,.178.159.5.5,0,0,0,.233-.028c.08-.03.166-.059.255-.087a.845.845,0,0,1,.267-.044,5.44,5.44,0,0,1,1.767.406,4.763,4.763,0,0,1,1.567,1.1,2.949,2.949,0,0,1,.667.988,10.4,10.4,0,0,1,.422,1.22,6.513,6.513,0,0,1,.223,1.815,12.089,12.089,0,0,1-.189,2.12,10.612,10.612,0,0,1-.567,2.018,4.9,4.9,0,0,1-.912,1.539,4.465,4.465,0,0,1-.988.8,8.358,8.358,0,0,1-1.1.538,7.26,7.26,0,0,1-2.9.436,9.193,9.193,0,0,1-2.879-.669,3.133,3.133,0,0,1-.778-.494l-.755-.638a.928.928,0,0,1-.289-1.046q.223-.755.445-1.524t.467-1.525q.155-.465.534-.059a3.98,3.98,0,0,0,1.255,1,5.655,5.655,0,0,0,1.412.48,4.129,4.129,0,0,0,1.289.088,2.482,2.482,0,0,0,1.244-.494,3.626,3.626,0,0,0,.434-.406,2.623,2.623,0,0,0,.366-.524,2.2,2.2,0,0,0,.244-.827,2.932,2.932,0,0,0-.044-.886,2.646,2.646,0,0,0-.3-.8,1.857,1.857,0,0,0-.545-.594,3.075,3.075,0,0,0-.533-.305,1.4,1.4,0,0,0-.578-.131q-.6,0-1.2.044a2.327,2.327,0,0,0-1.178.45.293.293,0,0,1-.445,0,8.473,8.473,0,0,1-.833-.813,1.836,1.836,0,0,1-.4-.727,2.276,2.276,0,0,1-.033-.885q.067-.509.244-1.351.334-1.482.645-2.949t.622-2.947a1.525,1.525,0,0,1,.177-.522.413.413,0,0,1,.422-.145,5.206,5.206,0,0,0,.59.028h1.411Z" transform="translate(-924.471 -1060.605)" fill="#fff"/>
              </g>
              <g id="Grupo_1240684" data-name="Grupo 1240684" transform="translate(28.061 74.922)">
                <path id="Trazado_1215524" data-name="Trazado 1215524" d="M1073.522,1074.491a2.578,2.578,0,0,1,.011.422.68.68,0,0,1-.055.3.256.256,0,0,1-.212.1,1.661,1.661,0,0,0-.233-.015q-.645.03-1.289.03h-1.29a.47.47,0,0,1-.411-.145,1.324,1.324,0,0,1-.122-.61q-.068-2.265-.067-4.559-.023-1.452,0-2.875t.022-2.875v-.349a2.148,2.148,0,0,0-.022-.32.337.337,0,0,0-.1-.232c-.052-.039-.115-.01-.189.086-.074.078-.152.156-.233.233a2.254,2.254,0,0,0-.233.261q-.377.408-.767.857t-.789.857q-.312.321-.5.305c-.126-.01-.278-.14-.456-.392q-.378-.552-.733-1.132t-.733-1.162a.731.731,0,0,1,.044-.9l.467-.552q.223-.261.445-.58a19.431,19.431,0,0,1,1.689-2.034q.888-.929,1.822-1.887a2.426,2.426,0,0,1,.456-.378.817.817,0,0,1,.522-.116q.668,0,1.3-.028a9.617,9.617,0,0,1,1.3.028c.207.02.333.058.377.116a1.362,1.362,0,0,1,.089.552q0,.436-.011.9t-.012.9q0,1.018.012,2t.011,1.975q-.045,3.049-.067,5.489,0,1.046-.011,2.047t-.023,1.8q-.011.8-.011,1.307C1073.522,1074.264,1073.522,1074.453,1073.522,1074.491Z" transform="translate(-1064.986 -1056.687)" fill="#fff"/>
                <path id="Trazado_1215525" data-name="Trazado 1215525" d="M1142.47,1066.33a15.5,15.5,0,0,1,.4-3.762,11.884,11.884,0,0,1,1-2.7,7.423,7.423,0,0,1,1.333-1.831,8.776,8.776,0,0,1,1.378-1.118,5.276,5.276,0,0,1,1.134-.566q.488-.159.622-.217a3.243,3.243,0,0,1,.978-.117c.415,0,.826.02,1.234.058a9.088,9.088,0,0,1,1.078.161c.311.067.489.141.534.217a2.054,2.054,0,0,1,.133.566q.066.45.111.988t.089,1.06q.045.523.067.784a.7.7,0,0,1-.044.406c-.044.058-.148.068-.311.03-.119-.019-.3-.053-.545-.1a8.154,8.154,0,0,0-.834-.116,6.521,6.521,0,0,0-.978-.015,2.361,2.361,0,0,0-1.555.669,5.565,5.565,0,0,0-.7.769,7.2,7.2,0,0,0-.644,1.016,4.539,4.539,0,0,0-.434,1.205.993.993,0,0,0-.022.232c0,.1.014.156.044.175.03.039.081.044.156.014a.348.348,0,0,0,.156-.1,2.934,2.934,0,0,1,.989-.711,5.855,5.855,0,0,1,1.1-.335,2.861,2.861,0,0,1,1.456.03,5.441,5.441,0,0,1,1.389.639,2.438,2.438,0,0,1,.723.783,6.315,6.315,0,0,1,.566,1.22,8.826,8.826,0,0,1,.378,1.54,10.952,10.952,0,0,1,.134,1.714,7.035,7.035,0,0,1-.59,3.021,6.818,6.818,0,0,1-2.033,2.381,4.551,4.551,0,0,1-2.057.8,4.265,4.265,0,0,1-1.944-.247,5.612,5.612,0,0,1-1.744-1.06,7.747,7.747,0,0,1-1.412-1.642,5.732,5.732,0,0,1-.656-1.407,12.446,12.446,0,0,1-.4-1.612q-.145-.814-.212-1.554T1142.47,1066.33Zm6.157,4.037a1.416,1.416,0,0,1,.233.014.715.715,0,0,0,.122.014,1.139,1.139,0,0,0,.945-.479,2.028,2.028,0,0,0,.366-1.263q-.022-1.51-1.289-1.51a1.552,1.552,0,0,0-1.178.668c-.089.136-.173.261-.255.378a4.062,4.062,0,0,0-.233.377,1.2,1.2,0,0,0-.189.9.982.982,0,0,0,.544.64,1.946,1.946,0,0,0,.5.159A2.991,2.991,0,0,1,1148.627,1070.367Z" transform="translate(-1131.735 -1056.019)" fill="#fff"/>
              </g>
              <g id="Grupo_1240685" data-name="Grupo 1240685" transform="translate(55.153 75.03)">
                <path id="Trazado_1215526" data-name="Trazado 1215526" d="M1269.059,1074.491a2.591,2.591,0,0,1,.011.422.684.684,0,0,1-.055.3.256.256,0,0,1-.212.1,1.663,1.663,0,0,0-.233-.015q-.645.03-1.289.03h-1.29a.471.471,0,0,1-.411-.145,1.329,1.329,0,0,1-.122-.61q-.068-2.265-.067-4.559-.023-1.452,0-2.875t.022-2.875v-.349a2.147,2.147,0,0,0-.022-.32.336.336,0,0,0-.1-.232c-.052-.039-.115-.01-.189.086-.074.078-.152.156-.234.233a2.3,2.3,0,0,0-.233.261q-.377.408-.767.857t-.789.857q-.312.321-.5.305c-.126-.01-.278-.14-.456-.392q-.378-.552-.734-1.132t-.733-1.162a.731.731,0,0,1,.044-.9l.467-.552q.222-.261.445-.58a19.446,19.446,0,0,1,1.689-2.034q.888-.929,1.822-1.887a2.427,2.427,0,0,1,.456-.378.816.816,0,0,1,.522-.116q.668,0,1.3-.028a9.616,9.616,0,0,1,1.3.028c.207.02.333.058.377.116a1.358,1.358,0,0,1,.09.552q0,.436-.011.9t-.012.9q0,1.018.012,2t.011,1.975q-.045,3.049-.067,5.489,0,1.046-.011,2.047t-.023,1.8q-.011.8-.011,1.307Z" transform="translate(-1260.524 -1056.794)" fill="#fff"/>
                <path id="Trazado_1215527" data-name="Trazado 1215527" d="M1344.151,1057.092q.867.016,1.733.044a4.244,4.244,0,0,0,.789-.014,3.077,3.077,0,0,1,.789.014.535.535,0,0,1,.4.219,1,1,0,0,1,.156.508,6.239,6.239,0,0,1,.011.987,8.669,8.669,0,0,0-.011.988.427.427,0,0,1-.033.247c-.037.086-.071.169-.1.247a29.5,29.5,0,0,0-1.367,3.224q-.589,1.654-1.167,3.34-.712,2-1.423,3.993t-1.423,3.993a1.963,1.963,0,0,1-.267.494.527.527,0,0,1-.445.2h-3.111q-.378,0-.222-.436c.089-.232.182-.464.278-.7s.189-.466.278-.7q1.023-2.817,2.034-5.563t2.034-5.562a1.826,1.826,0,0,0,.2-.871q-.066-.145-.711-.145h-2.234q-1.123,0-2.234.029a.612.612,0,0,1-.378-.1.567.567,0,0,1-.156-.422q-.045-.842-.033-1.7t-.011-1.7q-.023-.581.467-.639h.444q.49,0,1.178.014t1.311.015q.623,0,1.49-.03C1342.994,1057.077,1343.573,1057.082,1344.151,1057.092Z" transform="translate(-1326.858 -1057.038)" fill="#fff"/>
              </g>
              <g id="Grupo_1240686" data-name="Grupo 1240686" transform="translate(81.367 74.981)">
                <path id="Trazado_1215528" data-name="Trazado 1215528" d="M1458.259,1077.21a2.577,2.577,0,0,1,.011.422.681.681,0,0,1-.055.3.256.256,0,0,1-.212.1,1.663,1.663,0,0,0-.233-.015q-.645.03-1.289.03h-1.29a.471.471,0,0,1-.411-.145,1.326,1.326,0,0,1-.122-.61q-.068-2.265-.067-4.559-.023-1.452,0-2.875t.022-2.875v-.349a2.147,2.147,0,0,0-.022-.32.335.335,0,0,0-.1-.232c-.052-.039-.115-.009-.189.086-.074.078-.152.156-.233.233a2.276,2.276,0,0,0-.233.261q-.377.408-.767.857t-.789.857q-.312.321-.5.305c-.126-.009-.278-.139-.456-.392q-.378-.551-.733-1.132t-.733-1.162a.731.731,0,0,1,.044-.9l.467-.552q.222-.261.445-.58a19.445,19.445,0,0,1,1.689-2.034q.888-.929,1.822-1.887a2.434,2.434,0,0,1,.456-.378.816.816,0,0,1,.522-.116q.667,0,1.3-.028a9.637,9.637,0,0,1,1.3.028c.207.02.333.058.377.116a1.357,1.357,0,0,1,.089.552q0,.436-.011.9t-.012.9q0,1.018.012,2t.011,1.975q-.045,3.049-.067,5.489,0,1.046-.011,2.047t-.022,1.8q-.011.8-.011,1.307C1458.259,1076.983,1458.259,1077.172,1458.259,1077.21Z" transform="translate(-1449.723 -1059.087)" fill="#fff"/>
                <path id="Trazado_1215529" data-name="Trazado 1215529" d="M1531.218,1056.44a3.486,3.486,0,0,1,1.656.392,3.707,3.707,0,0,1,1.345,1.321,4.321,4.321,0,0,1,.522,1.307,6.658,6.658,0,0,1,.167,1.495,7.768,7.768,0,0,1-.134,1.468,4.548,4.548,0,0,1-.4,1.219,1.054,1.054,0,0,0-.178.479,1.592,1.592,0,0,0,.267.422,6.912,6.912,0,0,1,1.368,2.541,9.936,9.936,0,0,1,.366,3.064,5.875,5.875,0,0,1-.5,2.164,7.769,7.769,0,0,1-1.133,1.844,5.612,5.612,0,0,1-1.511,1.293,3.549,3.549,0,0,1-1.634.508,5.4,5.4,0,0,1-2.6-.813,6.3,6.3,0,0,1-2.045-1.99,6.553,6.553,0,0,1-.989-2.846,6.233,6.233,0,0,1,.611-3.355,7.4,7.4,0,0,1,1.556-2.352.969.969,0,0,0,.256-.392.741.741,0,0,0-.1-.508,2.893,2.893,0,0,1-.266-.886q-.068-.479-.134-.973a5.3,5.3,0,0,1,.067-1.887,7.682,7.682,0,0,1,.6-1.685,3.414,3.414,0,0,1,1.212-1.365A3.018,3.018,0,0,1,1531.218,1056.44Zm1.423,13.563a2.736,2.736,0,0,0-.1-.7,4.752,4.752,0,0,0-.255-.726,4.048,4.048,0,0,0-.355-.639,1.611,1.611,0,0,0-.422-.436.3.3,0,0,0-.378-.029,4.116,4.116,0,0,0-.8.682,2.512,2.512,0,0,0-.534,1,1.649,1.649,0,0,0-.066.813,1.667,1.667,0,0,0,.255.711,2.689,2.689,0,0,0,.489.582,1.5,1.5,0,0,0,.6.334,1.1,1.1,0,0,0,.611,0,.942.942,0,0,0,.355-.233,2.013,2.013,0,0,0,.311-.392,2.088,2.088,0,0,0,.212-.464A1.7,1.7,0,0,0,1532.641,1070Zm-1.356-9.76a.892.892,0,0,0-.489.175.59.59,0,0,0-.2.435,4.172,4.172,0,0,0,.089,1.235,1.942,1.942,0,0,0,.556.973.154.154,0,0,0,.133.058.158.158,0,0,0,.134-.058,4.038,4.038,0,0,0,.433-.885,2.593,2.593,0,0,0,.122-1.06C1532.019,1060.5,1531.758,1060.206,1531.284,1060.243Z" transform="translate(-1515.214 -1056.44)" fill="#fff"/>
              </g>
              <g id="Grupo_1240687" data-name="Grupo 1240687" transform="translate(107.323 74.754)">
                <path id="Trazado_1215530" data-name="Trazado 1215530" d="M1645.6,1074.151a2.564,2.564,0,0,1,.011.422.683.683,0,0,1-.055.3.256.256,0,0,1-.212.1,1.661,1.661,0,0,0-.233-.015q-.645.03-1.289.03h-1.29a.47.47,0,0,1-.41-.145,1.323,1.323,0,0,1-.122-.61q-.068-2.266-.067-4.559-.023-1.452,0-2.875t.022-2.875v-.349a2.164,2.164,0,0,0-.022-.32.337.337,0,0,0-.1-.232c-.052-.039-.115-.009-.189.086-.074.078-.152.156-.233.233a2.31,2.31,0,0,0-.233.261q-.377.408-.767.857t-.789.857q-.312.321-.5.3c-.126-.01-.278-.139-.456-.392q-.378-.552-.733-1.132t-.733-1.162a.731.731,0,0,1,.044-.9l.467-.552q.223-.261.445-.58a19.432,19.432,0,0,1,1.689-2.034q.888-.929,1.822-1.887a2.423,2.423,0,0,1,.456-.378.817.817,0,0,1,.522-.116q.668,0,1.3-.028a9.637,9.637,0,0,1,1.3.028c.207.02.333.058.377.116a1.358,1.358,0,0,1,.089.552q0,.436-.011.9t-.012.9q0,1.018.012,2t.011,1.975q-.045,3.049-.067,5.489,0,1.046-.011,2.047t-.022,1.8q-.011.8-.011,1.307Z" transform="translate(-1637.066 -1056.226)" fill="#fff"/>
                <path id="Trazado_1215531" data-name="Trazado 1215531" d="M1725.094,1063.784q-.045,1.278-.167,2.5a14.192,14.192,0,0,1-.456,2.411,7.174,7.174,0,0,1-2.934,4.27,5.025,5.025,0,0,1-6.357-.436q-.244-.2-.511-.406a6.122,6.122,0,0,1-.512-.435.76.76,0,0,1-.089-.9q.311-.668.6-1.365c.192-.466.393-.919.6-1.365a.673.673,0,0,1,.212-.291c.066-.039.174-.009.322.088a15.676,15.676,0,0,0,1.845,1.248,1.913,1.913,0,0,0,1.3.32,4.176,4.176,0,0,0,1.3-.406,2.27,2.27,0,0,0,1.067-1.133,5.273,5.273,0,0,0,.4-1.8c.015-.135-.007-.222-.066-.261s-.127-.019-.2.058a.657.657,0,0,0-.188.145.692.692,0,0,1-.189.145q-2.29,1.743-4.4-.494a9.957,9.957,0,0,1-.811-.958,5.328,5.328,0,0,1-.634-1.132,5.489,5.489,0,0,1-.411-1.438,7.208,7.208,0,0,1-.066-1.6,7.646,7.646,0,0,1,.267-1.554,5.245,5.245,0,0,1,.566-1.337,11.022,11.022,0,0,1,1.156-1.525,4.223,4.223,0,0,1,1.378-1.06,1.861,1.861,0,0,1,.789-.233,6.408,6.408,0,0,1,2.312.189,3.635,3.635,0,0,1,1.034.45,4.383,4.383,0,0,1,1.712,1.99,12.158,12.158,0,0,1,.822,2.744,10.848,10.848,0,0,1,.211,1.771Q1725.028,1062.885,1725.094,1063.784Zm-4.068-2.729a2.637,2.637,0,0,0-.122-.958,2.12,2.12,0,0,0-.377-.712,1.2,1.2,0,0,0-.556-.378,1.091,1.091,0,0,0-.677.014,1.539,1.539,0,0,0-.556.364,1.054,1.054,0,0,0-.288.654c-.044.31-.093.624-.145.943a1.434,1.434,0,0,0,.211.974,1.582,1.582,0,0,0,.723.624,1.175,1.175,0,0,0,.9.072Q1720.96,1062.391,1721.027,1061.055Z" transform="translate(-1703.312 -1054.806)" fill="#fff"/>
              </g>
              <g id="Grupo_1240688" data-name="Grupo 1240688" transform="translate(137.214 73.13)">
                <path id="Trazado_1215532" data-name="Trazado 1215532" d="M1857.738,1062.618h-4.068a2.869,2.869,0,0,1-.477-.03.39.39,0,0,1-.256-.144.625.625,0,0,1-.1-.349q-.012-.232-.012-.639v-1.133q0-.521-.022-1.1a1.594,1.594,0,0,1,.422-1.279l.889-.929q.444-.464.889-.9a16.127,16.127,0,0,0,1.644-1.887,15.783,15.783,0,0,0,1.378-2.237,3.072,3.072,0,0,0,.322-.973,2.472,2.472,0,0,0-.078-1.06q-.244-1.074-1.133-1.162a1.714,1.714,0,0,0-.944.145,2.652,2.652,0,0,0-.811.61q-.378.464-.733,0-.4-.523-.8-1.032t-.8-1.031a.4.4,0,0,1-.122-.349.972.972,0,0,1,.145-.349,6.165,6.165,0,0,1,1.667-1.772,6.284,6.284,0,0,1,2.134-1.032,4.3,4.3,0,0,1,2.289.073,3.156,3.156,0,0,1,1.145.6,4.51,4.51,0,0,1,.9.973,5.7,5.7,0,0,1,.623,1.191,5.787,5.787,0,0,1,.333,1.278,9.826,9.826,0,0,1-.3,4.5,11.107,11.107,0,0,1-2.033,3.631q-.334.408-.678.8t-.677.8a.339.339,0,0,0-.056.174c-.007.078-.011.145-.011.2,0,.02.025.044.078.073a.285.285,0,0,0,.122.044h3.2a1.332,1.332,0,0,0,.211-.015,1.521,1.521,0,0,1,.212-.014q.311-.057.355.349.045.814.011,1.6t-.011,1.568a1.029,1.029,0,0,1-.133.639.849.849,0,0,1-.489.2H1861c-.3,0-.629-.006-1-.015l-1.066-.028c-.341-.009-.627-.015-.855-.015S1857.738,1062.6,1857.738,1062.618Z" transform="translate(-1852.8 -1043.756)" fill="#fff"/>
                <path id="Trazado_1215533" data-name="Trazado 1215533" d="M1949.82,1052.915q-.066.929-.1,1.728t-.123,1.554a11.1,11.1,0,0,1-.8,3.34,6.853,6.853,0,0,1-1.823,2.5,2.438,2.438,0,0,1-1.511.624,5.127,5.127,0,0,1-1.6-.159,4.236,4.236,0,0,1-1.523-.726,7.075,7.075,0,0,1-1.3-1.279,3.973,3.973,0,0,1-.678-1.249,8.419,8.419,0,0,1-.345-1.451,33.673,33.673,0,0,1-.389-4.284,24.266,24.266,0,0,1,.278-4.314q.156-.987.378-1.887a4.848,4.848,0,0,1,.756-1.656c.192-.271.384-.542.578-.813a5.981,5.981,0,0,1,.6-.727,3.237,3.237,0,0,1,2.056-1.016,4.167,4.167,0,0,1,2.189.436,4.493,4.493,0,0,1,2.167,2.062,9.214,9.214,0,0,1,.923,3.31q.111,1.046.167,2.078T1949.82,1052.915Zm-3.2.377v-.987q0-.406.011-.857t.012-.769a4.7,4.7,0,0,0-.178-1.293,6.162,6.162,0,0,0-.467-1.176,1.34,1.34,0,0,0-.345-.436,1.276,1.276,0,0,0-.478-.247,1.146,1.146,0,0,0-.544-.014,1.006,1.006,0,0,0-.523.319,2.8,2.8,0,0,0-.689,1.118,9.043,9.043,0,0,0-.311,1.321,13.986,13.986,0,0,0-.177,2.934q.066,1.452.244,2.933a4.936,4.936,0,0,0,.145.74,3.026,3.026,0,0,0,.277.683,1.447,1.447,0,0,0,.522.61,1.081,1.081,0,0,0,.678.175,1.375,1.375,0,0,0,1.177-.9,8.986,8.986,0,0,0,.356-.9,3.012,3.012,0,0,0,.156-.958,9.846,9.846,0,0,1,.066-1.148A9.485,9.485,0,0,0,1946.62,1053.292Z" transform="translate(-1927.592 -1043.085)" fill="#fff"/>
              </g>
              <g id="Grupo_1240689" data-name="Grupo 1240689" transform="translate(161.986 73.238)">
                <path id="Trazado_1215534" data-name="Trazado 1215534" d="M2036.538,1062.618h-4.068a2.87,2.87,0,0,1-.477-.03.39.39,0,0,1-.256-.144.626.626,0,0,1-.1-.349c-.008-.155-.012-.367-.012-.639v-1.133q0-.521-.022-1.1a1.594,1.594,0,0,1,.422-1.279l.889-.929q.444-.464.889-.9a16.114,16.114,0,0,0,1.644-1.887,15.784,15.784,0,0,0,1.379-2.237,3.078,3.078,0,0,0,.322-.973,2.474,2.474,0,0,0-.078-1.06q-.244-1.074-1.133-1.162a1.715,1.715,0,0,0-.944.145,2.651,2.651,0,0,0-.811.61q-.378.464-.733,0-.4-.523-.8-1.032t-.8-1.031a.4.4,0,0,1-.122-.349.973.973,0,0,1,.145-.349,6.161,6.161,0,0,1,1.667-1.772,6.283,6.283,0,0,1,2.134-1.032,4.3,4.3,0,0,1,2.289.073,3.154,3.154,0,0,1,1.145.6,4.507,4.507,0,0,1,.9.973,5.7,5.7,0,0,1,.623,1.191,5.787,5.787,0,0,1,.333,1.278,9.829,9.829,0,0,1-.3,4.5,11.1,11.1,0,0,1-2.033,3.631q-.334.408-.678.8t-.677.8a.336.336,0,0,0-.056.174c-.007.078-.011.145-.011.2,0,.02.025.044.078.073a.285.285,0,0,0,.122.044h3.2a1.333,1.333,0,0,0,.211-.015,1.523,1.523,0,0,1,.212-.014q.31-.057.355.349.045.814.011,1.6t-.011,1.568a1.027,1.027,0,0,1-.133.639.849.849,0,0,1-.489.2h-.956c-.3,0-.629-.006-1-.015l-1.066-.028c-.341-.009-.627-.015-.856-.015S2036.538,1062.6,2036.538,1062.618Z" transform="translate(-2031.6 -1043.864)" fill="#fff"/>
                <path id="Trazado_1215535" data-name="Trazado 1215535" d="M2126.929,1063.11a2.577,2.577,0,0,1,.011.422.685.685,0,0,1-.055.3.256.256,0,0,1-.212.1,1.637,1.637,0,0,0-.233-.016q-.645.03-1.289.03h-1.29a.47.47,0,0,1-.41-.145,1.327,1.327,0,0,1-.122-.61q-.068-2.266-.067-4.559-.023-1.452,0-2.875t.021-2.875v-.349a2.216,2.216,0,0,0-.021-.32.34.34,0,0,0-.1-.232c-.052-.039-.115-.009-.189.086-.074.078-.152.156-.233.233a2.287,2.287,0,0,0-.233.261q-.377.408-.767.857t-.789.857q-.312.321-.5.3c-.126-.009-.278-.139-.456-.392q-.379-.552-.733-1.132t-.734-1.162a.732.732,0,0,1,.044-.9l.467-.552q.223-.261.445-.58a19.387,19.387,0,0,1,1.689-2.034q.888-.929,1.822-1.887a2.435,2.435,0,0,1,.456-.378.818.818,0,0,1,.522-.116q.667,0,1.3-.028a9.639,9.639,0,0,1,1.3.028c.207.02.333.058.377.116a1.362,1.362,0,0,1,.089.552q0,.436-.011.9t-.012.9q0,1.018.012,2t.011,1.975q-.045,3.049-.067,5.489,0,1.046-.011,2.047t-.023,1.8q-.011.8-.01,1.307T2126.929,1063.11Z" transform="translate(-2106.368 -1045.199)" fill="#fff"/>
              </g>
              <g id="Grupo_1240690" data-name="Grupo 1240690" transform="translate(2.942 107.414)">
                <path id="Trazado_1215536" data-name="Trazado 1215536" d="M888.628,1309.279H884.56a2.875,2.875,0,0,1-.477-.029.391.391,0,0,1-.256-.144.624.624,0,0,1-.1-.349q-.012-.232-.012-.639v-1.133q0-.521-.022-1.1a1.594,1.594,0,0,1,.422-1.279l.889-.929q.444-.465.889-.9a16.108,16.108,0,0,0,1.644-1.887,15.758,15.758,0,0,0,1.378-2.237,3.065,3.065,0,0,0,.322-.973,2.475,2.475,0,0,0-.078-1.06q-.244-1.074-1.133-1.162a1.718,1.718,0,0,0-.944.145,2.654,2.654,0,0,0-.811.61q-.378.465-.733,0-.4-.523-.8-1.032t-.8-1.031a.4.4,0,0,1-.122-.349.972.972,0,0,1,.145-.349,6.159,6.159,0,0,1,1.667-1.772,6.283,6.283,0,0,1,2.133-1.032,4.3,4.3,0,0,1,2.289.073,3.162,3.162,0,0,1,1.145.6,4.512,4.512,0,0,1,.9.973,5.708,5.708,0,0,1,.623,1.191,5.794,5.794,0,0,1,.333,1.278,9.828,9.828,0,0,1-.3,4.5,11.1,11.1,0,0,1-2.033,3.63q-.334.408-.678.8t-.677.8a.337.337,0,0,0-.056.174c-.007.078-.011.145-.011.2,0,.02.025.044.078.073a.284.284,0,0,0,.122.044h3.2a1.333,1.333,0,0,0,.211-.015,1.522,1.522,0,0,1,.212-.014q.311-.057.355.349.045.814.011,1.6t-.011,1.568a1.025,1.025,0,0,1-.133.639.849.849,0,0,1-.489.2h-.956c-.3,0-.629-.006-1-.016l-1.066-.028c-.341-.009-.627-.015-.856-.015S888.628,1309.26,888.628,1309.279Z" transform="translate(-883.69 -1290.526)" fill="#fff"/>
                <path id="Trazado_1215537" data-name="Trazado 1215537" d="M975.407,1309.279h-4.068a2.874,2.874,0,0,1-.477-.029.391.391,0,0,1-.256-.144.624.624,0,0,1-.1-.349q-.012-.232-.012-.639v-1.133q0-.521-.022-1.1a1.594,1.594,0,0,1,.422-1.279l.889-.929q.444-.465.889-.9a16.1,16.1,0,0,0,1.644-1.887,15.746,15.746,0,0,0,1.378-2.237,3.065,3.065,0,0,0,.322-.973,2.476,2.476,0,0,0-.078-1.06q-.244-1.074-1.133-1.162a1.718,1.718,0,0,0-.944.145,2.651,2.651,0,0,0-.811.61q-.379.465-.734,0-.4-.523-.8-1.032t-.8-1.031a.4.4,0,0,1-.122-.349.972.972,0,0,1,.145-.349,6.158,6.158,0,0,1,1.667-1.772,6.284,6.284,0,0,1,2.133-1.032,4.3,4.3,0,0,1,2.289.073,3.162,3.162,0,0,1,1.145.6,4.512,4.512,0,0,1,.9.973,5.708,5.708,0,0,1,.623,1.191,5.8,5.8,0,0,1,.333,1.278,9.831,9.831,0,0,1-.3,4.5,11.105,11.105,0,0,1-2.033,3.63q-.334.408-.678.8t-.677.8a.338.338,0,0,0-.056.174c-.007.078-.011.145-.011.2,0,.02.025.044.078.073a.284.284,0,0,0,.122.044h3.2a1.332,1.332,0,0,0,.211-.015,1.521,1.521,0,0,1,.212-.014q.311-.057.355.349.045.814.011,1.6t-.011,1.568a1.026,1.026,0,0,1-.133.639.849.849,0,0,1-.489.2h-.956c-.3,0-.629-.006-1-.016l-1.066-.028c-.341-.009-.627-.015-.856-.015S975.407,1309.26,975.407,1309.279Z" transform="translate(-958.446 -1290.526)" fill="#fff"/>
              </g>
              <g id="Grupo_1240691" data-name="Grupo 1240691" transform="translate(31.528 107.177)">
                <path id="Trazado_1215538" data-name="Trazado 1215538" d="M1094.948,1308.676h-4.068a2.888,2.888,0,0,1-.478-.029.391.391,0,0,1-.256-.144.624.624,0,0,1-.1-.349c-.008-.155-.012-.368-.012-.639v-1.133q0-.521-.022-1.1a1.593,1.593,0,0,1,.422-1.279l.889-.929q.444-.465.889-.9a16.138,16.138,0,0,0,1.644-1.887,15.759,15.759,0,0,0,1.378-2.237,3.066,3.066,0,0,0,.322-.973,2.476,2.476,0,0,0-.078-1.06q-.244-1.074-1.133-1.162a1.715,1.715,0,0,0-.944.145,2.653,2.653,0,0,0-.811.61q-.378.465-.733,0-.4-.523-.8-1.032t-.8-1.031a.4.4,0,0,1-.122-.349.974.974,0,0,1,.145-.349,6.158,6.158,0,0,1,1.667-1.772,6.283,6.283,0,0,1,2.133-1.032,4.3,4.3,0,0,1,2.289.073,3.163,3.163,0,0,1,1.145.6,4.516,4.516,0,0,1,.9.973,5.7,5.7,0,0,1,.623,1.191,5.784,5.784,0,0,1,.333,1.277,9.827,9.827,0,0,1-.3,4.5,11.1,11.1,0,0,1-2.033,3.63q-.333.408-.678.8t-.677.8a.339.339,0,0,0-.056.174c-.007.078-.011.145-.011.2,0,.02.025.044.078.073a.284.284,0,0,0,.122.044h3.2a1.331,1.331,0,0,0,.211-.015,1.521,1.521,0,0,1,.212-.014q.311-.057.355.349.045.814.011,1.6t-.011,1.568a1.028,1.028,0,0,1-.133.64.85.85,0,0,1-.489.2h-.956c-.3,0-.63-.006-1-.016l-1.066-.028c-.341-.009-.627-.015-.856-.015S1094.948,1308.658,1094.948,1308.676Z" transform="translate(-1090.01 -1289.769)" fill="#fff"/>
                <path id="Trazado_1215539" data-name="Trazado 1215539" d="M1180.261,1308.075a2.548,2.548,0,0,1-1.056-.261q-.567-.262-1.078-.524a6.422,6.422,0,0,1-1.467-.987q-.689-.61-1.378-1.249a1.186,1.186,0,0,1-.189-.261.416.416,0,0,1,.033-.378l1.334-2.614c.1-.213.237-.241.4-.086.193.174.378.349.555.522s.356.349.533.524a4.466,4.466,0,0,0,1.234.624,4.941,4.941,0,0,0,1.256.217,1.448,1.448,0,0,0,.967-.247,1.885,1.885,0,0,0,.722-.885,1.833,1.833,0,0,0,.111-.654,2.716,2.716,0,0,0-.089-.7,2.152,2.152,0,0,0-.267-.61,1.351,1.351,0,0,0-.967-.639,3.164,3.164,0,0,0-.677-.014.988.988,0,0,1-.29-.2.656.656,0,0,1-.133-.406,5.027,5.027,0,0,1-.033-.755,5.7,5.7,0,0,0-.033-.785.805.805,0,0,1,.4-.841c.148-.059.286-.112.412-.161s.248-.1.366-.144a3.025,3.025,0,0,0,.356-.175,3.077,3.077,0,0,0,.422-.305.826.826,0,0,0,.211-.349,3.736,3.736,0,0,0,.166-.58,4.715,4.715,0,0,0,.09-.625,2.607,2.607,0,0,0,0-.479,1.976,1.976,0,0,0-.178-.422,1.2,1.2,0,0,0-.389-.421,1.082,1.082,0,0,0-.622-.174,1.636,1.636,0,0,0-.855.319,3.719,3.719,0,0,0-.578.6,2.117,2.117,0,0,1-.534.508.828.828,0,0,1-.445.16c-.1-.01-.237-.111-.4-.3a5.152,5.152,0,0,1-.334-.494c-.1-.174-.214-.349-.333-.522q-.267-.408-.412-.654a.709.709,0,0,1,.034-.872c.1-.144.267-.343.489-.594a10.365,10.365,0,0,1,1.955-1.685,4.105,4.105,0,0,1,2.29-.668,3.436,3.436,0,0,1,2.333.886,5.139,5.139,0,0,1,1.378,2.541,6.254,6.254,0,0,1,.122,2.585,5.266,5.266,0,0,1-.99,2.295.751.751,0,0,0-.156.377q0,.146.223.291a2.843,2.843,0,0,1,.956,1.147,4.809,4.809,0,0,1,.422,1.524,6.926,6.926,0,0,1-.023,1.656,6.277,6.277,0,0,1-.378,1.51q-.2.495-.477,1.249a5.171,5.171,0,0,1-.856,1.467,4.83,4.83,0,0,1-1.567,1.22A5.685,5.685,0,0,1,1180.261,1308.075Z" transform="translate(-1163.278 -1288.819)" fill="#fff"/>
              </g>
              <g id="Grupo_1240692" data-name="Grupo 1240692" transform="translate(58.087 107.301)">
                <path id="Trazado_1215540" data-name="Trazado 1215540" d="M1286.636,1308.468h-4.068a2.872,2.872,0,0,1-.478-.03.39.39,0,0,1-.256-.144.623.623,0,0,1-.1-.349c-.008-.155-.012-.368-.012-.639v-1.133q0-.521-.022-1.1a1.594,1.594,0,0,1,.422-1.279l.889-.929q.444-.465.889-.9a16.129,16.129,0,0,0,1.644-1.887,15.769,15.769,0,0,0,1.378-2.237,3.073,3.073,0,0,0,.322-.973,2.472,2.472,0,0,0-.078-1.06q-.244-1.074-1.133-1.162a1.715,1.715,0,0,0-.944.145,2.649,2.649,0,0,0-.811.61q-.379.465-.734,0-.4-.523-.8-1.032t-.8-1.031a.4.4,0,0,1-.122-.348.968.968,0,0,1,.145-.349,6.156,6.156,0,0,1,1.667-1.771,6.283,6.283,0,0,1,2.133-1.032,4.3,4.3,0,0,1,2.289.073,3.161,3.161,0,0,1,1.145.6,4.513,4.513,0,0,1,.9.973,5.7,5.7,0,0,1,.623,1.191,5.781,5.781,0,0,1,.333,1.277,9.829,9.829,0,0,1-.3,4.5,11.107,11.107,0,0,1-2.033,3.63q-.334.408-.678.8t-.677.8a.337.337,0,0,0-.056.174c-.007.078-.011.146-.011.2,0,.02.025.044.078.073a.282.282,0,0,0,.122.044h3.2a1.333,1.333,0,0,0,.211-.015,1.484,1.484,0,0,1,.212-.014q.311-.057.355.349.044.814.011,1.6t-.011,1.568a1.025,1.025,0,0,1-.133.639.849.849,0,0,1-.489.2h-.956c-.3,0-.63-.006-1-.015l-1.066-.028c-.341-.01-.627-.015-.856-.015S1286.636,1308.45,1286.636,1308.468Z" transform="translate(-1281.698 -1289.714)" fill="#fff"/>
                <path id="Trazado_1215541" data-name="Trazado 1215541" d="M1378.921,1300.046q0,2.005-.023,3.791t-.022,3.529q0,.465.022.885c.015.281.023.577.023.886a.542.542,0,0,1-.1.435.55.55,0,0,1-.433.087q-.6-.028-1.211,0c-.408.019-.811.03-1.212.03a.945.945,0,0,1-.555-.145,1.255,1.255,0,0,1-.111-.7q-.023-.755-.023-1.54t-.022-1.539a1.441,1.441,0,0,0-.122-.64.715.715,0,0,0-.478-.2q-1.289-.087-2.578-.072t-2.533.014a.792.792,0,0,1-.723-.13,1.409,1.409,0,0,1-.256-.857q-.045-.582-.044-1.133t-.022-1.132a1.669,1.669,0,0,1,.288-1.018q1.622-2.265,3.223-4.545t3.2-4.574a.8.8,0,0,1,.822-.436,8.715,8.715,0,0,0,1.223.03,8.436,8.436,0,0,1,1.222.028q.467,0,.467.61c0,.388.008.766.023,1.134s.014.746,0,1.132q-.022,1.569-.011,3.136C1378.963,1298.159,1378.952,1299.139,1378.921,1300.046Zm-4.068.988q.4,0,.4-.464.022-1.51,0-3.05c0-.232-.044-.372-.134-.421s-.193,0-.311.16q-.445.553-.877,1.1t-.856,1.133q-.244.319-.522.638a1.668,1.668,0,0,0-.367.813,3.167,3.167,0,0,0,.4.044l.456.03c.14.01.314.014.522.014h1.289Z" transform="translate(-1356.47 -1290.848)" fill="#fff"/>
              </g>
              <g id="Grupo_1240693" data-name="Grupo 1240693" transform="translate(84.324 107.14)">
                <path id="Trazado_1215542" data-name="Trazado 1215542" d="M1476.006,1307.308h-4.068a2.838,2.838,0,0,1-.477-.03.39.39,0,0,1-.256-.144.625.625,0,0,1-.1-.349q-.012-.232-.012-.639v-1.133q0-.521-.022-1.1a1.594,1.594,0,0,1,.422-1.279l.889-.929q.443-.465.889-.9a16.1,16.1,0,0,0,1.644-1.887,15.781,15.781,0,0,0,1.378-2.237,3.068,3.068,0,0,0,.322-.973,2.47,2.47,0,0,0-.078-1.06q-.244-1.074-1.133-1.162a1.716,1.716,0,0,0-.944.145,2.652,2.652,0,0,0-.811.61q-.378.465-.734,0-.4-.523-.8-1.032t-.8-1.031a.4.4,0,0,1-.122-.349.97.97,0,0,1,.145-.349,6.162,6.162,0,0,1,1.667-1.772,6.282,6.282,0,0,1,2.133-1.031,4.3,4.3,0,0,1,2.289.073,3.16,3.16,0,0,1,1.145.6,4.512,4.512,0,0,1,.9.973,5.714,5.714,0,0,1,.623,1.191,5.79,5.79,0,0,1,.333,1.278,9.831,9.831,0,0,1-.3,4.5,11.112,11.112,0,0,1-2.033,3.63q-.334.408-.678.8t-.677.8a.34.34,0,0,0-.056.174c-.007.078-.011.145-.011.2,0,.02.025.044.078.073a.283.283,0,0,0,.122.044h3.2a1.333,1.333,0,0,0,.211-.015,1.521,1.521,0,0,1,.212-.014c.207-.038.326.078.355.349q.045.814.011,1.6t-.011,1.568a1.026,1.026,0,0,1-.133.639.848.848,0,0,1-.489.2h-.956c-.3,0-.63-.006-1-.016l-1.066-.028c-.341-.009-.627-.015-.856-.015S1476.006,1307.288,1476.006,1307.308Z" transform="translate(-1471.068 -1288.554)" fill="#fff"/>
                <path id="Trazado_1215543" data-name="Trazado 1215543" d="M1558.954,1289.538q.867-.029,1.723-.028h1.722c.252,0,.4.028.445.087a1.646,1.646,0,0,1,.133.551q.089.581.178,1.177t.178,1.176a1.092,1.092,0,0,1,.011.261c-.007.078-.011.166-.011.261a.958.958,0,0,1-.134.552.62.62,0,0,1-.444.117c-.475-.039-.956-.063-1.445-.073s-.978,0-1.467.016a.642.642,0,0,0-.522.159,1.507,1.507,0,0,0-.189.654,6.74,6.74,0,0,1-.134.682.886.886,0,0,0,.023.6.237.237,0,0,0,.178.16.5.5,0,0,0,.233-.028c.08-.03.166-.059.255-.087a.845.845,0,0,1,.267-.044,5.444,5.444,0,0,1,1.767.406,4.765,4.765,0,0,1,1.567,1.1,2.949,2.949,0,0,1,.667.988,10.383,10.383,0,0,1,.422,1.22,6.512,6.512,0,0,1,.223,1.815,12.084,12.084,0,0,1-.189,2.12,10.609,10.609,0,0,1-.567,2.018,4.9,4.9,0,0,1-.911,1.539,4.469,4.469,0,0,1-.988.8,8.363,8.363,0,0,1-1.1.538,7.26,7.26,0,0,1-2.9.436,9.2,9.2,0,0,1-2.879-.669,3.136,3.136,0,0,1-.778-.494l-.755-.638a.928.928,0,0,1-.289-1.046q.222-.755.445-1.524t.467-1.525q.155-.464.533-.059a3.981,3.981,0,0,0,1.255,1,5.657,5.657,0,0,0,1.412.48,4.136,4.136,0,0,0,1.289.087,2.482,2.482,0,0,0,1.244-.494,3.627,3.627,0,0,0,.434-.406,2.628,2.628,0,0,0,.366-.524,2.2,2.2,0,0,0,.244-.827,2.939,2.939,0,0,0-.044-.886,2.641,2.641,0,0,0-.3-.8,1.856,1.856,0,0,0-.545-.595,3.094,3.094,0,0,0-.533-.3,1.4,1.4,0,0,0-.578-.131q-.6,0-1.2.044a2.329,2.329,0,0,0-1.178.45.293.293,0,0,1-.445,0,8.466,8.466,0,0,1-.833-.813,1.832,1.832,0,0,1-.4-.727,2.276,2.276,0,0,1-.034-.885q.066-.509.244-1.351.334-1.482.645-2.948t.622-2.947a1.526,1.526,0,0,1,.177-.522.414.414,0,0,1,.422-.145,5.174,5.174,0,0,0,.59.029h1.411Z" transform="translate(-1541.815 -1289.374)" fill="#fff"/>
              </g>
              <g id="Grupo_1240694" data-name="Grupo 1240694" transform="translate(110.839 106.919)">
                <path id="Trazado_1215544" data-name="Trazado 1215544" d="M1667.378,1305.707h-4.068a2.886,2.886,0,0,1-.477-.029.391.391,0,0,1-.256-.144.626.626,0,0,1-.1-.349q-.012-.232-.012-.64v-1.133q0-.521-.022-1.1a1.593,1.593,0,0,1,.422-1.279l.889-.929q.443-.465.889-.9a16.14,16.14,0,0,0,1.644-1.887,15.78,15.78,0,0,0,1.378-2.237,3.067,3.067,0,0,0,.322-.973,2.474,2.474,0,0,0-.078-1.06q-.244-1.074-1.133-1.162a1.714,1.714,0,0,0-.944.145,2.652,2.652,0,0,0-.811.61q-.378.465-.734,0-.4-.523-.8-1.032t-.8-1.031a.4.4,0,0,1-.122-.349.973.973,0,0,1,.145-.349,6.161,6.161,0,0,1,1.667-1.771,6.281,6.281,0,0,1,2.133-1.032,4.3,4.3,0,0,1,2.289.073,3.156,3.156,0,0,1,1.145.6,4.509,4.509,0,0,1,.9.973,5.7,5.7,0,0,1,.623,1.191,5.8,5.8,0,0,1,.333,1.277,9.831,9.831,0,0,1-.3,4.5,11.1,11.1,0,0,1-2.033,3.63q-.333.408-.678.8t-.677.8a.336.336,0,0,0-.056.174c-.007.078-.011.145-.011.2,0,.02.025.044.078.073a.285.285,0,0,0,.122.044h3.2a1.332,1.332,0,0,0,.211-.016,1.521,1.521,0,0,1,.212-.014q.311-.057.355.349.045.814.011,1.6c-.022.522-.025,1.046-.011,1.568a1.028,1.028,0,0,1-.133.64.852.852,0,0,1-.489.2h-.956c-.3,0-.63-.006-1-.015l-1.066-.028c-.341-.009-.627-.015-.855-.015S1667.378,1305.688,1667.378,1305.707Z" transform="translate(-1662.44 -1286.953)" fill="#fff"/>
                <path id="Trazado_1215545" data-name="Trazado 1215545" d="M1750.05,1298.04a15.51,15.51,0,0,1,.4-3.762,11.868,11.868,0,0,1,1-2.7,7.416,7.416,0,0,1,1.333-1.831,8.773,8.773,0,0,1,1.378-1.118,5.3,5.3,0,0,1,1.134-.566q.489-.159.622-.217a3.242,3.242,0,0,1,.978-.117c.415,0,.826.02,1.234.058a9.113,9.113,0,0,1,1.078.161c.311.067.489.141.533.218a2.049,2.049,0,0,1,.133.566q.067.45.111.988t.089,1.06q.045.523.067.783a.7.7,0,0,1-.044.407c-.044.058-.148.069-.311.029-.118-.019-.3-.053-.544-.1a8.12,8.12,0,0,0-.834-.116,6.518,6.518,0,0,0-.978-.016,2.361,2.361,0,0,0-1.556.669,5.572,5.572,0,0,0-.7.769,7.263,7.263,0,0,0-.644,1.016,4.546,4.546,0,0,0-.434,1.205,1,1,0,0,0-.022.232c0,.1.014.156.044.175.03.039.081.044.156.014a.348.348,0,0,0,.156-.1,2.935,2.935,0,0,1,.99-.712,5.847,5.847,0,0,1,1.1-.334,2.862,2.862,0,0,1,1.456.029,5.451,5.451,0,0,1,1.389.639,2.441,2.441,0,0,1,.723.784,6.32,6.32,0,0,1,.566,1.219,8.819,8.819,0,0,1,.378,1.54,10.969,10.969,0,0,1,.134,1.714,7.036,7.036,0,0,1-.59,3.021,6.818,6.818,0,0,1-2.033,2.381,4.551,4.551,0,0,1-2.057.8,4.264,4.264,0,0,1-1.944-.247,5.611,5.611,0,0,1-1.744-1.06,7.752,7.752,0,0,1-1.412-1.641,5.738,5.738,0,0,1-.656-1.407,12.478,12.478,0,0,1-.4-1.612q-.145-.814-.212-1.554T1750.05,1298.04Zm6.156,4.036a1.413,1.413,0,0,1,.233.014.721.721,0,0,0,.122.014,1.139,1.139,0,0,0,.945-.479,2.029,2.029,0,0,0,.366-1.263q-.022-1.51-1.289-1.51a1.551,1.551,0,0,0-1.178.668c-.089.136-.174.261-.255.378a4.083,4.083,0,0,0-.233.377,1.2,1.2,0,0,0-.189.9.982.982,0,0,0,.544.639,1.947,1.947,0,0,0,.5.16A3.146,3.146,0,0,1,1756.206,1302.076Z" transform="translate(-1737.911 -1287.621)" fill="#fff"/>
              </g>
              <g id="Grupo_1240695" data-name="Grupo 1240695" transform="translate(137.949 106.269)">
                <path id="Trazado_1215546" data-name="Trazado 1215546" d="M1863.046,1301.017h-4.068a2.885,2.885,0,0,1-.478-.03.39.39,0,0,1-.256-.144.625.625,0,0,1-.1-.349c-.008-.155-.012-.368-.012-.639v-1.133q0-.521-.022-1.1a1.6,1.6,0,0,1,.422-1.279l.889-.929q.444-.464.889-.9a16.129,16.129,0,0,0,1.644-1.887,15.8,15.8,0,0,0,1.378-2.237,3.07,3.07,0,0,0,.322-.973,2.475,2.475,0,0,0-.078-1.06q-.244-1.074-1.133-1.162a1.716,1.716,0,0,0-.944.145,2.653,2.653,0,0,0-.811.61q-.379.465-.734,0-.4-.523-.8-1.032t-.8-1.031a.4.4,0,0,1-.122-.349.969.969,0,0,1,.145-.349,6.162,6.162,0,0,1,1.667-1.771,6.281,6.281,0,0,1,2.133-1.032,4.3,4.3,0,0,1,2.289.073,3.16,3.16,0,0,1,1.145.6,4.509,4.509,0,0,1,.9.973,5.7,5.7,0,0,1,.623,1.191,5.791,5.791,0,0,1,.333,1.277,9.828,9.828,0,0,1-.3,4.5,11.106,11.106,0,0,1-2.033,3.63q-.334.408-.678.8c-.23.261-.456.528-.677.8a.338.338,0,0,0-.056.174c-.007.078-.011.145-.011.2,0,.02.025.044.078.073a.285.285,0,0,0,.122.044h3.2a1.335,1.335,0,0,0,.211-.015,1.5,1.5,0,0,1,.212-.014q.311-.057.355.349.045.814.011,1.6t-.011,1.568a1.027,1.027,0,0,1-.133.64.852.852,0,0,1-.489.2h-.956c-.3,0-.63-.006-1-.015l-1.066-.028c-.341-.009-.627-.015-.855-.015S1863.046,1301,1863.046,1301.017Z" transform="translate(-1858.108 -1282.263)" fill="#fff"/>
                <path id="Trazado_1215547" data-name="Trazado 1215547" d="M1951.864,1284.1q.867.016,1.733.044a4.225,4.225,0,0,0,.79-.014,3.072,3.072,0,0,1,.789.014.535.535,0,0,1,.4.219.993.993,0,0,1,.156.508,6.238,6.238,0,0,1,.011.987,8.724,8.724,0,0,0-.011.988.426.426,0,0,1-.033.247q-.056.13-.1.247a29.466,29.466,0,0,0-1.366,3.224q-.589,1.654-1.167,3.34-.712,2-1.422,3.993t-1.422,3.993a1.972,1.972,0,0,1-.267.494.527.527,0,0,1-.445.2H1946.4q-.378,0-.222-.436c.089-.232.182-.464.278-.7s.189-.466.278-.7q1.023-2.817,2.034-5.563t2.034-5.562a1.827,1.827,0,0,0,.2-.871q-.066-.145-.711-.145h-2.234q-1.123,0-2.234.03a.614.614,0,0,1-.378-.1.567.567,0,0,1-.156-.422q-.045-.842-.033-1.7t-.011-1.7q-.023-.582.467-.639h.444q.49,0,1.178.014t1.311.015q.623,0,1.49-.03C1950.707,1284.09,1951.286,1284.094,1951.864,1284.1Z" transform="translate(-1933.168 -1283.837)" fill="#fff"/>
              </g>
              <g id="Grupo_1240696" data-name="Grupo 1240696" transform="translate(162.818 105.901)">
                <path id="Trazado_1215548" data-name="Trazado 1215548" d="M2042.537,1299.9h-4.068a2.871,2.871,0,0,1-.477-.03.39.39,0,0,1-.256-.144.624.624,0,0,1-.1-.349q-.012-.232-.012-.639V1297.6q0-.521-.022-1.1a1.594,1.594,0,0,1,.422-1.279l.889-.929q.443-.464.889-.9a16.152,16.152,0,0,0,1.644-1.887,15.809,15.809,0,0,0,1.378-2.237,3.077,3.077,0,0,0,.322-.973,2.477,2.477,0,0,0-.078-1.06q-.244-1.074-1.133-1.162a1.716,1.716,0,0,0-.944.145,2.65,2.65,0,0,0-.811.61q-.378.464-.734,0-.4-.523-.8-1.032t-.8-1.031a.4.4,0,0,1-.122-.349.969.969,0,0,1,.145-.349,6.16,6.16,0,0,1,1.667-1.771,6.283,6.283,0,0,1,2.133-1.032,4.3,4.3,0,0,1,2.289.073,3.153,3.153,0,0,1,1.145.6,4.516,4.516,0,0,1,.9.973,5.716,5.716,0,0,1,.623,1.191,5.794,5.794,0,0,1,.333,1.278,9.828,9.828,0,0,1-.3,4.5,11.107,11.107,0,0,1-2.033,3.63q-.334.408-.678.8c-.23.261-.456.528-.677.8a.337.337,0,0,0-.056.174c-.007.078-.011.145-.011.2,0,.02.025.044.078.073a.284.284,0,0,0,.122.044h3.2a1.32,1.32,0,0,0,.211-.015,1.519,1.519,0,0,1,.212-.014q.311-.057.355.349.045.814.011,1.6t-.011,1.568a1.026,1.026,0,0,1-.133.639.85.85,0,0,1-.489.2h-.956c-.3,0-.629-.006-1-.015l-1.066-.028c-.341-.01-.627-.016-.856-.016S2042.537,1299.88,2042.537,1299.9Z" transform="translate(-2037.599 -1280.933)" fill="#fff"/>
                <path id="Trazado_1215549" data-name="Trazado 1215549" d="M2129.219,1279.61a3.488,3.488,0,0,1,1.656.392,3.709,3.709,0,0,1,1.345,1.321,4.322,4.322,0,0,1,.522,1.307,6.658,6.658,0,0,1,.167,1.495,7.749,7.749,0,0,1-.134,1.468,4.542,4.542,0,0,1-.4,1.22,1.05,1.05,0,0,0-.178.479,1.594,1.594,0,0,0,.267.422,6.907,6.907,0,0,1,1.367,2.541,9.932,9.932,0,0,1,.366,3.064,5.883,5.883,0,0,1-.5,2.164,7.782,7.782,0,0,1-1.133,1.844,5.61,5.61,0,0,1-1.511,1.293,3.55,3.55,0,0,1-1.634.508,5.4,5.4,0,0,1-2.6-.813,6.3,6.3,0,0,1-2.045-1.99,6.551,6.551,0,0,1-.99-2.846,6.233,6.233,0,0,1,.612-3.355,7.4,7.4,0,0,1,1.555-2.352.967.967,0,0,0,.256-.392.738.738,0,0,0-.1-.508,2.89,2.89,0,0,1-.266-.886q-.068-.479-.134-.973a5.3,5.3,0,0,1,.067-1.887,7.676,7.676,0,0,1,.6-1.685,3.412,3.412,0,0,1,1.212-1.365A3.027,3.027,0,0,1,2129.219,1279.61Zm1.423,13.564a2.73,2.73,0,0,0-.1-.7,4.76,4.76,0,0,0-.255-.726,4.007,4.007,0,0,0-.355-.639,1.612,1.612,0,0,0-.422-.436.3.3,0,0,0-.378-.028,4.105,4.105,0,0,0-.8.682,2.511,2.511,0,0,0-.534,1,1.862,1.862,0,0,0,.189,1.525,2.677,2.677,0,0,0,.489.581,1.5,1.5,0,0,0,.6.334,1.094,1.094,0,0,0,.611,0,.941.941,0,0,0,.355-.233,2.013,2.013,0,0,0,.311-.392,2.106,2.106,0,0,0,.212-.464A1.743,1.743,0,0,0,2130.641,1293.174Zm-1.356-9.76a.893.893,0,0,0-.49.175.591.591,0,0,0-.2.435,4.165,4.165,0,0,0,.089,1.235,1.946,1.946,0,0,0,.556.973.155.155,0,0,0,.133.058.159.159,0,0,0,.134-.058,4.037,4.037,0,0,0,.433-.885,2.6,2.6,0,0,0,.122-1.06C2130.018,1283.667,2129.759,1283.377,2129.285,1283.415Z" transform="translate(-2111.812 -1279.61)" fill="#fff"/>
              </g>
              <g id="Grupo_1240697" data-name="Grupo 1240697" transform="translate(4.086 138.838)">
                <path id="Trazado_1215550" data-name="Trazado 1215550" d="M896.881,1536.178h-4.068a2.886,2.886,0,0,1-.477-.03.389.389,0,0,1-.256-.144.624.624,0,0,1-.1-.349q-.012-.232-.012-.64v-1.133q0-.521-.022-1.1a1.594,1.594,0,0,1,.422-1.279l.889-.929q.444-.465.889-.9a16.138,16.138,0,0,0,1.644-1.887,15.783,15.783,0,0,0,1.378-2.237,3.071,3.071,0,0,0,.322-.972,2.474,2.474,0,0,0-.078-1.06q-.244-1.074-1.133-1.162a1.717,1.717,0,0,0-.944.145,2.652,2.652,0,0,0-.811.61q-.378.465-.734,0-.4-.523-.8-1.032t-.8-1.031a.4.4,0,0,1-.122-.349.97.97,0,0,1,.145-.349,6.157,6.157,0,0,1,1.667-1.772,6.285,6.285,0,0,1,2.133-1.032,4.3,4.3,0,0,1,2.289.073,3.155,3.155,0,0,1,1.145.6,4.518,4.518,0,0,1,.9.973,5.709,5.709,0,0,1,.623,1.191,5.782,5.782,0,0,1,.333,1.277,9.83,9.83,0,0,1-.3,4.5,11.106,11.106,0,0,1-2.033,3.63q-.334.408-.678.8c-.23.261-.456.528-.677.8a.337.337,0,0,0-.056.174c-.007.078-.011.146-.011.2,0,.02.025.044.078.073a.284.284,0,0,0,.122.044h3.2a1.333,1.333,0,0,0,.211-.015,1.522,1.522,0,0,1,.212-.014q.311-.057.355.348.045.814.011,1.6t-.011,1.568a1.027,1.027,0,0,1-.133.639.848.848,0,0,1-.489.2h-.956c-.3,0-.629-.006-1-.015l-1.066-.028c-.341-.01-.627-.016-.856-.016S896.881,1536.158,896.881,1536.178Z" transform="translate(-891.943 -1517.412)" fill="#fff"/>
                <path id="Trazado_1215551" data-name="Trazado 1215551" d="M990.094,1526.314q-.045,1.278-.166,2.5a14.191,14.191,0,0,1-.456,2.411,7.173,7.173,0,0,1-2.934,4.27,5.025,5.025,0,0,1-6.357-.436c-.163-.135-.334-.271-.511-.407a6.1,6.1,0,0,1-.512-.435.761.761,0,0,1-.089-.9q.311-.668.6-1.365c.192-.466.393-.92.6-1.365a.673.673,0,0,1,.212-.291c.066-.039.174-.009.322.088a15.669,15.669,0,0,0,1.845,1.248,1.913,1.913,0,0,0,1.3.32,4.176,4.176,0,0,0,1.3-.406,2.27,2.27,0,0,0,1.067-1.133,5.277,5.277,0,0,0,.4-1.8c.014-.135-.007-.222-.066-.261s-.127-.019-.2.058a.657.657,0,0,0-.188.145.69.69,0,0,1-.189.145q-2.29,1.743-4.4-.494a9.925,9.925,0,0,1-.811-.958,5.316,5.316,0,0,1-.634-1.132,5.482,5.482,0,0,1-.411-1.438,7.209,7.209,0,0,1-.066-1.6,7.654,7.654,0,0,1,.267-1.554,5.25,5.25,0,0,1,.566-1.337,11.009,11.009,0,0,1,1.156-1.524,4.218,4.218,0,0,1,1.378-1.06,1.861,1.861,0,0,1,.789-.233,6.4,6.4,0,0,1,2.312.189,3.624,3.624,0,0,1,1.034.45,4.381,4.381,0,0,1,1.712,1.99,12.153,12.153,0,0,1,.822,2.744,10.848,10.848,0,0,1,.211,1.771Q990.027,1525.413,990.094,1526.314Zm-4.068-2.731a2.641,2.641,0,0,0-.122-.958,2.12,2.12,0,0,0-.377-.712,1.2,1.2,0,0,0-.556-.378,1.092,1.092,0,0,0-.677.014,1.539,1.539,0,0,0-.556.364,1.053,1.053,0,0,0-.289.654c-.044.31-.093.624-.145.943a1.434,1.434,0,0,0,.211.974,1.581,1.581,0,0,0,.723.624,1.176,1.176,0,0,0,.9.072C985.685,1525.006,985.981,1524.476,986.026,1523.583Z" transform="translate(-966.909 -1517.336)" fill="#fff"/>
              </g>
              <g id="Grupo_1240698" data-name="Grupo 1240698" transform="translate(33.097 138.429)">
                <path id="Trazado_1215552" data-name="Trazado 1215552" d="M1106.533,1533.635a2.545,2.545,0,0,1-1.055-.261q-.567-.262-1.078-.524a6.43,6.43,0,0,1-1.467-.987q-.689-.61-1.378-1.249a1.179,1.179,0,0,1-.189-.261.416.416,0,0,1,.033-.378l1.334-2.614c.1-.213.237-.241.4-.086.193.174.378.349.555.522s.356.349.533.524a4.47,4.47,0,0,0,1.234.624,4.952,4.952,0,0,0,1.256.217,1.448,1.448,0,0,0,.967-.247,1.884,1.884,0,0,0,.723-.885,1.837,1.837,0,0,0,.11-.654,2.716,2.716,0,0,0-.089-.7,2.146,2.146,0,0,0-.267-.61,1.354,1.354,0,0,0-.967-.639,3.16,3.16,0,0,0-.677-.014.991.991,0,0,1-.289-.2.657.657,0,0,1-.133-.406,5.065,5.065,0,0,1-.033-.755,5.718,5.718,0,0,0-.033-.785.805.805,0,0,1,.4-.841c.148-.059.286-.112.411-.161s.248-.1.366-.144a2.94,2.94,0,0,0,.356-.175,3.039,3.039,0,0,0,.422-.3.826.826,0,0,0,.211-.349,3.736,3.736,0,0,0,.166-.58,4.737,4.737,0,0,0,.089-.625,2.607,2.607,0,0,0,0-.479,1.96,1.96,0,0,0-.178-.422,1.2,1.2,0,0,0-.389-.421,1.081,1.081,0,0,0-.622-.174,1.636,1.636,0,0,0-.856.319,3.735,3.735,0,0,0-.578.6,2.126,2.126,0,0,1-.534.508.831.831,0,0,1-.445.159c-.1-.009-.237-.111-.4-.3a5.146,5.146,0,0,1-.334-.494c-.1-.174-.214-.349-.333-.522q-.267-.408-.411-.654a.709.709,0,0,1,.034-.872c.1-.144.267-.343.489-.594a10.375,10.375,0,0,1,1.955-1.685,4.1,4.1,0,0,1,2.29-.668,3.437,3.437,0,0,1,2.333.886,5.138,5.138,0,0,1,1.378,2.541,6.251,6.251,0,0,1,.122,2.584,5.266,5.266,0,0,1-.989,2.3.751.751,0,0,0-.156.377q0,.145.223.291a2.845,2.845,0,0,1,.956,1.147,4.8,4.8,0,0,1,.422,1.525,6.912,6.912,0,0,1-.023,1.656,6.27,6.27,0,0,1-.378,1.51q-.2.495-.478,1.249a5.167,5.167,0,0,1-.856,1.466,4.825,4.825,0,0,1-1.567,1.22A5.69,5.69,0,0,1,1106.533,1533.635Z" transform="translate(-1101.334 -1514.379)" fill="#fff"/>
                <path id="Trazado_1215553" data-name="Trazado 1215553" d="M1208.591,1524.544q-.067.929-.1,1.728t-.123,1.554a11.1,11.1,0,0,1-.8,3.34,6.852,6.852,0,0,1-1.823,2.5,2.436,2.436,0,0,1-1.511.624,5.116,5.116,0,0,1-1.6-.159,4.235,4.235,0,0,1-1.523-.726,7.07,7.07,0,0,1-1.3-1.279,3.976,3.976,0,0,1-.678-1.249,8.436,8.436,0,0,1-.345-1.451,33.654,33.654,0,0,1-.389-4.284,24.254,24.254,0,0,1,.278-4.314q.156-.987.378-1.887a4.855,4.855,0,0,1,.756-1.656q.288-.406.578-.813a6.011,6.011,0,0,1,.6-.727,3.236,3.236,0,0,1,2.056-1.016,4.164,4.164,0,0,1,2.189.436,4.492,4.492,0,0,1,2.167,2.062,9.215,9.215,0,0,1,.922,3.31q.111,1.046.167,2.078C1208.527,1523.3,1208.562,1523.943,1208.591,1524.544Zm-3.2.377v-.987q0-.406.011-.857t.012-.769a4.7,4.7,0,0,0-.178-1.293,6.177,6.177,0,0,0-.467-1.176,1.338,1.338,0,0,0-.345-.436,1.273,1.273,0,0,0-.477-.247,1.146,1.146,0,0,0-.545-.014,1,1,0,0,0-.523.319,2.8,2.8,0,0,0-.689,1.118,9.059,9.059,0,0,0-.311,1.321,13.993,13.993,0,0,0-.177,2.934q.067,1.452.244,2.933a4.928,4.928,0,0,0,.145.74,3.02,3.02,0,0,0,.278.683,1.448,1.448,0,0,0,.522.61,1.082,1.082,0,0,0,.678.175,1.376,1.376,0,0,0,1.177-.9,9.029,9.029,0,0,0,.356-.9,3.015,3.015,0,0,0,.156-.958,9.84,9.84,0,0,1,.066-1.147A9.764,9.764,0,0,0,1205.39,1524.921Z" transform="translate(-1184.945 -1514.668)" fill="#fff"/>
              </g>
            </g>
          </g>
          <path id="Trazado_1215554" data-name="Trazado 1215554" d="M781.117,404.084v51.59h50.255v-51.59Zm46.847,46.49H784.848V408.32h43.116v42.254Z" transform="translate(-777.218 -389.663)" fill="#ff6987"/>
        </g>
        <g id="Grupo_1240706" data-name="Grupo 1240706" transform="translate(-4919 4559.198)">
          <path id="Trazado_1215555" data-name="Trazado 1215555" d="M1883.695,2364.865c-.126.363-.852,28.848-3.515,32.675a48.387,48.387,0,0,0,11.012-.968s5.971-29.407,7.282-32.312S1883.695,2364.865,1883.695,2364.865Z" transform="translate(-1692.766 -2040.074)" fill="#ffaa94"/>
          <path id="Trazado_1215556" data-name="Trazado 1215556" d="M1582.583,2388.842c0,.139-5.446,29.909-6.051,31.6s9.2,2.9,9.439,1.089,11.765-29.954,12.115-31.375S1582.583,2388.842,1582.583,2388.842Z" transform="translate(-1439.582 -2061.528)" fill="#ffaa94"/>
          <path id="Trazado_1215557" data-name="Trazado 1215557" d="M1623.888,1567.45c0,.726-20.815,121.5-20.331,124.89,1.452,2.663,30.5.968,31.222,0s18.636-57.12,18.636-57.12-5.083,56.152-4.115,57.12,28.56-2.663,28.8-3.388,18.152-117.871,15.248-137.234C1673.5,1545.184,1623.888,1567.45,1623.888,1567.45Z" transform="translate(-1462.129 -1362.588)" fill="#32334c"/>
          <path id="Trazado_1215558" data-name="Trazado 1215558" d="M1954.721,1550.74c-.231-.384-.159.455-.116.569,1.064,2.8,1.374,9.632-2.459,11.019-3.867,1.4-7.776-1.913-8.186-5.733.747-.289,1.487-.593,2.214-.926.969-.444,2.33-1.54,3.4-.831.234.155.084-1.059-.071-1.225-1.25-1.341-4.087.668-5.677,1.427-.034-.06-.067-.074-.078.022,0,.005,0,.01,0,.015-.1.047-.2.088-.285.123a46.168,46.168,0,0,1-7.08,2.059c0-.035,0-.071,0-.105-.012-.269-.381-1.206-.406-.489-.008.217-.017.446-.026.677-.59.119-1.18.237-1.774.337-.274.046-.063,1.275.241,1.24.489-.057.973-.131,1.458-.2-.287,4.3-1.278,9.853-5.889,10.8-4.774.983-9.934-2.883-10.445-7.687-.033-.307-.325-.7-.278-.159a10.027,10.027,0,0,0,8.859,9.265c6.527.541,8.222-6.912,8.284-12.295a37.356,37.356,0,0,0,6.114-1.511c.412-.141.819-.3,1.226-.454.379,4.051,3.744,7.846,8.216,6.837C1956.553,1562.475,1956.689,1554.01,1954.721,1550.74Z" transform="translate(-1725.345 -1362.691)" fill="#223"/>
          <path id="Trazado_1215559" data-name="Trazado 1215559" d="M1702.725,1596.893c-.016-.362-.537-1.577-.534-.643a205.447,205.447,0,0,1-1.606,28.427c-1.229,9.035-3.226,17.936-5.285,26.811-1.96,8.446-3.929,16.886-5.392,25.435s-2.583,17.133-3.907,25.7a223.676,223.676,0,0,1-6.578,30.16c-.049.162.173.84.247.624,5.666-16.673,7.139-34.483,9.927-51.772,2.911-18.053,8.3-35.594,11.166-53.652A155.615,155.615,0,0,0,1702.725,1596.893Z" transform="translate(-1525.382 -1400.429)" fill="#6d6fa6"/>
          <path id="Trazado_1215560" data-name="Trazado 1215560" d="M1766.432,1653.559c-3.749-1.17-8.066-1.9-11.35-4.16-3.514-2.418-5.353-6.253-6.411-10.264-.194-.736-.477-.294-.375.252a19.6,19.6,0,0,0,5,10.184c3.479,3.515,8.739,4.5,13.327,5.822C1767.042,1655.514,1766.886,1653.7,1766.432,1653.559Z" transform="translate(-1582.792 -1436.149)" fill="#223"/>
          <path id="Trazado_1215561" data-name="Trazado 1215561" d="M1038.685,524.683s-5.083-3.146-7.2-6.656a53.809,53.809,0,0,1-4.72-11.8c0-1.755,4.78,2.178,5.96,4.659s14.794-11.013,16.186-9.5-5.688,5.93-5.446,8.048,8.532-5.688,9.439-4.115-6.333,6.658-6.676,7.655,6.41-4.025,6.755-3.238-.926,2.6-5.766,6.172c.363.363,5.709-2.965,5.819-2.239s-5.981,5.809-6.808,6.293S1038.685,524.683,1038.685,524.683Z" transform="translate(-981.243 -487.792)" fill="#ffaa94"/>
          <path id="Trazado_1215562" data-name="Trazado 1215562" d="M778.824,532.8s-.491-8.152-5.411-13.714c-2.117.737,1.432,5.405-.311,6.857s-10.463-1.988-18.061,0c-.561.045.5,1.787,1.806,1.787s7.909.67,7.66,1.608c-7.847.2-11.086-.469-11.521.9s11.241,1.977,10.618,3.082c-2.117.335-9.466-1.608-9.653-.838s.311,2.207,9,3.666c-2.242.588-6.446-.349-6.57.656s6.415,1.876,6.944,2.111,3.955,3.149,12.175,2.948C777.929,538.584,778.824,532.8,778.824,532.8Z" transform="translate(-752.974 -502.647)" fill="#ffaa94"/>
          <path id="Trazado_1215563" data-name="Trazado 1215563" d="M1102.819,603.656a12.455,12.455,0,0,1-3.854-2.9c-1.35-1.815-5.828,2.783-3.811,7.221a6.542,6.542,0,0,0,6.091,4.155Z" transform="translate(-1037.834 -570.396)" fill="#c74736"/>
          <path id="Trazado_1215564" data-name="Trazado 1215564" d="M1709.343,1518.2a100.531,100.531,0,0,1-1.452,10.972c-.807,3.146,67.931-4.76,73.982-16.781.646-1.21-3.227-9.2-4.357-10.165S1709.343,1518.2,1709.343,1518.2Z" transform="translate(-1549.116 -1322.29)" fill="#c74736"/>
          <path id="Trazado_1215565" data-name="Trazado 1215565" d="M1191.7,635.374a94.765,94.765,0,0,0-30.117-8.944c-15.652-4.227-33.965-14.951-38-14.672s-3.469,8.567-.888,11.805,39.914,32.538,65.782,27.691C1195.142,646.084,1191.7,635.374,1191.7,635.374Z" transform="translate(-1059.522 -579.907)" fill="#e7673f"/>
          <path id="Trazado_1215566" data-name="Trazado 1215566" d="M1476.47,826.625S1501,873.9,1507.128,884.552s-6.293,26.785,10.165,31.3,68.738-11.295,68.9-18.233-38.4-98.218-65.51-115.507c-22.59-11.158-40.366-2.444-40.366-2.444Z" transform="translate(-1356.179 -717.205)" fill="#fed370"/>
          <path id="Trazado_1215567" data-name="Trazado 1215567" d="M1462.028,694.2l-4.136,1.815s9.208,4.357,9.093,8.471c10.292.121,14.406-4.115,14.406-4.115l-9.144-8.989Z" transform="translate(-1340.689 -646.3)" fill="#e88f87"/>
          <path id="Trazado_1215568" data-name="Trazado 1215568" d="M1505.028,728.022s-6.858.887-5.163,4.6,15.49,2.985,29.932,8.552,21.541,3.55,20.734-5.89S1538.752,717.857,1505.028,728.022Z" transform="translate(-1375.459 -672.898)" fill="#f08043"/>
          <g id="Grupo_1240704" data-name="Grupo 1240704" transform="translate(101.412 0)">
            <path id="Trazado_1215569" data-name="Trazado 1215569" d="M1380.5,484.391c-.4,0-12.505,5.163-13.312,15.248-.4,4.276-3.63,2.985-4.2,4.276s2.017,3.55,2.017,3.55-1.856,12.1,4.115,15.974,18.233-1.372,18.233-1.372,15.087-6.7,10.407-21.783S1380.5,484.391,1380.5,484.391Z" transform="translate(-1362.916 -473.72)" fill="#ffaa94"/>
            <path id="Trazado_1215570" data-name="Trazado 1215570" d="M1507,458.793c1.627-2.305,3.625-4.229,3.309-7.452s-3-4.339-6-3.954c-2.092.268-5.283,2.416-7.291,1.793-1.858-.576-1.374-1.237-1.406-2.679a7.727,7.727,0,0,0-.318-5.02,7.524,7.524,0,0,0-4.04-3.447,5.569,5.569,0,0,0-3.7.7c-1.446-.133-2.383-.379-2.8-3.644-.085-.67.171-1.388.128-2.071a7.154,7.154,0,0,0-2.786-5.409c-2.679-2.045-5.917-.616-8.081-2.854-1.527-1.579-1.569-3.46-4.182-4.246-3.993-1.2-9.235,1.363-11.637,4.795-3.85-1.944-7.215,4.346-3.625,8.073,1.271,1.319,1.984,1.193,2.066,3.294.072,1.835-.34,1.641-1.038,3.133a16.719,16.719,0,0,0-1.567,4.147,6.145,6.145,0,0,0,.168,3.356,1.013,1.013,0,0,0,.15.2,4.251,4.251,0,0,0,.852,3.092,2.023,2.023,0,0,0,1.311.888c2.642-5.43,10.911-2.856,8.976,1.982a7.746,7.746,0,0,1-5.621,4.538,4.345,4.345,0,0,0-1.05,3.221c.115,1.112.558,1.2.932,2.133.748,1.867.575,2.374.414,4.379-.2,2.432-.372,5.611,2.24,6.806,1.783.816,4.153-.606,5.2.976.859,1.3.049,3.885.5,5.458a5.433,5.433,0,0,0,5.783,4.115c1.751-.115,2.917-1.064,4.421-1.833,2.863-1.464,4.1-1.1,6.837.091,4.883,2.124,9.428.61,10.6-3.984,3.409.435,7.77-.376,9.342-3.784,1.092-2.367-.174-3.408-1.09-5.008,1.393-.51,3.23-.56,4.4-1.594a6.753,6.753,0,0,0,2.03-3.255C1511.5,462.024,1508.75,461.156,1507,458.793Z" transform="translate(-1438.06 -420.213)" fill="#9c4146"/>
            <path id="Trazado_1215571" data-name="Trazado 1215571" d="M1413.806,586.086c0,1-.609,1.815-1.361,1.815s-1.362-.813-1.362-1.815.609-1.815,1.362-1.815S1413.806,585.084,1413.806,586.086Z" transform="translate(-1403.075 -556.994)" fill="#32334c"/>
            <path id="Trazado_1215572" data-name="Trazado 1215572" d="M1406.776,537.24c-.139.16-.393,1.079-.083,1.171.7.208,1.408-.059,2.141.209a4.7,4.7,0,0,1,2,1.627,15.239,15.239,0,0,1,1.2,1.77c.345.591.573,1.56,1.11,2,.229.189.336-.691.333-.791C1413.4,540.955,1409.478,534.138,1406.776,537.24Z" transform="translate(-1399.292 -517.119)" fill="#9c4146"/>
            <path id="Trazado_1215573" data-name="Trazado 1215573" d="M1484.225,604.745a2.349,2.349,0,0,0-4.044-.957,3.379,3.379,0,0,0-.631,1.869c-.022.335.281,1.375.167,1.631-.2.451-1.3.6-1.675.689-.207.05-.342.762-.136.859,1.61.762,2.4-.411,2.423-1.951.007-.374-.169-.828-.126-1.176a1.214,1.214,0,0,1,1.193-1.089c1.149-.169,1.721.684,2.462,1.347C1484.153,606.232,1484.271,604.9,1484.225,604.745Z" transform="translate(-1458.703 -572.575)" fill="#d9776f"/>
            <path id="Trazado_1215574" data-name="Trazado 1215574" d="M1391.011,657.379s6.535.151,8.26,1.755c-1.24,2.057-3.933,4.659-6.354,3.691S1391.011,657.379,1391.011,657.379Z" transform="translate(-1386.302 -617.947)" fill="#fff"/>
            <path id="Trazado_1215575" data-name="Trazado 1215575" d="M1539.271,632.412a4.6,4.6,0,0,0,.12-2.453c-2.843.18-7.38-4.656-6.013.037,1.856,6.373-6.616,7.584-6.374,2.9s-7.1-8.148-7.181-.081-12.989,6.616-13.312,0-12.344,1.13-10.246-6.495c1.154-4.2-.344-5.7-1.925-6.2,0,.011-.007.022-.011.033a7.746,7.746,0,0,1-5.621,4.538,4.347,4.347,0,0,0-1.05,3.221c.115,1.112.558,1.2.932,2.133.748,1.867.575,2.374.413,4.379-.2,2.432-.372,5.611,2.241,6.806,1.783.816,4.153-.606,5.2.976.859,1.3.049,3.885.5,5.458a5.432,5.432,0,0,0,5.783,4.115c1.751-.115,2.916-1.064,4.421-1.833,2.863-1.463,4.1-1.1,6.837.091,4.882,2.124,9.428.61,10.6-3.984,3.409.435,7.77-.376,9.342-3.784,1.092-2.367-.175-3.408-1.09-5.008,1.393-.51,3.23-.56,4.4-1.594A6.752,6.752,0,0,0,1539.271,632.412Z" transform="translate(-1466.901 -586.883)" fill="#7d3539"/>
            <g id="Grupo_1240702" data-name="Grupo 1240702" transform="translate(33.524 11.719)">
              <path id="Trazado_1215576" data-name="Trazado 1215576" d="M1690.422,574.58c-1.955.666-4.325,1.947-5.935,1.447-1.858-.576-1.374-1.237-1.406-2.679.072-.334.125-.668.169-1-1.917,1.107-4.772.915-5.361,4.645C1677,582.652,1689.293,587.224,1690.422,574.58Z" transform="translate(-1659.006 -558.772)" fill="#7d3539"/>
              <path id="Trazado_1215577" data-name="Trazado 1215577" d="M1583.733,496.721a6.322,6.322,0,0,0-3.172.789c-1.446-.133-2.383-.379-2.8-3.644-.085-.67.171-1.388.128-2.071a8.4,8.4,0,0,0-.149-1.1c-1.672,2.711-4.546,6.067-7.989,4.667-5.506-2.239-7.322,7.624-2.118,9.2s6.9-3.812,8.774-1.21C1578.187,505.813,1584.769,501.127,1583.733,496.721Z" transform="translate(-1564.548 -490.698)" fill="#7d3539"/>
            </g>
            <g id="Grupo_1240703" data-name="Grupo 1240703" transform="translate(15.792 1.126)">
              <path id="Trazado_1215578" data-name="Trazado 1215578" d="M1500.578,567.8c-.355-1.138-.587-2.049-1.748-2.47-1.85-.671-4.895-.019-6.316-1.808s2.264-5.97,3.32-7.352c1.537-2.009,3.283-4.085,3.082-6.779a3.169,3.169,0,0,0-1.562-2.722c-1.908-1.1-3.991.084-5.941-.524-4.139-1.289-1.678-7.252-3.664-10.055a6.545,6.545,0,0,0-3.909-2.126,31.736,31.736,0,0,0-3.611-.6c-2.167-.285-2.738.208-2.914-2.831-.122-2.12.5-5.506-2.584-5.86-1.582-.181-2.988,1.051-4.378,1.573a6.922,6.922,0,0,1-2.89.441c-.032.065-.062.117-.1.189l-.212.451a6.692,6.692,0,0,0,2.438-.185c1.631-.435,3.253-1.961,5.024-1.754,3.365.392,2.22,4.586,2.334,6.855a2,2,0,0,0,.465,1.525c.967.977,4.03.712,5.369,1.02a9.115,9.115,0,0,1,3.676,1.455c1.447,1.173,1.437,2.74,1.556,4.461.15,2.163.142,6.071,2.462,7.167,1.693.8,3.828-.221,5.6.294,3.906,1.135.672,5.031-.8,6.982-1.7,2.246-3.929,5.238-3.853,8.235.073,2.861,3.327,3.348,5.617,3.679,1.394.2,2.108.279,2.776,1.722a13.927,13.927,0,0,1,.538,1.845c.073.245.146.484.223.72a8.225,8.225,0,0,0,1.312-.023A15.5,15.5,0,0,1,1500.578,567.8Z" transform="translate(-1465.616 -508.414)" fill="#c45259"/>
              <path id="Trazado_1215579" data-name="Trazado 1215579" d="M1517.965,649.788c1.068.544,3.437.733,2.494,2.645-.465.943-2.044,1.464-2.924,2.164a6.033,6.033,0,0,1,.119,1.424,4.758,4.758,0,0,1,.622-.54,8.223,8.223,0,0,0,2.409-2,3.942,3.942,0,0,0,.665-2.851c-.476-2.206-3.259-1.362-4.068-3-.546-1.1,1.362-2.993,1.43-4.291.081-1.543-1.1-2.271-2.345-2.968a16.239,16.239,0,0,1-2.132-.937c-.941-.857-1.054-2.674-.853-3.8.09-.506.179-1.02.226-1.536-.166.168-.334.328-.51.475a15.815,15.815,0,0,1-.248,2.137,6.171,6.171,0,0,0-.2,2.384c.534,2.015,3.51,1.767,4.791,3.251C1519.267,644.463,1514.2,647.869,1517.965,649.788Z" transform="translate(-1503.489 -599.662)" fill="#c45259"/>
              <path id="Trazado_1215580" data-name="Trazado 1215580" d="M1511.058,496.924c-1.021.139-1.5,1.1-2.686,1.174a3.656,3.656,0,0,1-2.7-.964c-1.089-1.053-1.056-2.836-2.192-3.859s-2.209-.415-3.441.047c-.369.138-1.06.487-1.465.3-.431-.195-.9-2.558-.927-2.991-.031-.53.085-1.069.042-1.6a3.437,3.437,0,0,0-1.253-2.708c-1.52-.97-2.812.692-4.307.311-1.921-.49-.376-4.926-.284-6.56a4.093,4.093,0,0,0-.291-2.339c-.965-1.3-2.655.15-3.786-.552-.783-.486-1.038-3.133-1.089-3.962-.01-.167,0-.341-.007-.507a7.031,7.031,0,0,0-.152-1.221,5.774,5.774,0,0,0-2.338-3.565c-3.221-2.1-6.4,1.563-9.7.513-1.965-.625-2.4-3.075-4.112-4.132a8.175,8.175,0,0,0-4.982-.983,9.994,9.994,0,0,0-7.5,5c.025.041.044.083.071.124,1.946-3.114,5.668-5.385,9.431-4.623a6.632,6.632,0,0,1,4.355,2.942c.662,1.06,1.02,2.315,2.222,2.894,3.273,1.578,6.636-2.4,9.865-.273,2.125,1.4,2.148,3.579,2.144,5.9a4.211,4.211,0,0,0,.714,2.94c.96,1.079,2.009.3,3.171.572,1.13.26.407-.965.8,1.9a5.657,5.657,0,0,1,.059,2.743c-.134.723-.34,1.434-.417,2.167-.265,2.534,1.265,2.849,3.443,2.292.986-.252,1.973-.521,2.76.338.952,1.039.474,2.782.5,4.066.019.827.008,2.067.786,2.621.8.572,1.612.06,2.406-.222.877-.311,1.474-.638,2.387-.241,1.125.49,1.365,1.711,1.831,2.737a3.782,3.782,0,0,0,2.8,2.388c1.45.281,3.474-1.458,4.578-.739.6.392.915,1.654,1.5,2.189a4.841,4.841,0,0,0,1.12.759c.019-.061.046-.117.064-.178a5.2,5.2,0,0,0,.225-1.84,4.158,4.158,0,0,1-1.432-.979C1512.568,498.043,1512.282,496.758,1511.058,496.924Z" transform="translate(-1457.896 -457.246)" fill="#c45259"/>
              <path id="Trazado_1215581" data-name="Trazado 1215581" d="M1510.478,427.644a5.471,5.471,0,0,1,2.979,3.1c.308.654.424,1.635.935,2.163,1.38,1.428,3.031-.911,4.646-.61,2.151.4,1.923,3.1,4.483,2.776a44.644,44.644,0,0,0,4.486-1.271,7.167,7.167,0,0,0-.641-.554,5.425,5.425,0,0,0-1.1-.648c-.609.2-1.215.4-1.818.568-2,.545-2.378-.327-3.7-1.432a2.449,2.449,0,0,0-2.269-.7c-1.014.18-2.193,1.5-3.217,1.319-.955-.173-1.395-1.679-1.83-2.4a5.839,5.839,0,0,0-5.114-2.977q-.5.235-.974.51A5.273,5.273,0,0,1,1510.478,427.644Z" transform="translate(-1499.118 -426.985)" fill="#c45259"/>
            </g>
          </g>
          <path id="Trazado_1215582" data-name="Trazado 1215582" d="M891.547,591.7c-.54-.353-5.99-2.844-6.716-4.478s-6.6,7.019-5.627,12.162c.968,1.392,3.57.908,5.506,2.965C887.311,602.406,891.547,591.7,891.547,591.7Z" transform="translate(-858.126 -559.283)" fill="#c74736"/>
          <path id="Trazado_1215583" data-name="Trazado 1215583" d="M916.926,611.863s33.28,10.449,40.783,17.145,49.556,9.721,50.312,12.867,3.479,46.228,0,53.369c-6.988-5.809-20.663-16.579-35.185-22.872s-17.911-10.286-19.6-13.07-7.14-.484-12.586-3.267-31.949-28.2-32.191-32.433S913.9,610.887,916.926,611.863Z" transform="translate(-882.597 -579.934)" fill="#f08043"/>
          <path id="Trazado_1215584" data-name="Trazado 1215584" d="M1715.67,948.116c7.5,12.1,27.35,48.649,27.35,48.649s14.828-4.763,24.8-8.5c-8.129-17-18.167-35.715-28.189-50.084C1730.271,941.255,1718.954,945.381,1715.67,948.116Z" transform="translate(-1555.608 -852.063)" fill="#32334c"/>
          <path id="Trazado_1215585" data-name="Trazado 1215585" d="M1691.049,1418.43c-9.249-2.011-14.731-9.958-20.067-17.066-.309-.412-2.165,1.164-1.837,1.712,4.723,7.889,10.3,15.376,19.515,18.011C1689.621,1421.362,1691.751,1418.583,1691.049,1418.43Z" transform="translate(-1516.787 -1238.177)" fill="#f08043"/>
          <path id="Trazado_1215586" data-name="Trazado 1215586" d="M1598.447,2390.588s22.449.6,33.159-1.271a19.735,19.735,0,0,1-1.452,3.789c-24.2,3.956-31.525,1.355-32.13,1.113C1597.66,2393.009,1598.447,2390.588,1598.447,2390.588Z" transform="translate(-1457.442 -2061.925)" fill="#6d6fa6"/>
          <path id="Trazado_1215587" data-name="Trazado 1215587" d="M1874.359,2370.354c.147-.061,29.131-4.175,30.644-3.752-.182.726-.363,3.752-.968,4.175s-21.775,3.873-29.676,3.086C1874.264,2372.472,1874.359,2370.354,1874.359,2370.354Z" transform="translate(-1687.877 -2042.962)" fill="#6d6fa6"/>
          <path id="Trazado_1215588" data-name="Trazado 1215588" d="M1888.539,1812.68s13.876-42.84,14.038-44.454,17.1-5.163,17.749-4.84-7.584,6.615-8.391,7.422,5.647,2.582,5.809,3.388-32.185,73.721-32.185,73.721Z" transform="translate(-1697.25 -1540.047)" fill="#29293d"/>
          <path id="Trazado_1215589" data-name="Trazado 1215589" d="M1931.423,1755.378a23.966,23.966,0,0,0-7.817,2.214,14.6,14.6,0,0,0-4.932,2.918c-.087.09-.178.174-.258.272-.042.052-.079.111-.12.164s-.088.118-.13.178a19.807,19.807,0,0,0-2.333,5.548c-.847,2.668-1.478,5.4-2.115,8.122a106.226,106.226,0,0,1-5.008,15.722c-1.99,4.938-4.312,10.19-5.225,15.45-.032.183.866.189.944.008,2.046-4.719,3.389-9.769,5.3-14.553a102.414,102.414,0,0,0,4.48-12.8c1.16-4.566,2.023-9.225,3.623-13.668.185-.513.386-.982.6-1.433a34.209,34.209,0,0,0,4.354-1.368c1.547-.425,3.38-.434,4.809-1.125.1-.047.137-.216.14-.418.014.006.027.019.042.019.174,0,.077-.943-.183-.943-.029,0-.048.032-.062.075a.287.287,0,0,0-.147-.138c-1.9-.436-4.349.181-6.509,1.03a37.452,37.452,0,0,1,3.412-1.552,29.809,29.809,0,0,1,7.481-1.937C1932.154,1757.109,1931.873,1755.346,1931.423,1755.378Z" transform="translate(-1712.196 -1533.387)" fill="#223"/>
          <path id="Trazado_1215590" data-name="Trazado 1215590" d="M1419.38,2647.35s1.513,6.051.423,7.5-33.219,1.271-39.694,1.21-12.707-3.933-10.044-6.9C1380.353,2650.617,1419.38,2647.35,1419.38,2647.35Z" transform="translate(-1266.94 -2277.057)" fill="#32334c"/>
          <path id="Trazado_1215591" data-name="Trazado 1215591" d="M1408.12,2537.176c-.182-.121-6.958-7.5-8.048-7.382s1.573,7.261.908,8.774-26.624,11.557-28.318,12.586,16.054,2.368,31.041,1.392c15.168-.989,18.153-2.178,18.274-3.207s-2.844-12.586-3.267-13.8S1408.12,2537.176,1408.12,2537.176Z" transform="translate(-1269.536 -2179.045)" fill="#f25b5b"/>
          <path id="Trazado_1215592" data-name="Trazado 1215592" d="M1854.71,2560.039s15.369,1.27,16.156,0,.3-13.373,0-14.946-5.4-4.478-12.9,1.512C1855.92,2550.054,1854.71,2560.039,1854.71,2560.039Z" transform="translate(-1671.531 -2190.048)" fill="#f25b5b"/>
          <path id="Trazado_1215593" data-name="Trazado 1215593" d="M1848.259,2642s-1.452,7.5-1.271,8.229,17.252.242,17.854,0-.316-8.517-.316-8.517S1860.664,2640.613,1848.259,2642Z" transform="translate(-1665.08 -2272.014)" fill="#32334c"/>
          <path id="Trazado_1215594" data-name="Trazado 1215594" d="M1171.892,778.135a37.746,37.746,0,0,0-2.308,4.035c-.2.352-.426.693-.64,1.039a23.043,23.043,0,0,0,.021-4.737c-.169-3.08-.25-7.583-2.09-10.141-.154-.214-1.026.172-1.038.409-.134,2.829,1.017,5.82,1.327,8.656.288,2.643,1.026,6.347-.218,8.814-.082.163.873-.1,1-.294.017-.026.028-.055.045-.082a.774.774,0,0,0,.271-.183c.961-1.3,1.869-2.633,2.7-4.02a10.776,10.776,0,0,0,1.792-3.75C1172.786,777.607,1171.967,778.036,1171.892,778.135Z" transform="translate(-1097.183 -710.4)" fill="#e7673f"/>
          <g id="Grupo_1240705" data-name="Grupo 1240705" transform="translate(179.393 95.51)">
            <path id="Trazado_1215595" data-name="Trazado 1215595" d="M1842.1,1027.566c1.922,1,3.946-.115,5.664-1.083a53.311,53.311,0,0,0,9.191-6.757c-.163-.312-.324-.624-.488-.937a31.373,31.373,0,0,1-2.665,2.072c-1.942,1.615-7.535,7.069-10.47,4.221-1.3-1.263-1.981-4.387-2.627-6.056q-1.455-3.758-2.607-7.622a110.3,110.3,0,0,1-3.293-14.972,52.5,52.5,0,0,1,10.81,2.917q-.74-1.234-1.483-2.451a44.237,44.237,0,0,0-9.857-2.237c-.557-.062-2.436.538-2.338,1.293a102.76,102.76,0,0,0,3.8,17.474q1.338,4.27,3.052,8.411C1839.51,1023.591,1840.261,1026.612,1842.1,1027.566Z" transform="translate(-1831.935 -994.657)" fill="#fed370"/>
            <path id="Trazado_1215596" data-name="Trazado 1215596" d="M1886.973,1060.541c-.571,4.017-1.479,10.342,2.67,12.82.436.261,1.413-.224,1.759-.429,2.124-1.256,3.667-3.163,5.4-4.913.987-1-1.692-.216-2.138.234-.926.936-2.043,2.307-3.18,3.313-2.848-2.29-2.538-6.9-2.072-10.417a24.7,24.7,0,0,1,9.241,5.428q-1.425-2.621-2.882-5.2a14.193,14.193,0,0,0-6.424-2.013C1888.768,1059.345,1887.077,1059.806,1886.973,1060.541Z" transform="translate(-1877.404 -1048.604)" fill="#fed370"/>
          </g>
          <path id="Trazado_1215597" data-name="Trazado 1215597" d="M1479.922,2584.2h0a30.876,30.876,0,0,0-1.359-5.437c-.11-.315-1.814.519-1.636,1.022.32.9.593,1.806.825,2.722-.768-.594-1.54-1.183-2.323-1.757-.326-.239-1.546.447-1.515.858.1,1.3.19,2.6.283,3.905-1.362-.794-2.711-1.61-4.069-2.414-.3-.178-1.47.542-1.429.893.1.864.221,1.726.331,2.589-.7-.625-1.4-1.245-2.151-1.809-.2-.147-1.04.342-.9.565a17.012,17.012,0,0,0,3.376,3.724c.294.264,1.519-.461,1.478-.836-.108-.991-.242-1.978-.369-2.967,1.286.825,2.617,1.579,3.961,2.306.337.183,1.56-.569,1.528-.955-.1-1.174-.2-2.347-.309-3.52q1.326,1.069,2.664,2.122c.331.261,1.7-.5,1.632-.924C1479.934,2584.259,1479.927,2584.23,1479.922,2584.2Z" transform="translate(-1347.417 -2219.815)" fill="#32334c"/>
        </g>
      </g>
    </g>
  </g>
</svg>
