<svg xmlns="http://www.w3.org/2000/svg" xmlns:xlink="http://www.w3.org/1999/xlink" width="108" height="108" viewBox="0 0 108 108">
  <defs>
    <filter id="Trazado_904820" x="0" y="0" width="108" height="108" filterUnits="userSpaceOnUse">
      <feOffset dy="3" input="SourceAlpha"/>
      <feGaussianBlur stdDeviation="3" result="blur"/>
      <feFlood flood-opacity="0.161"/>
      <feComposite operator="in" in2="blur"/>
      <feComposite in="SourceGraphic"/>
    </filter>
  </defs>
  <g id="Grupo_1240722" data-name="Grupo 1240722" transform="translate(-620.057 -5642.07)">
    <g id="Grupo_1226149" data-name="Grupo 1226149" transform="translate(629.057 5648.07)">
      <g id="Grupo_1223550" data-name="Grupo 1223550" transform="translate(0 0)">
        <g id="Grupo_1223164" data-name="Grupo 1223164">
          <g id="Grupo_1203639" data-name="Grupo 1203639">
            <g id="Grupo_1202437" data-name="Grupo 1202437">
              <g id="Grupo_1177315" data-name="Grupo 1177315">
                <g id="Grupo_1173585" data-name="Grupo 1173585">
                  <g id="Grupo_1173428" data-name="Grupo 1173428">
                    <g id="Grupo_1171958" data-name="Grupo 1171958">
                      <g id="Grupo_1167341" data-name="Grupo 1167341">
                        <g id="Grupo_1166792" data-name="Grupo 1166792">
                          <g transform="matrix(1, 0, 0, 1, -9, -6)" filter="url(#Trazado_904820)">
                            <g id="Trazado_904820-2" data-name="Trazado 904820" transform="translate(9 6)" fill="#ebe9f0">
                              <path d="M 44.99999618530273 88.49995422363281 C 39.12687301635742 88.49995422363281 33.43022155761719 87.35002899169922 28.06829643249512 85.08213043212891 C 22.88852119445801 82.89126586914062 18.23629570007324 79.75455474853516 14.24084663391113 75.75910186767578 C 10.24540901184082 71.76364898681641 7.108683586120605 67.11144256591797 4.917821407318115 61.93166351318359 C 2.649921178817749 56.56974029541016 1.499996185302734 50.87310028076172 1.499996185302734 44.99997711181641 C 1.499996185302734 39.12685394287109 2.649921178817749 33.43021392822266 4.917821407318115 28.06828880310059 C 7.108683586120605 22.88851547241211 10.24540901184082 18.23630142211914 14.24084663391113 14.24085235595703 C 18.23629570007324 10.24540233612061 22.88852119445801 7.108689785003662 28.06829643249512 4.917827129364014 C 33.43022155761719 2.649927139282227 39.12687301635742 1.500002145767212 44.99999618530273 1.500002145767212 C 50.87311935424805 1.500002145767212 56.56977081298828 2.649927139282227 61.93169784545898 4.917827129364014 C 67.11147308349609 7.108689785003662 71.76369476318359 10.24540233612061 75.75914764404297 14.24085235595703 C 79.75458526611328 18.23630142211914 82.89131164550781 22.88851547241211 85.08216857910156 28.06828880310059 C 87.35007476806641 33.43021392822266 88.5 39.12685394287109 88.5 44.99997711181641 C 88.5 50.87310028076172 87.35007476806641 56.56974029541016 85.08216857910156 61.93166351318359 C 82.89131164550781 67.11144256591797 79.75458526611328 71.76364898681641 75.75914764404297 75.75910186767578 C 71.76369476318359 79.75455474853516 67.11147308349609 82.89126586914062 61.93169784545898 85.08213043212891 C 56.56977081298828 87.35002899169922 50.87311935424805 88.49995422363281 44.99999618530273 88.49995422363281 Z" stroke="none"/>
                              <path d="M 44.99999618530273 2.999992370605469 C 39.32870864868164 2.999992370605469 33.82865142822266 4.11004638671875 28.65262603759766 6.299331665039062 C 23.65165710449219 8.414566040039062 19.15968322753906 11.44333648681641 15.301513671875 15.30150604248047 C 11.44333648681641 19.15967559814453 8.414566040039062 23.65163421630859 6.299339294433594 28.65260696411133 C 4.110054016113281 33.82864761352539 2.999992370605469 39.32868957519531 2.999992370605469 44.99997711181641 C 2.999992370605469 50.6712646484375 4.110054016113281 56.17130661010742 6.299339294433594 61.34733581542969 C 8.414566040039062 66.34830474853516 11.44333648681641 70.84026336669922 15.301513671875 74.69844818115234 C 19.15968322753906 78.55661773681641 23.65165710449219 81.58537292480469 28.65262603759766 83.70062255859375 C 33.82865142822266 85.889892578125 39.32870864868164 86.99994659423828 44.99999618530273 86.99994659423828 C 50.67128372192383 86.99994659423828 56.17134094238281 85.889892578125 61.34736633300781 83.70062255859375 C 66.34834289550781 81.58537292480469 70.84030914306641 78.55661773681641 74.69847869873047 74.69844818115234 C 78.55665588378906 70.84026336669922 81.58542633056641 66.34830474853516 83.70065307617188 61.34733581542969 C 85.88993835449219 56.17130661010742 87 50.6712646484375 87 44.99997711181641 C 87 39.32868957519531 85.88993835449219 33.82864761352539 83.70065307617188 28.65260696411133 C 81.58542633056641 23.65163421630859 78.55665588378906 19.15967559814453 74.69847869873047 15.30150604248047 C 70.84030914306641 11.44333648681641 66.34834289550781 8.414566040039062 61.34736633300781 6.299331665039062 C 56.17134094238281 4.11004638671875 50.67128372192383 2.999992370605469 44.99999618530273 2.999992370605469 M 44.99999618530273 -7.62939453125e-06 C 69.85281372070312 -7.62939453125e-06 90 20.14717864990234 90 44.99997711181641 C 90 69.85277557373047 69.85281372070312 89.99994659423828 44.99999618530273 89.99994659423828 C 20.14717864990234 89.99994659423828 -7.62939453125e-06 69.85277557373047 -7.62939453125e-06 44.99997711181641 C -7.62939453125e-06 20.14717864990234 20.14717864990234 -7.62939453125e-06 44.99999618530273 -7.62939453125e-06 Z" stroke="none" fill="#453179"/>
                            </g>
                          </g>
                        </g>
                      </g>
                    </g>
                  </g>
                </g>
              </g>
            </g>
          </g>
        </g>
      </g>
    </g>
    <g id="desarrollo" transform="translate(643.43 5655.907)">
      <path id="Trazado_1215598" data-name="Trazado 1215598" d="M275.84,17a16.193,16.193,0,0,0-12.645,6.06,19.07,19.07,0,0,1,3.969,1.853l1.72-1.72a.687.687,0,0,1,.971,0l1.694,1.694a.679.679,0,0,0,.747.148q.129-.056.26-.108a.679.679,0,0,0,.425-.633V21.9a.686.686,0,0,1,.686-.686h4.347a.686.686,0,0,1,.686.686v2.4a.679.679,0,0,0,.424.633q.131.052.26.108a.678.678,0,0,0,.747-.148l1.694-1.694a.687.687,0,0,1,.971,0l3.074,3.074a.687.687,0,0,1,0,.971l-1.694,1.694a.679.679,0,0,0-.148.747q.056.129.108.26a.679.679,0,0,0,.633.424h2.4a.686.686,0,0,1,.686.686V35.4a.686.686,0,0,1-.686.686h-2.4a.679.679,0,0,0-.633.424q-.052.131-.108.26a.678.678,0,0,0,.148.747l1.694,1.694a.687.687,0,0,1,0,.971L282.8,43.255a.687.687,0,0,1-.971,0l-1.694-1.694a.679.679,0,0,0-.747-.148q-.129.056-.26.108a.679.679,0,0,0-.424.633v2.4a.686.686,0,0,1-.686.686h-2.175a19.058,19.058,0,0,1-1.39,4.153c.459.039.923.06,1.392.06a16.224,16.224,0,1,0,0-32.448Z" transform="translate(-231.707 -8.432)" fill="#ffe177"/>
      <g id="Grupo_1240717" data-name="Grupo 1240717" transform="translate(1.092 12.781)">
        <g id="Grupo_1240711" data-name="Grupo 1240711" transform="translate(0 0.86)">
          <g id="Grupo_1240708" data-name="Grupo 1240708" transform="translate(17.206 32.779)">
            <path id="Trazado_1215599" data-name="Trazado 1215599" d="M165.456,338.184a1.813,1.813,0,0,0-1.143,1.02l-1.8,4.131a4.152,4.152,0,0,1-3.808,2.5h-5.758v5.938a1.2,1.2,0,0,0,1.2,1.2h18.2a1.2,1.2,0,0,0,1.2-1.2V333.382A19.171,19.171,0,0,1,165.456,338.184Z" transform="translate(-152.951 -333.382)" fill="#ffcebf"/>
          </g>
          <g id="Grupo_1240710" data-name="Grupo 1240710" transform="translate(17.206 45.229)">
            <g id="Grupo_1240709" data-name="Grupo 1240709">
              <path id="Trazado_1215600" data-name="Trazado 1215600" d="M157.982,443.384v-5.938h-5.031v5.938a1.2,1.2,0,0,0,1.2,1.2h5.031A1.2,1.2,0,0,1,157.982,443.384Z" transform="translate(-152.951 -437.446)" fill="#ffb09e"/>
            </g>
          </g>
          <path id="Trazado_1215601" data-name="Trazado 1215601" d="M50,82.564a.686.686,0,0,1-.686-.686v-2.4a.679.679,0,0,0-.424-.633q-.131-.052-.26-.108a.678.678,0,0,0-.747.148l-1.694,1.694a.687.687,0,0,1-.971,0l-3.074-3.074a.686.686,0,0,1,0-.971l1.694-1.694a.679.679,0,0,0,.148-.747q-.056-.129-.108-.261a.679.679,0,0,0-.633-.424h-2.4a.686.686,0,0,1-.686-.686V68.379a.686.686,0,0,1,.686-.686h2.4a.679.679,0,0,0,.633-.424q.052-.131.108-.261a.679.679,0,0,0-.148-.747l-1.694-1.694a.686.686,0,0,1,0-.971L43.5,62.241A19.219,19.219,0,0,0,14.224,78.419a.6.6,0,0,1-.085.3l-4.52,7.493A3.355,3.355,0,0,0,12.492,91.3h3.824a.916.916,0,0,1,.916.916v8.258a4.152,4.152,0,0,0,4.152,4.152H32.1a4.152,4.152,0,0,0,3.808-2.5L37.7,98a1.813,1.813,0,0,1,1.143-1.02A19.212,19.212,0,0,0,52.173,82.564H50Z" transform="translate(-9.132 -59.4)" fill="#ffdfcf"/>
        </g>
        <g id="Grupo_1240712" data-name="Grupo 1240712" transform="translate(18.725 14.459)">
          <circle id="Elipse_12781" data-name="Elipse 12781" cx="5.496" cy="5.496" r="5.496" fill="#ffd15b"/>
        </g>
        <g id="Grupo_1240713" data-name="Grupo 1240713" transform="translate(18.725 14.459)">
          <path id="Trazado_1215602" data-name="Trazado 1215602" d="M169.65,178.561a5.5,5.5,0,0,1,3.493-5.118,5.5,5.5,0,1,0,0,10.235A5.5,5.5,0,0,1,169.65,178.561Z" transform="translate(-165.644 -173.065)" fill="#ffc344"/>
        </g>
        <g id="Grupo_1240716" data-name="Grupo 1240716" transform="translate(31.029)">
          <g id="Grupo_1240714" data-name="Grupo 1240714">
            <path id="Trazado_1215603" data-name="Trazado 1215603" d="M292.514,66.4V62.049a.686.686,0,0,0-.686-.686h-2.4a.679.679,0,0,1-.633-.424q-.052-.131-.108-.26a.679.679,0,0,1,.148-.747l1.694-1.694a.686.686,0,0,0,0-.971l-3.074-3.074a.686.686,0,0,0-.971,0l-1.694,1.694a.679.679,0,0,1-.747.148q-.129-.056-.261-.108a.679.679,0,0,1-.424-.633V52.9a.686.686,0,0,0-.686-.686h-4.347a.686.686,0,0,0-.686.686v2.4a.679.679,0,0,1-.424.633q-.131.052-.26.108a.679.679,0,0,1-.747-.148l-1.694-1.694a.686.686,0,0,0-.971,0l-3.074,3.074a.686.686,0,0,0,0,.971l1.694,1.694a.679.679,0,0,1,.148.747q-.056.129-.108.261a.679.679,0,0,1-.633.424h-2.4a.686.686,0,0,0-.686.686V66.4a.686.686,0,0,0,.686.686h2.4a.679.679,0,0,1,.633.424q.052.131.108.261a.679.679,0,0,1-.148.747l-1.694,1.694a.686.686,0,0,0,0,.971l3.074,3.074a.686.686,0,0,0,.971,0l1.694-1.694a.679.679,0,0,1,.747-.148q.129.056.26.108a.679.679,0,0,1,.424.633v2.4a.686.686,0,0,0,.686.686h4.347a.686.686,0,0,0,.686-.686v-2.4a.679.679,0,0,1,.424-.633q.131-.052.261-.108a.679.679,0,0,1,.747.148l1.694,1.694a.686.686,0,0,0,.971,0l3.074-3.074a.686.686,0,0,0,0-.971l-1.694-1.694a.679.679,0,0,1-.148-.747q.056-.129.108-.26a.679.679,0,0,1,.633-.424h2.4A.686.686,0,0,0,292.514,66.4Z" transform="translate(-268.491 -52.211)" fill="#e1d3ce"/>
          </g>
          <g id="Grupo_1240715" data-name="Grupo 1240715" transform="translate(6.286 6.287)">
            <circle id="Elipse_12782" data-name="Elipse 12782" cx="5.725" cy="5.725" r="5.725" fill="#b9acac"/>
          </g>
          <path id="Trazado_1215604" data-name="Trazado 1215604" d="M349.889,136.193a2.582,2.582,0,1,1,2.582-2.582A2.585,2.585,0,0,1,349.889,136.193Z" transform="translate(-337.878 -121.599)" fill="#fff"/>
        </g>
      </g>
      <g id="Grupo_1240720" data-name="Grupo 1240720" transform="translate(42.233 43.862)">
        <g id="Grupo_1240718" data-name="Grupo 1240718">
          <path id="Trazado_1215605" data-name="Trazado 1215605" d="M368.555,321.185V318.37a.444.444,0,0,0-.444-.444H366.56a.439.439,0,0,1-.41-.275q-.034-.085-.07-.169a.439.439,0,0,1,.1-.484l1.1-1.1a.444.444,0,0,0,0-.628l-1.99-1.99a.444.444,0,0,0-.628,0l-1.1,1.1a.439.439,0,0,1-.484.1q-.084-.036-.169-.07a.439.439,0,0,1-.275-.41v-1.551a.444.444,0,0,0-.444-.444h-2.814a.444.444,0,0,0-.444.444V314a.439.439,0,0,1-.275.41q-.085.034-.169.07a.439.439,0,0,1-.484-.1l-1.1-1.1a.444.444,0,0,0-.628,0l-1.99,1.99a.444.444,0,0,0,0,.628l1.1,1.1a.439.439,0,0,1,.1.484q-.036.084-.07.169a.44.44,0,0,1-.41.275h-1.551a.444.444,0,0,0-.444.444v2.814a.444.444,0,0,0,.444.444H355a.439.439,0,0,1,.41.275q.033.085.07.169a.439.439,0,0,1-.1.484l-1.1,1.1a.444.444,0,0,0,0,.628l1.99,1.99a.444.444,0,0,0,.628,0l1.1-1.1a.439.439,0,0,1,.484-.1q.084.036.169.07a.439.439,0,0,1,.275.41v1.551a.444.444,0,0,0,.444.444h2.814a.444.444,0,0,0,.444-.444v-1.551a.439.439,0,0,1,.275-.41q.085-.034.169-.07a.439.439,0,0,1,.484.1l1.1,1.1a.444.444,0,0,0,.629,0l1.99-1.99a.444.444,0,0,0,0-.628l-1.1-1.1a.439.439,0,0,1-.1-.484q.036-.084.07-.169a.439.439,0,0,1,.41-.275h1.551A.444.444,0,0,0,368.555,321.185Z" transform="translate(-353.002 -312.001)" fill="#e1d3ce"/>
        </g>
        <g id="Grupo_1240719" data-name="Grupo 1240719" transform="translate(5.321 5.321)">
          <circle id="Elipse_12783" data-name="Elipse 12783" cx="2.456" cy="2.456" r="2.456" fill="#b9acac"/>
        </g>
      </g>
      <g id="Grupo_1240721" data-name="Grupo 1240721" transform="translate(0 7.423)">
        <path id="Trazado_1215606" data-name="Trazado 1215606" d="M199.3,9.227c.576-.016,1.155-.011,1.73.015h.041a.9.9,0,0,0,.039-1.794c-.617-.028-1.24-.033-1.859-.016a.9.9,0,0,0,.049,1.794Z" transform="translate(-174.649 -7.423)"/>
        <path id="Trazado_1215607" data-name="Trazado 1215607" d="M.9,200.109a.9.9,0,0,0,.9-.9c0-.575.021-1.156.062-1.727a.9.9,0,0,0-1.79-.13c-.045.614-.067,1.239-.067,1.857A.9.9,0,0,0,.9,200.109Z" transform="translate(0 -173.899)"/>
        <path id="Trazado_1215608" data-name="Trazado 1215608" d="M243.871,12.934c.563.109,1.129.241,1.683.391a.9.9,0,1,0,.471-1.732c-.6-.162-1.206-.3-1.812-.421a.9.9,0,1,0-.342,1.762Z" transform="translate(-214.054 -10.709)"/>
        <path id="Trazado_1215609" data-name="Trazado 1215609" d="M19.982,114.376a.9.9,0,0,0,1.195-.428c.245-.519.513-1.035.8-1.535a.9.9,0,1,0-1.562-.884c-.3.538-.593,1.094-.857,1.652A.9.9,0,0,0,19.982,114.376Z" transform="translate(-17.139 -98.673)"/>
        <path id="Trazado_1215610" data-name="Trazado 1215610" d="M5.594,155.881a.9.9,0,0,0,1.071-.68c.125-.56.272-1.122.438-1.671a.9.9,0,1,0-1.718-.519c-.179.591-.337,1.2-.472,1.8A.9.9,0,0,0,5.594,155.881Z" transform="translate(-4.306 -135.032)"/>
        <path id="Trazado_1215611" data-name="Trazado 1215611" d="M154.806,12.669a.906.906,0,0,0,.221-.028c.556-.141,1.124-.262,1.689-.361a.9.9,0,0,0-.31-1.768c-.609.107-1.221.238-1.819.389a.9.9,0,0,0,.219,1.768Z" transform="translate(-135.496 -10.131)"/>
        <path id="Trazado_1215612" data-name="Trazado 1215612" d="M112.78,25.65a.9.9,0,0,0,.405-.1c.512-.259,1.039-.5,1.567-.723a.9.9,0,0,0-.691-1.656c-.569.237-1.136.5-1.687.779a.9.9,0,0,0,.407,1.7Z" transform="translate(-98.497 -21.228)"/>
        <path id="Trazado_1215613" data-name="Trazado 1215613" d="M43.369,77.645a.9.9,0,0,0,1.259-.156c.352-.452.727-.9,1.112-1.324a.9.9,0,0,0-1.331-1.2c-.414.458-.817.937-1.2,1.424A.9.9,0,0,0,43.369,77.645Z" transform="translate(-37.876 -66.621)"/>
        <path id="Trazado_1215614" data-name="Trazado 1215614" d="M75.232,47.743a.894.894,0,0,0,.57-.205c.443-.365.9-.718,1.372-1.049a.9.9,0,1,0-1.037-1.464c-.5.357-1,.737-1.477,1.129a.9.9,0,0,0,.571,1.59Z" transform="translate(-65.441 -40.381)"/>
        <path id="Trazado_1215615" data-name="Trazado 1215615" d="M40.312,59.271a.9.9,0,0,0,.9-.9V48.631A20.087,20.087,0,0,0,44.7,43.722c.286.014.569.022.848.022A17.122,17.122,0,1,0,32.6,15.423a20.257,20.257,0,0,0-5.251-.842A20.08,20.08,0,0,0,6.705,34.4L2.228,41.822a4.252,4.252,0,0,0,3.641,6.448H9.693a.019.019,0,0,1,.019.019v8.258a5.055,5.055,0,0,0,5.05,5.049h4.057v5.041a2.1,2.1,0,0,0,2.094,2.094h18.2a2.1,2.1,0,0,0,2.094-2.094V62.561a.9.9,0,0,0-1.795,0v4.077a.3.3,0,0,1-.3.3h-18.2a.3.3,0,0,1-.3-.3V61.6h4.861A5.048,5.048,0,0,0,30.1,58.561l1.8-4.131a.911.911,0,0,1,.574-.517,20.025,20.025,0,0,0,6.939-3.643v8.1A.9.9,0,0,0,40.312,59.271ZM42.6,34.085c-.079-.031-.156-.063-.234-.1a1.567,1.567,0,0,0-1.738.337L39.079,35.87,36.3,33.094l1.545-1.545a1.566,1.566,0,0,0,.337-1.738q-.05-.116-.1-.234a1.567,1.567,0,0,0-1.468-.992H34.436V24.66H36.62a1.567,1.567,0,0,0,1.468-.993q.046-.118.1-.233a1.567,1.567,0,0,0-.337-1.738L36.3,20.151l2.776-2.776,1.545,1.545a1.567,1.567,0,0,0,1.738.337q.116-.05.234-.1a1.566,1.566,0,0,0,.992-1.468V15.508h3.925v2.185a1.566,1.566,0,0,0,.992,1.468q.118.047.234.1a1.567,1.567,0,0,0,1.738-.337l1.545-1.545L54.8,20.152,53.253,21.7a1.566,1.566,0,0,0-.337,1.738q.05.116.1.234a1.567,1.567,0,0,0,1.468.992h2.185v3.925H54.48a1.567,1.567,0,0,0-1.468.992c-.031.079-.063.157-.1.234a1.567,1.567,0,0,0,.337,1.738L54.8,33.094,52.022,35.87l-1.545-1.545a1.567,1.567,0,0,0-1.738-.337q-.116.05-.234.1a1.566,1.566,0,0,0-.992,1.468v2.185H43.588V35.553A1.566,1.566,0,0,0,42.6,34.085ZM45.55,11.3a15.327,15.327,0,1,1,0,30.654h-.058a20.067,20.067,0,0,0,.767-2.417h1.465a1.585,1.585,0,0,0,1.584-1.584V35.7h0L50.9,37.288a1.586,1.586,0,0,0,2.24,0l3.074-3.074a1.586,1.586,0,0,0,0-2.24l-1.593-1.593v0h2.252A1.585,1.585,0,0,0,58.46,28.8V24.449a1.585,1.585,0,0,0-1.584-1.584H54.624v0l1.593-1.593a1.584,1.584,0,0,0,0-2.24l-3.074-3.074a1.585,1.585,0,0,0-2.24,0L49.31,17.55h0V15.3a1.585,1.585,0,0,0-1.584-1.584H43.377A1.585,1.585,0,0,0,41.794,15.3v2.252h0L40.2,15.957a1.586,1.586,0,0,0-2.24,0l-1.228,1.228a19.947,19.947,0,0,0-2.293-1.115A15.251,15.251,0,0,1,45.55,11.3Zm-13.584,40.9a2.7,2.7,0,0,0-1.712,1.523l-1.8,4.131A3.254,3.254,0,0,1,25.474,59.8H14.762a3.259,3.259,0,0,1-3.255-3.255V48.289a1.815,1.815,0,0,0-1.813-1.813H5.87a2.457,2.457,0,0,1-2.1-3.727l4.52-7.493A1.5,1.5,0,0,0,8.5,34.5,18.285,18.285,0,0,1,26.78,16.368q.261,0,.523.007a18.322,18.322,0,0,1,8.107,2.132l-.524.524a1.584,1.584,0,0,0,0,2.24l1.593,1.593v0H34.225a1.583,1.583,0,0,0-1.313.7,12.617,12.617,0,0,0-18.8,11,.9.9,0,1,0,1.795,0A10.818,10.818,0,0,1,32.641,25.5V28.8a1.585,1.585,0,0,0,1.584,1.584h2.252v0l-1.593,1.593a1.584,1.584,0,0,0,0,2.24l2.462,2.463A10.843,10.843,0,0,1,26.73,45.392a.9.9,0,1,0,0,1.795,12.642,12.642,0,0,0,12.213-9.442,1.58,1.58,0,0,0,1.256-.457L41.791,35.7h0v2.252a1.585,1.585,0,0,0,1.584,1.584H44.4A18.249,18.249,0,0,1,31.967,52.191Z" transform="translate(-1.417 -9.252)"/>
        <path id="Trazado_1215616" data-name="Trazado 1215616" d="M170.627,173.9a.9.9,0,0,0-1.709-.547,4.6,4.6,0,1,1-.291-3.5.9.9,0,0,0,1.6-.822,6.392,6.392,0,1,0,.4,4.872Z" transform="translate(-139.224 -146.643)"/>
        <path id="Trazado_1215617" data-name="Trazado 1215617" d="M326.38,106.148a.9.9,0,1,0-1.686-.614,4.828,4.828,0,1,1-.088-3.531.9.9,0,0,0,1.653-.7,6.623,6.623,0,1,0,.121,4.844Z" transform="translate(-276.023 -86.51)"/>
        <path id="Trazado_1215618" data-name="Trazado 1215618" d="M343.286,123.529a3.479,3.479,0,1,0,3.479,3.479A3.483,3.483,0,0,0,343.286,123.529Zm0,5.164a1.685,1.685,0,1,1,1.685-1.685A1.687,1.687,0,0,1,343.286,128.693Z" transform="translate(-299.153 -109.638)"/>
        <path id="Trazado_1215619" data-name="Trazado 1215619" d="M361.507,310.424h-.7l.492-.492a1.341,1.341,0,0,0,0-1.9l-1.99-1.99a1.343,1.343,0,0,0-1.9,0l-.492.492v-.7a1.343,1.343,0,0,0-1.342-1.342h-2.814a1.343,1.343,0,0,0-1.342,1.342v.7l-.492-.492a1.343,1.343,0,0,0-1.9,0l-1.99,1.99a1.341,1.341,0,0,0,0,1.9l.492.492h-.7a1.343,1.343,0,0,0-1.342,1.342v2.814a1.343,1.343,0,0,0,1.342,1.342h.7l-.492.492a1.341,1.341,0,0,0,0,1.9l1.99,1.99a1.343,1.343,0,0,0,1.9,0l.492-.492v.7a1.343,1.343,0,0,0,1.342,1.342h2.814a1.343,1.343,0,0,0,1.342-1.342v-.7l.492.492a1.343,1.343,0,0,0,1.9,0l1.99-1.99a1.341,1.341,0,0,0,0-1.9l-.492-.492h.7a1.343,1.343,0,0,0,1.342-1.342v-2.814A1.343,1.343,0,0,0,361.507,310.424Zm-.453,3.7h-1.1a1.329,1.329,0,0,0-1.245.843c-.019.048-.038.095-.059.142a1.329,1.329,0,0,0,.285,1.474l.776.776-1.35,1.35-.776-.776a1.329,1.329,0,0,0-1.474-.285l-.142.059a1.329,1.329,0,0,0-.843,1.245v1.1H353.22v-1.1a1.328,1.328,0,0,0-.842-1.244l-.143-.059a1.329,1.329,0,0,0-1.474.285l-.776.776-1.35-1.35.776-.776a1.329,1.329,0,0,0,.285-1.474c-.02-.047-.04-.1-.059-.142a1.329,1.329,0,0,0-1.245-.843h-1.1v-1.909h1.1a1.329,1.329,0,0,0,1.244-.842q.029-.072.059-.143a1.329,1.329,0,0,0-.285-1.474l-.776-.776,1.35-1.35.776.776a1.329,1.329,0,0,0,1.474.285l.143-.059a1.329,1.329,0,0,0,.843-1.245v-1.1h1.909v1.1a1.328,1.328,0,0,0,.842,1.244l.143.059a1.329,1.329,0,0,0,1.474-.285l.776-.776,1.35,1.35-.776.776a1.329,1.329,0,0,0-.285,1.475c.02.047.04.094.059.142a1.329,1.329,0,0,0,1.245.843h1.1v1.909Z" transform="translate(-304.166 -268.957)"/>
        <path id="Trazado_1215620" data-name="Trazado 1215620" d="M393.327,348.973a3.353,3.353,0,1,0,3.353,3.353A3.357,3.357,0,0,0,393.327,348.973Zm0,4.912a1.558,1.558,0,1,1,1.558-1.558A1.56,1.56,0,0,1,393.327,353.885Z" transform="translate(-343.318 -308.11)"/>
        <circle id="Elipse_12784" data-name="Elipse 12784" cx="0.897" cy="0.897" r="0.897" transform="translate(13.197 27.834)"/>
        <circle id="Elipse_12785" data-name="Elipse 12785" cx="0.897" cy="0.897" r="0.897" transform="translate(14.423 30.552)"/>
        <circle id="Elipse_12786" data-name="Elipse 12786" cx="0.897" cy="0.897" r="0.897" transform="translate(16.296 32.873)"/>
        <circle id="Elipse_12787" data-name="Elipse 12787" cx="0.897" cy="0.897" r="0.897" transform="translate(18.691 34.649)"/>
        <circle id="Elipse_12788" data-name="Elipse 12788" cx="0.897" cy="0.897" r="0.897" transform="translate(21.458 35.763)"/>
      </g>
    </g>
  </g>
</svg>
