<svg xmlns="http://www.w3.org/2000/svg" xmlns:xlink="http://www.w3.org/1999/xlink" width="108" height="108" viewBox="0 0 108 108">
  <defs>
    <filter id="Trazado_904820" x="0" y="0" width="108" height="108" filterUnits="userSpaceOnUse">
      <feOffset dy="3" input="SourceAlpha"/>
      <feGaussianBlur stdDeviation="3" result="blur"/>
      <feFlood flood-opacity="0.161"/>
      <feComposite operator="in" in2="blur"/>
      <feComposite in="SourceGraphic"/>
    </filter>
  </defs>
  <g id="Grupo_1240726" data-name="Grupo 1240726" transform="translate(-198.41 -6852)">
    <g id="Grupo_1226152" data-name="Grupo 1226152" transform="translate(207.41 6858)">
      <g id="Grupo_1223550" data-name="Grupo 1223550" transform="translate(0 0)">
        <g id="Grupo_1223164" data-name="Grupo 1223164">
          <g id="Grupo_1203639" data-name="Grupo 1203639">
            <g id="Grupo_1202437" data-name="Grupo 1202437">
              <g id="Grupo_1177315" data-name="Grupo 1177315">
                <g id="Grupo_1173585" data-name="Grupo 1173585">
                  <g id="Grupo_1173428" data-name="Grupo 1173428">
                    <g id="Grupo_1171958" data-name="Grupo 1171958">
                      <g id="Grupo_1167341" data-name="Grupo 1167341">
                        <g id="Grupo_1166792" data-name="Grupo 1166792">
                          <g transform="matrix(1, 0, 0, 1, -9, -6)" filter="url(#Trazado_904820)">
                            <g id="Trazado_904820-2" data-name="Trazado 904820" transform="translate(9 6)" fill="#effbfe">
                              <path d="M 44.99999618530273 88.49995422363281 C 39.12687301635742 88.49995422363281 33.43022155761719 87.35002899169922 28.06829643249512 85.08213043212891 C 22.88852119445801 82.89126586914062 18.23629570007324 79.75455474853516 14.24084663391113 75.75910186767578 C 10.24540901184082 71.76364898681641 7.108683586120605 67.11144256591797 4.917821407318115 61.93166351318359 C 2.649921178817749 56.56974029541016 1.499996185302734 50.87310028076172 1.499996185302734 44.99997711181641 C 1.499996185302734 39.12685394287109 2.649921178817749 33.43021392822266 4.917821407318115 28.06828880310059 C 7.108683586120605 22.88851547241211 10.24540901184082 18.23630142211914 14.24084663391113 14.24085235595703 C 18.23629570007324 10.24540233612061 22.88852119445801 7.108689785003662 28.06829643249512 4.917827129364014 C 33.43022155761719 2.649927139282227 39.12687301635742 1.500002145767212 44.99999618530273 1.500002145767212 C 50.87311935424805 1.500002145767212 56.56977081298828 2.649927139282227 61.93169784545898 4.917827129364014 C 67.11147308349609 7.108689785003662 71.76369476318359 10.24540233612061 75.75914764404297 14.24085235595703 C 79.75458526611328 18.23630142211914 82.89131164550781 22.88851547241211 85.08216857910156 28.06828880310059 C 87.35007476806641 33.43021392822266 88.5 39.12685394287109 88.5 44.99997711181641 C 88.5 50.87310028076172 87.35007476806641 56.56974029541016 85.08216857910156 61.93166351318359 C 82.89131164550781 67.11144256591797 79.75458526611328 71.76364898681641 75.75914764404297 75.75910186767578 C 71.76369476318359 79.75455474853516 67.11147308349609 82.89126586914062 61.93169784545898 85.08213043212891 C 56.56977081298828 87.35002899169922 50.87311935424805 88.49995422363281 44.99999618530273 88.49995422363281 Z" stroke="none"/>
                              <path d="M 44.99999618530273 2.999992370605469 C 39.32870864868164 2.999992370605469 33.82865142822266 4.11004638671875 28.65262603759766 6.299331665039062 C 23.65165710449219 8.414566040039062 19.15968322753906 11.44333648681641 15.301513671875 15.30150604248047 C 11.44333648681641 19.15967559814453 8.414566040039062 23.65163421630859 6.299339294433594 28.65260696411133 C 4.110054016113281 33.82864761352539 2.999992370605469 39.32868957519531 2.999992370605469 44.99997711181641 C 2.999992370605469 50.6712646484375 4.110054016113281 56.17130661010742 6.299339294433594 61.34733581542969 C 8.414566040039062 66.34830474853516 11.44333648681641 70.84026336669922 15.301513671875 74.69844818115234 C 19.15968322753906 78.55661773681641 23.65165710449219 81.58537292480469 28.65262603759766 83.70062255859375 C 33.82865142822266 85.889892578125 39.32870864868164 86.99994659423828 44.99999618530273 86.99994659423828 C 50.67128372192383 86.99994659423828 56.17134094238281 85.889892578125 61.34736633300781 83.70062255859375 C 66.34834289550781 81.58537292480469 70.84030914306641 78.55661773681641 74.69847869873047 74.69844818115234 C 78.55665588378906 70.84026336669922 81.58542633056641 66.34830474853516 83.70065307617188 61.34733581542969 C 85.88993835449219 56.17130661010742 87 50.6712646484375 87 44.99997711181641 C 87 39.32868957519531 85.88993835449219 33.82864761352539 83.70065307617188 28.65260696411133 C 81.58542633056641 23.65163421630859 78.55665588378906 19.15967559814453 74.69847869873047 15.30150604248047 C 70.84030914306641 11.44333648681641 66.34834289550781 8.414566040039062 61.34736633300781 6.299331665039062 C 56.17134094238281 4.11004638671875 50.67128372192383 2.999992370605469 44.99999618530273 2.999992370605469 M 44.99999618530273 -7.62939453125e-06 C 69.85281372070312 -7.62939453125e-06 90 20.14717864990234 90 44.99997711181641 C 90 69.85277557373047 69.85281372070312 89.99994659423828 44.99999618530273 89.99994659423828 C 20.14717864990234 89.99994659423828 -7.62939453125e-06 69.85277557373047 -7.62939453125e-06 44.99997711181641 C -7.62939453125e-06 20.14717864990234 20.14717864990234 -7.62939453125e-06 44.99999618530273 -7.62939453125e-06 Z" stroke="none" fill="#497f88"/>
                            </g>
                          </g>
                        </g>
                      </g>
                    </g>
                  </g>
                </g>
              </g>
            </g>
          </g>
        </g>
      </g>
    </g>
    <g id="cognitivo_5_" data-name="cognitivo (5)" transform="translate(225.401 6876.197)">
      <g id="Grupo_1240723" data-name="Grupo 1240723" transform="translate(1.016 0.782)">
        <path id="Trazado_1215621" data-name="Trazado 1215621" d="M95.353,60.285V53.053H93.869A6.289,6.289,0,0,1,87.6,47.314l-.636-7.257L83,39.162A2.1,2.1,0,0,1,81.56,36.23L86.339,26c0-10.241,8.8-18.542,19.645-18.542S125.63,15.763,125.63,26v3.341a25.228,25.228,0,0,1-5.593,15.764l-4.923,6.16v9.016Z" transform="translate(-73.644 -7.461)" fill="#f7e0ba"/>
        <path id="Trazado_1215622" data-name="Trazado 1215622" d="M214.852,481.459h19.761V484.6H214.852Z" transform="translate(-193.143 -431.779)" fill="#f5d9ab"/>
        <path id="Trazado_1215623" data-name="Trazado 1215623" d="M138.846,363.945l.218,2.49a6.289,6.289,0,0,0,6.265,5.739h8.493V369.03h-8.8A6.289,6.289,0,0,1,138.846,363.945Z" transform="translate(-125.104 -326.582)" fill="#f5d9ab"/>
        <path id="Trazado_1215624" data-name="Trazado 1215624" d="M67.73,129.587v-4.192H79.259V122.46l8.385,5.031-8.385,5.031v-2.935Z" transform="translate(-61.441 -110.407)" fill="#fff"/>
        <path id="Trazado_1215625" data-name="Trazado 1215625" d="M0,0H4.192V3.144H0Z" transform="translate(3.144 14.988) rotate(90)" fill="#fff"/>
        <path id="Trazado_1215626" data-name="Trazado 1215626" d="M308.6,126.136v-2.488l-2.082-.74-.75-1.811.949-2-1.759-1.759-2,.949-1.811-.75-.74-2.082h-2.488l-.74,2.082-1.811.75-2-.949-1.759,1.759.949,2-.75,1.811-2.082.74v2.488l2.082.74.75,1.811-.949,2,1.759,1.759,2-.949,1.811.75.74,2.082h2.488l.74-2.082,1.811-.75,2,.949,1.759-1.759-.949-2,.75-1.811Zm-9.433,2.11a3.354,3.354,0,1,1,3.354-3.354A3.354,3.354,0,0,1,299.162,128.246Z" transform="translate(-260.173 -104.14)" fill="#a8e1f8"/>
        <path id="Trazado_1215627" data-name="Trazado 1215627" d="M322.176,234.138a15.746,15.746,0,0,1-13.855,0l.327.789-.949,2,1.759,1.759,2-.949,1.811.75.74,2.082h2.488l.74-2.082,1.811-.75,2,.949,1.759-1.759-.949-2Z" transform="translate(-276.259 -210.38)" fill="#75d2f5"/>
      </g>
      <g id="Grupo_1240724" data-name="Grupo 1240724" transform="translate(22.921 42.339)">
        <path id="Trazado_1215628" data-name="Trazado 1215628" d="M246.73,403.96H248.3v1.572H246.73Z" transform="translate(-243.586 -403.96)" fill="#fff"/>
        <path id="Trazado_1215629" data-name="Trazado 1215629" d="M216.73,403.96H218.3v1.572H216.73Z" transform="translate(-216.73 -403.96)" fill="#fff"/>
      </g>
      <g id="Grupo_1240725" data-name="Grupo 1240725" transform="translate(0.23)">
        <path id="Trazado_1215630" data-name="Trazado 1215630" d="M152.057,1.572,152.026,0a21.078,21.078,0,0,0-11.539,3.658,19.445,19.445,0,0,0-7.213,9l1.465.569A18.941,18.941,0,0,1,152.057,1.572Z" transform="translate(-119.33)"/>
        <path id="Trazado_1215631" data-name="Trazado 1215631" d="M458.74,142.678l-1.527.373a16.855,16.855,0,0,1,.48,4v3.341a24.282,24.282,0,0,1-4.512,14.065l1.284.907a25.846,25.846,0,0,0,4.8-14.972v-3.341A18.441,18.441,0,0,0,458.74,142.678Z" transform="translate(-405.706 -127.724)"/>
        <path id="Trazado_1215632" data-name="Trazado 1215632" d="M343.762,14.131l1.488-.508a19.313,19.313,0,0,0-6.872-9.291A20.99,20.99,0,0,0,327,.272l-.086,1.57A18.811,18.811,0,0,1,343.762,14.131Z" transform="translate(-292.677 -0.243)"/>
        <path id="Trazado_1215633" data-name="Trazado 1215633" d="M395.9,368.439v9.292h1.572V368.99l4.743-5.935-1.228-.981Z" transform="translate(-354.426 -324.125)"/>
        <path id="Trazado_1215634" data-name="Trazado 1215634" d="M81.671,231.5l-.686-7.829-4.531-1.021a1.31,1.31,0,0,1-.9-1.833l3.208-6.863-1.424-.666-3.208,6.863a2.882,2.882,0,0,0,1.978,4.032l3.41.769.586,6.685a7.075,7.075,0,0,0,7.048,6.457h.7v6.446h1.572v-6.446h6.223v-1.572H87.152A5.473,5.473,0,0,1,81.671,231.5Z" transform="translate(-66.141 -190.931)"/>
        <path id="Trazado_1215635" data-name="Trazado 1215635" d="M71.759,122.052l10.7-6.419-10.7-6.419v3.537H67.576v1.572h5.755V111.99l6.071,3.642-6.071,3.642v-2.332H61.8v-2.62H66V112.75H60.23v5.765H71.759Z" transform="translate(-53.941 -97.766)"/>
        <path id="Trazado_1215636" data-name="Trazado 1215636" d="M.23,148.725H4.946V142.96H.23v5.765ZM1.8,144.532H3.374v2.62H1.8Z" transform="translate(-0.23 -127.976)"/>
        <path id="Trazado_1215637" data-name="Trazado 1215637" d="M295.056,126.122l1.165-.483,2.181,1.037,2.544-2.544-1.037-2.181.483-1.165,2.276-.809v-3.6l-2.276-.809-.483-1.165,1.037-2.181L298.4,109.68l-2.181,1.037-1.165-.483-.809-2.276h-3.6l-.809,2.276-1.165.483-2.181-1.037-2.544,2.544,1.037,2.181-.483,1.165-2.276.809v3.6l2.276.809.483,1.165-1.037,2.181,2.544,2.544,2.181-1.037,1.165.483.809,2.276h3.6Zm-1.919.7h-1.378l-.672-1.888-2.456-1.017-1.81.861-.975-.975.861-1.81-1.017-2.456-1.888-.672v-1.378l1.888-.672,1.017-2.456-.861-1.81.975-.975,1.81.86,2.456-1.017.672-1.888h1.378l.672,1.888,2.456,1.017,1.81-.86.975.975-.86,1.81,1.017,2.456,1.888.672v1.378l-1.888.672-1.017,2.456.86,1.81-.975.975-1.81-.861-2.456,1.017Z" transform="translate(-252.673 -96.644)"/>
        <path id="Trazado_1215638" data-name="Trazado 1215638" d="M344.37,165.96a4.14,4.14,0,1,0,4.14,4.14A4.145,4.145,0,0,0,344.37,165.96Zm0,6.708a2.568,2.568,0,1,1,2.568-2.568A2.571,2.571,0,0,1,344.37,172.668Z" transform="translate(-304.594 -148.566)"/>
      </g>
    </g>
  </g>
</svg>
