<svg xmlns="http://www.w3.org/2000/svg" xmlns:xlink="http://www.w3.org/1999/xlink" width="108" height="108" viewBox="0 0 108 108">
  <defs>
    <filter id="Trazado_904820" x="0" y="0" width="108" height="108" filterUnits="userSpaceOnUse">
      <feOffset dy="3" input="SourceAlpha"/>
      <feGaussianBlur stdDeviation="3" result="blur"/>
      <feFlood flood-opacity="0.161"/>
      <feComposite operator="in" in2="blur"/>
      <feComposite in="SourceGraphic"/>
    </filter>
  </defs>
  <g id="Grupo_1240457" data-name="Grupo 1240457" transform="translate(-620.058 -869.088)">
    <g id="Grupo_1225969" data-name="Grupo 1225969" transform="translate(105 38.088)">
      <g id="Grupo_1223550" data-name="Grupo 1223550" transform="translate(524.058 837)">
        <g id="Grupo_1223164" data-name="Grupo 1223164">
          <g id="Grupo_1203639" data-name="Grupo 1203639">
            <g id="Grupo_1202437" data-name="Grupo 1202437">
              <g id="Grupo_1177315" data-name="Grupo 1177315">
                <g id="Grupo_1173585" data-name="Grupo 1173585">
                  <g id="Grupo_1173428" data-name="Grupo 1173428" transform="translate(0 0)">
                    <g id="Grupo_1171958" data-name="Grupo 1171958">
                      <g id="Grupo_1167341" data-name="Grupo 1167341">
                        <g id="Grupo_1166792" data-name="Grupo 1166792">
                          <g transform="matrix(1, 0, 0, 1, -9, -6)" filter="url(#Trazado_904820)">
                            <g id="Trazado_904820-2" data-name="Trazado 904820" transform="translate(9 6)" fill="#ebe9f0">
                              <path d="M 44.99999618530273 88.49999237060547 C 39.12687301635742 88.49999237060547 33.43022155761719 87.35006713867188 28.06829643249512 85.08216857910156 C 22.88852119445801 82.89130401611328 18.23629570007324 79.75457763671875 14.24084663391113 75.75914001464844 C 10.24540901184082 71.76369476318359 7.108683586120605 67.11146545410156 4.917821407318115 61.93169403076172 C 2.649921178817749 56.56976699829102 1.499996185302734 50.87311553955078 1.499996185302734 44.99999237060547 C 1.499996185302734 39.12686920166016 2.649921178817749 33.43021774291992 4.917821407318115 28.06829261779785 C 7.108683586120605 22.88851737976074 10.24540901184082 18.23630523681641 14.24084663391113 14.24085521697998 C 18.23629570007324 10.24540519714355 22.88852119445801 7.108692169189453 28.06829643249512 4.917829990386963 C 33.43022155761719 2.649929761886597 39.12687301635742 1.500004887580872 44.99999618530273 1.500004887580872 C 50.87311935424805 1.500004887580872 56.56977081298828 2.649929761886597 61.93169784545898 4.917829990386963 C 67.11147308349609 7.108692169189453 71.76369476318359 10.24540519714355 75.75914764404297 14.24085521697998 C 79.75458526611328 18.23630523681641 82.89131164550781 22.88851737976074 85.08216857910156 28.06829261779785 C 87.35007476806641 33.43021774291992 88.5 39.12686920166016 88.5 44.99999237060547 C 88.5 50.87311553955078 87.35007476806641 56.56976699829102 85.08216857910156 61.93169403076172 C 82.89131164550781 67.11146545410156 79.75458526611328 71.76369476318359 75.75914764404297 75.75914001464844 C 71.76369476318359 79.75457763671875 67.11147308349609 82.89130401611328 61.93169784545898 85.08216857910156 C 56.56977081298828 87.35006713867188 50.87311935424805 88.49999237060547 44.99999618530273 88.49999237060547 Z" stroke="none"/>
                              <path d="M 44.99999618530273 2.999992370605469 C 39.32870864868164 2.999992370605469 33.82865142822266 4.11004638671875 28.65262603759766 6.299331665039062 C 23.65165710449219 8.414566040039062 19.15968322753906 11.44333648681641 15.301513671875 15.30150604248047 C 11.44333648681641 19.15967559814453 8.414566040039062 23.65164947509766 6.299339294433594 28.65262222290039 C 4.110054016113281 33.82864761352539 2.999992370605469 39.32870483398438 2.999992370605469 44.99999237060547 C 2.999992370605469 50.67127990722656 4.110054016113281 56.17132186889648 6.299339294433594 61.34736633300781 C 8.414566040039062 66.34833526611328 11.44333648681641 70.84029388427734 15.301513671875 74.69846343994141 C 19.15968322753906 78.55663299560547 23.65165710449219 81.58540344238281 28.65262603759766 83.70063781738281 C 33.82865142822266 85.88992309570312 39.32870864868164 86.99997711181641 44.99999618530273 86.99997711181641 C 50.67128372192383 86.99997711181641 56.17134094238281 85.88992309570312 61.34736633300781 83.70063781738281 C 66.34834289550781 81.58540344238281 70.84030914306641 78.55663299560547 74.69847869873047 74.69846343994141 C 78.55665588378906 70.84029388427734 81.58542633056641 66.34833526611328 83.70065307617188 61.34736633300781 C 85.88993835449219 56.17132186889648 87 50.67127990722656 87 44.99999237060547 C 87 39.32870483398438 85.88993835449219 33.82864761352539 83.70065307617188 28.65262222290039 C 81.58542633056641 23.65164947509766 78.55665588378906 19.15967559814453 74.69847869873047 15.30150604248047 C 70.84030914306641 11.44333648681641 66.34834289550781 8.414566040039062 61.34736633300781 6.299331665039062 C 56.17134094238281 4.11004638671875 50.67128372192383 2.999992370605469 44.99999618530273 2.999992370605469 M 44.99999618530273 -7.62939453125e-06 C 69.85281372070312 -7.62939453125e-06 90 20.14717864990234 90 44.99999237060547 C 90 69.85279083251953 69.85281372070312 89.99997711181641 44.99999618530273 89.99997711181641 C 20.14717864990234 89.99997711181641 -7.62939453125e-06 69.85279083251953 -7.62939453125e-06 44.99999237060547 C -7.62939453125e-06 20.14717864990234 20.14717864990234 -7.62939453125e-06 44.99999618530273 -7.62939453125e-06 Z" stroke="none" fill="#453179"/>
                            </g>
                          </g>
                        </g>
                      </g>
                    </g>
                  </g>
                </g>
              </g>
            </g>
          </g>
        </g>
      </g>
    </g>
    <g id="cerebro_2_" data-name="cerebro (2)" transform="translate(644 890)">
      <path id="Trazado_1215087" data-name="Trazado 1215087" d="M65.49,90.972a6.422,6.422,0,0,1,.51,2.5,6.5,6.5,0,0,1-12.41,2.69c-2.7,1.29-3.59,4.09-3.59,7.2v4.61H45v-8a6,6,0,0,0-6-6H27a6,6,0,0,1-6-5.84,5.642,5.642,0,0,1,.88-3.16H16a8,8,0,1,1,0-16,8.484,8.484,0,0,1,1.14.08v-.08a7.4,7.4,0,0,1-.14-1.5,7.5,7.5,0,0,1,7.5-7.5,7.161,7.161,0,0,1,3.2.73,8,8,0,0,1,14.91.79,8.5,8.5,0,1,1,12.82,11.07.189.189,0,0,1,0,.07A6.921,6.921,0,0,1,60,70.972a7,7,0,0,1,7,7,6.891,6.891,0,0,1-1.82,4.7,6,6,0,0,1,1.82,4.3,5.931,5.931,0,0,1-1.51,4Zm0,0" transform="translate(-7 -48.972)" fill="#ff9ab3"/>
      <path id="Trazado_1215088" data-name="Trazado 1215088" d="M59.49,75.806A8,8,0,0,0,53,63.136a7.792,7.792,0,0,0-1.74.2,9.616,9.616,0,0,0,.74-3.7,9.48,9.48,0,0,0-16.1-6.81,9,9,0,0,0-15.65-.23,8.137,8.137,0,0,0-2.75-.46,8.51,8.51,0,0,0-8.5,8.5v.5a9,9,0,0,0,0,18h4.33a6.5,6.5,0,0,0-.33,2.19,7,7,0,0,0,7,6.81H32a5,5,0,0,1,5,5v8a1,1,0,0,0,1,1h5a1,1,0,0,0,1-1v-4.61c0-2.75.75-4.7,2.22-5.8A7.5,7.5,0,0,0,60,86.636a7.342,7.342,0,0,0-.38-2.34A7,7,0,0,0,61,80.136a7.072,7.072,0,0,0-1.51-4.33ZM52.5,92.136a5.47,5.47,0,0,1-5-3.23,5.368,5.368,0,0,1-.5-2.27H45a7.407,7.407,0,0,0,.35,2.25c-1.67,1.1-3.35,3.25-3.35,7.64v3.61H39v-7a7,7,0,0,0-7-7H20a5,5,0,0,1-5-4.87,4.711,4.711,0,0,1,.73-2.61,5.359,5.359,0,0,1,2.12-1.94,6.116,6.116,0,0,0,.59-.24,5.143,5.143,0,0,1,1.81-.34H29a6,6,0,0,0,6-6H33a4,4,0,0,1-4,4H20.25a7.415,7.415,0,0,0-3.19.74,4.884,4.884,0,0,1-1.58.26,5,5,0,0,1-3.72-1.67l-1.5,1.34a7,7,0,0,0,4.18,2.24l-.06.09H9a7,7,0,1,1,3.88-12.81,7.4,7.4,0,0,0,.8,6.35l1.68-1.08a5.521,5.521,0,0,1,0-5.92l-1.12-.72.06-.08a8.666,8.666,0,0,0-3.25-1.49,6.207,6.207,0,0,1-.05-.75,6.51,6.51,0,0,1,6.5-6.5,6.154,6.154,0,0,1,2.8.65h.07a6.312,6.312,0,0,1,2.76,2.58l1.74-1A8.424,8.424,0,0,0,22,53.476a7,7,0,0,1,12.45,1.08,9.138,9.138,0,0,0-1.34,3.4l2,.36a7.5,7.5,0,1,1,12.62,6.69l.15.15-.69.69a5.282,5.282,0,0,1,.45.49l.06.09a5.821,5.821,0,0,1,1.3,3.71,6,6,0,0,1-6,6v2a8,8,0,0,0,6.86-12.1,5.922,5.922,0,0,1,3.14-.9,6,6,0,0,1,6,6,5.879,5.879,0,0,1-1,3.27,6.921,6.921,0,0,0-4-1.27v2a4.92,4.92,0,0,1,3.48,1.42A5,5,0,0,1,54,85.136v2a7,7,0,0,0,3.93-1.22,5.846,5.846,0,0,1,.07.72,5.51,5.51,0,0,1-5.5,5.5Zm0,0" transform="translate(0 -42.136)" fill="#eb7f9a"/>
      <path id="Trazado_1215089" data-name="Trazado 1215089" d="M172,304H160v2h12a10,10,0,0,1,8.81,5.27l1.76-.94A12,12,0,0,0,172,304Zm0,0" transform="translate(-140 -266)" fill="#eb7f9a"/>
      <path id="Trazado_1215090" data-name="Trazado 1215090" d="M397,288a5,5,0,0,0-5,5h2a3,3,0,0,1,3-3Zm0,0" transform="translate(-343 -252)" fill="#eb7f9a"/>
      <path id="Trazado_1215091" data-name="Trazado 1215091" d="M173.988,58.89a11,11,0,0,1-6.45,10h-9.1a11,11,0,1,1,15.55-10Zm0,0" transform="translate(-132.988 -41.89)" fill="#fce013"/>
      <path id="Trazado_1215092" data-name="Trazado 1215092" d="M194,126h-2v-8h-2v8h-2v-8h-1a3,3,0,1,1,3-3v1h2v-1a3,3,0,1,1,3,3h-1Zm0-10h1a1,1,0,1,0-1-1Zm-7-2a1,1,0,0,0,0,2h1v-1A1,1,0,0,0,187,114Zm0,0" transform="translate(-161 -98)" fill="#f95925"/>
      <path id="Trazado_1215093" data-name="Trazado 1215093" d="M212.7,216a5.383,5.383,0,0,1-.55.24V221h-8v-4.76a5.383,5.383,0,0,1-.55-.24Zm0,0" transform="translate(-178.151 -189)" fill="#3dcde7"/>
      <g id="Grupo_1240456" data-name="Grupo 1240456" transform="translate(11)">
        <path id="Trazado_1215094" data-name="Trazado 1215094" d="M216,256h6v1a3,3,0,0,1-6,0Zm0,0" transform="translate(-200 -224)" fill="#f95925"/>
        <path id="Trazado_1215095" data-name="Trazado 1215095" d="M332.98,186.822l1-1.732,2.6,1.5-1,1.732Zm0,0" transform="translate(-302.358 -161.953)" fill="#f95925"/>
        <path id="Trazado_1215096" data-name="Trazado 1215096" d="M118.273,186.581l2.6-1.5,1,1.732-2.6,1.5Zm0,0" transform="translate(-114.489 -161.947)" fill="#f95925"/>
        <path id="Trazado_1215097" data-name="Trazado 1215097" d="M332.984,62.578l2.6-1.5,1,1.732-2.6,1.5Zm0,0" transform="translate(-302.361 -53.443)" fill="#f95925"/>
        <path id="Trazado_1215098" data-name="Trazado 1215098" d="M232,0h2V3h-2Zm0,0" transform="translate(-214)" fill="#f95925"/>
        <path id="Trazado_1215099" data-name="Trazado 1215099" d="M118.254,62.732l1-1.732,2.6,1.5-1,1.732Zm0,0" transform="translate(-114.472 -53.375)" fill="#f95925"/>
        <path id="Trazado_1215100" data-name="Trazado 1215100" d="M289.063,4.717l2.5-4.331,1.732,1-2.5,4.331Zm0,0" transform="translate(-263.93 -0.338)" fill="#f95925"/>
        <path id="Trazado_1215101" data-name="Trazado 1215101" d="M157.109,233.327l2.5-4.331,1.732,1-2.5,4.331Zm0,0" transform="translate(-148.47 -200.372)" fill="#f95925"/>
        <path id="Trazado_1215102" data-name="Trazado 1215102" d="M157.1,1.391l1.732-1,2.5,4.33-1.732,1Zm0,0" transform="translate(-148.461 -0.342)" fill="#f95925"/>
        <path id="Trazado_1215103" data-name="Trazado 1215103" d="M289.094,230.039l1.732-1,2.5,4.33-1.732,1Zm0,0" transform="translate(-263.957 -200.409)" fill="#f95925"/>
        <path id="Trazado_1215104" data-name="Trazado 1215104" d="M88,128h5v2H88Zm0,0" transform="translate(-88 -112)" fill="#f95925"/>
        <path id="Trazado_1215105" data-name="Trazado 1215105" d="M352,128h5v2h-5Zm0,0" transform="translate(-319 -112)" fill="#f95925"/>
      </g>
      <path id="Trazado_1215106" data-name="Trazado 1215106" d="M53,87.08a7.792,7.792,0,0,0-1.74.2,9.616,9.616,0,0,0,.74-3.7,9.461,9.461,0,0,0-4.47-8.06l-1.06,1.7a7.49,7.49,0,0,1,1.93,11,8.3,8.3,0,0,0-1.28-1l-1,1.72A6,6,0,0,1,43,100.08v2a8,8,0,0,0,6.87-12.1,5.8,5.8,0,0,1,3.13-.9,6,6,0,0,1,6,6,5.879,5.879,0,0,1-1,3.27,6.921,6.921,0,0,0-4-1.27v2a4.92,4.92,0,0,1,3.48,1.42A5,5,0,0,1,54,109.08v2a7,7,0,0,0,3.93-1.22,5.846,5.846,0,0,1,.07.72,5.5,5.5,0,1,1-11,0H45a7.286,7.286,0,0,0,.35,2.25c-1.68,1.11-3.35,3.3-3.35,7.64v3.61H39v-7a7,7,0,0,0-7-7H20a5,5,0,0,1-5-4.86,5.1,5.1,0,0,1,3.36-4.79l-.07-.18.21-.11-.75-1.3-.11-.27-.1-.18a5,5,0,0,1-6.23-1l-1.49,1.34a7.061,7.061,0,0,0,4.6,2.3H9a7,7,0,0,1,0-14,6.908,6.908,0,0,1,4.12,1.35l1.18-1.62a8.845,8.845,0,0,0-3.25-1.47,6.391,6.391,0,0,1-.05-.71v-.5h5v-2H11.51a6.393,6.393,0,0,1,2.09-2.7l-1.2-1.6A8.429,8.429,0,0,0,9,84.58v.5a9,9,0,1,0,0,18h4.32a6.69,6.69,0,0,0-.32,2.19,7,7,0,0,0,7,6.81H32a5,5,0,0,1,5,5v8a1,1,0,0,0,1,1h5a1,1,0,0,0,1-1v-4.61c0-2.76.75-4.7,2.22-5.8A7.5,7.5,0,0,0,60,110.58a7.342,7.342,0,0,0-.38-2.34A7,7,0,0,0,61,104.08a7.072,7.072,0,0,0-1.51-4.33A8,8,0,0,0,53,87.08Zm0,0" transform="translate(0 -66.08)"/>
      <path id="Trazado_1215107" data-name="Trazado 1215107" d="M180.81,311.279l1.76-1A12,12,0,0,0,172,304H160v2h12A10,10,0,0,1,180.81,311.279Zm0,0" transform="translate(-140 -266)"/>
      <path id="Trazado_1215108" data-name="Trazado 1215108" d="M397,290v-2a5,5,0,0,0-5,5h2A3,3,0,0,1,397,290Zm0,0" transform="translate(-343 -252)"/>
      <path id="Trazado_1215109" data-name="Trazado 1215109" d="M150.992,62.838v4.1a1,1,0,0,0,1,1,4,4,0,0,0,8,0,1,1,0,0,0,1-1v-4.1a12,12,0,1,0-10,0Zm4,.1h4v3h-6v-3Zm-2-10h-1a1,1,0,1,1,1-1Zm4,8h-2v-6h2Zm-1,9a2,2,0,0,1-2-2h4A2,2,0,0,1,155.992,69.938Zm0-28a10,10,0,0,1,4,19.15v-.15h-1v-6h1a3,3,0,1,0-3-3v1h-2v-1a3,3,0,1,0-3,3h1v6h-1v.15a10,10,0,0,1,4-19.15Zm3,11v-1a1,1,0,1,1,1,1Zm0,0" transform="translate(-125.992 -34.939)"/>
      <path id="Trazado_1215110" data-name="Trazado 1215110" d="M118.215,186.543l2.6-1.5,1,1.732-2.6,1.5Zm0,0" transform="translate(-103.438 -161.913)"/>
      <path id="Trazado_1215111" data-name="Trazado 1215111" d="M332.984,62.578l2.6-1.5,1,1.732-2.6,1.5Zm0,0" transform="translate(-291.361 -53.443)"/>
      <path id="Trazado_1215112" data-name="Trazado 1215112" d="M232,0h2V3h-2Zm0,0" transform="translate(-203)"/>
      <path id="Trazado_1215113" data-name="Trazado 1215113" d="M333.016,186.806l1-1.732,2.6,1.5-1,1.732Zm0,0" transform="translate(-291.389 -161.94)"/>
      <path id="Trazado_1215114" data-name="Trazado 1215114" d="M118.254,62.732l1-1.732,2.6,1.5-1,1.732Zm0,0" transform="translate(-103.472 -53.375)"/>
      <path id="Trazado_1215115" data-name="Trazado 1215115" d="M289.105,4.67l2.5-4.33,1.732,1-2.5,4.33Zm0,0" transform="translate(-252.967 -0.297)"/>
      <path id="Trazado_1215116" data-name="Trazado 1215116" d="M157.109,233.327l2.5-4.331,1.732,1-2.5,4.331Zm0,0" transform="translate(-137.47 -200.372)"/>
      <path id="Trazado_1215117" data-name="Trazado 1215117" d="M157.1,1.391l1.732-1,2.5,4.33-1.732,1Zm0,0" transform="translate(-137.461 -0.342)"/>
      <path id="Trazado_1215118" data-name="Trazado 1215118" d="M289.094,230.039l1.732-1,2.5,4.33-1.732,1Zm0,0" transform="translate(-252.957 -200.409)"/>
      <path id="Trazado_1215119" data-name="Trazado 1215119" d="M352,128h5v2h-5Zm0,0" transform="translate(-308 -112)"/>
    </g>
  </g>
</svg>
