<svg xmlns="http://www.w3.org/2000/svg" xmlns:xlink="http://www.w3.org/1999/xlink" width="295" height="293.112" viewBox="0 0 295 293.112">
  <defs>
    <clipPath id="clip-path">
      <rect id="Rectángulo_422077" data-name="Rectángulo 422077" width="295" height="293.112" transform="translate(1125.09 1286.912)" fill="#474120" stroke="#707070" stroke-width="1"/>
    </clipPath>
    <clipPath id="clip-path-2">
      <rect id="Rectángulo_423867" data-name="Rectángulo 423867" width="369" height="369" transform="translate(0.285 0.285)" fill="none"/>
    </clipPath>
    <clipPath id="clip-path-3">
      <rect id="Rectángulo_423836" data-name="Rectángulo 423836" width="171.449" height="176.627" fill="none"/>
    </clipPath>
    <clipPath id="clip-path-4">
      <rect id="Rectángulo_423837" data-name="Rectángulo 423837" width="158.522" height="165.994" fill="none"/>
    </clipPath>
    <clipPath id="clip-path-5">
      <rect id="Rectángulo_423841" data-name="Rectángulo 423841" width="65.758" height="65.786" fill="none"/>
    </clipPath>
    <clipPath id="clip-path-6">
      <rect id="Rectángulo_423842" data-name="Rectángulo 423842" width="78.181" height="59.704" fill="none"/>
    </clipPath>
    <clipPath id="clip-path-7">
      <rect id="Rectángulo_423849" data-name="Rectángulo 423849" width="21.584" height="23.583" fill="none"/>
    </clipPath>
    <clipPath id="clip-path-8">
      <rect id="Rectángulo_423850" data-name="Rectángulo 423850" width="33.776" height="31.83" fill="none"/>
    </clipPath>
    <clipPath id="clip-path-9">
      <rect id="Rectángulo_423851" data-name="Rectángulo 423851" width="61.745" height="61.745" fill="none"/>
    </clipPath>
    <clipPath id="clip-path-10">
      <rect id="Rectángulo_423852" data-name="Rectángulo 423852" width="58.331" height="58.331" fill="none"/>
    </clipPath>
    <clipPath id="clip-path-11">
      <rect id="Rectángulo_423853" data-name="Rectángulo 423853" width="63.002" height="63.004" fill="none"/>
    </clipPath>
    <clipPath id="clip-path-12">
      <rect id="Rectángulo_423854" data-name="Rectángulo 423854" width="30.021" height="30.021" fill="none"/>
    </clipPath>
    <clipPath id="clip-path-13">
      <rect id="Rectángulo_423855" data-name="Rectángulo 423855" width="35.867" height="35.867" fill="none"/>
    </clipPath>
    <clipPath id="clip-path-14">
      <rect id="Rectángulo_423856" data-name="Rectángulo 423856" width="14.175" height="14.174" fill="none"/>
    </clipPath>
    <clipPath id="clip-path-15">
      <rect id="Rectángulo_423857" data-name="Rectángulo 423857" width="40.399" height="40.399" fill="none"/>
    </clipPath>
    <clipPath id="clip-path-16">
      <rect id="Rectángulo_423858" data-name="Rectángulo 423858" width="48.267" height="48.266" fill="none"/>
    </clipPath>
    <clipPath id="clip-path-17">
      <rect id="Rectángulo_423859" data-name="Rectángulo 423859" width="19.074" height="19.074" fill="none"/>
    </clipPath>
    <clipPath id="clip-path-18">
      <rect id="Rectángulo_423860" data-name="Rectángulo 423860" width="138.703" height="25.281" fill="none"/>
    </clipPath>
    <clipPath id="clip-path-19">
      <rect id="Rectángulo_423861" data-name="Rectángulo 423861" width="138.553" height="18.937" fill="none"/>
    </clipPath>
    <clipPath id="clip-path-20">
      <rect id="Rectángulo_423862" data-name="Rectángulo 423862" width="133.168" height="27.402" fill="none"/>
    </clipPath>
    <clipPath id="clip-path-24">
      <rect id="Rectángulo_423866" data-name="Rectángulo 423866" width="288.209" height="7.916" fill="none"/>
    </clipPath>
  </defs>
  <g id="Enmascarar_grupo_1211463" data-name="Enmascarar grupo 1211463" transform="translate(-1125.09 -1286.912)" clip-path="url(#clip-path)">
    <g id="Grupo_1240534" data-name="Grupo 1240534" transform="translate(1182.715 293.715)">
      <g id="Grupo_1240525" data-name="Grupo 1240525" transform="translate(-95 981)">
        <g id="Grupo_1240524" data-name="Grupo 1240524" clip-path="url(#clip-path-2)">
          <path id="Trazado_1215120" data-name="Trazado 1215120" d="M325.537,161.271a116.924,116.924,0,1,0-233.848,0V306.6H325.537Z" transform="translate(-23.97 -11.593)" fill="#f3de50"/>
          <path id="Trazado_1215121" data-name="Trazado 1215121" d="M307.245,169.2c-.59-15.492-8.621-20.537-8.621-20.537,6.495-10.392-3.572-17.212-3.572-17.212,1.3-15.912-11.691-12.34-11.691-12.34,7.793-25.329-16.887-29.876-16.887-29.876-1.948-12.665-15.263-11.366-15.263-11.366-15.912-14.288-31.849,3.9-31.849,3.9s-15.937-18.185-31.849-3.9c0,0-13.314-1.3-15.263,11.366,0,0-24.68,4.547-16.887,29.876,0,0-12.989-3.572-11.69,12.34,0,0-10.067,6.819-3.572,17.212,0,0-8.031,5.045-8.621,20.537s10.476,21.69,10.476,21.69-.738,10.328,8.41,12.246c0,0-1.623,22.279,16.968,24.935,0,0,0,21.837,23.017,22.574,0,0,9.038,14.6,29.012-2.288,19.974,16.893,29.012,2.288,29.012,2.288,23.017-.738,23.017-22.574,23.017-22.574,18.591-2.656,16.968-24.935,16.968-24.935,9.148-1.918,8.41-12.246,8.41-12.246s11.066-6.2,10.476-21.69" transform="translate(-34.367 -18.926)" fill="#ff94aa"/>
          <g id="Grupo_1240460" data-name="Grupo 1240460" transform="translate(98.918 57.366)" opacity="0.6" style="mix-blend-mode: overlay;isolation: isolate">
            <g id="Grupo_1240459" data-name="Grupo 1240459">
              <g id="Grupo_1240458" data-name="Grupo 1240458" clip-path="url(#clip-path-3)">
                <path id="Trazado_1215122" data-name="Trazado 1215122" d="M149.944,217.492s-10.864,1.869-14.288-10.884.649-24.523,8.443-25.01" transform="translate(-134.063 -104.841)" fill="none" stroke="#ffe9ef" stroke-linecap="round" stroke-linejoin="round" stroke-width="1"/>
                <path id="Trazado_1215123" data-name="Trazado 1215123" d="M184.406,111.028s-7.739,12.89-2.38,21.3,20.133-1.979,25,9.224" transform="translate(-146.011 -86.392)" fill="none" stroke="#ffe9ef" stroke-linecap="round" stroke-linejoin="round" stroke-width="1"/>
                <path id="Trazado_1215124" data-name="Trazado 1215124" d="M192.4,93.448s1.956-13.254,14.2-9.844c0,0,7.848-11.839,22.549-.561" transform="translate(-149.216 -77.803)" fill="none" stroke="#ffe9ef" stroke-linecap="round" stroke-linejoin="round" stroke-width="1"/>
                <path id="Trazado_1215125" data-name="Trazado 1215125" d="M185.022,289.1s1.8,9.853,11.108,13.314,16.717-5.872,8.768-17.048" transform="translate(-147.288 -131.969)" fill="none" stroke="#ffe9ef" stroke-linecap="round" stroke-linejoin="round" stroke-width="1"/>
                <path id="Trazado_1215126" data-name="Trazado 1215126" d="M195.047,253.654s7.3,9.676,15.843,3.353-1.222-20.889-1.222-20.889" transform="translate(-149.909 -119.095)" fill="none" stroke="#ffe9ef" stroke-linecap="round" stroke-linejoin="round" stroke-width="1"/>
                <path id="Trazado_1215127" data-name="Trazado 1215127" d="M344.566,217.492s10.864,1.869,14.288-10.884-.649-24.523-8.443-25.01" transform="translate(-188.998 -104.841)" fill="none" stroke="#ffe9ef" stroke-linecap="round" stroke-linejoin="round" stroke-width="1"/>
                <path id="Trazado_1215128" data-name="Trazado 1215128" d="M306.074,111.028s7.739,12.89,2.38,21.3-20.133-1.979-25,9.224" transform="translate(-173.021 -86.392)" fill="none" stroke="#ffe9ef" stroke-linecap="round" stroke-linejoin="round" stroke-width="1"/>
                <path id="Trazado_1215129" data-name="Trazado 1215129" d="M294.6,93.448S292.64,80.193,280.4,83.6c0,0-7.848-11.839-22.549-.561" transform="translate(-166.327 -77.803)" fill="none" stroke="#ffe9ef" stroke-linecap="round" stroke-linejoin="round" stroke-width="1"/>
                <path id="Trazado_1215130" data-name="Trazado 1215130" d="M306.749,289.1s-1.8,9.853-11.108,13.314-16.717-5.872-8.768-17.048" transform="translate(-173.034 -131.969)" fill="none" stroke="#ffe9ef" stroke-linecap="round" stroke-linejoin="round" stroke-width="1"/>
                <path id="Trazado_1215131" data-name="Trazado 1215131" d="M298.1,253.654s-7.3,9.676-15.843,3.353,1.222-20.889,1.222-20.889" transform="translate(-171.793 -119.095)" fill="none" stroke="#ffe9ef" stroke-linecap="round" stroke-linejoin="round" stroke-width="1"/>
                <path id="Trazado_1215132" data-name="Trazado 1215132" d="M221.244,312.234s12.252,3.038,21.238-10.415" transform="translate(-156.758 -136.271)" fill="none" stroke="#ffe9ef" stroke-linecap="round" stroke-linejoin="round" stroke-width="1"/>
                <path id="Trazado_1215133" data-name="Trazado 1215133" d="M271.475,312.234s-12.252,3.038-21.238-10.415" transform="translate(-164.338 -136.271)" fill="none" stroke="#ffe9ef" stroke-linecap="round" stroke-linejoin="round" stroke-width="1"/>
                <path id="Trazado_1215134" data-name="Trazado 1215134" d="M228.446,123.749s-4.4-6.592.763-11.791,10.771-3.03,10.771-3.03" transform="translate(-158.184 -85.726)" fill="none" stroke="#ffe9ef" stroke-linecap="round" stroke-linejoin="round" stroke-width="1"/>
                <path id="Trazado_1215135" data-name="Trazado 1215135" d="M266.854,123.749s4.4-6.592-.763-11.791-10.771-3.03-10.771-3.03" transform="translate(-165.666 -85.726)" fill="none" stroke="#ffe9ef" stroke-linecap="round" stroke-linejoin="round" stroke-width="1"/>
                <path id="Trazado_1215136" data-name="Trazado 1215136" d="M240.762,187.8c2.975-2.57,5.14-7.431-.675-16.185" transform="translate(-161.684 -102.23)" fill="none" stroke="#ffe9ef" stroke-linecap="round" stroke-linejoin="round" stroke-width="1"/>
                <path id="Trazado_1215137" data-name="Trazado 1215137" d="M265.819,179.8s3.8,7.734,12.487-1.085,14.519-10.689,21.471-4.562" transform="translate(-168.411 -101.958)" fill="none" stroke="#ffe9ef" stroke-linecap="round" stroke-linejoin="round" stroke-width="1"/>
                <path id="Trazado_1215138" data-name="Trazado 1215138" d="M222.161,179.8s-3.8,7.734-12.487-1.085-14.519-10.689-21.471-4.562" transform="translate(-148.12 -101.958)" fill="none" stroke="#ffe9ef" stroke-linecap="round" stroke-linejoin="round" stroke-width="1"/>
                <path id="Trazado_1215139" data-name="Trazado 1215139" d="M234.1,276.2s.054,13.248,8.078,11.144" transform="translate(-160.119 -129.573)" fill="none" stroke="#ffe9ef" stroke-linecap="round" stroke-linejoin="round" stroke-width="1"/>
                <path id="Trazado_1215140" data-name="Trazado 1215140" d="M262.973,276.2s-.054,13.248-8.078,11.144" transform="translate(-165.555 -129.573)" fill="none" stroke="#ffe9ef" stroke-linecap="round" stroke-linejoin="round" stroke-width="1"/>
                <path id="Trazado_1215141" data-name="Trazado 1215141" d="M242.877,215.46s2.082,11.917-10.712,13.587" transform="translate(-159.613 -113.694)" fill="none" stroke="#ffe9ef" stroke-linecap="round" stroke-linejoin="round" stroke-width="1"/>
                <path id="Trazado_1215142" data-name="Trazado 1215142" d="M257.943,187.8c-2.975-2.57-5.14-7.431.675-16.185" transform="translate(-165.573 -102.23)" fill="none" stroke="#ffe9ef" stroke-linecap="round" stroke-linejoin="round" stroke-width="1"/>
                <path id="Trazado_1215143" data-name="Trazado 1215143" d="M253.287,215.46S251.2,227.377,264,229.047" transform="translate(-165.102 -113.694)" fill="none" stroke="#ffe9ef" stroke-linecap="round" stroke-linejoin="round" stroke-width="1"/>
              </g>
            </g>
          </g>
          <g id="Grupo_1240463" data-name="Grupo 1240463" transform="translate(105.381 68.683)" opacity="0.5" style="mix-blend-mode: multiply;isolation: isolate">
            <g id="Grupo_1240462" data-name="Grupo 1240462">
              <g id="Grupo_1240461" data-name="Grupo 1240461" clip-path="url(#clip-path-4)">
                <path id="Trazado_1215144" data-name="Trazado 1215144" d="M207.245,199.513s10.983,9.366,3.016,24.457a15.427,15.427,0,0,0,5.542-12.592c-.305-8.316-8.559-11.865-8.559-11.865m-49.3-75.014s2.527.809,2.822,2.874c-2.194.056-2.822-2.874-2.822-2.874m-11.69,12.34s1.233,3.518,4.479,4.256c-.589-2.055-4.479-4.256-4.479-4.256m31.736-31.745a11.631,11.631,0,0,1-3.16-10.471s-5.773,8.1,3.16,10.471M218.016,93c-6.2,12.541-17.558,4.131-17.558,4.131s4.011,5.287,10.515,4.431S218.016,93,218.016,93m3.928,19.033s-4.519-5.312-8.5-2.8-5.607,11.219,3.541,15.274c0,0-7.293-4.541-4.383-11.644s9.345-.826,9.345-.826m-16.913,23.018c5.9-13.722-8.115-13.427-8.115-13.427s4.722-3.1,4.279-8.7-5.312-8.558-5.312-8.558,7.044,11.676-2.284,18.56c0,0,13.449-1.794,11.432,12.13m-9.148,12.836c.59-7.672-1.476-10.624-9.3-11.043s-12.689,3.223-18.886-6.22,1.623-18.3,1.623-18.3-6.705,3.5-5.508,13.613,8.324,14.989,16.828,13.791,14.525-1.4,15.237,8.155m14.378-6.787s4.951,5.754-2.722,8.263c0,0,8.262,3.688,5.9,11.656s-11.214,6.049-12.984,2.951c0,0,2.074,5.715,9.8,3.918s7.815-12.666.454-17.8c0,0,5.509-4.366-.454-8.987m-18.509,31.722c-10.328,16.968-23.755,11.066-24.64,0s7.5-14.459,7.5-14.459a5.966,5.966,0,0,1-2.781-5.9c.59-3.984,5.312-3.688,5.312-3.688s-4.25-1.67-6.737,1.913c-2.113,3.043,1.369,7.617,1.369,7.617s-8.732,4.086-6.462,15.607,11.6,14.688,18.273,10.323a19.867,19.867,0,0,0,8.165-11.411m12.1,5.017c-4.722-1.033-7.525,4.573-12.689,10.328s-21.348,4.544-27.591-3.394c-7.542-9.589-1.918-14.754-5.016-25.083s-15.872-5.636-15.872-5.636,13.143-1.657,14.1,6.643-1.308,14.975,2.714,22.848,13.905,12.411,23.319,11.127,11.639-8.073,14.035-11.226,3.3-6.013,7-5.609m6.41-5.078s6.537,5.225,3.6,13.341-10.31,7.377-14,5.016c0,0,3.745,5.05,10.975,2.493s7.086-9.874,5.306-14.018a17.745,17.745,0,0,0-5.887-6.832m-53.478,23.521s-6.639,3.394-12.246,0a18.28,18.28,0,0,0,.149,2.751s7.716,2.194,12.1-2.751m43.084,4.426c9.443,14.754,1.77,25.23-9.738,24.2s-12.138-12.542-12.138-12.542c-3.58,4.132-10.584,5.312-14.421-1.77s1.743-12.8,1.743-12.8a12.72,12.72,0,0,0-3.721,15.51c4.193,9.872,15.233,2.94,15.233,2.94s2.482,14.463,17.544,11.724,13.562-18.483,5.5-27.256m27.884,10.675a15.427,15.427,0,0,0,5.542,12.592c-7.966-15.091,3.016-24.457,3.016-24.457s-8.254,3.55-8.559,11.865M222.3,240.494c-10.623,6.344-12.987-4.132-12.987-4.132s-2.188,6,2.261,7.881,10.726-3.749,10.726-3.749m-44.305-10.577a9.874,9.874,0,0,1-8.076,3.541s.15,2.213.3,3.075c0,0,7.4-1.578,7.773-6.617m29.17-.59c-2.886,8.262-9.95,6.344-9.95,6.344,9.886,17.558-4.279,20.362-4.279,20.362a12,12,0,0,0,2.815,2.956s7.352-5.248,7.095-11.762-2.8-9.682-2.8-9.682,6.813,1.366,7.115-8.217M285.943,124.5s-2.527.809-2.822,2.874c2.2.056,2.822-2.874,2.822-2.874m7.211,16.6c3.246-.738,4.479-4.256,4.479-4.256s-3.891,2.2-4.479,4.256m-24.1-46.472a11.631,11.631,0,0,1-3.16,10.471c8.934-2.369,3.16-10.471,3.16-10.471m-36.14,6.934c6.5.856,10.515-4.431,10.515-4.431S232.07,105.536,225.873,93c0,0,.538,7.707,7.042,8.562m-1.626,11.3c2.909,7.1-4.384,11.644-4.384,11.644,9.148-4.055,7.525-12.765,3.541-15.274s-8.5,2.8-8.5,2.8,6.436-6.277,9.346.826m19,10.061c-9.328-6.883-2.284-18.56-2.284-18.56s-4.869,2.951-5.311,8.558,4.279,8.7,4.279,8.7-14.017-.295-8.115,13.427c-2.018-13.924,11.431-12.13,11.431-12.13m12.954,16.811c8.5,1.2,15.63-3.68,16.828-13.791s-5.508-13.613-5.508-13.613,7.82,8.853,1.623,18.3-11.066,5.8-18.886,6.22-9.886,3.371-9.3,11.043c.712-9.56,6.734-9.354,15.238-8.155m-30.07,10.355c-7.36,5.135-7.274,16,.455,17.8s9.8-3.918,9.8-3.918c-1.77,3.1-10.623,5.016-12.983-2.951s5.9-11.656,5.9-11.656c-7.672-2.509-2.721-8.263-2.721-8.263-5.964,4.62-.455,8.987-.455,8.987M260.3,184.228c6.675,4.365,16,1.2,18.274-10.323s-6.463-15.607-6.463-15.607,3.482-4.574,1.369-7.617c-2.488-3.583-6.738-1.913-6.738-1.913s4.722-.3,5.312,3.688a5.965,5.965,0,0,1-2.781,5.9s8.389,3.393,7.5,14.459-14.312,16.968-24.64,0a19.867,19.867,0,0,0,8.165,11.411m-13.265-.784c2.4,3.153,4.621,9.942,14.035,11.226s19.3-3.253,23.319-11.127,1.756-14.547,2.714-22.848,14.1-6.643,14.1-6.643-12.773-4.692-15.871,5.636,2.525,15.494-5.016,25.083c-6.244,7.937-22.427,9.148-27.592,3.394s-7.968-11.361-12.689-10.328c3.7-.4,4.6,2.457,7,5.609m-19.3-3.856c-1.779,4.144-1.923,11.461,5.306,14.018s10.975-2.493,10.975-2.493c-3.688,2.36-11.065,3.1-14-5.016s3.6-13.341,3.6-13.341a17.744,17.744,0,0,0-5.888,6.832M299.2,199.028a18.281,18.281,0,0,0,.149-2.751c-5.607,3.394-12.246,0-12.246,0,4.381,4.945,12.1,2.751,12.1,2.751m-49.684,28.931c15.062,2.739,17.544-11.724,17.544-11.724s11.04,6.931,15.234-2.94a12.721,12.721,0,0,0-3.721-15.51s5.579,5.722,1.743,12.8-10.841,5.9-14.421,1.77c0,0-.629,11.508-12.138,12.542s-19.181-9.443-9.738-24.2c-8.064,8.773-9.564,24.518,5.5,27.256m-17.2,16.284c4.45-1.883,2.261-7.881,2.261-7.881s-1.657,10.476-12.281,4.132c0,0,5.57,5.632,10.019,3.749m41.353-7.709c.153-.863.3-3.075.3-3.075a9.874,9.874,0,0,1-8.076-3.541c.375,5.039,7.773,6.617,7.773,6.617m-29.829,1.01s-2.538,3.166-2.8,9.682,7.1,11.762,7.1,11.762a12.006,12.006,0,0,0,2.815-2.956s-14.164-2.8-4.279-20.362c0,0-7.064,1.918-9.95-6.344.3,9.584,7.115,8.217,7.115,8.217" transform="translate(-142.683 -92.995)" fill="#ff94aa"/>
              </g>
            </g>
          </g>
          <path id="Trazado_1215145" data-name="Trazado 1215145" d="M335.653,135.65s-2.527.809-2.822,2.875" transform="translate(-87.012 -35.463)" fill="none" stroke="#ba2e4b" stroke-linecap="round" stroke-linejoin="round" stroke-width="1"/>
          <path id="Trazado_1215146" data-name="Trazado 1215146" d="M350.9,152.358s-1.233,3.519-4.479,4.256" transform="translate(-90.564 -39.831)" fill="none" stroke="#ba2e4b" stroke-linecap="round" stroke-linejoin="round" stroke-width="1"/>
          <path id="Trazado_1215147" data-name="Trazado 1215147" d="M312.67,95.2a11.631,11.631,0,0,1-3.16,10.471" transform="translate(-80.915 -24.888)" fill="none" stroke="#ba2e4b" stroke-linecap="round" stroke-linejoin="round" stroke-width="1"/>
          <path id="Trazado_1215148" data-name="Trazado 1215148" d="M272.877,97.127s-11.361,8.41-17.558-4.132" transform="translate(-66.748 -24.312)" fill="none" stroke="#ba2e4b" stroke-linecap="round" stroke-linejoin="round" stroke-width="1"/>
          <path id="Trazado_1215149" data-name="Trazado 1215149" d="M250,117.535s4.519-5.312,8.5-2.8,5.607,11.22-3.541,15.274" transform="translate(-65.357 -29.818)" fill="none" stroke="#ba2e4b" stroke-linecap="round" stroke-linejoin="round" stroke-width="1"/>
          <path id="Trazado_1215150" data-name="Trazado 1215150" d="M281.534,108.378s-4.869,2.951-5.312,8.558,4.279,8.7,4.279,8.7-14.017-.295-8.115,13.427" transform="translate(-70.831 -28.333)" fill="none" stroke="#ba2e4b" stroke-linecap="round" stroke-linejoin="round" stroke-width="1"/>
          <path id="Trazado_1215151" data-name="Trazado 1215151" d="M311.81,119.165s7.82,8.853,1.623,18.3-11.066,5.8-18.886,6.219-9.886,3.371-9.3,11.043" transform="translate(-74.549 -31.153)" fill="none" stroke="#ba2e4b" stroke-linecap="round" stroke-linejoin="round" stroke-width="1"/>
          <path id="Trazado_1215152" data-name="Trazado 1215152" d="M264.543,158.121s-4.951,5.754,2.722,8.262c0,0-8.263,3.689-5.9,11.656s11.213,6.05,12.984,2.951" transform="translate(-68.217 -41.338)" fill="none" stroke="#ba2e4b" stroke-linecap="round" stroke-linejoin="round" stroke-width="1"/>
          <path id="Trazado_1215153" data-name="Trazado 1215153" d="M305.486,168.507s4.722-.3,5.312,3.688a5.966,5.966,0,0,1-2.781,5.9s8.388,3.394,7.5,14.46-14.312,16.968-24.64,0" transform="translate(-76.045 -44.052)" fill="none" stroke="#ba2e4b" stroke-linecap="round" stroke-linejoin="round" stroke-width="1"/>
          <path id="Trazado_1215154" data-name="Trazado 1215154" d="M335.665,175.285s-12.773-4.691-15.872,5.636,1.876,16.77-5.016,25.083-22.427,9.148-27.591,3.394-7.968-11.361-12.689-10.328" transform="translate(-71.762 -45.547)" fill="none" stroke="#ba2e4b" stroke-linecap="round" stroke-linejoin="round" stroke-width="1"/>
          <path id="Trazado_1215155" data-name="Trazado 1215155" d="M264.275,200.988s-6.537,5.225-3.6,13.341,10.31,7.377,14,5.016" transform="translate(-67.949 -52.544)" fill="none" stroke="#ba2e4b" stroke-linecap="round" stroke-linejoin="round" stroke-width="1"/>
          <path id="Trazado_1215156" data-name="Trazado 1215156" d="M338.225,232.836s6.64,3.394,12.246,0" transform="translate(-88.422 -60.87)" fill="none" stroke="#ba2e4b" stroke-linecap="round" stroke-linejoin="round" stroke-width="1"/>
          <path id="Trazado_1215157" data-name="Trazado 1215157" d="M312.943,234.878s5.578,5.722,1.742,12.8-10.841,5.9-14.421,1.77c0,0-.629,11.508-12.137,12.542s-19.182-9.443-9.739-24.2" transform="translate(-71.67 -61.404)" fill="none" stroke="#ba2e4b" stroke-linecap="round" stroke-linejoin="round" stroke-width="1"/>
          <path id="Trazado_1215158" data-name="Trazado 1215158" d="M262.759,287.111s-1.657,10.476-12.281,4.132" transform="translate(-65.482 -75.059)" fill="none" stroke="#ba2e4b" stroke-linecap="round" stroke-linejoin="round" stroke-width="1"/>
          <path id="Trazado_1215159" data-name="Trazado 1215159" d="M317.586,281.925a9.874,9.874,0,0,1-8.076-3.541" transform="translate(-80.915 -72.778)" fill="none" stroke="#ba2e4b" stroke-linecap="round" stroke-linejoin="round" stroke-width="1"/>
          <path id="Trazado_1215160" data-name="Trazado 1215160" d="M284.244,304.29s-14.164-2.8-4.279-20.362c0,0-7.064,1.918-9.951-6.344" transform="translate(-70.59 -72.569)" fill="none" stroke="#ba2e4b" stroke-linecap="round" stroke-linejoin="round" stroke-width="1"/>
          <path id="Trazado_1215161" data-name="Trazado 1215161" d="M163.348,135.65s2.527.809,2.822,2.875" transform="translate(-42.704 -35.463)" fill="none" stroke="#ba2e4b" stroke-linecap="round" stroke-linejoin="round" stroke-width="1"/>
          <path id="Trazado_1215162" data-name="Trazado 1215162" d="M147.519,152.358s1.233,3.519,4.479,4.256" transform="translate(-38.566 -39.831)" fill="none" stroke="#ba2e4b" stroke-linecap="round" stroke-linejoin="round" stroke-width="1"/>
          <path id="Trazado_1215163" data-name="Trazado 1215163" d="M186.135,95.2a11.631,11.631,0,0,0,3.16,10.471" transform="translate(-48.605 -24.888)" fill="none" stroke="#ba2e4b" stroke-linecap="round" stroke-linejoin="round" stroke-width="1"/>
          <path id="Trazado_1215164" data-name="Trazado 1215164" d="M220.908,97.127s11.361,8.41,17.558-4.132" transform="translate(-57.752 -24.312)" fill="none" stroke="#ba2e4b" stroke-linecap="round" stroke-linejoin="round" stroke-width="1"/>
          <path id="Trazado_1215165" data-name="Trazado 1215165" d="M245.865,117.535s-4.519-5.312-8.5-2.8-5.607,11.22,3.541,15.274" transform="translate(-61.222 -29.818)" fill="none" stroke="#ba2e4b" stroke-linecap="round" stroke-linejoin="round" stroke-width="1"/>
          <path id="Trazado_1215166" data-name="Trazado 1215166" d="M214.715,108.378s4.869,2.951,5.312,8.558-4.279,8.7-4.279,8.7,14.017-.295,8.115,13.427" transform="translate(-56.133 -28.333)" fill="none" stroke="#ba2e4b" stroke-linecap="round" stroke-linejoin="round" stroke-width="1"/>
          <path id="Trazado_1215167" data-name="Trazado 1215167" d="M177.336,119.165s-7.82,8.853-1.623,18.3,11.065,5.8,18.885,6.219,9.886,3.371,9.3,11.043" transform="translate(-45.312 -31.153)" fill="none" stroke="#ba2e4b" stroke-linecap="round" stroke-linejoin="round" stroke-width="1"/>
          <path id="Trazado_1215168" data-name="Trazado 1215168" d="M230.711,158.121s4.951,5.754-2.722,8.262c0,0,8.263,3.689,5.9,11.656s-11.213,6.05-12.984,2.951" transform="translate(-57.752 -41.338)" fill="none" stroke="#ba2e4b" stroke-linecap="round" stroke-linejoin="round" stroke-width="1"/>
          <path id="Trazado_1215169" data-name="Trazado 1215169" d="M185.769,168.507s-4.722-.3-5.312,3.688a5.966,5.966,0,0,0,2.781,5.9s-8.388,3.394-7.5,14.46,14.312,16.968,24.64,0" transform="translate(-45.926 -44.052)" fill="none" stroke="#ba2e4b" stroke-linecap="round" stroke-linejoin="round" stroke-width="1"/>
          <path id="Trazado_1215170" data-name="Trazado 1215170" d="M142.683,175.285s12.773-4.691,15.871,5.636-1.875,16.77,5.017,25.083S186,215.152,191.162,209.4s7.968-11.361,12.689-10.328" transform="translate(-37.302 -45.547)" fill="none" stroke="#ba2e4b" stroke-linecap="round" stroke-linejoin="round" stroke-width="1"/>
          <path id="Trazado_1215171" data-name="Trazado 1215171" d="M230.5,200.988s6.537,5.225,3.6,13.341-10.31,7.377-14,5.016" transform="translate(-57.543 -52.544)" fill="none" stroke="#ba2e4b" stroke-linecap="round" stroke-linejoin="round" stroke-width="1"/>
          <path id="Trazado_1215172" data-name="Trazado 1215172" d="M157.44,232.836s-6.64,3.394-12.246,0" transform="translate(-37.958 -60.87)" fill="none" stroke="#ba2e4b" stroke-linecap="round" stroke-linejoin="round" stroke-width="1"/>
          <path id="Trazado_1215173" data-name="Trazado 1215173" d="M172.23,234.878s-5.579,5.722-1.743,12.8,10.841,5.9,14.421,1.77c0,0,.629,11.508,12.138,12.542s19.181-9.443,9.738-24.2" transform="translate(-44.218 -61.404)" fill="none" stroke="#ba2e4b" stroke-linecap="round" stroke-linejoin="round" stroke-width="1"/>
          <path id="Trazado_1215174" data-name="Trazado 1215174" d="M232.894,287.111s2.364,10.476,12.987,4.132" transform="translate(-60.885 -75.059)" fill="none" stroke="#ba2e4b" stroke-linecap="round" stroke-linejoin="round" stroke-width="1"/>
          <path id="Trazado_1215175" data-name="Trazado 1215175" d="M179.555,281.925a9.874,9.874,0,0,0,8.076-3.541" transform="translate(-46.941 -72.778)" fill="none" stroke="#ba2e4b" stroke-linecap="round" stroke-linejoin="round" stroke-width="1"/>
          <path id="Trazado_1215176" data-name="Trazado 1215176" d="M210.719,304.29s14.164-2.8,4.279-20.362c0,0,7.064,1.918,9.951-6.344" transform="translate(-55.088 -72.569)" fill="none" stroke="#ba2e4b" stroke-linecap="round" stroke-linejoin="round" stroke-width="1"/>
          <path id="Trazado_1215177" data-name="Trazado 1215177" d="M230.1,237.217s10.983,9.366,3.016,24.457" transform="translate(-60.155 -62.016)" fill="none" stroke="#ba2e4b" stroke-linecap="round" stroke-linejoin="round" stroke-width="1"/>
          <path id="Trazado_1215178" data-name="Trazado 1215178" d="M267.929,237.217s-10.983,9.366-3.016,24.457" transform="translate(-68.498 -62.016)" fill="none" stroke="#ba2e4b" stroke-linecap="round" stroke-linejoin="round" stroke-width="1"/>
          <path id="Trazado_1215179" data-name="Trazado 1215179" d="M307.245,169.2c-.59-15.492-8.621-20.537-8.621-20.537,6.495-10.392-3.572-17.212-3.572-17.212,1.3-15.912-11.691-12.34-11.691-12.34,7.793-25.329-16.887-29.876-16.887-29.876-1.948-12.665-15.263-11.366-15.263-11.366-15.912-14.288-31.849,3.9-31.849,3.9s-15.937-18.185-31.849-3.9c0,0-13.314-1.3-15.263,11.366,0,0-24.68,4.547-16.887,29.876,0,0-12.989-3.572-11.69,12.34,0,0-10.067,6.819-3.572,17.212,0,0-8.031,5.045-8.621,20.537s10.476,21.69,10.476,21.69-.738,10.328,8.41,12.246c0,0-1.623,22.279,16.968,24.935,0,0,0,21.837,23.017,22.574,0,0,9.038,14.6,29.012-2.288,19.974,16.893,29.012,2.288,29.012,2.288,23.017-.738,23.017-22.574,23.017-22.574,18.591-2.656,16.968-24.935,16.968-24.935,9.148-1.918,8.41-12.246,8.41-12.246S307.835,184.694,307.245,169.2Z" transform="translate(-34.367 -18.926)" fill="none" stroke="#ba2e4b" stroke-linecap="round" stroke-linejoin="round" stroke-width="1"/>
          <path id="Trazado_1215180" data-name="Trazado 1215180" d="M245.507,85.086v38.339a8.427,8.427,0,1,0,0,12.537v64.645a8.427,8.427,0,1,1,0,12.536v38.533" transform="translate(-60.511 -22.244)" fill="none" stroke="#e8f4ff" stroke-linecap="round" stroke-linejoin="round" stroke-width="1.5"/>
          <path id="Trazado_1215181" data-name="Trazado 1215181" d="M306.961,192.067h-40.5a8.426,8.426,0,1,0-12.536,0H183.752a8.426,8.426,0,1,1-12.536,0H132.1" transform="translate(-34.535 -46.54)" fill="none" stroke="#e8f4ff" stroke-linecap="round" stroke-linejoin="round" stroke-width="1.5"/>
          <path id="Trazado_1215182" data-name="Trazado 1215182" d="M115.112,319.155h0a6.736,6.736,0,0,1,0-9.527l3.191-3.191,9.527,9.527-3.191,3.191a6.736,6.736,0,0,1-9.527,0" transform="translate(-29.578 -80.112)" fill="#ff9f50"/>
          <rect id="Rectángulo_423838" data-name="Rectángulo 423838" width="62.72" height="13.473" transform="translate(91.08 223.97) rotate(-45)" fill="#63387e"/>
          <rect id="Rectángulo_423839" data-name="Rectángulo 423839" width="62.72" height="5.289" transform="matrix(0.707, -0.707, 0.707, 0.707, 93.974, 226.864)" fill="#ff9f50"/>
          <rect id="Rectángulo_423840" data-name="Rectángulo 423840" width="3.332" height="13.473" transform="translate(88.724 226.326) rotate(-45)" fill="#b8cbdd"/>
          <line id="Línea_625" data-name="Línea 625" x1="9.527" y1="9.527" transform="translate(88.724 226.326)" fill="none" stroke="#788ea0" stroke-linecap="round" stroke-linejoin="round" stroke-width="1"/>
          <line id="Línea_626" data-name="Línea 626" x2="9.527" y2="9.527" transform="translate(91.08 223.97)" fill="none" stroke="#788ea0" stroke-linecap="round" stroke-linejoin="round" stroke-width="1"/>
          <path id="Trazado_1215183" data-name="Trazado 1215183" d="M192.876,251.187l-9.527-9.527,13.93-4.4Z" transform="translate(-47.933 -62.026)" fill="#ffd4c4"/>
          <path id="Trazado_1215184" data-name="Trazado 1215184" d="M198.546,242.725l-3.74-3.74,5.469-1.728Z" transform="translate(-50.928 -62.026)" fill="#ff9f50"/>
          <g id="Grupo_1240466" data-name="Grupo 1240466" transform="translate(83.588 175.231)" opacity="0.4" style="mix-blend-mode: multiply;isolation: isolate">
            <g id="Grupo_1240465" data-name="Grupo 1240465">
              <g id="Grupo_1240464" data-name="Grupo 1240464" clip-path="url(#clip-path-5)">
                <path id="Trazado_1215185" data-name="Trazado 1215185" d="M178.934,237.257l-6.5,11.836-48.859,48.87a6.737,6.737,0,0,1-10.4-1.076,6.733,6.733,0,0,0,11.472,4.184l49.9-49.9-.007-.007,2.668-8.44Z" transform="translate(-113.176 -237.257)" fill="#63387e"/>
              </g>
            </g>
          </g>
          <path id="Trazado_1215186" data-name="Trazado 1215186" d="M360.87,118.409H289.79a3.55,3.55,0,0,1-3.55-3.55v-52.6a3.55,3.55,0,0,1,3.55-3.55h71.08a3.55,3.55,0,0,1,3.55,3.55v52.6a3.55,3.55,0,0,1-3.55,3.55" transform="translate(-74.832 -15.347)" fill="#f0f7ff"/>
          <g id="Grupo_1240469" data-name="Grupo 1240469" transform="translate(211.408 43.358)" opacity="0.9" style="mix-blend-mode: overlay;isolation: isolate">
            <g id="Grupo_1240468" data-name="Grupo 1240468">
              <g id="Grupo_1240467" data-name="Grupo 1240467" clip-path="url(#clip-path-6)">
                <path id="Trazado_1215187" data-name="Trazado 1215187" d="M286.24,84.668V96.692L324.228,58.7H312.2Z" transform="translate(-286.24 -58.705)" fill="#fff"/>
                <path id="Trazado_1215188" data-name="Trazado 1215188" d="M359.113,58.705h-24.34L286.24,107.237v7.621a3.551,3.551,0,0,0,3.55,3.551h9.618Z" transform="translate(-286.24 -58.705)" fill="#fff"/>
                <path id="Trazado_1215189" data-name="Trazado 1215189" d="M372.171,81.725V63.469c0-.041-.012-.08-.013-.12l-56.274,56.274h18.388Z" transform="translate(-293.99 -59.919)" fill="#fff"/>
              </g>
            </g>
          </g>
          <path id="Trazado_1215190" data-name="Trazado 1215190" d="M360.87,136.44H289.79a3.55,3.55,0,0,1-3.55-3.55v-5.214h78.181v5.214a3.55,3.55,0,0,1-3.55,3.55" transform="translate(-74.832 -33.378)" fill="#391052"/>
          <rect id="Rectángulo_423843" data-name="Rectángulo 423843" width="66.773" height="0.928" transform="translate(222.817 98.215)" fill="#cfdded"/>
          <rect id="Rectángulo_423844" data-name="Rectángulo 423844" width="11.892" height="0.928" transform="translate(222.817 98.215)" fill="#ff597b"/>
          <path id="Trazado_1215191" data-name="Trazado 1215191" d="M319.454,132.7a2.58,2.58,0,1,1-2.581-2.581,2.58,2.58,0,0,1,2.581,2.581" transform="translate(-82.166 -34.016)" fill="#fff"/>
          <path id="Trazado_1215192" data-name="Trazado 1215192" d="M318.627,133.149a1.3,1.3,0,1,1-1.3-1.3,1.3,1.3,0,0,1,1.3,1.3" transform="translate(-82.619 -34.47)" fill="#ff597b"/>
          <rect id="Rectángulo_423845" data-name="Rectángulo 423845" width="0.739" height="8.764" transform="translate(222.448 94.298)" fill="#cfdded"/>
          <path id="Trazado_1215193" data-name="Trazado 1215193" d="M291.161,135.4v-4.858l4.14,2.429Z" transform="translate(-76.118 -34.127)" fill="#ff597b"/>
          <path id="Trazado_1215194" data-name="Trazado 1215194" d="M345.257,88.281a13.318,13.318,0,1,1-13.319-13.319,13.319,13.319,0,0,1,13.319,13.319" transform="translate(-83.297 -19.597)" fill="#ff597b"/>
          <path id="Trazado_1215195" data-name="Trazado 1215195" d="M330.161,97.351V84.471l10.974,6.44Z" transform="translate(-86.314 -22.083)" fill="#fff"/>
          <rect id="Rectángulo_423846" data-name="Rectángulo 423846" width="78.181" height="59.704" rx="4.807" transform="translate(211.408 43.358)" fill="none" stroke="#391052" stroke-linecap="round" stroke-linejoin="round" stroke-width="1"/>
          <rect id="Rectángulo_423847" data-name="Rectángulo 423847" width="9.222" height="33.193" transform="translate(253.391 214.997) rotate(-39.051)" fill="#cfdded"/>
          <g id="Grupo_1240472" data-name="Grupo 1240472" transform="translate(259.881 217.19)" opacity="0.7" style="mix-blend-mode: multiply;isolation: isolate">
            <g id="Grupo_1240471" data-name="Grupo 1240471">
              <g id="Grupo_1240470" data-name="Grupo 1240470" clip-path="url(#clip-path-7)">
                <rect id="Rectángulo_423848" data-name="Rectángulo 423848" width="9.222" height="22.887" transform="translate(0.002 5.81) rotate(-39.051)" fill="#cfdded"/>
              </g>
            </g>
          </g>
          <path id="Trazado_1215196" data-name="Trazado 1215196" d="M361.9,294.225l22.2,27.784a6.516,6.516,0,1,1-10.12,8.21l-22.2-27.783Z" transform="translate(-91.966 -76.919)" fill="#461663"/>
          <line id="Línea_627" data-name="Línea 627" x2="21.121" y2="26.131" transform="translate(264.218 226.775)" fill="none" stroke="#63387e" stroke-linecap="round" stroke-linejoin="round" stroke-width="1"/>
          <line id="Línea_628" data-name="Línea 628" x2="21.121" y2="26.131" transform="translate(267.204 224.362)" fill="none" stroke="#63387e" stroke-linecap="round" stroke-linejoin="round" stroke-width="1"/>
          <line id="Línea_629" data-name="Línea 629" x2="21.121" y2="26.131" transform="translate(270.189 221.949)" fill="none" stroke="#63387e" stroke-linecap="round" stroke-linejoin="round" stroke-width="1"/>
          <g id="Grupo_1240475" data-name="Grupo 1240475" transform="translate(259.814 223.883)" opacity="0.3" style="mix-blend-mode: multiply;isolation: isolate">
            <g id="Grupo_1240474" data-name="Grupo 1240474">
              <g id="Grupo_1240473" data-name="Grupo 1240473" clip-path="url(#clip-path-8)">
                <path id="Trazado_1215197" data-name="Trazado 1215197" d="M383.515,329.813a6.514,6.514,0,0,1-9.164-.959L353.794,303.13l-2.014,1.634,22.2,27.783a6.514,6.514,0,0,0,11.459-5.327,6.479,6.479,0,0,1-1.926,2.594" transform="translate(-351.78 -303.13)" fill="#461663"/>
              </g>
            </g>
          </g>
          <g id="Grupo_1240478" data-name="Grupo 1240478" transform="translate(207.399 157.146)" opacity="0.2">
            <g id="Grupo_1240477" data-name="Grupo 1240477">
              <g id="Grupo_1240476" data-name="Grupo 1240476" clip-path="url(#clip-path-9)">
                <path id="Trazado_1215198" data-name="Trazado 1215198" d="M342.556,243.643a30.873,30.873,0,1,1-30.873-30.872,30.872,30.872,0,0,1,30.873,30.872" transform="translate(-280.811 -212.77)" fill="#00bed2"/>
              </g>
            </g>
          </g>
          <g id="Grupo_1240481" data-name="Grupo 1240481" transform="translate(208.848 158.595)" opacity="0.3" style="mix-blend-mode: overlay;isolation: isolate">
            <g id="Grupo_1240480" data-name="Grupo 1240480">
              <g id="Grupo_1240479" data-name="Grupo 1240479" clip-path="url(#clip-path-10)">
                <path id="Trazado_1215199" data-name="Trazado 1215199" d="M331.677,220.575l-43.061,43.062a30.954,30.954,0,0,0,14.262,10.955l39.754-39.755a30.952,30.952,0,0,0-10.955-14.262" transform="translate(-284.301 -216.26)" fill="#fff"/>
                <path id="Trazado_1215200" data-name="Trazado 1215200" d="M282.774,253.518a30.73,30.73,0,0,0,2.922,6.476l42.339-42.34a30.722,30.722,0,0,0-6.475-2.922Z" transform="translate(-282.774 -214.733)" fill="#fff"/>
              </g>
            </g>
          </g>
          <path id="Trazado_1215201" data-name="Trazado 1215201" d="M288.406,216.611a34.114,34.114,0,1,0,47.986,4.994,34.117,34.117,0,0,0-47.986-4.994m40.266,49.625a29.792,29.792,0,1,1,4.363-41.907,29.791,29.791,0,0,1-4.363,41.907" transform="translate(-72.1 -54.635)" fill="#cfdded"/>
          <path id="Trazado_1215202" data-name="Trazado 1215202" d="M301.483,276.33a34.116,34.116,0,0,0,20.56-65.057m-13.695,62.055a29.79,29.79,0,1,1,8.262-58.967" transform="translate(-73.629 -55.233)" fill="none" stroke="#788ea0" stroke-linecap="round" stroke-linejoin="round" stroke-width="1"/>
          <g id="Grupo_1240484" data-name="Grupo 1240484" transform="translate(206.303 156.963)" opacity="0.7" style="mix-blend-mode: multiply;isolation: isolate">
            <g id="Grupo_1240483" data-name="Grupo 1240483">
              <g id="Grupo_1240482" data-name="Grupo 1240482" clip-path="url(#clip-path-11)">
                <path id="Trazado_1215203" data-name="Trazado 1215203" d="M335.289,224.176a31.5,31.5,0,1,0-4.615,44.312,31.5,31.5,0,0,0,4.615-44.312m-18.745-9.388a29.788,29.788,0,1,1-24.49,6.1,29.658,29.658,0,0,1,24.49-6.1" transform="translate(-279.327 -212.523)" fill="#cfdded"/>
              </g>
            </g>
          </g>
          <path id="Trazado_1215204" data-name="Trazado 1215204" d="M200.973,53.917c0-.021,0-.042,0-.063l5.6-.988-1.1-6.222-5.6.987a18.545,18.545,0,0,0-3.29-5.686l3.657-4.359-4.84-4.061-3.657,4.358a18.422,18.422,0,0,0-6.171-2.246V29.947h-6.318v5.689a18.42,18.42,0,0,0-6.171,2.246l-3.657-4.358-4.841,4.061,3.657,4.359a18.545,18.545,0,0,0-3.29,5.686l-5.6-.987-1.1,6.222,5.6.988c0,.021,0,.042,0,.063A18.517,18.517,0,0,0,165,60.324l-4.921,2.841,3.16,5.472,4.926-2.844a18.642,18.642,0,0,0,5.032,4.221l-1.945,5.346,5.937,2.161,1.945-5.346a18.4,18.4,0,0,0,6.567,0l1.946,5.346,5.937-2.161-1.946-5.346a18.643,18.643,0,0,0,5.032-4.221l4.926,2.844,3.16-5.472-4.921-2.841a18.518,18.518,0,0,0,1.137-6.408M182.418,67.252a13.335,13.335,0,1,1,13.336-13.336,13.335,13.335,0,0,1-13.336,13.336" transform="translate(-41.375 -7.829)" fill="#b8cbdd"/>
          <path id="Trazado_1215205" data-name="Trazado 1215205" d="M186.248,71.017a13.335,13.335,0,1,1,13.336-13.336A13.335,13.335,0,0,1,186.248,71.017Z" transform="translate(-45.205 -11.593)" fill="none" stroke="#788ea0" stroke-linecap="round" stroke-linejoin="round" stroke-width="1"/>
          <g id="Grupo_1240487" data-name="Grupo 1240487" transform="translate(126.033 31.078)" opacity="0.4" style="mix-blend-mode: multiply;isolation: isolate">
            <g id="Grupo_1240486" data-name="Grupo 1240486">
              <g id="Grupo_1240485" data-name="Grupo 1240485" clip-path="url(#clip-path-12)">
                <path id="Trazado_1215206" data-name="Trazado 1215206" d="M185.655,42.078a15.01,15.01,0,1,0,15.011,15.01,15.011,15.011,0,0,0-15.011-15.01m0,28.346A13.335,13.335,0,1,1,198.99,57.088a13.335,13.335,0,0,1-13.336,13.336" transform="translate(-170.644 -42.078)" fill="#b8cbdd"/>
              </g>
            </g>
          </g>
          <g id="Grupo_1240490" data-name="Grupo 1240490" transform="translate(123.109 28.154)" opacity="0.5" style="mix-blend-mode: overlay;isolation: isolate">
            <g id="Grupo_1240489" data-name="Grupo 1240489">
              <g id="Grupo_1240488" data-name="Grupo 1240488" clip-path="url(#clip-path-13)">
                <path id="Trazado_1215207" data-name="Trazado 1215207" d="M184.62,38.12a17.934,17.934,0,1,0,17.934,17.933A17.933,17.933,0,0,0,184.62,38.12m0,35.2a17.269,17.269,0,1,1,17.269-17.269A17.269,17.269,0,0,1,184.62,73.322" transform="translate(-166.686 -38.12)" fill="#fff"/>
              </g>
            </g>
          </g>
          <path id="Trazado_1215208" data-name="Trazado 1215208" d="M187.738,68.3a9.127,9.127,0,1,1,9.127-9.127,9.126,9.126,0,0,1-9.127,9.127" transform="translate(-46.694 -13.083)" fill="#b8cbdd"/>
          <g id="Grupo_1240493" data-name="Grupo 1240493" transform="translate(133.956 39.001)" opacity="0.4" style="mix-blend-mode: multiply;isolation: isolate">
            <g id="Grupo_1240492" data-name="Grupo 1240492">
              <g id="Grupo_1240491" data-name="Grupo 1240491" clip-path="url(#clip-path-14)">
                <path id="Trazado_1215209" data-name="Trazado 1215209" d="M188.459,66.98a7.087,7.087,0,1,1,7.087-7.087,7.087,7.087,0,0,1-7.087,7.087" transform="translate(-181.372 -52.806)" fill="#b8cbdd"/>
              </g>
            </g>
          </g>
          <path id="Trazado_1215210" data-name="Trazado 1215210" d="M153.1,111.823c0-.029,0-.057,0-.086l7.539-1.329-1.476-8.374-7.533,1.328a24.937,24.937,0,0,0-4.427-7.651l4.922-5.866-6.513-5.465-4.92,5.864a24.789,24.789,0,0,0-8.305-3.022V79.567h-8.5v7.656a24.789,24.789,0,0,0-8.305,3.022l-4.92-5.864-6.513,5.465,4.922,5.866a24.937,24.937,0,0,0-4.427,7.651l-7.533-1.328-1.476,8.374,7.539,1.329c0,.029,0,.057,0,.086a24.905,24.905,0,0,0,1.53,8.623l-6.623,3.824,4.251,7.364,6.629-3.828a25.067,25.067,0,0,0,6.771,5.68l-2.618,7.194,7.99,2.908,2.618-7.194a24.724,24.724,0,0,0,8.838,0l2.618,7.194,7.99-2.908-2.618-7.194a25.066,25.066,0,0,0,6.771-5.68l6.629,3.828,4.251-7.364-6.623-3.824a24.906,24.906,0,0,0,1.53-8.623m-24.968,17.945a17.945,17.945,0,1,1,17.945-17.945,17.945,17.945,0,0,1-17.945,17.945" transform="translate(-25.001 -20.801)" fill="#b8cbdd"/>
          <path id="Trazado_1215211" data-name="Trazado 1215211" d="M133.288,134.834a17.945,17.945,0,1,1,17.945-17.945A17.945,17.945,0,0,1,133.288,134.834Z" transform="translate(-30.154 -25.867)" fill="none" stroke="#788ea0" stroke-linecap="round" stroke-linejoin="round" stroke-width="1"/>
          <g id="Grupo_1240496" data-name="Grupo 1240496" transform="translate(82.935 70.822)" opacity="0.4" style="mix-blend-mode: multiply;isolation: isolate">
            <g id="Grupo_1240495" data-name="Grupo 1240495">
              <g id="Grupo_1240494" data-name="Grupo 1240494" clip-path="url(#clip-path-15)">
                <path id="Trazado_1215212" data-name="Trazado 1215212" d="M132.49,95.891a20.2,20.2,0,1,0,20.2,20.2,20.2,20.2,0,0,0-20.2-20.2m0,38.145a17.945,17.945,0,1,1,17.945-17.945,17.945,17.945,0,0,1-17.945,17.945" transform="translate(-112.291 -95.891)" fill="#b8cbdd"/>
              </g>
            </g>
          </g>
          <g id="Grupo_1240499" data-name="Grupo 1240499" transform="translate(79 66.889)" opacity="0.4" style="mix-blend-mode: overlay;isolation: isolate">
            <g id="Grupo_1240498" data-name="Grupo 1240498">
              <g id="Grupo_1240497" data-name="Grupo 1240497" clip-path="url(#clip-path-16)">
                <path id="Trazado_1215213" data-name="Trazado 1215213" d="M131.1,90.564A24.134,24.134,0,1,0,155.231,114.7,24.134,24.134,0,0,0,131.1,90.564m0,47.373A23.239,23.239,0,1,1,154.337,114.7,23.239,23.239,0,0,1,131.1,137.937" transform="translate(-106.964 -90.565)" fill="#fff"/>
              </g>
            </g>
          </g>
          <path id="Trazado_1215214" data-name="Trazado 1215214" d="M135.293,131.174a12.282,12.282,0,1,1,12.282-12.282,12.282,12.282,0,0,1-12.282,12.282" transform="translate(-32.159 -27.871)" fill="#b8cbdd"/>
          <g id="Grupo_1240502" data-name="Grupo 1240502" transform="translate(93.597 81.484)" opacity="0.4" style="mix-blend-mode: multiply;isolation: isolate">
            <g id="Grupo_1240501" data-name="Grupo 1240501">
              <g id="Grupo_1240500" data-name="Grupo 1240500" clip-path="url(#clip-path-17)">
                <path id="Trazado_1215215" data-name="Trazado 1215215" d="M136.264,129.4a9.538,9.538,0,1,1,9.537-9.537,9.537,9.537,0,0,1-9.537,9.537" transform="translate(-126.727 -110.327)" fill="#b8cbdd"/>
              </g>
            </g>
          </g>
          <path id="Trazado_1215216" data-name="Trazado 1215216" d="M200.9,390.475V378.537a45.377,45.377,0,0,0-38.263-12.96c-24.116,3.086-64.555,21.04-100.44,8.693v16.206Z" transform="translate(-16.261 -95.469)" fill="#fff"/>
          <path id="Trazado_1215217" data-name="Trazado 1215217" d="M200.9,390.475V378.537a45.377,45.377,0,0,0-38.263-12.96c-24.116,3.086-64.555,21.04-100.44,8.693v16.206Z" transform="translate(-16.261 -95.469)" fill="none" stroke="#b8cbdd" stroke-linecap="round" stroke-linejoin="round" stroke-width="1"/>
          <g id="Grupo_1240505" data-name="Grupo 1240505" transform="translate(45.94 269.725)" style="mix-blend-mode: multiply;isolation: isolate">
            <g id="Grupo_1240504" data-name="Grupo 1240504">
              <g id="Grupo_1240503" data-name="Grupo 1240503" clip-path="url(#clip-path-18)">
                <path id="Trazado_1215218" data-name="Trazado 1215218" d="M200.9,378.541A45.382,45.382,0,0,0,163.5,365.491c23.184,2.538,34.63,13.885,34.63,13.885v8.805H62.2v2.3H200.9Z" transform="translate(-62.201 -365.199)" fill="#e3eaf1"/>
              </g>
            </g>
          </g>
          <path id="Trazado_1215219" data-name="Trazado 1215219" d="M62.2,378.963s10.8,5.111,41.257,2.785c34.1-2.6,70.143-25.492,97.446,1.487" transform="translate(-16.261 -96.785)" fill="none" stroke="#b8cbdd" stroke-linecap="round" stroke-linejoin="round" stroke-width="1"/>
          <path id="Trazado_1215220" data-name="Trazado 1215220" d="M62.2,383.2s10.8,5.111,41.257,2.785c34.1-2.6,70.143-25.492,97.446,1.487" transform="translate(-16.261 -97.892)" fill="none" stroke="#b8cbdd" stroke-linecap="round" stroke-linejoin="round" stroke-width="1"/>
          <path id="Trazado_1215221" data-name="Trazado 1215221" d="M62.2,387.434s10.8,5.111,41.257,2.785c34.1-2.6,70.143-25.492,97.446,1.486" transform="translate(-16.261 -98.999)" fill="none" stroke="#b8cbdd" stroke-linecap="round" stroke-linejoin="round" stroke-width="1"/>
          <path id="Trazado_1215222" data-name="Trazado 1215222" d="M62.2,391.67s10.8,5.111,41.257,2.784c34.1-2.6,70.143-25.492,97.446,1.487" transform="translate(-16.261 -100.106)" fill="none" stroke="#b8cbdd" stroke-linecap="round" stroke-linejoin="round" stroke-width="1"/>
          <path id="Trazado_1215223" data-name="Trazado 1215223" d="M140.064,396.218c27.142-5.721,54.437-17.156,76.673,0" transform="translate(-36.617 -101.214)" fill="none" stroke="#b8cbdd" stroke-linecap="round" stroke-linejoin="round" stroke-width="1"/>
          <path id="Trazado_1215224" data-name="Trazado 1215224" d="M158.132,397.325c20.766-5.122,41.121-10.292,58.7,0" transform="translate(-41.34 -102.321)" fill="none" stroke="#b8cbdd" stroke-linecap="round" stroke-linejoin="round" stroke-width="1"/>
          <path id="Trazado_1215225" data-name="Trazado 1215225" d="M175.993,398.433c13.6-2.948,26.8-4.46,38.9,0" transform="translate(-46.01 -103.429)" fill="none" stroke="#b8cbdd" stroke-linecap="round" stroke-linejoin="round" stroke-width="1"/>
          <path id="Trazado_1215226" data-name="Trazado 1215226" d="M200.937,374.66l-.013-.136c-30.458-35.146-67.534-16.32-99.576-11.586-20.291,3-33.124-1.558-33.124-1.558l-5.841,3.988c34.521,13.2,72.671-9.1,100.009-6.448,21.481,2.086,28.767,7.347,38.544,15.74" transform="translate(-16.309 -92.457)" fill="#fff"/>
          <g id="Grupo_1240508" data-name="Grupo 1240508" transform="translate(46.075 263.266)" opacity="0.8" style="mix-blend-mode: multiply;isolation: isolate">
            <g id="Grupo_1240507" data-name="Grupo 1240507">
              <g id="Grupo_1240506" data-name="Grupo 1240506" clip-path="url(#clip-path-19)">
                <path id="Trazado_1215227" data-name="Trazado 1215227" d="M200.924,375.254A60.667,60.667,0,0,0,180.7,359.505c-23.707-7.838-52.967,1.281-75.527,6.623a78.416,78.416,0,0,1-41.081-1.2l-1.71,1.167c34.521,13.2,72.67-9.1,100.008-6.448,21.481,2.086,28.767,7.348,38.544,15.74Z" transform="translate(-62.384 -356.454)" fill="#e3eaf1"/>
              </g>
            </g>
          </g>
          <path id="Trazado_1215228" data-name="Trazado 1215228" d="M200.937,374.66l-.013-.136c-30.458-35.146-67.534-16.32-99.576-11.586-20.291,3-33.124-1.558-33.124-1.558l-5.841,3.988c34.521,13.2,72.671-9.1,100.009-6.448C183.873,361.006,191.159,366.268,200.937,374.66Z" transform="translate(-16.309 -92.457)" fill="none" stroke="#b8cbdd" stroke-linecap="round" stroke-linejoin="round" stroke-width="1"/>
          <path id="Trazado_1215229" data-name="Trazado 1215229" d="M202.855,368.621S171.214,324.954,75.49,345.857L69.7,350.746s40.539-7.067,77.931-2.521c46,5.594,55.229,23.778,55.229,23.778.018.023,0-3.383,0-3.383" transform="translate(-18.22 -88.936)" fill="#fff"/>
          <g id="Grupo_1240511" data-name="Grupo 1240511" transform="translate(51.475 255.665)" opacity="0.8" style="mix-blend-mode: multiply;isolation: isolate">
            <g id="Grupo_1240510" data-name="Grupo 1240510">
              <g id="Grupo_1240509" data-name="Grupo 1240509" clip-path="url(#clip-path-20)">
                <path id="Trazado_1215230" data-name="Trazado 1215230" d="M147.626,349.786c46,5.594,55.229,23.778,55.229,23.778.018.023,0-3.383,0-3.383a25.2,25.2,0,0,0-1.711-2.013C192.9,360.918,175.2,350.16,148.2,347.3c-29.166-3.092-65.21.874-76.288,3.137l-2.22,1.872s40.539-7.067,77.931-2.52" transform="translate(-69.695 -346.162)" fill="#e3eaf1"/>
              </g>
            </g>
          </g>
          <path id="Trazado_1215231" data-name="Trazado 1215231" d="M202.855,368.621S171.214,324.954,75.49,345.857L69.7,350.746s40.539-7.067,77.931-2.521c46,5.594,55.229,23.778,55.229,23.778C202.873,372.026,202.855,368.621,202.855,368.621Z" transform="translate(-18.22 -88.936)" fill="none" stroke="#b8cbdd" stroke-linecap="round" stroke-linejoin="round" stroke-width="1"/>
          <path id="Trazado_1215232" data-name="Trazado 1215232" d="M250,390.475V378.537a45.377,45.377,0,0,1,38.263-12.96c24.116,3.086,64.555,21.04,100.44,8.693v16.206Z" transform="translate(-65.357 -95.469)" fill="#fff"/>
          <path id="Trazado_1215233" data-name="Trazado 1215233" d="M250,390.475V378.537a45.377,45.377,0,0,1,38.263-12.96c24.116,3.086,64.555,21.04,100.44,8.693v16.206Z" transform="translate(-65.357 -95.469)" fill="none" stroke="#b8cbdd" stroke-linecap="round" stroke-linejoin="round" stroke-width="1"/>
          <g id="Grupo_1240514" data-name="Grupo 1240514" transform="translate(184.643 269.725)" style="mix-blend-mode: multiply;isolation: isolate">
            <g id="Grupo_1240513" data-name="Grupo 1240513">
              <g id="Grupo_1240512" data-name="Grupo 1240512" clip-path="url(#clip-path-18)">
                <path id="Trazado_1215234" data-name="Trazado 1215234" d="M250,378.541a45.382,45.382,0,0,1,37.407-13.051c-23.184,2.538-34.63,13.885-34.63,13.885v8.805H388.7v2.3H250Z" transform="translate(-250 -365.199)" fill="#e3eaf1"/>
              </g>
            </g>
          </g>
          <path id="Trazado_1215235" data-name="Trazado 1215235" d="M388.7,378.963s-10.8,5.111-41.257,2.785c-34.1-2.6-70.143-25.492-97.446,1.487" transform="translate(-65.357 -96.785)" fill="none" stroke="#b8cbdd" stroke-linecap="round" stroke-linejoin="round" stroke-width="1"/>
          <path id="Trazado_1215236" data-name="Trazado 1215236" d="M388.7,383.2s-10.8,5.111-41.257,2.785c-34.1-2.6-70.143-25.492-97.446,1.487" transform="translate(-65.357 -97.892)" fill="none" stroke="#b8cbdd" stroke-linecap="round" stroke-linejoin="round" stroke-width="1"/>
          <path id="Trazado_1215237" data-name="Trazado 1215237" d="M388.7,387.434s-10.8,5.111-41.257,2.785c-34.1-2.6-70.143-25.492-97.446,1.486" transform="translate(-65.357 -98.999)" fill="none" stroke="#b8cbdd" stroke-linecap="round" stroke-linejoin="round" stroke-width="1"/>
          <path id="Trazado_1215238" data-name="Trazado 1215238" d="M388.7,391.67s-10.8,5.111-41.257,2.784c-34.1-2.6-70.143-25.492-97.446,1.487" transform="translate(-65.357 -100.106)" fill="none" stroke="#b8cbdd" stroke-linecap="round" stroke-linejoin="round" stroke-width="1"/>
          <path id="Trazado_1215239" data-name="Trazado 1215239" d="M256.123,396.218c22.236-17.156,49.531-5.721,76.673,0" transform="translate(-66.958 -101.214)" fill="none" stroke="#b8cbdd" stroke-linecap="round" stroke-linejoin="round" stroke-width="1"/>
          <path id="Trazado_1215240" data-name="Trazado 1215240" d="M262.388,397.325c17.581-10.292,37.936-5.122,58.7,0" transform="translate(-68.596 -102.321)" fill="none" stroke="#b8cbdd" stroke-linecap="round" stroke-linejoin="round" stroke-width="1"/>
          <path id="Trazado_1215241" data-name="Trazado 1215241" d="M271.341,398.433c12.1-4.46,25.3-2.948,38.9,0" transform="translate(-70.937 -103.429)" fill="none" stroke="#b8cbdd" stroke-linecap="round" stroke-linejoin="round" stroke-width="1"/>
          <path id="Trazado_1215242" data-name="Trazado 1215242" d="M250.02,374.66l.013-.136c30.458-35.146,67.534-16.32,99.575-11.586,20.291,3,33.124-1.558,33.124-1.558l5.841,3.988c-34.521,13.2-72.67-9.1-100.009-6.448-21.481,2.086-28.767,7.347-38.544,15.74" transform="translate(-65.363 -92.457)" fill="#fff"/>
          <g id="Grupo_1240517" data-name="Grupo 1240517" transform="translate(184.657 263.266)" opacity="0.8" style="mix-blend-mode: multiply;isolation: isolate">
            <g id="Grupo_1240516" data-name="Grupo 1240516">
              <g id="Grupo_1240515" data-name="Grupo 1240515" clip-path="url(#clip-path-19)">
                <path id="Trazado_1215243" data-name="Trazado 1215243" d="M250.033,375.254a60.667,60.667,0,0,1,20.221-15.749c23.707-7.838,52.967,1.281,75.527,6.623a78.415,78.415,0,0,0,41.081-1.2l1.71,1.167c-34.521,13.2-72.67-9.1-100.008-6.448C267.084,361.736,259.8,367,250.02,375.39Z" transform="translate(-250.02 -356.454)" fill="#e3eaf1"/>
              </g>
            </g>
          </g>
          <path id="Trazado_1215244" data-name="Trazado 1215244" d="M250.02,374.66l.013-.136c30.458-35.146,67.534-16.32,99.575-11.586,20.291,3,33.124-1.558,33.124-1.558l5.841,3.988c-34.521,13.2-72.67-9.1-100.009-6.448C267.084,361.006,259.8,366.268,250.02,374.66Z" transform="translate(-65.363 -92.457)" fill="none" stroke="#b8cbdd" stroke-linecap="round" stroke-linejoin="round" stroke-width="1"/>
          <path id="Trazado_1215245" data-name="Trazado 1215245" d="M250.008,368.621s31.641-43.667,127.365-22.764l5.795,4.889s-40.539-7.067-77.931-2.521c-46,5.594-55.229,23.778-55.229,23.778-.018.023,0-3.383,0-3.383" transform="translate(-65.357 -88.936)" fill="#fff"/>
          <g id="Grupo_1240520" data-name="Grupo 1240520" transform="translate(184.643 255.665)" opacity="0.8" style="mix-blend-mode: multiply;isolation: isolate">
            <g id="Grupo_1240519" data-name="Grupo 1240519">
              <g id="Grupo_1240518" data-name="Grupo 1240518" clip-path="url(#clip-path-20)">
                <path id="Trazado_1215246" data-name="Trazado 1215246" d="M305.237,349.786c-46,5.594-55.229,23.778-55.229,23.778-.018.023,0-3.383,0-3.383a25.2,25.2,0,0,1,1.711-2.013c8.242-7.251,25.948-18.009,52.941-20.872,29.166-3.092,65.21.874,76.288,3.137l2.22,1.872s-40.539-7.067-77.931-2.52" transform="translate(-250 -346.162)" fill="#e3eaf1"/>
              </g>
            </g>
          </g>
          <path id="Trazado_1215247" data-name="Trazado 1215247" d="M250.008,368.621s31.641-43.667,127.365-22.764l5.795,4.889s-40.539-7.067-77.931-2.521c-46,5.594-55.229,23.778-55.229,23.778C249.99,372.026,250.008,368.621,250.008,368.621Z" transform="translate(-65.357 -88.936)" fill="none" stroke="#b8cbdd" stroke-linecap="round" stroke-linejoin="round" stroke-width="1"/>
          <path id="Trazado_1215248" data-name="Trazado 1215248" d="M342.132,399.428H55.852l-.965,4.437H183.568l.44,1.707a5.7,5.7,0,0,0,5.517,4.273h18.932a5.7,5.7,0,0,0,5.517-4.273l.441-1.707H343.1Z" transform="translate(-14.349 -104.422)" fill="#00bed2"/>
          <g id="Grupo_1240523" data-name="Grupo 1240523" transform="translate(40.538 297.507)" opacity="0.4" style="mix-blend-mode: multiply;isolation: isolate">
            <g id="Grupo_1240522" data-name="Grupo 1240522">
              <g id="Grupo_1240521" data-name="Grupo 1240521" clip-path="url(#clip-path-24)">
                <path id="Trazado_1215249" data-name="Trazado 1215249" d="M342.675,402.815h-129.2l-.414,1.6a5.351,5.351,0,0,1-5.182,4.015H190.1a5.352,5.352,0,0,1-5.183-4.015l-.414-1.6H55.307l-.42,1.936H183.568l.44,1.707a5.7,5.7,0,0,0,5.517,4.274h18.932a5.7,5.7,0,0,0,5.517-4.274l.44-1.707H343.1Z" transform="translate(-54.887 -402.815)" fill="#00747a"/>
              </g>
            </g>
          </g>
        </g>
      </g>
      <text id="_1" data-name="1" transform="translate(186.775 1120.863)" fill="#ff9f50" font-size="33" font-family="Poppins-Bold, Poppins" font-weight="700"><tspan x="0" y="0">1</tspan></text>
      <path id="Trazado_1215250" data-name="Trazado 1215250" d="M386.236,163.084v19.895h6.2V157.544h-9.651v5.54Z" transform="translate(-195.072 939.813)" fill="none" stroke="#7b2f18" stroke-linecap="round" stroke-linejoin="round" stroke-width="1"/>
      <text id="_2" data-name="2" transform="translate(208.733 1126.209)" fill="#ff597b" font-size="34" font-family="Poppins-Bold, Poppins" font-weight="700"><tspan x="0" y="0">2</tspan></text>
      <g id="Grupo_1240527" data-name="Grupo 1240527" transform="translate(-95 981)">
        <g id="Grupo_1240526" data-name="Grupo 1240526" clip-path="url(#clip-path-2)">
          <path id="Trazado_1215251" data-name="Trazado 1215251" d="M413.06,183.891v4.425h17.49v-4.843h-9.407a37.467,37.467,0,0,0,6.48-6.219,10.866,10.866,0,0,0,2.544-6.916,7.527,7.527,0,0,0-2.108-5.54q-2.108-2.125-6.254-2.125a10.014,10.014,0,0,0-4.373.94,7.389,7.389,0,0,0-3.171,2.927,9.863,9.863,0,0,0-1.271,4.948h5.748a4.577,4.577,0,0,1,.75-2.805,2.753,2.753,0,0,1,4.059-.191,3.412,3.412,0,0,1,.662,2.23,6.864,6.864,0,0,1-1.359,3.867,22.28,22.28,0,0,1-3.327,3.8q-1.968,1.812-5.383,4.635Q414.244,182.951,413.06,183.891Z" transform="translate(-107.968 -42.528)" fill="none" stroke="#63387e" stroke-linecap="round" stroke-linejoin="round" stroke-width="1"/>
        </g>
      </g>
      <text id="_3" data-name="3" transform="translate(196.028 1159.771)" fill="#00bed2" font-size="33" font-family="Poppins-Bold, Poppins" font-weight="700"><tspan x="0" y="0">3</tspan></text>
      <g id="Grupo_1240529" data-name="Grupo 1240529" transform="translate(-95 981)">
        <g id="Grupo_1240528" data-name="Grupo 1240528" clip-path="url(#clip-path-2)">
          <path id="Trazado_1215252" data-name="Trazado 1215252" d="M396.337,217.191h5.818a3.591,3.591,0,0,1,.75-1.986,2.374,2.374,0,0,1,1.968-.8,2.59,2.59,0,0,1,1.916.7,2.637,2.637,0,0,1,.7,1.951,2.272,2.272,0,0,1-1.1,2.177,5.894,5.894,0,0,1-2.874.609H402.4v4.844h1.115a6.009,6.009,0,0,1,3.4.749,2.755,2.755,0,0,1,1.062,2.422,2.876,2.876,0,0,1-.749,2.073,2.779,2.779,0,0,1-2.108.784,3.189,3.189,0,0,1-2.439-.888,3.507,3.507,0,0,1-.871-2.422h-5.784q.138,4.147,2.63,6.2a11.626,11.626,0,0,0,11.184,1.115,6.784,6.784,0,0,0,2.892-2.6,7.267,7.267,0,0,0,.993-3.815,6.388,6.388,0,0,0-1.151-3.937,6.285,6.285,0,0,0-3.135-2.2v-.139a5.763,5.763,0,0,0,3.832-5.714,6.412,6.412,0,0,0-3.78-5.993,10.159,10.159,0,0,0-4.477-.906,9.119,9.119,0,0,0-6.237,2.021A7.653,7.653,0,0,0,396.337,217.191Z" transform="translate(-103.533 -54.749)" fill="none" stroke="#00747a" stroke-linecap="round" stroke-linejoin="round" stroke-width="1"/>
        </g>
      </g>
      <text id="A" transform="translate(-47.492 1156.859)" fill="#63387e" font-size="33" font-family="Poppins-Bold, Poppins" font-weight="700"><tspan x="0" y="0">A</tspan></text>
      <path id="Trazado_1215253" data-name="Trazado 1215253" d="M74.346,223.141l3-8.954,3.031,8.954Zm9.024,8.92h6.307L80.827,207.6h-6.9l-8.85,24.459h6.237l1.463-4.321h9.129Z" transform="translate(-112.013 926.727)" fill="none" stroke="#391052" stroke-linecap="round" stroke-linejoin="round" stroke-width="1"/>
      <text id="B" transform="translate(-17.756 1177.495)" fill="#ff94aa" font-size="34" font-family="Poppins-Bold, Poppins" font-weight="700"><tspan x="0" y="0">B</tspan></text>
      <g id="Grupo_1240531" data-name="Grupo 1240531" transform="translate(-95 981)">
        <g id="Grupo_1240530" data-name="Grupo 1240530" clip-path="url(#clip-path-2)">
          <path id="Trazado_1215254" data-name="Trazado 1215254" d="M117.858,253.839h-4.389v-5.4h4.32a3.5,3.5,0,0,1,2.352.732,2.522,2.522,0,0,1,.854,2.021,2.416,2.416,0,0,1-.819,1.969A3.538,3.538,0,0,1,117.858,253.839Zm-4.389-14.878h3.9a3.394,3.394,0,0,1,2.247.662,2.368,2.368,0,0,1,.784,1.917,2.315,2.315,0,0,1-.784,1.9,3.455,3.455,0,0,1-2.247.644h-3.9Zm8.85,7.143a5.857,5.857,0,0,0,3.014-1.986,6.192,6.192,0,0,0-.976-8.223,9.034,9.034,0,0,0-5.836-1.707h-11.01v24.458H118.9a9.037,9.037,0,0,0,5.975-1.794,6.41,6.41,0,0,0,.854-8.641A5.687,5.687,0,0,0,122.319,246.1Z" transform="translate(-28.107 -61.224)" fill="none" stroke="#63387e" stroke-linecap="round" stroke-linejoin="round" stroke-width="1"/>
        </g>
      </g>
      <text id="C" transform="translate(-43.289 1197.962)" fill="#ff8e50" font-size="33" font-family="Poppins-Bold, Poppins" font-weight="700"><tspan x="0" y="0">C</tspan></text>
      <g id="Grupo_1240533" data-name="Grupo 1240533" transform="translate(-95 981)">
        <g id="Grupo_1240532" data-name="Grupo 1240532" clip-path="url(#clip-path-2)">
          <path id="Trazado_1215255" data-name="Trazado 1215255" d="M71.572,275.351A13.053,13.053,0,0,0,73.14,281.8a11.235,11.235,0,0,0,4.372,4.407,12.7,12.7,0,0,0,6.359,1.586,12.226,12.226,0,0,0,7.456-2.283,10.961,10.961,0,0,0,4.146-6.254h-6.55a5.286,5.286,0,0,1-2.073,2.335,5.825,5.825,0,0,1-3.048.8,5.69,5.69,0,0,1-4.46-1.916,8.536,8.536,0,0,1,0-10.244,5.692,5.692,0,0,1,4.46-1.916,5.832,5.832,0,0,1,3.048.8,5.29,5.29,0,0,1,2.073,2.335h6.55a11.045,11.045,0,0,0-4.146-6.272,12.165,12.165,0,0,0-7.456-2.3,12.7,12.7,0,0,0-6.359,1.586,11.208,11.208,0,0,0-4.372,4.425A13.15,13.15,0,0,0,71.572,275.351Z" transform="translate(-18.711 -68.724)" fill="none" stroke="#7b2f18" stroke-linecap="round" stroke-linejoin="round" stroke-width="1"/>
        </g>
      </g>
      <rect id="Rectángulo_423872" data-name="Rectángulo 423872" width="369" height="369" transform="translate(-94.715 981.285)" fill="none"/>
    </g>
  </g>
</svg>
