<svg xmlns="http://www.w3.org/2000/svg" xmlns:xlink="http://www.w3.org/1999/xlink" width="97.533" height="97.533" viewBox="0 0 97.533 97.533">
  <defs>
    <filter id="Trazado_982547" x="0" y="0" width="97.533" height="97.533" filterUnits="userSpaceOnUse">
      <feOffset dy="3" input="SourceAlpha"/>
      <feGaussianBlur stdDeviation="3" result="blur"/>
      <feFlood flood-opacity="0.161"/>
      <feComposite operator="in" in2="blur"/>
      <feComposite in="SourceGraphic"/>
    </filter>
  </defs>
  <g id="Grupo_1240903" data-name="Grupo 1240903" transform="translate(-189.967 -5853.233)">
    <g id="Grupo_1226208" data-name="Grupo 1226208" transform="translate(-1 4953.233)">
      <g id="Grupo_1203701" data-name="Grupo 1203701" transform="translate(199.967 906)">
        <g id="Grupo_1203355" data-name="Grupo 1203355" transform="translate(0)">
          <g id="Grupo_1202156" data-name="Grupo 1202156">
            <g id="Grupo_1177900" data-name="Grupo 1177900">
              <g id="Grupo_1172010" data-name="Grupo 1172010">
                <g id="Grupo_1171046" data-name="Grupo 1171046">
                  <g id="Grupo_1148525" data-name="Grupo 1148525">
                    <g transform="matrix(1, 0, 0, 1, -9, -6)" filter="url(#Trazado_982547)">
                      <g id="Trazado_982547-2" data-name="Trazado 982547" transform="translate(9 6)" fill="#fdfbec">
                        <path d="M 39.7666015625 78.033203125 C 34.59997940063477 78.033203125 29.58870124816895 77.02164459228516 24.87196731567383 75.02663421630859 C 20.31538963317871 73.099365234375 16.22284507751465 70.34000396728516 12.70802402496338 66.82518005371094 C 9.193202018737793 63.31035614013672 6.433835029602051 59.21781158447266 4.506568431854248 54.66123580932617 C 2.511557102203369 49.94449996948242 1.500001549720764 44.93322372436523 1.500001549720764 39.7666015625 C 1.500001549720764 34.59997940063477 2.511557102203369 29.58870124816895 4.506568431854248 24.87196731567383 C 6.433835029602051 20.31538963317871 9.193202018737793 16.22284507751465 12.70802402496338 12.70802402496338 C 16.22284507751465 9.193202018737793 20.31538963317871 6.433835029602051 24.87196731567383 4.506568431854248 C 29.58870124816895 2.511557102203369 34.59997940063477 1.500001549720764 39.7666015625 1.500001549720764 C 44.93322372436523 1.500001549720764 49.94449996948242 2.511557102203369 54.66123580932617 4.506568431854248 C 59.21781158447266 6.433835029602051 63.31035614013672 9.193202018737793 66.82518005371094 12.70802402496338 C 70.34000396728516 16.22284507751465 73.099365234375 20.31538963317871 75.02663421630859 24.87196731567383 C 77.02164459228516 29.58870124816895 78.033203125 34.59997940063477 78.033203125 39.7666015625 C 78.033203125 44.93322372436523 77.02164459228516 49.94449996948242 75.02663421630859 54.66123580932617 C 73.099365234375 59.21781158447266 70.34000396728516 63.31035614013672 66.82518005371094 66.82518005371094 C 63.31035614013672 70.34000396728516 59.21781158447266 73.099365234375 54.66123580932617 75.02663421630859 C 49.94449996948242 77.02164459228516 44.93322372436523 78.033203125 39.7666015625 78.033203125 Z" stroke="none"/>
                        <path d="M 39.7666015625 3 C 34.80181503295898 3 29.98714065551758 3.971687316894531 25.45630264282227 5.888076782226562 C 21.07851409912109 7.739715576171875 17.146240234375 10.39113616943359 13.76869201660156 13.76869201660156 C 10.39113616943359 17.146240234375 7.739715576171875 21.07851409912109 5.888076782226562 25.45630264282227 C 3.971687316894531 29.98714065551758 3 34.80181503295898 3 39.7666015625 C 3 44.73138809204102 3.971687316894531 49.54606628417969 5.888076782226562 54.076904296875 C 7.739715576171875 58.45468902587891 10.39113616943359 62.386962890625 13.76869201660156 65.76451110839844 C 17.146240234375 69.14206695556641 21.07851409912109 71.79348754882812 25.45630264282227 73.64512634277344 C 29.98714065551758 75.56151580810547 34.80181503295898 76.533203125 39.7666015625 76.533203125 C 44.73138809204102 76.533203125 49.54606628417969 75.56151580810547 54.076904296875 73.64512634277344 C 58.45468902587891 71.79348754882812 62.386962890625 69.14206695556641 65.76451110839844 65.76451110839844 C 69.14206695556641 62.386962890625 71.79348754882812 58.45468902587891 73.64512634277344 54.076904296875 C 75.56151580810547 49.54606628417969 76.533203125 44.73138809204102 76.533203125 39.7666015625 C 76.533203125 34.80181503295898 75.56151580810547 29.98714065551758 73.64512634277344 25.45630264282227 C 71.79348754882812 21.07851409912109 69.14206695556641 17.146240234375 65.76451110839844 13.76869201660156 C 62.386962890625 10.39113616943359 58.45468902587891 7.739715576171875 54.076904296875 5.888076782226562 C 49.54606628417969 3.971687316894531 44.73138809204102 3 39.7666015625 3 M 39.7666015625 0 C 61.72908782958984 0 79.533203125 17.80411529541016 79.533203125 39.7666015625 C 79.533203125 61.72908782958984 61.72908782958984 79.533203125 39.7666015625 79.533203125 C 17.80411529541016 79.533203125 0 61.72908782958984 0 39.7666015625 C 0 17.80411529541016 17.80411529541016 0 39.7666015625 0 Z" stroke="none" fill="#83793c"/>
                      </g>
                    </g>
                  </g>
                </g>
              </g>
            </g>
          </g>
        </g>
      </g>
    </g>
    <g id="triangulo_1_" data-name="triangulo (1)" transform="translate(189.42 5872.658)">
      <path id="Trazado_1218874" data-name="Trazado 1218874" d="M55.907,15.271c-.882-2.018-4.144-5.72-7.673-7.6A1.471,1.471,0,0,0,46.1,8.752a3.38,3.38,0,0,0-.061,1c-3.121-.842-6.118.974-9.144,2.043a.99.99,0,0,0-.6.6c-1.069,3.025-2.885,6.023-2.043,9.144a3.376,3.376,0,0,0-1,.061,1.471,1.471,0,0,0-1.081,2.139c1.88,3.529,5.582,6.791,7.6,7.673Z" transform="translate(-6.729 -6.726)" fill="#4b5165"/>
      <path id="Trazado_1218875" data-name="Trazado 1218875" d="M261.235,263.459a159.8,159.8,0,0,0-6.159-16.763,6.255,6.255,0,0,0-1.614-5.33c-2.713-2.713-7.755-2.07-11.261,1.437s-4.149,8.548-1.437,11.261c.044.044.09.084.135.126-1.917,3.518-4.066,7.889-4.4,8.561a2.9,2.9,0,0,0,5.215,2.555c.978-2,3.4-6.826,5.061-9.745a10.46,10.46,0,0,0,4.7-2.429c1.694,4.356,3.838,10.424,4.056,11.466a2.9,2.9,0,1,0,5.695-1.139Z" transform="translate(-189.931 -215.025)" fill="#ffd3bd"/>
      <path id="Trazado_1218876" data-name="Trazado 1218876" d="M272.266,261.388c-1.3-4.006-4.25-11.957-5.556-14.693a6.255,6.255,0,0,0-1.614-5.33c-2.713-2.713-7.755-2.07-11.261,1.437s-4.149,8.548-1.437,11.261c.044.044.09.084.135.126-1.195,2.193-2.479,4.716-3.358,6.47a13.149,13.149,0,0,1,5.17,2.647c1.171-2.334,2.831-5.57,4.068-7.746a10.459,10.459,0,0,0,4.7-2.429c1.269,3.263,2.79,7.487,3.566,9.839A7.591,7.591,0,0,1,272.266,261.388Z" transform="translate(-201.563 -215.025)" fill="#4b5165"/>
      <path id="Trazado_1218877" data-name="Trazado 1218877" d="M151.848,260.3a2.942,2.942,0,1,1-4.986-3.124c.965-1.541,5.046-11.85,5.247-13.542a2.942,2.942,0,0,1,5.846.67C157.624,247.181,153.111,258.289,151.848,260.3Z" transform="translate(-109.375 -216.231)" fill="#ffd3bd"/>
      <path id="Trazado_1218878" data-name="Trazado 1218878" d="M279.16,65.644a2.942,2.942,0,0,1-4.067-4.253,113.208,113.208,0,0,0,8.676-12,2.942,2.942,0,1,1,5.06,3C287.223,55.1,281.175,63.715,279.16,65.644Z" transform="translate(-223.999 -43.016)" fill="#ffbe9d"/>
      <path id="Trazado_1218879" data-name="Trazado 1218879" d="M228.6,204.106c1.566-1.566,6.575-7.263,3.85-9.488-4.533-3.7-14.285-7.713-17.669-4.33s.628,13.136,4.33,17.669C221.338,210.681,227.034,205.672,228.6,204.106Z" transform="translate(-169.566 -169.564)" fill="#8eafe2"/>
      <path id="Trazado_1218880" data-name="Trazado 1218880" d="M220.483,195.987a15.79,15.79,0,0,0,3.73-5.854c-3.784-1.33-7.569-1.7-9.429.155s-1.485,5.645-.155,9.429a15.789,15.789,0,0,0,5.854-3.73Z" transform="translate(-169.568 -169.565)" fill="#7c93dd"/>
      <circle id="Elipse_12800" data-name="Elipse 12800" cx="3.713" cy="3.713" r="3.713" transform="translate(29.502 21.359)" fill="#ffd3bd"/>
      <circle id="Elipse_12801" data-name="Elipse 12801" cx="3.713" cy="3.713" r="3.713" transform="translate(45.852 5.009)" fill="#ffbe9d"/>
      <ellipse id="Elipse_12802" data-name="Elipse 12802" cx="11.661" cy="10.149" rx="11.661" ry="10.149" transform="translate(26.333 18.334) rotate(-45)" fill="#ffd3bd"/>
      <path id="Trazado_1218881" data-name="Trazado 1218881" d="M106.644,149.449c-11.266,8.8-18.948-1.58-19.855-6.25a10.077,10.077,0,0,0,1.94,10.776c3.964,3.964,10.868,3.485,15.422-1.069A13.172,13.172,0,0,0,106.644,149.449Z" transform="translate(-55.216 -128.465)" fill="#ffbe9d"/>
      <g id="Grupo_1240902" data-name="Grupo 1240902" transform="translate(34.374 8.777)">
        <g id="Grupo_1240901" data-name="Grupo 1240901" transform="translate(0 0)">
          <g id="Grupo_1240900" data-name="Grupo 1240900">
            <g id="Grupo_1240898" data-name="Grupo 1240898" transform="translate(0 12.68)">
              <path id="Trazado_1218882" data-name="Trazado 1218882" d="M125.387,209.131c.939.939.745,2.657-.435,3.836s-2.9,1.374-3.836.435-.745-2.657.435-3.836S124.448,208.192,125.387,209.131Z" transform="translate(-120.521 -208.536)" fill="#eda1ab"/>
            </g>
            <g id="Grupo_1240899" data-name="Grupo 1240899" transform="translate(10.466)">
              <ellipse id="Elipse_12803" data-name="Elipse 12803" cx="3.02" cy="2.405" rx="3.02" ry="2.405" transform="translate(0 4.271) rotate(-45)" fill="#eda1ab"/>
            </g>
          </g>
        </g>
      </g>
      <path id="Trazado_1218883" data-name="Trazado 1218883" d="M45.471,10.8a.772.772,0,0,0-1.091,1.091l.873.873a.772.772,0,0,0,1.091-1.091Zm-9.087,9.087a.772.772,0,1,0-1.091,1.091l.873.873a.772.772,0,1,0,1.091-1.091Zm35.677,28.4c-.082-.411-.305-1.17-.622-2.149-1.3-4.024-4.2-11.786-5.5-14.594a7.03,7.03,0,0,0-1.55-5.4,2.871,2.871,0,0,0-1.015-1.682,27.72,27.72,0,0,0-5.745-3.505c2.688-3.4,6.641-9.115,7.865-11.177a3.719,3.719,0,0,0-2.571-5.558.772.772,0,1,0-.258,1.521,2.174,2.174,0,0,1,1.5,3.248c-1.244,2.1-5.36,8.04-8.005,11.33a26.786,26.786,0,0,0-3.224-1.077,12.46,12.46,0,0,0,.469-2.439c2.084-2.695,5.268-7.154,6.818-9.685a.772.772,0,1,0-1.316-.806c-1.255,2.049-3.607,5.393-5.547,8a10.523,10.523,0,0,0-.609-2.429,4.485,4.485,0,0,0-5.3-7.113,21.473,21.473,0,0,0-5.586-4.5A2.244,2.244,0,0,0,38.6,1.907c-.01.065-.019.127-.027.186C35.52,1.7,32.67,3.361,29.905,4.338a1.754,1.754,0,0,0-1.074,1.074c-.978,2.767-2.64,5.615-2.245,8.672l-.186.027a2.244,2.244,0,0,0-1.644,3.264,21.471,21.471,0,0,0,4.5,5.587,4.484,4.484,0,0,0,7.105,5.3,10.964,10.964,0,0,0,5.169.632,104.3,104.3,0,0,1-4.7,11.643,3.719,3.719,0,0,0,2.814,5.671.772.772,0,0,0,.137-1.537,2.175,2.175,0,0,1-1.644-3.315,103.005,103.005,0,0,0,5.1-12.772q.246-.063.49-.135A29.266,29.266,0,0,0,45.92,34.12a95.193,95.193,0,0,1-3.879,9.156.772.772,0,1,0,1.36.73c.8-1.495,2.243-4.848,3.495-8.1a24.284,24.284,0,0,0,2.053,2.978,2.889,2.889,0,0,0,.9.737c-1.319,2.462-2.933,5.658-3.967,7.769a3.675,3.675,0,1,0,6.6,3.234C53.766,48,55.9,43.8,57.354,41.212a11.04,11.04,0,0,0,3.86-1.841c1.671,4.371,3.463,9.513,3.639,10.353a3.676,3.676,0,1,0,7.208-1.442ZM51.644,6.642a2.946,2.946,0,0,1,.368,3.71,9.65,9.65,0,0,0-1.463-1.88h0a9.748,9.748,0,0,0-2.885-1.995A2.938,2.938,0,0,1,51.644,6.642ZM26.118,16.65a.7.7,0,0,1,.518-1.013,3.857,3.857,0,0,1,.715-.07.772.772,0,0,0,.91-.955c-.764-2.831.954-5.655,2.026-8.686a.217.217,0,0,1,.133-.133C33.442,4.725,36.273,3,39.105,3.768a.772.772,0,0,0,.955-.91,3.818,3.818,0,0,1,.07-.714.7.7,0,0,1,1.013-.518,19.812,19.812,0,0,1,5.094,4.092c-.058.064-.113.13-.167.2-7.337-1.929-15.438,4.129-15.987,12.053a11.144,11.144,0,0,0,.325,3.61q-.1.081-.2.167a19.808,19.808,0,0,1-4.092-5.094Zm5.017,10.5a2.945,2.945,0,0,1-.164-3.98,9.769,9.769,0,0,0,3.871,4.35A2.946,2.946,0,0,1,31.135,27.151Zm2.922-2.187C30.4,21.308,30.88,14.879,35.126,10.634,39.248,6.512,45.7,5.808,49.457,9.564c3.656,3.656,3.177,10.085-1.069,14.331-4.155,4.155-10.594,4.806-14.331,1.069ZM45.19,27.921A14.043,14.043,0,0,0,52.408,20.7,28.345,28.345,0,0,1,62.4,25.651c1.944,1.588-2.119,6.556-3.908,8.345s-6.757,5.852-8.345,3.908a28.345,28.345,0,0,1-4.954-9.983ZM51.1,49.941a2.132,2.132,0,1,1-3.829-1.876c.077-.157.349-.712.747-1.509a13.2,13.2,0,0,1,3.815,1.906c-.284.569-.533,1.073-.732,1.479ZM65.512,46.69c-.863-2.53-2.2-6.193-3.239-8.863a.772.772,0,0,0-1.229-.3A9.659,9.659,0,0,1,56.69,39.78a.772.772,0,0,0-.512.374c-1.09,1.916-2.509,4.656-3.646,6.9a14.9,14.9,0,0,0-3.821-1.9c.776-1.537,1.76-3.455,2.7-5.205,3.294-.1,7.663-4.37,8.164-4.871.417-.417,3.454-3.52,4.511-6.449a6.206,6.206,0,0,1,.289,2.935.772.772,0,0,0,.069.43c1.018,2.13,3.711,9.211,5.168,13.515A9.358,9.358,0,0,0,65.512,46.69Zm3.363,4.4a2.131,2.131,0,0,1-2.51-1.679c-.048-.23-.172-.655-.353-1.219a7.7,7.7,0,0,1,4.112-1.13c.21.67.359,1.2.423,1.519A2.131,2.131,0,0,1,68.875,51.094Zm-26.5-36.326a.772.772,0,0,0-.717.823,1.473,1.473,0,0,1-1.573,1.573.772.772,0,1,0-.106,1.54A3.017,3.017,0,0,0,43.2,15.485a.772.772,0,0,0-.823-.717Z"/>
    </g>
  </g>
</svg>
