<svg xmlns="http://www.w3.org/2000/svg" xmlns:xlink="http://www.w3.org/1999/xlink" width="97.533" height="97.533" viewBox="0 0 97.533 97.533">
  <defs>
    <filter id="Trazado_982547" x="0" y="0" width="97.533" height="97.533" filterUnits="userSpaceOnUse">
      <feOffset dy="3" input="SourceAlpha"/>
      <feGaussianBlur stdDeviation="3" result="blur"/>
      <feFlood flood-opacity="0.161"/>
      <feComposite operator="in" in2="blur"/>
      <feComposite in="SourceGraphic"/>
    </filter>
  </defs>
  <g id="Grupo_1240906" data-name="Grupo 1240906" transform="translate(-609.967 -5853.233)">
    <g id="Grupo_1226209" data-name="Grupo 1226209" transform="translate(419 4953.233)">
      <g id="Grupo_1203701" data-name="Grupo 1203701" transform="translate(199.967 906)">
        <g id="Grupo_1203355" data-name="Grupo 1203355" transform="translate(0)">
          <g id="Grupo_1202156" data-name="Grupo 1202156">
            <g id="Grupo_1177900" data-name="Grupo 1177900">
              <g id="Grupo_1172010" data-name="Grupo 1172010">
                <g id="Grupo_1171046" data-name="Grupo 1171046">
                  <g id="Grupo_1148525" data-name="Grupo 1148525">
                    <g transform="matrix(1, 0, 0, 1, -9, -6)" filter="url(#Trazado_982547)">
                      <g id="Trazado_982547-2" data-name="Trazado 982547" transform="translate(9 6)" fill="#fdfbec">
                        <path d="M 39.7666015625 78.033203125 C 34.59997940063477 78.033203125 29.58870124816895 77.02164459228516 24.87196731567383 75.02663421630859 C 20.31538963317871 73.099365234375 16.22284507751465 70.34000396728516 12.70802402496338 66.82518005371094 C 9.193202018737793 63.31035614013672 6.433835029602051 59.21781158447266 4.506568431854248 54.66123580932617 C 2.511557102203369 49.94449996948242 1.500001549720764 44.93322372436523 1.500001549720764 39.7666015625 C 1.500001549720764 34.59997940063477 2.511557102203369 29.58870124816895 4.506568431854248 24.87196731567383 C 6.433835029602051 20.31538963317871 9.193202018737793 16.22284507751465 12.70802402496338 12.70802402496338 C 16.22284507751465 9.193202018737793 20.31538963317871 6.433835029602051 24.87196731567383 4.506568431854248 C 29.58870124816895 2.511557102203369 34.59997940063477 1.500001549720764 39.7666015625 1.500001549720764 C 44.93322372436523 1.500001549720764 49.94449996948242 2.511557102203369 54.66123580932617 4.506568431854248 C 59.21781158447266 6.433835029602051 63.31035614013672 9.193202018737793 66.82518005371094 12.70802402496338 C 70.34000396728516 16.22284507751465 73.099365234375 20.31538963317871 75.02663421630859 24.87196731567383 C 77.02164459228516 29.58870124816895 78.033203125 34.59997940063477 78.033203125 39.7666015625 C 78.033203125 44.93322372436523 77.02164459228516 49.94449996948242 75.02663421630859 54.66123580932617 C 73.099365234375 59.21781158447266 70.34000396728516 63.31035614013672 66.82518005371094 66.82518005371094 C 63.31035614013672 70.34000396728516 59.21781158447266 73.099365234375 54.66123580932617 75.02663421630859 C 49.94449996948242 77.02164459228516 44.93322372436523 78.033203125 39.7666015625 78.033203125 Z" stroke="none"/>
                        <path d="M 39.7666015625 3 C 34.80181503295898 3 29.98714065551758 3.971687316894531 25.45630264282227 5.888076782226562 C 21.07851409912109 7.739715576171875 17.146240234375 10.39113616943359 13.76869201660156 13.76869201660156 C 10.39113616943359 17.146240234375 7.739715576171875 21.07851409912109 5.888076782226562 25.45630264282227 C 3.971687316894531 29.98714065551758 3 34.80181503295898 3 39.7666015625 C 3 44.73138809204102 3.971687316894531 49.54606628417969 5.888076782226562 54.076904296875 C 7.739715576171875 58.45468902587891 10.39113616943359 62.386962890625 13.76869201660156 65.76451110839844 C 17.146240234375 69.14206695556641 21.07851409912109 71.79348754882812 25.45630264282227 73.64512634277344 C 29.98714065551758 75.56151580810547 34.80181503295898 76.533203125 39.7666015625 76.533203125 C 44.73138809204102 76.533203125 49.54606628417969 75.56151580810547 54.076904296875 73.64512634277344 C 58.45468902587891 71.79348754882812 62.386962890625 69.14206695556641 65.76451110839844 65.76451110839844 C 69.14206695556641 62.386962890625 71.79348754882812 58.45468902587891 73.64512634277344 54.076904296875 C 75.56151580810547 49.54606628417969 76.533203125 44.73138809204102 76.533203125 39.7666015625 C 76.533203125 34.80181503295898 75.56151580810547 29.98714065551758 73.64512634277344 25.45630264282227 C 71.79348754882812 21.07851409912109 69.14206695556641 17.146240234375 65.76451110839844 13.76869201660156 C 62.386962890625 10.39113616943359 58.45468902587891 7.739715576171875 54.076904296875 5.888076782226562 C 49.54606628417969 3.971687316894531 44.73138809204102 3 39.7666015625 3 M 39.7666015625 0 C 61.72908782958984 0 79.533203125 17.80411529541016 79.533203125 39.7666015625 C 79.533203125 61.72908782958984 61.72908782958984 79.533203125 39.7666015625 79.533203125 C 17.80411529541016 79.533203125 0 61.72908782958984 0 39.7666015625 C 0 17.80411529541016 17.80411529541016 0 39.7666015625 0 Z" stroke="none" fill="#83793c"/>
                      </g>
                    </g>
                  </g>
                </g>
              </g>
            </g>
          </g>
        </g>
      </g>
    </g>
    <g id="emoticonos" transform="translate(612.604 5870.251)">
      <g id="Grupo_1240904" data-name="Grupo 1240904" transform="translate(20.702 1.122)">
        <path id="Trazado_1218884" data-name="Trazado 1218884" d="M70.019,100a18.2,18.2,0,0,0-36.392,0c0,1.936-1.871,4.83-2.988,6.386-2.306,3.213-.756,5.4,4.125,5.4v6a4.946,4.946,0,0,0,4.959,4.9c6.422,0,7.019.443,7.415,6.481h16.1c-.525-8.015-.25-12.784,4.107-19.814A17.7,17.7,0,0,0,70.019,100Z" transform="translate(-29.59 -73.916)" fill="#ffd0c7" fill-rule="evenodd"/>
        <path id="Trazado_1218885" data-name="Trazado 1218885" d="M228.478,24.915a8.984,8.984,0,1,0-2.191-6.827q-.044.443-.044.9a8.949,8.949,0,0,0,2.235,5.931Z" transform="translate(-204.158 -10)" fill="#88df8e" fill-rule="evenodd"/>
        <path id="Trazado_1218886" data-name="Trazado 1218886" d="M195.442,145.864a8.963,8.963,0,0,1-6.749-3.054,8.985,8.985,0,1,0,10.7,8.863c0-.014,0-.029,0-.043a8.949,8.949,0,0,0-2.236-5.93A9.034,9.034,0,0,1,195.442,145.864Z" transform="translate(-164.374 -127.895)" fill="#ffc144" fill-rule="evenodd"/>
        <path id="Trazado_1218887" data-name="Trazado 1218887" d="M329.188,193.764a8.983,8.983,0,0,0-4.63,2.895,8.948,8.948,0,0,1-2.134,5.77v.042a8.975,8.975,0,1,0,6.764-8.708Z" transform="translate(-289.538 -172.881)" fill="#ff5d7d" fill-rule="evenodd"/>
      </g>
      <g id="Grupo_1240905" data-name="Grupo 1240905" transform="translate(19.578 -0.001)">
        <path id="Trazado_1218888" data-name="Trazado 1218888" d="M322.381,400.24h0a1.123,1.123,0,1,0,1.124,1.123A1.123,1.123,0,0,0,322.381,400.24Z" transform="translate(-287.378 -355.292)"/>
        <path id="Trazado_1218889" data-name="Trazado 1218889" d="M242.681,234.562a.735.735,0,0,1-1.04,0,1.123,1.123,0,1,0-1.588,1.588,2.981,2.981,0,0,0,4.216,0,1.123,1.123,0,1,0-1.588-1.588Z" transform="translate(-215.001 -207.928)"/>
        <path id="Trazado_1218890" data-name="Trazado 1218890" d="M212.4,201.384a1.123,1.123,0,0,0,0-1.588,2.982,2.982,0,0,0-4.216,0,1.123,1.123,0,1,0,1.588,1.589.735.735,0,0,1,1.04,0,1.123,1.123,0,0,0,1.588,0Z" transform="translate(-186.714 -176.583)"/>
        <path id="Trazado_1218891" data-name="Trazado 1218891" d="M276.137,199.8a2.982,2.982,0,0,0-4.216,0,1.123,1.123,0,0,0,1.588,1.589.735.735,0,0,1,1.04,0,1.123,1.123,0,0,0,1.588-1.589Z" transform="translate(-243.29 -176.583)"/>
        <path id="Trazado_1218892" data-name="Trazado 1218892" d="M284.87,105.349a1.123,1.123,0,0,0,1.588,0,.735.735,0,0,1,1.04,0,1.123,1.123,0,1,0,1.588-1.588,2.982,2.982,0,0,0-4.216,0A1.123,1.123,0,0,0,284.87,105.349Z" transform="translate(-254.785 -91.333)"/>
        <path id="Trazado_1218893" data-name="Trazado 1218893" d="M257.22,69.494a1.123,1.123,0,0,0-1.588-1.588.735.735,0,0,1-1.04,0A1.123,1.123,0,0,0,253,69.494a2.982,2.982,0,0,0,4.216,0Z" transform="translate(-226.497 -59.988)"/>
        <path id="Trazado_1218894" data-name="Trazado 1218894" d="M318.844,70.368a2.962,2.962,0,0,0,2.108-.873,1.123,1.123,0,1,0-1.588-1.588.735.735,0,0,1-1.04,0,1.123,1.123,0,0,0-1.588,1.588A2.963,2.963,0,0,0,318.844,70.368Z" transform="translate(-283.071 -59.989)"/>
        <path id="Trazado_1218895" data-name="Trazado 1218895" d="M62.573,20.605a10.145,10.145,0,0,0-1.472.108,18.962,18.962,0,0,0-1.888-3.775A10.105,10.105,0,1,0,41.861,8.116,19.269,19.269,0,0,0,23.616,27.205c0,1.166-1.038,3.309-2.777,5.732-1.618,2.254-1.386,3.84-.906,4.775.505.985,1.756,2.139,4.821,2.365V44.99a6.061,6.061,0,0,0,6.082,6.027c2.931,0,4.545.109,5.233.7s.886,2.049,1.061,4.728A1.123,1.123,0,0,0,38.25,57.5h16.1a1.123,1.123,0,0,0,1.121-1.2c-.142-2.169-.2-3.77-.192-5.188a1.123,1.123,0,0,0-1.116-1.13h-.008A1.123,1.123,0,0,0,53.036,51.1c-.008,1.2.031,2.51.124,4.154H39.295c-.2-2.444-.526-4.166-1.759-5.231-1.349-1.165-3.432-1.25-6.7-1.25A3.813,3.813,0,0,1,27,44.991v-1.5h3.369a1.123,1.123,0,0,0,0-2.246H27V38.993a1.123,1.123,0,0,0-1.123-1.123c-2.09,0-3.565-.443-3.945-1.184-.27-.526,0-1.415.733-2.439,1.459-2.033,3.2-4.9,3.2-7.041A17.013,17.013,0,0,1,41.668,10.38a10.042,10.042,0,0,0,1.5,5.021,10.106,10.106,0,1,0,9.56,17.594,10.121,10.121,0,0,0,3.358,5.46c-.416.8-.779,1.566-1.1,2.337a1.123,1.123,0,1,0,2.073.865c.268-.643.569-1.288.91-1.95a10.107,10.107,0,1,0,4.608-19.1Zm-5.989,1.966a10.091,10.091,0,0,0-1.239-3.011,10.086,10.086,0,0,0,2.153-1.13,16.722,16.722,0,0,1,1.418,2.859,10.085,10.085,0,0,0-2.332,1.282ZM51.771,2.245a7.861,7.861,0,1,1-7.861,7.861A7.87,7.87,0,0,1,51.771,2.245ZM46.738,32.718a7.861,7.861,0,0,1-2.083-15.441,10.1,10.1,0,0,0,8.367,2.86,7.859,7.859,0,0,1-6.284,12.582Zm15.835,5.855A7.87,7.87,0,0,1,54.72,31.05a10.054,10.054,0,0,0,2.114-5.708,7.861,7.861,0,1,1,5.739,13.231Z" transform="translate(-19.578 0.001)"/>
        <path id="Trazado_1218896" data-name="Trazado 1218896" d="M383.161,296.372a2.962,2.962,0,0,0-2.108.873,1.123,1.123,0,1,0,1.588,1.588.74.74,0,0,1,.52-.215.731.731,0,0,1,.52.216,1.123,1.123,0,0,0,1.588-1.589A2.963,2.963,0,0,0,383.161,296.372Z" transform="translate(-340.166 -263.088)"/>
        <path id="Trazado_1218897" data-name="Trazado 1218897" d="M364.374,261.992a1.123,1.123,0,0,0-.411-1.534l-1.138-.657a1.123,1.123,0,0,0-1.123,1.945l1.138.657a1.122,1.122,0,0,0,1.534-.411Z" transform="translate(-322.782 -230.49)"/>
        <path id="Trazado_1218898" data-name="Trazado 1218898" d="M415.27,259.8l-1.138.657a1.123,1.123,0,1,0,1.123,1.945l1.138-.657a1.123,1.123,0,1,0-1.123-1.945Z" transform="translate(-369.324 -230.49)"/>
        <path id="Trazado_1218899" data-name="Trazado 1218899" d="M97.833,239.814a1.123,1.123,0,0,0-1.588,0l-.2.2-.2-.2a1.123,1.123,0,0,0-1.588,1.588l.2.2-.2.2a1.123,1.123,0,1,0,1.588,1.588l.2-.2.2.2a1.123,1.123,0,0,0,1.588-1.588l-.2-.2.2-.2A1.123,1.123,0,0,0,97.833,239.814Z" transform="translate(-85.573 -212.59)"/>
      </g>
    </g>
  </g>
</svg>
