<svg xmlns="http://www.w3.org/2000/svg" xmlns:xlink="http://www.w3.org/1999/xlink" width="108" height="108" viewBox="0 0 108 108">
  <defs>
    <filter id="Trazado_904820" x="0" y="0" width="108" height="108" filterUnits="userSpaceOnUse">
      <feOffset dy="3" input="SourceAlpha"/>
      <feGaussianBlur stdDeviation="3" result="blur"/>
      <feFlood flood-opacity="0.161"/>
      <feComposite operator="in" in2="blur"/>
      <feComposite in="SourceGraphic"/>
    </filter>
  </defs>
  <g id="Grupo_1240963" data-name="Grupo 1240963" transform="translate(-200.058 -9092.852)">
    <g id="Grupo_1226223" data-name="Grupo 1226223" transform="translate(209.059 9098.852)">
      <g id="Grupo_1223550" data-name="Grupo 1223550" transform="translate(0 0)">
        <g id="Grupo_1223164" data-name="Grupo 1223164">
          <g id="Grupo_1203639" data-name="Grupo 1203639">
            <g id="Grupo_1202437" data-name="Grupo 1202437">
              <g id="Grupo_1177315" data-name="Grupo 1177315">
                <g id="Grupo_1173585" data-name="Grupo 1173585">
                  <g id="Grupo_1173428" data-name="Grupo 1173428">
                    <g id="Grupo_1171958" data-name="Grupo 1171958">
                      <g id="Grupo_1167341" data-name="Grupo 1167341">
                        <g id="Grupo_1166792" data-name="Grupo 1166792">
                          <g transform="matrix(1, 0, 0, 1, -9, -6)" filter="url(#Trazado_904820)">
                            <g id="Trazado_904820-2" data-name="Trazado 904820" transform="translate(9 6)" fill="#effbfe">
                              <path d="M 44.99999618530273 88.49999237060547 C 39.12687301635742 88.49999237060547 33.43022155761719 87.35006713867188 28.06829643249512 85.08216857910156 C 22.88852119445801 82.89130401611328 18.23629570007324 79.75457763671875 14.24084663391113 75.75914001464844 C 10.24540901184082 71.76369476318359 7.108683586120605 67.11146545410156 4.917821407318115 61.93169403076172 C 2.649921178817749 56.56976699829102 1.499996185302734 50.87311553955078 1.499996185302734 44.99999237060547 C 1.499996185302734 39.12686920166016 2.649921178817749 33.43021774291992 4.917821407318115 28.06829261779785 C 7.108683586120605 22.88851737976074 10.24540901184082 18.23630523681641 14.24084663391113 14.24085521697998 C 18.23629570007324 10.24540519714355 22.88852119445801 7.108692169189453 28.06829643249512 4.917829990386963 C 33.43022155761719 2.649929761886597 39.12687301635742 1.500004887580872 44.99999618530273 1.500004887580872 C 50.87311935424805 1.500004887580872 56.56977081298828 2.649929761886597 61.93169784545898 4.917829990386963 C 67.11147308349609 7.108692169189453 71.76369476318359 10.24540519714355 75.75914764404297 14.24085521697998 C 79.75458526611328 18.23630523681641 82.89131164550781 22.88851737976074 85.08216857910156 28.06829261779785 C 87.35007476806641 33.43021774291992 88.5 39.12686920166016 88.5 44.99999237060547 C 88.5 50.87311553955078 87.35007476806641 56.56976699829102 85.08216857910156 61.93169403076172 C 82.89131164550781 67.11146545410156 79.75458526611328 71.76369476318359 75.75914764404297 75.75914001464844 C 71.76369476318359 79.75457763671875 67.11147308349609 82.89130401611328 61.93169784545898 85.08216857910156 C 56.56977081298828 87.35006713867188 50.87311935424805 88.49999237060547 44.99999618530273 88.49999237060547 Z" stroke="none"/>
                              <path d="M 44.99999618530273 2.999992370605469 C 39.32870864868164 2.999992370605469 33.82865142822266 4.11004638671875 28.65262603759766 6.299331665039062 C 23.65165710449219 8.414566040039062 19.15968322753906 11.44333648681641 15.301513671875 15.30150604248047 C 11.44333648681641 19.15967559814453 8.414566040039062 23.65164947509766 6.299339294433594 28.65262222290039 C 4.110054016113281 33.82864761352539 2.999992370605469 39.32870483398438 2.999992370605469 44.99999237060547 C 2.999992370605469 50.67127990722656 4.110054016113281 56.17132186889648 6.299339294433594 61.34736633300781 C 8.414566040039062 66.34833526611328 11.44333648681641 70.84029388427734 15.301513671875 74.69846343994141 C 19.15968322753906 78.55663299560547 23.65165710449219 81.58540344238281 28.65262603759766 83.70063781738281 C 33.82865142822266 85.88992309570312 39.32870864868164 86.99997711181641 44.99999618530273 86.99997711181641 C 50.67128372192383 86.99997711181641 56.17134094238281 85.88992309570312 61.34736633300781 83.70063781738281 C 66.34834289550781 81.58540344238281 70.84030914306641 78.55663299560547 74.69847869873047 74.69846343994141 C 78.55665588378906 70.84029388427734 81.58542633056641 66.34833526611328 83.70065307617188 61.34736633300781 C 85.88993835449219 56.17132186889648 87 50.67127990722656 87 44.99999237060547 C 87 39.32870483398438 85.88993835449219 33.82864761352539 83.70065307617188 28.65262222290039 C 81.58542633056641 23.65164947509766 78.55665588378906 19.15967559814453 74.69847869873047 15.30150604248047 C 70.84030914306641 11.44333648681641 66.34834289550781 8.414566040039062 61.34736633300781 6.299331665039062 C 56.17134094238281 4.11004638671875 50.67128372192383 2.999992370605469 44.99999618530273 2.999992370605469 M 44.99999618530273 -7.62939453125e-06 C 69.85281372070312 -7.62939453125e-06 90 20.14717864990234 90 44.99999237060547 C 90 69.85279083251953 69.85281372070312 89.99997711181641 44.99999618530273 89.99997711181641 C 20.14717864990234 89.99997711181641 -7.62939453125e-06 69.85279083251953 -7.62939453125e-06 44.99999237060547 C -7.62939453125e-06 20.14717864990234 20.14717864990234 -7.62939453125e-06 44.99999618530273 -7.62939453125e-06 Z" stroke="none" fill="#497f88"/>
                            </g>
                          </g>
                        </g>
                      </g>
                    </g>
                  </g>
                </g>
              </g>
            </g>
          </g>
        </g>
      </g>
    </g>
    <g id="auditivo" transform="translate(226.406 9116.199)">
      <g id="Grupo_1240961" data-name="Grupo 1240961" transform="translate(0.81 0.81)">
        <g id="Grupo_1240959" data-name="Grupo 1240959">
          <path id="Trazado_1219003" data-name="Trazado 1219003" d="M19.944,129.077l5.069,15.6,5.74-14.445,2.964,2.342h8.8v-3.24H35.059l-5.6-4.5L25.372,135.05l-4.89-15.485-5.51,12.219-1.963-2.454H7.5v3.24h3.951l4.281,5.351Z" transform="translate(-7.5 -107.46)" fill="#fef090" fill-rule="evenodd"/>
          <path id="Trazado_1219004" data-name="Trazado 1219004" d="M210.729,33.541v17.73a9.918,9.918,0,0,0,19.836,0c1.622-12.772,11.9-14.345,11.9-27.909a15.862,15.862,0,0,0-31.723,0v1.5l5.6,4.5V23.362a10.263,10.263,0,1,1,20.527,0c0,9.236-11.9,11.454-11.9,18.579a4.315,4.315,0,1,1-8.631,0,4.665,4.665,0,1,0,0-9.33h-1.342l-2.964-2.342Z" transform="translate(-188.777 -7.5)" fill="#fbf2e2" fill-rule="evenodd"/>
          <path id="Trazado_1219005" data-name="Trazado 1219005" d="M210.729,151.7v6.581l2.354-5.924,1.067.843h6.283a4.664,4.664,0,0,0-4.1-2.43h-1.342l-2.964-2.342Zm.086-11.732q-.075.767-.077,1.553v1.5l5.6,4.5v-3.119Z" transform="translate(-188.777 -125.662)" fill="#f7e0ba" fill-rule="evenodd"/>
          <path id="Trazado_1219006" data-name="Trazado 1219006" d="M262.638,75.6h7.456v3.241h-7.456a4.665,4.665,0,1,1,0,9.33,4.315,4.315,0,1,0,8.631,0c0-7.125,11.9-9.343,11.9-18.579a10.263,10.263,0,1,0-20.527,0V75.6Z" transform="translate(-235.079 -53.729)" fill="#f5d9ab" fill-rule="evenodd"/>
          <path id="Trazado_1219007" data-name="Trazado 1219007" d="M262.638,184.211h7.456v3.241h-7.456a4.664,4.664,0,0,1,4.1,2.43h5.79v-8.1h-9.03l-.856-.689v3.119Z" transform="translate(-235.079 -162.341)" fill="#f0b582" fill-rule="evenodd"/>
          <path id="Trazado_1219008" data-name="Trazado 1219008" d="M7.5,209.967H9.93v3.241H7.5Z" transform="translate(-7.5 -188.097)" fill="#fee31e" fill-rule="evenodd"/>
        </g>
        <g id="Grupo_1240960" data-name="Grupo 1240960" transform="translate(38.848 30.363)">
          <path id="Trazado_1219009" data-name="Trazado 1219009" d="M368.768,293.458h-1.62v-1.62h1.62Zm1.62-3.241h-1.62V288.6h1.62Z" transform="translate(-367.148 -288.597)" fill="#fff"/>
        </g>
      </g>
      <g id="Grupo_1240962" data-name="Grupo 1240962" transform="translate(0 0)">
        <path id="Trazado_1219010" data-name="Trazado 1219010" d="M51.019,5.563l-1.2,1.083a14.988,14.988,0,0,1,3.871,10.026c0,7.226-2.706,10.633-5.572,14.241-2.689,3.385-5.47,6.886-6.318,13.567l-.006.051v.051a9.108,9.108,0,0,1-18.216,0V27.006l.842-2.118,2.332,1.842H28.37a3.855,3.855,0,1,1,0,7.71h-.81v.81a5.125,5.125,0,1,0,10.251,0c0-2.962,2.36-5.012,5.092-7.384,3.189-2.769,6.8-5.908,6.8-11.195a11.074,11.074,0,0,0-22.147,0v4.317l-3.978-3.2V16.672A15.015,15.015,0,0,1,48.694,5.523l1.087-1.2a16.662,16.662,0,0,0-27.82,12.351v1.349l-3.189,7.974L13.926,10.648,8.088,23.594,6.708,21.87H0v4.861H4.372l4.845,6.057,3.894-8.177,1.155,3.554,1.541-.5L13.4,20.244,8.867,29.755,5.151,25.11H1.62V23.49H5.93l2.547,3.184,5.182-11.492,4.934,15.624,4.525-11.312,4.967,4h6.931v1.62H27.309l-3.6-2.842L18.4,35.637,17.31,32.286l-1.541.5,2.477,7.622,3.706-9.326v13.5a10.728,10.728,0,0,0,21.456.053c.8-6.2,3.429-9.511,5.973-12.714,2.912-3.666,5.924-7.457,5.924-15.248A16.606,16.606,0,0,0,51.019,5.563ZM36.635,26.731V21.87H29.217a10.209,10.209,0,0,1,2.759-6.082,9.149,9.149,0,0,1,6.656-2.971V11.2A10.754,10.754,0,0,0,30.8,14.673a11.881,11.881,0,0,0-1.621,2.159v-.161a9.453,9.453,0,0,1,18.907,0c0,4.548-3.175,7.3-6.246,9.971-2.778,2.412-5.65,4.906-5.65,8.608a3.5,3.5,0,0,1-6.929.738,5.472,5.472,0,0,0,2.992-9.258h4.382Z" transform="translate(0 0)"/>
        <path id="Trazado_1219011" data-name="Trazado 1219011" d="M0,0H1.62V1.62H0Z" transform="translate(14.764 29.706) rotate(-18)"/>
      </g>
    </g>
  </g>
</svg>
