<svg xmlns="http://www.w3.org/2000/svg" xmlns:xlink="http://www.w3.org/1999/xlink" width="108" height="108" viewBox="0 0 108 108">
  <defs>
    <filter id="Trazado_904820" x="0" y="0" width="108" height="108" filterUnits="userSpaceOnUse">
      <feOffset dy="3" input="SourceAlpha"/>
      <feGaussianBlur stdDeviation="3" result="blur"/>
      <feFlood flood-opacity="0.161"/>
      <feComposite operator="in" in2="blur"/>
      <feComposite in="SourceGraphic"/>
    </filter>
  </defs>
  <g id="Grupo_1240808" data-name="Grupo 1240808" transform="translate(-199.984 -1128.16)">
    <g id="Grupo_1226157" data-name="Grupo 1226157" transform="translate(208.984 1134.16)">
      <g id="Grupo_1223550" data-name="Grupo 1223550" transform="translate(0 0)">
        <g id="Grupo_1223164" data-name="Grupo 1223164">
          <g id="Grupo_1203639" data-name="Grupo 1203639">
            <g id="Grupo_1202437" data-name="Grupo 1202437">
              <g id="Grupo_1177315" data-name="Grupo 1177315">
                <g id="Grupo_1173585" data-name="Grupo 1173585">
                  <g id="Grupo_1173428" data-name="Grupo 1173428">
                    <g id="Grupo_1171958" data-name="Grupo 1171958">
                      <g id="Grupo_1167341" data-name="Grupo 1167341">
                        <g id="Grupo_1166792" data-name="Grupo 1166792">
                          <g transform="matrix(1, 0, 0, 1, -9, -6)" filter="url(#Trazado_904820)">
                            <g id="Trazado_904820-2" data-name="Trazado 904820" transform="translate(9 6)" fill="#ebe9f0">
                              <path d="M 44.9999885559082 88.49999237060547 C 39.12686538696289 88.49999237060547 33.43022537231445 87.35006713867188 28.06828880310059 85.08216857910156 C 22.88852691650391 82.89130401611328 18.23630142211914 79.75457763671875 14.24085140228271 75.75914001464844 C 10.24540138244629 71.76369476318359 7.108688354492188 67.11146545410156 4.917826175689697 61.93169403076172 C 2.649925947189331 56.56976699829102 1.500001072883606 50.87311553955078 1.500001072883606 44.99999237060547 C 1.500001072883606 39.12686920166016 2.649925947189331 33.43021774291992 4.917826175689697 28.06829261779785 C 7.108688354492188 22.88851737976074 10.24540138244629 18.23630523681641 14.24085140228271 14.24085521697998 C 18.23630142211914 10.24540519714355 22.88852691650391 7.108692169189453 28.06828880310059 4.917829990386963 C 33.43022537231445 2.649929761886597 39.12686538696289 1.500004887580872 44.9999885559082 1.500004887580872 C 50.87311172485352 1.500004887580872 56.56975173950195 2.649929761886597 61.93169021606445 4.917829990386963 C 67.1114501953125 7.108692169189453 71.76367950439453 10.24540519714355 75.75912475585938 14.24085521697998 C 79.75457763671875 18.23630523681641 82.89128875732422 22.88851737976074 85.0821533203125 28.06829261779785 C 87.35005187988281 33.43021774291992 88.49997711181641 39.12686920166016 88.49997711181641 44.99999237060547 C 88.49997711181641 50.87311553955078 87.35005187988281 56.56976699829102 85.0821533203125 61.93169403076172 C 82.89128875732422 67.11146545410156 79.75457763671875 71.76369476318359 75.75912475585938 75.75914001464844 C 71.76367950439453 79.75457763671875 67.1114501953125 82.89130401611328 61.93169021606445 85.08216857910156 C 56.56975173950195 87.35006713867188 50.87311172485352 88.49999237060547 44.9999885559082 88.49999237060547 Z" stroke="none"/>
                              <path d="M 44.9999885559082 2.999992370605469 C 39.32870101928711 2.999992370605469 33.82865905761719 4.11004638671875 28.65261840820312 6.299331665039062 C 23.65164947509766 8.414566040039062 19.15969085693359 11.44333648681641 15.301513671875 15.30150604248047 C 11.44334411621094 19.15967559814453 8.414573669433594 23.65164947509766 6.299346923828125 28.65262222290039 C 4.110061645507812 33.82864761352539 3 39.32870483398438 3 44.99999237060547 C 3 50.67127990722656 4.110061645507812 56.17132186889648 6.299346923828125 61.34736633300781 C 8.414573669433594 66.34833526611328 11.44334411621094 70.84029388427734 15.301513671875 74.69846343994141 C 19.15969085693359 78.55663299560547 23.65164947509766 81.58540344238281 28.65261840820312 83.70063781738281 C 33.82865905761719 85.88992309570312 39.32870101928711 86.99997711181641 44.9999885559082 86.99997711181641 C 50.6712760925293 86.99997711181641 56.17131805419922 85.88992309570312 61.34735870361328 83.70063781738281 C 66.34832763671875 81.58540344238281 70.84028625488281 78.55663299560547 74.69845581054688 74.69846343994141 C 78.55663299560547 70.84029388427734 81.58540344238281 66.34833526611328 83.70063018798828 61.34736633300781 C 85.88991546630859 56.17132186889648 86.99997711181641 50.67127990722656 86.99997711181641 44.99999237060547 C 86.99997711181641 39.32870483398438 85.88991546630859 33.82864761352539 83.70063018798828 28.65262222290039 C 81.58540344238281 23.65164947509766 78.55663299560547 19.15967559814453 74.69845581054688 15.30150604248047 C 70.84028625488281 11.44333648681641 66.34832763671875 8.414566040039062 61.34735870361328 6.299331665039062 C 56.17131805419922 4.11004638671875 50.6712760925293 2.999992370605469 44.9999885559082 2.999992370605469 M 44.9999885559082 -7.62939453125e-06 C 69.85279083251953 -7.62939453125e-06 89.99997711181641 20.14717864990234 89.99997711181641 44.99999237060547 C 89.99997711181641 69.85279083251953 69.85279083251953 89.99997711181641 44.9999885559082 89.99997711181641 C 20.14718627929688 89.99997711181641 0 69.85279083251953 0 44.99999237060547 C 0 20.14717864990234 20.14718627929688 -7.62939453125e-06 44.9999885559082 -7.62939453125e-06 Z" stroke="none" fill="#453179"/>
                            </g>
                          </g>
                        </g>
                      </g>
                    </g>
                  </g>
                </g>
              </g>
            </g>
          </g>
        </g>
      </g>
    </g>
    <g id="aprendizaje_3_" data-name="aprendizaje (3)" transform="translate(203.773 1150.296)">
      <g id="Grupo_1240806" data-name="Grupo 1240806" transform="translate(24.911 0.847)">
        <path id="Trazado_1218585" data-name="Trazado 1218585" d="M81.109,194.154a1.054,1.054,0,0,1,1.054,1.054v29.543a4.361,4.361,0,0,1-4.361,4.361H35.925a4.361,4.361,0,0,1-4.361-4.361V195.208a1.054,1.054,0,0,1,1.054-1.054Z" transform="translate(-31.564 -173.079)" fill="#b3e5ee"/>
        <path id="Trazado_1218586" data-name="Trazado 1218586" d="M59.879,194.154v29.809a3.581,3.581,0,0,0,3.577,3.578h37.165a3.582,3.582,0,0,0,3.577-3.578V194.154Z" transform="translate(-56.682 -173.079)" fill="#86d7e5"/>
        <path id="Trazado_1218587" data-name="Trazado 1218587" d="M118.785,175.283H80.775a.9.9,0,0,0-.9.9v26.97l12.249,4.474,7.652.88,18.341-3.311,1.56-2.043v-26.97A.9.9,0,0,0,118.785,175.283Z" transform="translate(-74.424 -156.339)" fill="#f9f7f7"/>
        <path id="Trazado_1218588" data-name="Trazado 1218588" d="M248.639,175.283h1.694v33.259h-1.694Z" transform="translate(-224.129 -156.339)" fill="#f8f3f2"/>
        <path id="Trazado_1218589" data-name="Trazado 1218589" d="M163.57,175.283l4.967,7.732v.6a2.942,2.942,0,0,0,1.251,2.406v.943a3.584,3.584,0,0,0,3.58,3.58h1.31a3.584,3.584,0,0,0,3.58-3.58v-.943a2.942,2.942,0,0,0,1.251-2.406v-.6l4.967-7.732Z" transform="translate(-148.665 -156.339)" fill="#f8f3f2"/>
        <g id="Grupo_1240804" data-name="Grupo 1240804" transform="translate(5.455)">
          <g id="Grupo_1240803" data-name="Grupo 1240803" transform="translate(0 18.944)">
            <g id="XMLID_248_">
              <g id="Grupo_1240802" data-name="Grupo 1240802">
                <g id="Grupo_1240800" data-name="Grupo 1240800">
                  <path id="Trazado_1218590" data-name="Trazado 1218590" d="M84.58,204.1v-28.82h-3.8a.9.9,0,0,0-.9.9v26.97l4.853,1.773A2.305,2.305,0,0,1,84.58,204.1Z" transform="translate(-79.879 -175.283)" fill="#f8f3f2"/>
                </g>
                <g id="Grupo_1240801" data-name="Grupo 1240801" transform="translate(0 27.868)">
                  <path id="Trazado_1218591" data-name="Trazado 1218591" d="M99.78,427.457v.037H81.2a1.319,1.319,0,0,1-1.319-1.32V422.1H94.426A5.354,5.354,0,0,1,99.78,427.457Z" transform="translate(-79.879 -422.103)" fill="#f2eae7"/>
                  <path id="Trazado_1218592" data-name="Trazado 1218592" d="M276.04,422.1v4.071a1.319,1.319,0,0,1-1.319,1.32H256.139v-.037a5.354,5.354,0,0,1,5.354-5.354Z" transform="translate(-236.238 -422.103)" fill="#f2eae7"/>
                </g>
              </g>
            </g>
          </g>
          <path id="Trazado_1218593" data-name="Trazado 1218593" d="M238.717,248.154h-5.082v3.454a1.886,1.886,0,0,0,1.886,1.886h1.31a1.886,1.886,0,0,0,1.886-1.886Z" transform="translate(-216.275 -220.982)" fill="#a59ca6"/>
          <path id="Trazado_1218594" data-name="Trazado 1218594" d="M238.717,248.154h-5.082v3.454a1.886,1.886,0,0,0,1.886,1.886h1.31a1.884,1.884,0,0,0,1.675-1.022,1.909,1.909,0,0,1-.221.014h-1.31a1.885,1.885,0,0,1-1.784-1.278.431.431,0,0,1,.407-.57h3.119v-2.484Z" transform="translate(-216.275 -220.982)" fill="#8f8390"/>
          <path id="Trazado_1218595" data-name="Trazado 1218595" d="M178.919,18.761a11.262,11.262,0,1,0-20.472,6.481l5.419,8.436v1.1a1.251,1.251,0,0,0,1.251,1.251H170.2a1.251,1.251,0,0,0,1.251-1.251v-1.1l5.419-8.436a11.209,11.209,0,0,0,2.051-6.481Z" transform="translate(-147.756 -7.499)" fill="#fbe88c"/>
          <path id="Trazado_1218596" data-name="Trazado 1218596" d="M163.2,26.68a12.4,12.4,0,0,1-2.145-7.006A12.1,12.1,0,0,1,170.234,7.8a11.264,11.264,0,0,0-11.786,17.447l5.419,8.436v1.1a1.251,1.251,0,0,0,1.251,1.251h3.218Z" transform="translate(-147.757 -7.5)" fill="#fbe372"/>
        </g>
        <g id="Grupo_1240805" data-name="Grupo 1240805" transform="translate(5.455 46.812)">
          <path id="Trazado_1218597" data-name="Trazado 1218597" d="M256.56,451.046a5.339,5.339,0,0,0-.422,2.086v.037H274.72a1.319,1.319,0,0,0,1.319-1.32v-.8H256.56Z" transform="translate(-236.237 -447.778)" fill="#ede2dd"/>
          <path id="Trazado_1218598" data-name="Trazado 1218598" d="M86.9,425.371a2.316,2.316,0,0,1-2.316-2.316V422.1h-4.7v4.071a1.319,1.319,0,0,0,1.319,1.32H99.78v-.037a5.337,5.337,0,0,0-.422-2.086Z" transform="translate(-79.879 -422.103)" fill="#ede2dd"/>
        </g>
      </g>
      <g id="Grupo_1240807" data-name="Grupo 1240807" transform="translate(24.064 0)">
        <path id="Trazado_1218599" data-name="Trazado 1218599" d="M74.456,169.915h-3.44v-.386a1.746,1.746,0,0,0-1.744-1.744H62.486a.847.847,0,0,0,0,1.694h6.785a.051.051,0,0,1,.051.05v10.325a.847.847,0,1,0,1.694,0v-8.245h3.44a.208.208,0,0,1,.208.208V201.36a3.518,3.518,0,0,1-3.514,3.514H29.272a3.518,3.518,0,0,1-3.514-3.514V171.817a.208.208,0,0,1,.208-.208h3.553v28.962a2.168,2.168,0,0,0,2.166,2.166H68.85a2.168,2.168,0,0,0,2.166-2.166V183.466a.847.847,0,0,0-1.694,0v12.186h-13.7a6.183,6.183,0,0,0-4.507,1.949V186.648a.847.847,0,0,0-1.694,0V197.6a6.183,6.183,0,0,0-4.507-1.949H41.065a.847.847,0,0,0,0,1.694h3.848a4.514,4.514,0,0,1,4.433,3.7H31.684a.473.473,0,0,1-.472-.472v-3.225h6.241a.847.847,0,1,0,0-1.694H31.212V169.529a.051.051,0,0,1,.051-.05h6.785a.847.847,0,0,0,0-1.694H31.263a1.746,1.746,0,0,0-1.744,1.744v.386H25.965a1.9,1.9,0,0,0-1.9,1.9V201.36a5.214,5.214,0,0,0,5.208,5.208H71.149a5.214,5.214,0,0,0,5.208-5.208V171.817A1.9,1.9,0,0,0,74.456,169.915ZM55.621,197.346h13.7v3.226a.473.473,0,0,1-.472.472H51.188a4.514,4.514,0,0,1,4.433-3.7Z" transform="translate(-24.064 -148.841)"/>
        <path id="Trazado_1218600" data-name="Trazado 1218600" d="M150.115,11.881a.848.848,0,0,0,.923-.764A10.415,10.415,0,1,1,169.923,18.1l-.02.03-5.419,8.436a.847.847,0,0,0-.134.458v1.1a.4.4,0,0,1-.4.4h-.055l.539-9.154h.965a2.506,2.506,0,0,0,2.5-2.5v-.1a2.5,2.5,0,0,0-5-.147l-.062,1.06h-2.97l-.062-1.06a2.5,2.5,0,0,0-5,.147v.1a2.506,2.506,0,0,0,2.5,2.5h.965l.539,9.148a.4.4,0,0,1-.346-.4v-1.1a.848.848,0,0,0-.134-.458l-5.419-8.436-.02-.03a10.318,10.318,0,0,1-1.631-3.651.847.847,0,1,0-1.651.379,12,12,0,0,0,1.886,4.232l5.275,8.212v.849a2.1,2.1,0,0,0,1.251,1.917v1.432A2.736,2.736,0,0,0,160.75,34.2h1.31a2.736,2.736,0,0,0,2.733-2.733V30.04a2.1,2.1,0,0,0,1.251-1.917v-.849l5.275-8.212a12.109,12.109,0,1,0-21.968-8.1.847.847,0,0,0,.764.923Zm14.472,4.838a.81.81,0,0,1,1.618.048v.1a.811.811,0,0,1-.81.81h-.865Zm-7.284.96a.811.811,0,0,1-.81-.81v-.1a.81.81,0,0,1,1.618-.048l.057.96Zm5.431,1.694-.539,9.154H160.5l-.539-9.154Zm.366,12.1a1.04,1.04,0,0,1-1.039,1.039h-1.31a1.04,1.04,0,0,1-1.039-1.039V30.22H163.1v1.252Z" transform="translate(-135.202 0)"/>
        <path id="Trazado_1218601" data-name="Trazado 1218601" d="M380.857,30.9a.844.844,0,0,0,.558-.21l1.848-1.622a.847.847,0,0,0-1.117-1.273L380.3,29.416a.847.847,0,0,0,.559,1.483Z" transform="translate(-339.821 -24.469)"/>
        <path id="Trazado_1218602" data-name="Trazado 1218602" d="M380.3,90.531l1.848,1.622a.847.847,0,0,0,1.118-1.273l-1.848-1.622a.847.847,0,0,0-1.118,1.273Z" transform="translate(-339.821 -78.993)"/>
        <path id="Trazado_1218603" data-name="Trazado 1218603" d="M101.191,29.066l1.848,1.622a.847.847,0,0,0,1.117-1.273l-1.848-1.622a.847.847,0,0,0-1.117,1.273Z" transform="translate(-92.227 -24.468)"/>
        <path id="Trazado_1218604" data-name="Trazado 1218604" d="M101.751,92.365a.844.844,0,0,0,.558-.21l1.848-1.622a.847.847,0,0,0-1.117-1.273l-1.848,1.622a.847.847,0,0,0,.559,1.483Z" transform="translate(-92.228 -78.994)"/>
        <path id="Trazado_1218605" data-name="Trazado 1218605" d="M110.938,253.5a.847.847,0,0,0-.847-.847H101.75a.847.847,0,1,0,0,1.694h8.342A.847.847,0,0,0,110.938,253.5Z" transform="translate(-92.227 -224.127)"/>
        <path id="Trazado_1218606" data-name="Trazado 1218606" d="M124.689,290.8H115.3a.847.847,0,1,0,0,1.694h9.392a.847.847,0,1,0,0-1.694Z" transform="translate(-104.246 -257.971)"/>
        <path id="Trazado_1218607" data-name="Trazado 1218607" d="M124.689,327.346H115.3a.847.847,0,1,0,0,1.694h9.392a.847.847,0,1,0,0-1.694Z" transform="translate(-104.246 -290.386)"/>
        <path id="Trazado_1218608" data-name="Trazado 1218608" d="M124.689,363.887H115.3a.847.847,0,1,0,0,1.694h9.392a.847.847,0,1,0,0-1.694Z" transform="translate(-104.246 -322.801)"/>
        <path id="Trazado_1218609" data-name="Trazado 1218609" d="M332.531,253.5a.847.847,0,0,0-.847-.847h-8.342a.847.847,0,0,0,0,1.694h8.342A.847.847,0,0,0,332.531,253.5Z" transform="translate(-288.801 -224.127)"/>
        <path id="Trazado_1218610" data-name="Trazado 1218610" d="M309.885,290.8h-9.392a.847.847,0,1,0,0,1.694h9.392a.847.847,0,0,0,0-1.694Z" transform="translate(-268.531 -257.971)"/>
        <path id="Trazado_1218611" data-name="Trazado 1218611" d="M309.885,327.346h-9.392a.847.847,0,1,0,0,1.694h9.392a.847.847,0,0,0,0-1.694Z" transform="translate(-268.531 -290.386)"/>
        <path id="Trazado_1218612" data-name="Trazado 1218612" d="M309.885,363.887h-9.392a.847.847,0,1,0,0,1.694h9.392a.847.847,0,0,0,0-1.694Z" transform="translate(-268.531 -322.801)"/>
      </g>
    </g>
  </g>
</svg>
