<svg xmlns="http://www.w3.org/2000/svg" xmlns:xlink="http://www.w3.org/1999/xlink" width="113" height="113" viewBox="0 0 113 113">
  <defs>
    <filter id="Trazado_982547" x="0" y="0" width="113" height="113" filterUnits="userSpaceOnUse">
      <feOffset dy="3" input="SourceAlpha"/>
      <feGaussianBlur stdDeviation="3" result="blur"/>
      <feFlood flood-opacity="0.161"/>
      <feComposite operator="in" in2="blur"/>
      <feComposite in="SourceGraphic"/>
    </filter>
  </defs>
  <g id="Grupo_1241017" data-name="Grupo 1241017" transform="translate(-670.49 -12683.167)">
    <g id="Grupo_1240427" data-name="Grupo 1240427" transform="translate(679.49 12689.167)">
      <g id="Grupo_1239780" data-name="Grupo 1239780" transform="translate(0 0)">
        <g id="Grupo_1236603" data-name="Grupo 1236603">
          <g id="Grupo_1236145" data-name="Grupo 1236145">
            <g id="Grupo_1235107" data-name="Grupo 1235107">
              <g id="Grupo_1223796" data-name="Grupo 1223796">
                <g id="Grupo_1208038" data-name="Grupo 1208038">
                  <g id="Grupo_1202104" data-name="Grupo 1202104">
                    <g id="Grupo_1201923" data-name="Grupo 1201923">
                      <g id="Grupo_1176928" data-name="Grupo 1176928" transform="translate(0)">
                        <g id="Grupo_1172322" data-name="Grupo 1172322">
                          <g id="Grupo_1164700" data-name="Grupo 1164700">
                            <g id="Grupo_1160931" data-name="Grupo 1160931">
                              <g id="Grupo_1160749" data-name="Grupo 1160749">
                                <g id="Grupo_1158891" data-name="Grupo 1158891">
                                  <g id="Grupo_1157406" data-name="Grupo 1157406">
                                    <g id="Grupo_1155793" data-name="Grupo 1155793">
                                      <g id="Grupo_1154704" data-name="Grupo 1154704">
                                        <g id="Grupo_1150790" data-name="Grupo 1150790">
                                          <g id="Grupo_1154214" data-name="Grupo 1154214" transform="translate(0)">
                                            <g id="Grupo_1152583" data-name="Grupo 1152583">
                                              <g id="Grupo_1146973" data-name="Grupo 1146973">
                                                <g id="Grupo_1146954" data-name="Grupo 1146954">
                                                  <g transform="matrix(1, 0, 0, 1, -9, -6)" filter="url(#Trazado_982547)">
                                                    <g id="Trazado_982547-2" data-name="Trazado 982547" transform="translate(9 6)" fill="#d9d5e3">
                                                      <path d="M 47.50000762939453 93.49986267089844 C 41.28937911987305 93.49986267089844 35.26534271240234 92.28383636474609 29.59519386291504 89.88558197021484 C 24.11772727966309 87.56880950927734 19.19814109802246 84.25183868408203 14.97310066223145 80.02679443359375 C 10.74804782867432 75.8017578125 7.431074142456055 70.88218688964844 5.114300727844238 65.40471649169922 C 2.716034412384033 59.73458480834961 1.500007629394531 53.71054458618164 1.500007629394531 47.49993133544922 C 1.500007629394531 41.2893180847168 2.716034412384033 35.26527786254883 5.114300727844238 29.59514427185059 C 7.431074142456055 24.11767768859863 10.74804782867432 19.19810485839844 14.97310066223145 14.97306442260742 C 19.19814109802246 10.74802494049072 24.11772727966309 7.431051254272461 29.59519386291504 5.114277839660645 C 35.26534271240234 2.71602463722229 41.28937911987305 1.499997973442078 47.50000762939453 1.499997973442078 C 53.71063613891602 1.499997973442078 59.73467254638672 2.71602463722229 65.40482330322266 5.114277839660645 C 70.88228607177734 7.431051254272461 75.80187225341797 10.74802494049072 80.02691650390625 14.97306442260742 C 84.25196838378906 19.19810485839844 87.56893920898438 24.11767768859863 89.88571166992188 29.59514427185059 C 92.28398132324219 35.26527786254883 93.50000762939453 41.2893180847168 93.50000762939453 47.49993133544922 C 93.50000762939453 53.71054458618164 92.28398132324219 59.73458480834961 89.88571166992188 65.40471649169922 C 87.56893920898438 70.88218688964844 84.25196838378906 75.8017578125 80.02691650390625 80.02679443359375 C 75.80187225341797 84.25183868408203 70.88228607177734 87.56880950927734 65.40482330322266 89.88558197021484 C 59.73467254638672 92.28383636474609 53.71063613891602 93.49986267089844 47.50000762939453 93.49986267089844 Z" stroke="none"/>
                                                      <path d="M 47.50000762939453 2.999992370605469 C 41.4912223815918 2.999992370605469 35.66377639770508 4.1761474609375 30.17951202392578 6.495796203613281 C 24.88085174560547 8.736930847167969 20.12152862548828 11.94596099853516 16.03376007080078 16.03372955322266 C 11.94597625732422 20.12148284912109 8.736961364746094 24.88080596923828 6.495803833007812 30.17946624755859 C 4.176162719726562 35.66371536254883 3.000007629394531 41.49116134643555 3.000007629394531 47.49993133544922 C 3.000007629394531 53.50870132446289 4.176162719726562 59.33614730834961 6.495803833007812 64.82038879394531 C 8.736961364746094 70.11905670166016 11.94597625732422 74.87836456298828 16.03376007080078 78.96613311767578 C 20.12152862548828 83.05390167236328 24.88085174560547 86.26291656494141 30.17951202392578 88.50406646728516 C 35.66377639770508 90.82369995117188 41.4912223815918 91.99985504150391 47.50000762939453 91.99985504150391 C 53.50879287719727 91.99985504150391 59.33623886108398 90.82369995117188 64.82049560546875 88.50406646728516 C 70.11916351318359 86.26291656494141 74.87848663330078 83.05390167236328 78.96625518798828 78.96613311767578 C 83.05403900146484 74.87836456298828 86.26305389404297 70.11905670166016 88.50421142578125 64.82038879394531 C 90.8238525390625 59.33614730834961 92.00000762939453 53.50870132446289 92.00000762939453 47.49993133544922 C 92.00000762939453 41.49116134643555 90.8238525390625 35.66371536254883 88.50421142578125 30.17946624755859 C 86.26305389404297 24.88080596923828 83.05403900146484 20.12148284912109 78.96625518798828 16.03372955322266 C 74.87848663330078 11.94596099853516 70.11916351318359 8.736930847167969 64.82049560546875 6.495796203613281 C 59.33623886108398 4.1761474609375 53.50879287719727 2.999992370605469 47.50000762939453 2.999992370605469 M 47.50000762939453 -7.62939453125e-06 C 73.73352813720703 -7.62939453125e-06 95.00000762939453 21.26644134521484 95.00000762939453 47.49993133544922 C 95.00000762939453 73.73342132568359 73.73352813720703 94.99985504150391 47.50000762939453 94.99985504150391 C 21.26648712158203 94.99985504150391 7.62939453125e-06 73.73342132568359 7.62939453125e-06 47.49993133544922 C 7.62939453125e-06 21.26644134521484 21.26648712158203 -7.62939453125e-06 47.50000762939453 -7.62939453125e-06 Z" stroke="none" fill="#453179"/>
                                                    </g>
                                                  </g>
                                                </g>
                                              </g>
                                            </g>
                                          </g>
                                        </g>
                                      </g>
                                    </g>
                                  </g>
                                </g>
                              </g>
                            </g>
                          </g>
                        </g>
                      </g>
                    </g>
                  </g>
                </g>
              </g>
            </g>
          </g>
        </g>
      </g>
    </g>
    <g id="idea-genial_1_" data-name="idea-genial (1)" transform="translate(686.769 12705.465)">
      <g id="Grupo_1241015" data-name="Grupo 1241015" transform="translate(11.185 0.914)">
        <path id="Trazado_1219218" data-name="Trazado 1219218" d="M60.266,68.077l-2.5-.012-19.092.012,2.517-15.852A9.073,9.073,0,0,1,34.4,55.27H25.383a2.127,2.127,0,0,1-2.113-1.892l-.623-5.616H19A1.23,1.23,0,0,1,17.82,46.2a55.592,55.592,0,0,0,2.144-10.363c.134-1.731.356-5.158.478-7.063.046-.726.073-1.452.1-2.179A19.926,19.926,0,0,1,36.764,7.839h0q.68-.128,1.375-.207c.139-.016.278-.03.418-.043.048-.006.1-.01.144-.013L38.9,7.56c.143-.011.286-.021.43-.028l.178-.01.233-.01.2-.006.193,0,.307,0A19.83,19.83,0,0,1,50,9.939c.218.119.434.244.646.371s.424.26.633.394.413.273.616.416q.623.439,1.205.921c.233.193.459.39.683.592l.222.2q.218.207.43.417c.143.14.28.283.417.427h0q.2.216.4.439c.132.149.262.3.389.45q.285.342.555.695.179.236.352.477t.336.484h0q.165.245.322.494a19.952,19.952,0,0,1,1.006,1.8c.087.176.171.351.252.529a.021.021,0,0,1,0,.006,4.74,4.74,0,0,0,1.346,9.286c.146,0,.291-.006.434-.02-.015.278-.037.556-.063.834L58.78,41.043a39.731,39.731,0,0,0-.132,8.057Z" transform="translate(-17.774 -7.5)" fill="#ffcfc0"/>
        <path id="Trazado_1219219" data-name="Trazado 1219219" d="M193.246,20.314A19.762,19.762,0,0,0,174.812,7.808c-.4,0-.8.012-1.2.035q.68-.128,1.375-.207a20.122,20.122,0,0,1,7.858.654q.927.269,1.825.627.658.263,1.3.572a19.7,19.7,0,0,1,9.094,9.03c.087.176.171.351.252.529a.02.02,0,0,1,0,.006A4.722,4.722,0,0,0,193.246,20.314Z" transform="translate(-154.619 -7.505)" fill="#ffb29f"/>
        <path id="Trazado_1219220" data-name="Trazado 1219220" d="M335.866,214.95l-2.5-.012-1.591-18.662a39.909,39.909,0,0,1,.132-8.057l1.407-11.892q.077-.782.089-1.567a4.712,4.712,0,0,0,2.017.45c.146,0,.291-.006.434-.02-.015.278-.037.556-.063.834l-1.405,11.892a39.731,39.731,0,0,0-.132,8.057Z" transform="translate(-293.373 -154.374)" fill="#ffb29f"/>
        <path id="Trazado_1219221" data-name="Trazado 1219221" d="M289.432,53.255l-2.485-1.435a.871.871,0,0,1-.425-.891,8.622,8.622,0,0,0,0-2.65.87.87,0,0,1,.425-.89l2.485-1.436a.872.872,0,0,0,.319-1.192l-1.616-2.8a.873.873,0,0,0-1.192-.319l-2.487,1.436a.871.871,0,0,1-.985-.078,8.489,8.489,0,0,0-2.293-1.326.87.87,0,0,1-.558-.813v-2.87a.873.873,0,0,0-.873-.873h-3.233a.873.873,0,0,0-.873.873V40.86a.87.87,0,0,1-.558.813A8.5,8.5,0,0,0,272.789,43a.871.871,0,0,1-.985.078l-2.487-1.436a.873.873,0,0,0-1.192.319l-1.616,2.8a.873.873,0,0,0,.319,1.192l2.487,1.436a.871.871,0,0,1,.424.89,8.627,8.627,0,0,0,0,2.65.873.873,0,0,1-.424.891l-2.487,1.435a.873.873,0,0,0-.319,1.192l1.616,2.8a.873.873,0,0,0,1.192.319L271.8,56.13a.873.873,0,0,1,.985.078,8.5,8.5,0,0,0,2.294,1.326.87.87,0,0,1,.558.813v2.869a.873.873,0,0,0,.873.873h3.233a.874.874,0,0,0,.873-.873V58.347a.87.87,0,0,1,.558-.813,8.489,8.489,0,0,0,2.293-1.326.873.873,0,0,1,.985-.078l2.487,1.436a.873.873,0,0,0,1.192-.319l1.616-2.8a.872.872,0,0,0-.319-1.192Zm-11.3,1.09A4.741,4.741,0,1,1,282.87,49.6,4.74,4.74,0,0,1,278.131,54.344Z" transform="translate(-236.089 -33.508)" fill="#ffab56"/>
        <g id="Grupo_1241014" data-name="Grupo 1241014" transform="translate(39.553 8.016)">
          <path id="Trazado_1219222" data-name="Trazado 1219222" d="M356.072,85l-2.485-1.435a.871.871,0,0,1-.425-.891,8.623,8.623,0,0,0,0-2.65.87.87,0,0,1,.425-.89l2.485-1.436a.872.872,0,0,0,.319-1.192l-1.616-2.8a.873.873,0,0,0-1.192-.319L351.1,74.82a.872.872,0,0,1-.469.116,17.871,17.871,0,0,1,.777,5.331c0,5.5-3.89,8.145-9.123,9.918V92.96a.873.873,0,0,0,.873.873h3.232a.873.873,0,0,0,.873-.873V90.091a.87.87,0,0,1,.558-.813,8.524,8.524,0,0,0,2.293-1.327.875.875,0,0,1,.986-.078l2.486,1.437a.872.872,0,0,0,1.192-.321l1.616-2.8A.872.872,0,0,0,356.072,85Z" transform="translate(-342.282 -73.267)" fill="#ff982a"/>
        </g>
        <path id="Trazado_1219223" data-name="Trazado 1219223" d="M106.118,64.8h-1.531a.792.792,0,0,1-.755-.548,7.324,7.324,0,0,0-.456-1.1.792.792,0,0,1,.145-.923l1.082-1.084a.8.8,0,0,0,0-1.123L103.281,58.7a.792.792,0,0,0-1.123,0l-1.084,1.082a.793.793,0,0,1-.923.145,7.245,7.245,0,0,0-1.1-.456.792.792,0,0,1-.548-.754V57.184a.794.794,0,0,0-.795-.794H95.838a.794.794,0,0,0-.794.794v1.531a.794.794,0,0,1-.548.754,7.263,7.263,0,0,0-1.1.456.793.793,0,0,1-.923-.145L91.39,58.7a.792.792,0,0,0-1.123,0L88.945,60.02a.792.792,0,0,0,0,1.123l1.082,1.084a.792.792,0,0,1,.144.923,7.452,7.452,0,0,0-.456,1.1.79.79,0,0,1-.755.548h-1.53a.8.8,0,0,0-.795.795v1.87a.8.8,0,0,0,.795.795h1.53a.792.792,0,0,1,.755.548,7.521,7.521,0,0,0,.456,1.1.793.793,0,0,1-.144.923l-1.082,1.082a.792.792,0,0,0,0,1.123l1.323,1.323a.792.792,0,0,0,1.123,0l1.082-1.082a.8.8,0,0,1,.923-.145,7.4,7.4,0,0,0,1.1.457.791.791,0,0,1,.548.753V75.87a.8.8,0,0,0,.794.795h1.871a.8.8,0,0,0,.795-.795V74.339a.789.789,0,0,1,.548-.753,7.376,7.376,0,0,0,1.1-.457.794.794,0,0,1,.923.145l1.084,1.082a.792.792,0,0,0,1.123,0l1.323-1.323a.8.8,0,0,0,0-1.123l-1.082-1.082a.793.793,0,0,1-.145-.923,7.391,7.391,0,0,0,.456-1.1.794.794,0,0,1,.755-.548h1.531a.794.794,0,0,0,.793-.795v-1.87A.794.794,0,0,0,106.118,64.8Zm-9.343,5.755a4.025,4.025,0,1,1,4.025-4.025A4.024,4.024,0,0,1,96.774,70.552Z" transform="translate(-78.243 -50.431)" fill="#00b8ff"/>
        <path id="Trazado_1219224" data-name="Trazado 1219224" d="M167.489,80.532V82.4a.794.794,0,0,1-.793.795h-1.531a.794.794,0,0,0-.754.548,7.39,7.39,0,0,1-.456,1.1.793.793,0,0,0,.145.923l1.082,1.082a.8.8,0,0,1,0,1.123L163.859,89.3a.792.792,0,0,1-1.123,0l-1.084-1.084a.8.8,0,0,0-.924-.145,7.381,7.381,0,0,1-1.1.457.789.789,0,0,0-.548.753V90.81a.8.8,0,0,1-.795.795h-1.871a.8.8,0,0,1-.793-.795V89.326c4.128-1.025,7.588-3.834,7.529-9.16a10.065,10.065,0,0,0-1.889-5.233.8.8,0,0,0,.39-.213l1.084-1.082a.792.792,0,0,1,1.123,0l1.322,1.322a.8.8,0,0,1,0,1.123L164.1,77.166a.792.792,0,0,0-.145.923,7.323,7.323,0,0,1,.456,1.1.792.792,0,0,0,.754.548H166.7A.794.794,0,0,1,167.489,80.532Z" transform="translate(-138.82 -65.371)" fill="#00a8ff"/>
      </g>
      <g id="Grupo_1241016" data-name="Grupo 1241016" transform="translate(10.27 0)">
        <path id="Trazado_1219225" data-name="Trazado 1219225" d="M37.041,42.874a.914.914,0,0,0-1.29.08l-1.82,2.059a8.164,8.164,0,0,1-6.115,2.757H18.794a1.211,1.211,0,0,1-1.2-1.078l-.623-5.616a.914.914,0,0,0-.909-.813H12.415a.315.315,0,0,1-.3-.4,56.741,56.741,0,0,0,2.175-10.539c.134-1.726.358-5.174.479-7.077a27.838,27.838,0,0,1,1.208-7.866A19.025,19.025,0,0,1,41.561,3.455.914.914,0,1,0,42.3,1.784,20.851,20.851,0,0,0,19.412,5.821a20.884,20.884,0,0,0-4.969,7.433,28.567,28.567,0,0,0-1.5,8.877c-.121,1.9-.344,5.336-.477,7.051a55.189,55.189,0,0,1-2.112,10.187,2.143,2.143,0,0,0,2.064,2.722h2.824l.533,4.8a3.037,3.037,0,0,0,3.022,2.7h9.022A9.994,9.994,0,0,0,33.3,47.957L31.145,61.346a.914.914,0,0,0,.758,1.047.926.926,0,0,0,1.047-.758l2.5-15.568c0-.007,0-.015,0-.022l1.662-1.881a.914.914,0,0,0-.08-1.29Z" transform="translate(-10.27 0)"/>
        <path id="Trazado_1219226" data-name="Trazado 1219226" d="M321.962,93.169a5.654,5.654,0,1,0,5.654,5.654A5.661,5.661,0,0,0,321.962,93.169Zm0,9.48a3.826,3.826,0,1,1,3.826-3.826A3.83,3.83,0,0,1,321.962,102.649Z" transform="translate(-279.007 -81.813)"/>
        <path id="Trazado_1219227" data-name="Trazado 1219227" d="M274.953,51.793a9.391,9.391,0,0,0,2.491-1.44l2.461,1.421a1.789,1.789,0,0,0,2.441-.654l1.616-2.8a1.787,1.787,0,0,0-.654-2.441l-2.461-1.421a9.516,9.516,0,0,0,0-2.877l2.461-1.421a1.787,1.787,0,0,0,.654-2.441l-1.616-2.8a1.789,1.789,0,0,0-2.441-.654l-2.461,1.421a9.38,9.38,0,0,0-2.491-1.44v-2.84a1.789,1.789,0,0,0-1.787-1.787h-3.233a1.789,1.789,0,0,0-1.787,1.787v2.079a20.481,20.481,0,0,0-3.728-3.5.914.914,0,0,0-1.076,1.478,18.664,18.664,0,0,1,3.551,3.382,9.408,9.408,0,0,0-1.238.844l-2.462-1.421a1.789,1.789,0,0,0-2.441.654l-1.616,2.8a1.789,1.789,0,0,0,.654,2.441l2.461,1.421a9.515,9.515,0,0,0,0,2.877l-2.461,1.421a1.789,1.789,0,0,0-.654,2.441l1.616,2.8a1.787,1.787,0,0,0,2.441.654l2.462-1.421a9.381,9.381,0,0,0,2.49,1.44v2.84a1.789,1.789,0,0,0,1.787,1.787h.14l-.466,3.939a40.809,40.809,0,0,0-.135,8.242l1.618,18.977a.914.914,0,0,0,.91.836q.039,0,.079,0a.914.914,0,0,0,.833-.988l-1.618-18.977a38.972,38.972,0,0,1,.129-7.872l.491-4.154h1.252a1.789,1.789,0,0,0,1.787-1.787v-2.84Zm-.684-1.7a1.8,1.8,0,0,0-1.145,1.667v2.828h-3.15V51.764A1.8,1.8,0,0,0,268.83,50.1a7.56,7.56,0,0,1-2.046-1.183,1.8,1.8,0,0,0-2.017-.159l-2.451,1.415-1.575-2.728,2.45-1.415a1.8,1.8,0,0,0,.871-1.824,7.675,7.675,0,0,1,0-2.367,1.8,1.8,0,0,0-.871-1.824l-2.45-1.415,1.575-2.728,2.451,1.415a1.8,1.8,0,0,0,2.017-.159,7.556,7.556,0,0,1,2.046-1.183,1.8,1.8,0,0,0,1.144-1.666V31.449h3.15v2.828a1.8,1.8,0,0,0,1.145,1.667,7.561,7.561,0,0,1,2.046,1.183,1.8,1.8,0,0,0,2.017.159l2.451-1.415,1.575,2.728-2.45,1.415a1.8,1.8,0,0,0-.871,1.824,7.677,7.677,0,0,1,0,2.366,1.8,1.8,0,0,0,.871,1.824l2.45,1.415-1.575,2.728-2.451-1.415a1.8,1.8,0,0,0-2.017.159A7.56,7.56,0,0,1,274.269,50.1Z" transform="translate(-228.594 -26.011)"/>
        <path id="Trazado_1219228" data-name="Trazado 1219228" d="M134.227,99.033a4.943,4.943,0,0,0-4.749,6.3.914.914,0,0,0,1.758-.5,3.106,3.106,0,1,1,2.356,2.187.914.914,0,1,0-.371,1.79,4.94,4.94,0,1,0,1.006-9.776Z" transform="translate(-114.781 -86.962)"/>
        <path id="Trazado_1219229" data-name="Trazado 1219229" d="M101.241,59a1.711,1.711,0,0,0-1.709-1.709H98.09a8.311,8.311,0,0,0-.445-1.073l1.02-1.02a1.711,1.711,0,0,0,0-2.417l-1.322-1.322a1.709,1.709,0,0,0-2.416,0l-1.02,1.02a8.321,8.321,0,0,0-1.073-.445V50.595a1.711,1.711,0,0,0-1.709-1.709h-1.87a1.711,1.711,0,0,0-1.709,1.709v1.442a8.3,8.3,0,0,0-1.073.445l-1.02-1.02a1.709,1.709,0,0,0-2.417,0l-1.322,1.322a1.711,1.711,0,0,0,0,2.417l1.02,1.02a8.286,8.286,0,0,0-.445,1.073H80.847A1.711,1.711,0,0,0,79.138,59v1.87a1.711,1.711,0,0,0,1.709,1.709h1.442a8.3,8.3,0,0,0,.445,1.073l-1.02,1.02a1.711,1.711,0,0,0,0,2.417l1.322,1.322a1.711,1.711,0,0,0,2.416,0l1.02-1.02a8.3,8.3,0,0,0,1.073.445v1.442a1.711,1.711,0,0,0,1.709,1.709h1.87a1.711,1.711,0,0,0,1.709-1.709V67.838a8.29,8.29,0,0,0,1.073-.445l1.02,1.02a1.711,1.711,0,0,0,2.416,0l1.322-1.322a1.711,1.711,0,0,0,0-2.417l-1.02-1.02a8.265,8.265,0,0,0,.445-1.073h1.442a1.711,1.711,0,0,0,1.709-1.709V59Zm-1.828,1.75H98a1.7,1.7,0,0,0-1.625,1.183,6.467,6.467,0,0,1-.4.963,1.7,1.7,0,0,0,.312,1.987l1,1-1.153,1.153-1-1a1.7,1.7,0,0,0-1.987-.312,6.454,6.454,0,0,1-.963.4,1.7,1.7,0,0,0-1.183,1.625v1.41H89.375v-1.41a1.7,1.7,0,0,0-1.183-1.625,6.458,6.458,0,0,1-.963-.4,1.7,1.7,0,0,0-1.987.312l-1,1-1.153-1.153,1-1A1.7,1.7,0,0,0,84.4,62.9a6.452,6.452,0,0,1-.4-.963,1.7,1.7,0,0,0-1.625-1.183h-1.41V59.122h1.41A1.7,1.7,0,0,0,84,57.94a6.468,6.468,0,0,1,.4-.963,1.7,1.7,0,0,0-.312-1.987l-1-1,1.153-1.153,1,1a1.7,1.7,0,0,0,1.987.312,6.47,6.47,0,0,1,.963-.4,1.7,1.7,0,0,0,1.183-1.625v-1.41h1.631v1.41a1.7,1.7,0,0,0,1.183,1.625,6.478,6.478,0,0,1,.963.4,1.7,1.7,0,0,0,1.987-.312l1-1,1.153,1.153-1,1a1.7,1.7,0,0,0-.312,1.987,6.452,6.452,0,0,1,.4.963A1.7,1.7,0,0,0,98,59.122h1.41Z" transform="translate(-70.744 -42.928)"/>
        <path id="Trazado_1219230" data-name="Trazado 1219230" d="M360.752,2.239a15.283,15.283,0,0,1,1.716.157.914.914,0,1,0,.27-1.808,17.133,17.133,0,0,0-1.922-.176.914.914,0,1,0-.064,1.827Z" transform="translate(-317.259 -0.361)"/>
        <path id="Trazado_1219231" data-name="Trazado 1219231" d="M404.282,11.31a15.157,15.157,0,0,1,1.563.725.914.914,0,0,0,.863-1.612,16.971,16.971,0,0,0-1.752-.813.914.914,0,1,0-.673,1.7Z" transform="translate(-355.751 -8.382)"/>
        <path id="Trazado_1219232" data-name="Trazado 1219232" d="M442.229,34.5a15.309,15.309,0,0,1,1.231,1.207.914.914,0,0,0,1.352-1.231,17.14,17.14,0,0,0-1.378-1.351.914.914,0,1,0-1.2,1.376Z" transform="translate(-389.306 -28.887)"/>
        <path id="Trazado_1219233" data-name="Trazado 1219233" d="M485.076,110.912a15.242,15.242,0,0,1,.191,1.712.914.914,0,0,0,.912.864h.051a.914.914,0,0,0,.863-.963,17.091,17.091,0,0,0-.214-1.918.914.914,0,0,0-1.8.306Z" transform="translate(-427.193 -96.457)"/>
        <path id="Trazado_1219234" data-name="Trazado 1219234" d="M471.008,70.557a.914.914,0,0,0,1.686-.708,17,17,0,0,0-.848-1.734.914.914,0,1,0-1.594.9A15.163,15.163,0,0,1,471.008,70.557Z" transform="translate(-414.084 -59.403)"/>
        <path id="Trazado_1219235" data-name="Trazado 1219235" d="M431.535,231.7a15.3,15.3,0,0,1-1.362,1.056.914.914,0,1,0,1.036,1.506,17.124,17.124,0,0,0,1.525-1.182.914.914,0,0,0-1.2-1.379Z" transform="translate(-378.646 -203.266)"/>
        <path id="Trazado_1219236" data-name="Trazado 1219236" d="M483.094,154.63a.915.915,0,0,0-1.056.745,15.091,15.091,0,0,1-.39,1.679.914.914,0,1,0,1.754.515,16.944,16.944,0,0,0,.437-1.883A.914.914,0,0,0,483.094,154.63Z" transform="translate(-424.162 -135.771)"/>
        <path id="Trazado_1219237" data-name="Trazado 1219237" d="M316.407,5.007a.916.916,0,0,0,.276-.043,15.087,15.087,0,0,1,1.669-.424A.914.914,0,1,0,318,2.746a16.9,16.9,0,0,0-1.873.475.914.914,0,0,0,.275,1.786Z" transform="translate(-278.291 -2.396)"/>
        <path id="Trazado_1219238" data-name="Trazado 1219238" d="M464.193,196.916a.914.914,0,0,0-1.246.346,15.289,15.289,0,0,1-.932,1.45.914.914,0,1,0,1.479,1.075,17.046,17.046,0,0,0,1.045-1.624A.914.914,0,0,0,464.193,196.916Z" transform="translate(-406.801 -172.811)"/>
        <path id="Trazado_1219239" data-name="Trazado 1219239" d="M391.435,254.769a15.07,15.07,0,0,1-1.636.537.914.914,0,1,0,.47,1.767,16.931,16.931,0,0,0,1.835-.6.914.914,0,1,0-.669-1.7Z" transform="translate(-342.943 -223.661)"/>
      </g>
    </g>
  </g>
</svg>
