<svg xmlns="http://www.w3.org/2000/svg" xmlns:xlink="http://www.w3.org/1999/xlink" width="113" height="113" viewBox="0 0 113 113">
  <defs>
    <filter id="Trazado_982547" x="0" y="0" width="113" height="113" filterUnits="userSpaceOnUse">
      <feOffset dy="3" input="SourceAlpha"/>
      <feGaussianBlur stdDeviation="3" result="blur"/>
      <feFlood flood-opacity="0.161"/>
      <feComposite operator="in" in2="blur"/>
      <feComposite in="SourceGraphic"/>
    </filter>
  </defs>
  <g id="Grupo_1241020" data-name="Grupo 1241020" transform="translate(-846.371 -12773.168)">
    <g id="Grupo_1240428" data-name="Grupo 1240428" transform="translate(855.371 12779.168)">
      <g id="Grupo_1239772" data-name="Grupo 1239772">
        <g id="Grupo_1236602" data-name="Grupo 1236602">
          <g id="Grupo_1236144" data-name="Grupo 1236144">
            <g id="Grupo_1235105" data-name="Grupo 1235105" transform="translate(0 0)">
              <g id="Grupo_1223793" data-name="Grupo 1223793">
                <g id="Grupo_1208028" data-name="Grupo 1208028">
                  <g id="Grupo_1177675" data-name="Grupo 1177675">
                    <g id="Grupo_1176928" data-name="Grupo 1176928">
                      <g id="Grupo_1172322" data-name="Grupo 1172322">
                        <g id="Grupo_1164700" data-name="Grupo 1164700">
                          <g id="Grupo_1160931" data-name="Grupo 1160931">
                            <g id="Grupo_1160749" data-name="Grupo 1160749">
                              <g id="Grupo_1158891" data-name="Grupo 1158891">
                                <g id="Grupo_1157406" data-name="Grupo 1157406">
                                  <g id="Grupo_1155793" data-name="Grupo 1155793">
                                    <g id="Grupo_1154704" data-name="Grupo 1154704">
                                      <g id="Grupo_1150790" data-name="Grupo 1150790">
                                        <g id="Grupo_1154214" data-name="Grupo 1154214">
                                          <g id="Grupo_1152583" data-name="Grupo 1152583">
                                            <g id="Grupo_1146973" data-name="Grupo 1146973">
                                              <g id="Grupo_1146954" data-name="Grupo 1146954">
                                                <g transform="matrix(1, 0, 0, 1, -9, -6)" filter="url(#Trazado_982547)">
                                                  <g id="Trazado_982547-2" data-name="Trazado 982547" transform="translate(9 6)" fill="#d9d5e3">
                                                    <path d="M 47.5000114440918 93.49987030029297 C 41.28938293457031 93.49987030029297 35.26534652709961 92.28384399414062 29.5951976776123 89.88558959960938 C 24.11773109436035 87.56881713867188 19.19814491271973 84.25183868408203 14.97310447692871 80.02680206298828 C 10.74805164337158 75.80176544189453 7.43107795715332 70.88218688964844 5.114304542541504 65.40472412109375 C 2.716038227081299 59.73458862304688 1.500011444091797 53.71054840087891 1.500011444091797 47.49993515014648 C 1.500011444091797 41.28932189941406 2.716038227081299 35.26528167724609 5.114304542541504 29.59514808654785 C 7.43107795715332 24.1176815032959 10.74805164337158 19.1981086730957 14.97310447692871 14.97306823730469 C 19.19814491271973 10.74802875518799 24.11773109436035 7.431055068969727 29.5951976776123 5.11428165435791 C 35.26534652709961 2.716028451919556 41.28938293457031 1.500001788139343 47.5000114440918 1.500001788139343 C 53.71063995361328 1.500001788139343 59.73467636108398 2.716028451919556 65.40482330322266 5.11428165435791 C 70.88229370117188 7.431055068969727 75.8018798828125 10.74802875518799 80.02691650390625 14.97306823730469 C 84.25196838378906 19.1981086730957 87.56894683837891 24.1176815032959 89.88571929931641 29.59514808654785 C 92.28398132324219 35.26528167724609 93.50001525878906 41.28932189941406 93.50001525878906 47.49993515014648 C 93.50001525878906 53.71054840087891 92.28398132324219 59.73458862304688 89.88571929931641 65.40472412109375 C 87.56894683837891 70.88218688964844 84.25196838378906 75.80176544189453 80.02691650390625 80.02680206298828 C 75.8018798828125 84.25183868408203 70.88229370117188 87.56881713867188 65.40482330322266 89.88558959960938 C 59.73467636108398 92.28384399414062 53.71063995361328 93.49987030029297 47.5000114440918 93.49987030029297 Z" stroke="none"/>
                                                    <path d="M 47.5000114440918 3 C 41.49122619628906 3 35.66378021240234 4.1761474609375 30.17951965332031 6.495796203613281 C 24.880859375 8.7369384765625 20.12153625488281 11.94596862792969 16.03376770019531 16.03373718261719 C 11.94598388671875 20.12149047851562 8.736968994140625 24.88081359863281 6.495811462402344 30.17947387695312 C 4.176162719726562 35.66371917724609 3.000007629394531 41.49116516113281 3.000007629394531 47.49993515014648 C 3.000007629394531 53.50870513916016 4.176162719726562 59.33615112304688 6.495811462402344 64.82039642333984 C 8.736968994140625 70.11905670166016 11.94598388671875 74.87837982177734 16.03376770019531 78.96613311767578 C 20.12153625488281 83.05390167236328 24.880859375 86.26293182373047 30.17951965332031 88.50407409667969 C 35.66378021240234 90.82372283935547 41.49122619628906 91.99987030029297 47.5000114440918 91.99987030029297 C 53.50879669189453 91.99987030029297 59.33624267578125 90.82372283935547 64.82050323486328 88.50407409667969 C 70.11916351318359 86.26293182373047 74.87848663330078 83.05390167236328 78.96625518798828 78.96613311767578 C 83.05403900146484 74.87837982177734 86.2630615234375 70.11905670166016 88.50421142578125 64.82039642333984 C 90.82386016845703 59.33615112304688 92.00001525878906 53.50870513916016 92.00001525878906 47.49993515014648 C 92.00001525878906 41.49116516113281 90.82386016845703 35.66371917724609 88.50421142578125 30.17947387695312 C 86.2630615234375 24.88081359863281 83.05403900146484 20.12149047851562 78.96625518798828 16.03373718261719 C 74.87848663330078 11.94596862792969 70.11916351318359 8.7369384765625 64.82050323486328 6.495796203613281 C 59.33624267578125 4.1761474609375 53.50879669189453 3 47.5000114440918 3 M 47.5000114440918 0 C 73.73353576660156 0 95.00001525878906 21.26644134521484 95.00001525878906 47.49993515014648 C 95.00001525878906 73.73342895507812 73.73353576660156 94.99987030029297 47.5000114440918 94.99987030029297 C 21.26648712158203 94.99987030029297 7.62939453125e-06 73.73342895507812 7.62939453125e-06 47.49993515014648 C 7.62939453125e-06 21.26644134521484 21.26648712158203 0 47.5000114440918 0 Z" stroke="none" fill="#453179"/>
                                                  </g>
                                                </g>
                                              </g>
                                            </g>
                                          </g>
                                        </g>
                                      </g>
                                    </g>
                                  </g>
                                </g>
                              </g>
                            </g>
                          </g>
                        </g>
                      </g>
                    </g>
                  </g>
                </g>
              </g>
            </g>
          </g>
        </g>
      </g>
    </g>
    <g id="libro_7_" data-name="libro (7)" transform="translate(871.98 12775.882)">
      <g id="Grupo_1241018" data-name="Grupo 1241018" transform="translate(1.209 23.835)">
        <path id="Trazado_1219240" data-name="Trazado 1219240" d="M42.014,85.958H11.451c-1.44.525-1.431,2.624-1.431,4.172v37.395a3.65,3.65,0,0,0,3.94,3.661l23.317-.013a2.431,2.431,0,0,0,4.848,0Z" transform="translate(-10.02 -79.525)" fill="#d1aee4"/>
        <path id="Trazado_1219241" data-name="Trazado 1219241" d="M53.357,55.275a1.825,1.825,0,0,0-1.676,1.818v39.79A1.824,1.824,0,0,0,53.655,98.7l22.8-.1.406-43.33h-23.5Z" transform="translate(-46.654 -52.544)" fill="#fffbdf"/>
        <path id="Trazado_1219242" data-name="Trazado 1219242" d="M284.433,55.672c2.934-5.456-1.719-7.741-1.719-7.741a5.376,5.376,0,0,0-3.254-5.7c0-8.214-7.339-5.945-7.339-5.945-2.1-4.286-7.256-3.339-7.256-3.339-.305-.305-1.355-.305-1.355-.305a6.691,6.691,0,0,0-6.53,6.842V76.722c0,3.779,1.051,8.754,6.53,8.754,3.87-.211,5.123-3.059,5.74-4.136,8.729,3.079,8.681-5.875,8.681-5.875,8.814-1.524,4.9-10.018,4.9-10.018C289.831,62.24,284.433,55.672,284.433,55.672Z" transform="translate(-227.181 -32.644)" fill="#ff9eb1"/>
      </g>
      <g id="Grupo_1241019" data-name="Grupo 1241019" transform="translate(0 22.626)">
        <circle id="Elipse_12806" data-name="Elipse 12806" cx="1.214" cy="1.214" r="1.214" transform="translate(29.795 24.991)"/>
        <path id="Trazado_1219243" data-name="Trazado 1219243" d="M61.78,51.292a6.884,6.884,0,0,0-1.723-4.559,6.065,6.065,0,0,0-2-8.289c.009-.132.014-.264.014-.4a6.039,6.039,0,0,0-3.259-5.377c.008-.133.013-.267.013-.4a6.478,6.478,0,0,0-8.075-6.278,6.752,6.752,0,0,0-7.44-3,3.922,3.922,0,0,0-1.81-.369,7.56,7.56,0,0,0-5.784,2.731H7.885q-.049,0-.1,0a3.042,3.042,0,0,0-2.781,3.016v1.48H3.385A3.389,3.389,0,0,0,0,33.242V72.176a4.963,4.963,0,0,0,5.2,4.83H27.67a3.642,3.642,0,0,0,6.419.038,7.41,7.41,0,0,0,3.41.831,7.651,7.651,0,0,0,6.621-3.927A6.913,6.913,0,0,0,53.2,67.791a7.182,7.182,0,0,0,5.237-10.583,6.916,6.916,0,0,0,3.34-5.916ZM32.053,75.687a1.225,1.225,0,0,1-2.327,0,1.715,1.715,0,0,0-1.261-1.1H5.149a2.583,2.583,0,0,1-2.731-2.412V33.242a.968.968,0,0,1,.967-.967H5.007V68.181A3.225,3.225,0,0,0,8.226,71.2H29.908A8.107,8.107,0,0,0,32.1,75.568a1.238,1.238,0,0,0-.046.118Zm22.813-19.9a1.209,1.209,0,1,0,0,2.418,6.913,6.913,0,0,0,1.282-.121,4.764,4.764,0,0,1-3.228,7.3A6.928,6.928,0,0,0,46.3,60.474a1.492,1.492,0,0,0-.166.008,1.209,1.209,0,0,0,.184,2.41,4.5,4.5,0,0,1,4.44,3.921,4.431,4.431,0,0,1,.037.575,4.5,4.5,0,0,1-5.8,4.3,8.307,8.307,0,0,0,.2-1.825,1.209,1.209,0,1,0-2.418,0,5.291,5.291,0,1,1-10.564,0V54.3a1.209,1.209,0,1,0-2.418,0V68.783H8.182c-.353,0-.757-.165-.757-.6v-39.8a.611.611,0,0,1,.523-.6H30.309a8.252,8.252,0,0,0-.51,2.861V43.408a1.209,1.209,0,1,0,2.418,0V30.636a5.586,5.586,0,0,1,3.562-5.286A1.209,1.209,0,0,0,37.8,26.6,4.344,4.344,0,1,1,43,33.4a1.209,1.209,0,1,0,1.118,2.144,6.774,6.774,0,0,0,3.521-7.27,4.061,4.061,0,0,1,4.772,4A4.06,4.06,0,0,1,49.948,36a1.209,1.209,0,1,0,.955,2.221,6.5,6.5,0,0,0,3.266-3.115,3.633,3.633,0,0,1,1.483,2.938,3.7,3.7,0,0,1-.09.811,1.223,1.223,0,0,0,.712,1.38A3.648,3.648,0,0,1,58.14,45.2a6.87,6.87,0,0,0-3.274-.826,1.209,1.209,0,1,0,0,2.418,4.5,4.5,0,1,1,0,8.991Z" transform="translate(0 -22.626)"/>
        <path id="Trazado_1219244" data-name="Trazado 1219244" d="M297.6,113.407a1.209,1.209,0,1,0,1.276-2.054,3.121,3.121,0,0,1-1-4.294,1.209,1.209,0,0,0-2.054-1.276,5.542,5.542,0,0,0,1.782,7.623Z" transform="translate(-259.394 -95.247)"/>
        <path id="Trazado_1219245" data-name="Trazado 1219245" d="M295.336,322.537a2.255,2.255,0,0,1-3.13-.6,1.209,1.209,0,0,0-2,1.359,4.674,4.674,0,0,0,6.489,1.237,1.209,1.209,0,1,0-1.359-2Z" transform="translate(-255.005 -285.358)"/>
        <path id="Trazado_1219246" data-name="Trazado 1219246" d="M309.44,226.876c.793,1.476,2.834.167,2.13-1.144a2.255,2.255,0,0,1,.918-3.051,1.209,1.209,0,1,0-1.144-2.13A4.676,4.676,0,0,0,309.44,226.876Z" transform="translate(-271.613 -196.541)"/>
        <path id="Trazado_1219247" data-name="Trazado 1219247" d="M389.475,245.734a2.253,2.253,0,0,1-1.5-2.81,1.209,1.209,0,1,0-2.314-.7,4.67,4.67,0,0,0,3.113,5.826A1.21,1.21,0,0,0,389.475,245.734Z" transform="translate(-338.945 -214.97)"/>
        <path id="Trazado_1219248" data-name="Trazado 1219248" d="M376.11,159.378a1.209,1.209,0,0,0,.351-2.366,2.256,2.256,0,0,1-1.5-2.81,1.209,1.209,0,0,0-2.314-.7,4.676,4.676,0,0,0,3.113,5.826A1.206,1.206,0,0,0,376.11,159.378Z" transform="translate(-327.503 -136.953)"/>
        <path id="Trazado_1219249" data-name="Trazado 1219249" d="M102.088,123.336H88.19a1.209,1.209,0,0,0,0,2.418h13.9a1.209,1.209,0,0,0,0-2.418Z" transform="translate(-76.485 -111.184)"/>
        <path id="Trazado_1219250" data-name="Trazado 1219250" d="M102.088,169.187H88.19a1.209,1.209,0,1,0,0,2.418h13.9a1.209,1.209,0,1,0,0-2.418Z" transform="translate(-76.485 -151.502)"/>
        <path id="Trazado_1219251" data-name="Trazado 1219251" d="M102.088,215.038H88.19a1.209,1.209,0,0,0,0,2.418h13.9a1.209,1.209,0,0,0,0-2.418Z" transform="translate(-76.485 -191.821)"/>
        <path id="Trazado_1219252" data-name="Trazado 1219252" d="M102.088,260.889H88.19a1.209,1.209,0,1,0,0,2.418h13.9a1.209,1.209,0,1,0,0-2.418Z" transform="translate(-76.485 -232.139)"/>
        <path id="Trazado_1219253" data-name="Trazado 1219253" d="M102.088,306.741H88.19a1.209,1.209,0,1,0,0,2.418h13.9a1.209,1.209,0,1,0,0-2.418Z" transform="translate(-76.485 -272.458)"/>
      </g>
    </g>
  </g>
</svg>
