<svg xmlns="http://www.w3.org/2000/svg" xmlns:xlink="http://www.w3.org/1999/xlink" width="113" height="113" viewBox="0 0 113 113">
  <defs>
    <filter id="Trazado_982547" x="0" y="0" width="113" height="113" filterUnits="userSpaceOnUse">
      <feOffset dy="3" input="SourceAlpha"/>
      <feGaussianBlur stdDeviation="3" result="blur"/>
      <feFlood flood-opacity="0.161"/>
      <feComposite operator="in" in2="blur"/>
      <feComposite in="SourceGraphic"/>
    </filter>
  </defs>
  <g id="Grupo_1241029" data-name="Grupo 1241029" transform="translate(-1161.517 -12773.167)">
    <g id="Grupo_1240429" data-name="Grupo 1240429" transform="translate(1170.517 12779.167)">
      <g id="Grupo_1239780" data-name="Grupo 1239780">
        <g id="Grupo_1236603" data-name="Grupo 1236603">
          <g id="Grupo_1236145" data-name="Grupo 1236145">
            <g id="Grupo_1235107" data-name="Grupo 1235107" transform="translate(0 0)">
              <g id="Grupo_1223796" data-name="Grupo 1223796">
                <g id="Grupo_1208038" data-name="Grupo 1208038">
                  <g id="Grupo_1202104" data-name="Grupo 1202104">
                    <g id="Grupo_1201923" data-name="Grupo 1201923">
                      <g id="Grupo_1176928" data-name="Grupo 1176928">
                        <g id="Grupo_1172322" data-name="Grupo 1172322">
                          <g id="Grupo_1164700" data-name="Grupo 1164700">
                            <g id="Grupo_1160931" data-name="Grupo 1160931">
                              <g id="Grupo_1160749" data-name="Grupo 1160749">
                                <g id="Grupo_1158891" data-name="Grupo 1158891">
                                  <g id="Grupo_1157406" data-name="Grupo 1157406">
                                    <g id="Grupo_1155793" data-name="Grupo 1155793">
                                      <g id="Grupo_1154704" data-name="Grupo 1154704">
                                        <g id="Grupo_1150790" data-name="Grupo 1150790">
                                          <g id="Grupo_1154214" data-name="Grupo 1154214">
                                            <g id="Grupo_1152583" data-name="Grupo 1152583">
                                              <g id="Grupo_1146973" data-name="Grupo 1146973">
                                                <g id="Grupo_1146954" data-name="Grupo 1146954">
                                                  <g transform="matrix(1, 0, 0, 1, -9, -6)" filter="url(#Trazado_982547)">
                                                    <g id="Trazado_982547-2" data-name="Trazado 982547" transform="translate(9 6)" fill="#d9d5e3">
                                                      <path d="M 47.5000114440918 93.49987030029297 C 41.28938293457031 93.49987030029297 35.26534652709961 92.28384399414062 29.5951976776123 89.88558959960938 C 24.11773109436035 87.56881713867188 19.19814491271973 84.25183868408203 14.97310447692871 80.02680206298828 C 10.74805164337158 75.80176544189453 7.43107795715332 70.88218688964844 5.114304542541504 65.40472412109375 C 2.716038227081299 59.73458862304688 1.500011444091797 53.71054840087891 1.500011444091797 47.49993515014648 C 1.500011444091797 41.28932189941406 2.716038227081299 35.26528167724609 5.114304542541504 29.59514808654785 C 7.43107795715332 24.1176815032959 10.74805164337158 19.1981086730957 14.97310447692871 14.97306823730469 C 19.19814491271973 10.74802875518799 24.11773109436035 7.431055068969727 29.5951976776123 5.11428165435791 C 35.26534652709961 2.716028451919556 41.28938293457031 1.500001788139343 47.5000114440918 1.500001788139343 C 53.71063995361328 1.500001788139343 59.73467636108398 2.716028451919556 65.40482330322266 5.11428165435791 C 70.88229370117188 7.431055068969727 75.8018798828125 10.74802875518799 80.02691650390625 14.97306823730469 C 84.25196838378906 19.1981086730957 87.56894683837891 24.1176815032959 89.88571929931641 29.59514808654785 C 92.28398132324219 35.26528167724609 93.50001525878906 41.28932189941406 93.50001525878906 47.49993515014648 C 93.50001525878906 53.71054840087891 92.28398132324219 59.73458862304688 89.88571929931641 65.40472412109375 C 87.56894683837891 70.88218688964844 84.25196838378906 75.80176544189453 80.02691650390625 80.02680206298828 C 75.8018798828125 84.25183868408203 70.88229370117188 87.56881713867188 65.40482330322266 89.88558959960938 C 59.73467636108398 92.28384399414062 53.71063995361328 93.49987030029297 47.5000114440918 93.49987030029297 Z" stroke="none"/>
                                                      <path d="M 47.5000114440918 3 C 41.49122619628906 3 35.66378021240234 4.1761474609375 30.17951965332031 6.495796203613281 C 24.880859375 8.7369384765625 20.12153625488281 11.94596862792969 16.03376770019531 16.03373718261719 C 11.94598388671875 20.12149047851562 8.736968994140625 24.88081359863281 6.495811462402344 30.17947387695312 C 4.176162719726562 35.66371917724609 3.000007629394531 41.49116516113281 3.000007629394531 47.49993515014648 C 3.000007629394531 53.50870513916016 4.176162719726562 59.33615112304688 6.495811462402344 64.82039642333984 C 8.736968994140625 70.11905670166016 11.94598388671875 74.87837982177734 16.03376770019531 78.96613311767578 C 20.12153625488281 83.05390167236328 24.880859375 86.26293182373047 30.17951965332031 88.50407409667969 C 35.66378021240234 90.82372283935547 41.49122619628906 91.99987030029297 47.5000114440918 91.99987030029297 C 53.50879669189453 91.99987030029297 59.33624267578125 90.82372283935547 64.82050323486328 88.50407409667969 C 70.11916351318359 86.26293182373047 74.87848663330078 83.05390167236328 78.96625518798828 78.96613311767578 C 83.05403900146484 74.87837982177734 86.2630615234375 70.11905670166016 88.50421142578125 64.82039642333984 C 90.82386016845703 59.33615112304688 92.00001525878906 53.50870513916016 92.00001525878906 47.49993515014648 C 92.00001525878906 41.49116516113281 90.82386016845703 35.66371917724609 88.50421142578125 30.17947387695312 C 86.2630615234375 24.88081359863281 83.05403900146484 20.12149047851562 78.96625518798828 16.03373718261719 C 74.87848663330078 11.94596862792969 70.11916351318359 8.7369384765625 64.82050323486328 6.495796203613281 C 59.33624267578125 4.1761474609375 53.50879669189453 3 47.5000114440918 3 M 47.5000114440918 0 C 73.73353576660156 0 95.00001525878906 21.26644134521484 95.00001525878906 47.49993515014648 C 95.00001525878906 73.73342895507812 73.73353576660156 94.99987030029297 47.5000114440918 94.99987030029297 C 21.26648712158203 94.99987030029297 7.62939453125e-06 73.73342895507812 7.62939453125e-06 47.49993515014648 C 7.62939453125e-06 21.26644134521484 21.26648712158203 0 47.5000114440918 0 Z" stroke="none" fill="#453179"/>
                                                    </g>
                                                  </g>
                                                </g>
                                              </g>
                                            </g>
                                          </g>
                                        </g>
                                      </g>
                                    </g>
                                  </g>
                                </g>
                              </g>
                            </g>
                          </g>
                        </g>
                      </g>
                    </g>
                  </g>
                </g>
              </g>
            </g>
          </g>
        </g>
      </g>
    </g>
    <g id="educacion_11_" data-name="educacion (11)" transform="translate(1187.735 12799.168)">
      <g id="Grupo_1241028" data-name="Grupo 1241028" transform="translate(3.922 0.805)">
        <g id="Grupo_1241027" data-name="Grupo 1241027" transform="translate(0)">
          <g id="Grupo_1241025" data-name="Grupo 1241025" transform="translate(0 20.421)">
            <g id="Grupo_1241021" data-name="Grupo 1241021" transform="translate(3.223)">
              <path id="Trazado_1219254" data-name="Trazado 1219254" d="M101.948,226.831H62.792a3,3,0,0,1,0-6h39.156A6.583,6.583,0,0,0,101.948,226.831Z" transform="translate(-57.734 -218.338)" fill="#f7f7f7"/>
              <path id="Trazado_1219255" data-name="Trazado 1219255" d="M126.854,220.834h-3.223a6.583,6.583,0,0,0,0,6h3.223A6.583,6.583,0,0,1,126.854,220.834Z" transform="translate(-82.64 -218.337)" fill="#efefef"/>
              <path id="Trazado_1219256" data-name="Trazado 1219256" d="M46.111,208.581a5.5,5.5,0,0,1-5.494-5.549,5.542,5.542,0,0,1,5.555-5.441h39.1a1.623,1.623,0,0,1,0,3.247H46.111a2.248,2.248,0,0,0,0,4.5H85.267a1.623,1.623,0,0,1,0,3.247Z" transform="translate(-40.617 -197.592)" fill="#ff815c"/>
            </g>
            <g id="Grupo_1241024" data-name="Grupo 1241024" transform="translate(0 10.989)">
              <g id="Grupo_1241022" data-name="Grupo 1241022" transform="translate(0 10.99)">
                <path id="Trazado_1219257" data-name="Trazado 1219257" d="M82.457,431.432h-45.6a3,3,0,0,1,0-6h45.6a6.583,6.583,0,0,0,0,6Z" transform="translate(-31.361 -422.939)" fill="#f7f7f7"/>
                <path id="Trazado_1219258" data-name="Trazado 1219258" d="M453.487,425.436h-3.223a6.583,6.583,0,0,0,0,6h3.223A6.582,6.582,0,0,1,453.487,425.436Z" transform="translate(-402.391 -422.939)" fill="#efefef"/>
                <path id="Trazado_1219259" data-name="Trazado 1219259" d="M16.111,413.182a5.5,5.5,0,0,1-5.494-5.549,5.542,5.542,0,0,1,5.555-5.441H61.713a1.623,1.623,0,0,1,0,3.247h-45.6a2.248,2.248,0,0,0,0,4.5h45.6a1.624,1.624,0,0,1,0,3.247h-45.6Z" transform="translate(-10.617 -402.193)" fill="#ffe66b"/>
              </g>
              <g id="Grupo_1241023" data-name="Grupo 1241023" transform="translate(0)">
                <path id="Trazado_1219260" data-name="Trazado 1219260" d="M25.729,323.135h45.6a3,3,0,0,1,0,6h-45.6a6.583,6.583,0,0,0,0-6Z" transform="translate(-24.106 -320.638)" fill="#f7f7f7"/>
                <path id="Trazado_1219261" data-name="Trazado 1219261" d="M12.24,310.881a1.623,1.623,0,0,1,0-3.247h45.6a2.248,2.248,0,0,0,0-4.5H12.24a1.624,1.624,0,0,1,0-3.247h45.6a5.5,5.5,0,0,1,5.494,5.549,5.542,5.542,0,0,1-5.555,5.441Z" transform="translate(-10.617 -299.892)" fill="#c9f0ff"/>
                <path id="Trazado_1219262" data-name="Trazado 1219262" d="M426.853,301.522a5.455,5.455,0,0,0-3.9-1.63h-3.223a5.5,5.5,0,0,1,5.494,5.549,5.542,5.542,0,0,1-5.555,5.441h3.223a5.542,5.542,0,0,0,5.555-5.441A5.457,5.457,0,0,0,426.853,301.522Z" transform="translate(-375.725 -299.892)" fill="#b5eaff"/>
              </g>
            </g>
          </g>
          <g id="Grupo_1241026" data-name="Grupo 1241026" transform="translate(1.344)">
            <path id="Trazado_1219263" data-name="Trazado 1219263" d="M146.076,107.433H116l3.223-10.851h23.633Z" transform="translate(-106.021 -87.012)" fill="#288a9a"/>
            <path id="Trazado_1219264" data-name="Trazado 1219264" d="M45.368,7.852,23.989,13.467a1.152,1.152,0,0,0,0,2.229l21.378,5.615a10.934,10.934,0,0,0,5.555,0L72.3,15.7a1.152,1.152,0,0,0,0-2.229L50.923,7.852a10.934,10.934,0,0,0-5.555,0Z" transform="translate(-23.13 -7.493)" fill="#3498ac"/>
            <path id="Trazado_1219265" data-name="Trazado 1219265" d="M230.083,13.467,208.7,7.852a10.934,10.934,0,0,0-5.555,0L199.9,8.7a10.936,10.936,0,0,1,4.507.221l21.378,5.615a1.152,1.152,0,0,1,0,2.229l4.3-1.074a1.152,1.152,0,0,0,0-2.229Z" transform="translate(-180.912 -7.493)" fill="#288a9a"/>
            <path id="Trazado_1219266" data-name="Trazado 1219266" d="M306.938,182.852H302.3s0-7,2.318-7S306.938,182.852,306.938,182.852Z" transform="translate(-272.311 -157.769)" fill="#ffe66b"/>
          </g>
        </g>
        <path id="Trazado_1219267" data-name="Trazado 1219267" d="M96.829,341.108,93,343.118v-13h3.832Z" transform="translate(-84.147 -295.46)" fill="#3498ac"/>
      </g>
      <path id="Trazado_1219268" data-name="Trazado 1219268" d="M243.623,44.81a2.985,2.985,0,0,1-3.186,0V42.52a1.593,1.593,0,1,1,3.186,0Z" transform="translate(-211.827 -36.531)" fill="#ffe66b"/>
      <path id="Trazado_1219269" data-name="Trazado 1219269" d="M55.287,50.157a5.8,5.8,0,0,1,0-2.915,2.43,2.43,0,0,0,.016-4.826,6.263,6.263,0,0,0,2.144-4.645,6.367,6.367,0,0,0-3.664-5.786,2.458,2.458,0,0,0-2.159-3.823,5.8,5.8,0,0,1,0-2.884c3.21.168,3.421-4.858.172-4.858H45.922l-2.3-7.739L54.642,9.787a1.971,1.971,0,0,0,0-3.787L33.264.384a11.761,11.761,0,0,0-5.964,0L19.35,2.472a.806.806,0,0,0,.409,1.559l7.949-2.088a10.149,10.149,0,0,1,5.146,0L54.233,7.558a.347.347,0,0,1,0,.67L37.78,12.55,32.6,7.854V5.989a2.4,2.4,0,0,0-4.8,0v2.29a.806.806,0,0,0,.384.686,3.771,3.771,0,0,0,3.528.261l4.2,3.811-3.065.805a10.149,10.149,0,0,1-5.146,0L6.33,8.228a.347.347,0,0,1,0-.67L15.682,5.1a.806.806,0,0,0-.409-1.559L5.921,6a1.971,1.971,0,0,0,0,3.787L16.94,12.681l-2.3,7.739H12.7a6.3,6.3,0,0,0-4.265,10.99H5.545a2.43,2.43,0,0,0-.269,4.843,5.789,5.789,0,0,1,0,2.915,2.43,2.43,0,0,0-.016,4.826A6.287,6.287,0,0,0,9.416,55h45.6a2.43,2.43,0,0,0,.269-4.843ZM30.99,7.784a2.132,2.132,0,0,1-1.574,0v-1.8a.787.787,0,0,1,1.574,0ZM51.147,36.268a1.442,1.442,0,0,1,0,2.884H17.409V36.268ZM15.8,45.965,13.577,47.13V36.268H15.8Zm-3.832-6.813H6.932a7.408,7.408,0,0,0,0-2.884h5.033Zm.389,10a.806.806,0,0,0,.791.024L16.8,47.258H53.631a7.426,7.426,0,0,0,0,2.884H9.416a1.442,1.442,0,0,1,0-2.884h2.55v1.2a.806.806,0,0,0,.389.689ZM49.972,28.163H12.639a1.442,1.442,0,0,1,0-2.884H34.463c-.02.574-.017,1.415.793,1.415h4.637c.812,0,.813-.841.793-1.415h9.287a7.426,7.426,0,0,0,0,2.884ZM37.574,19.7c.71,0,1.386,2.519,1.5,5.386H36.077c.111-2.867.787-5.386,1.5-5.386Zm15.039,3.153a.819.819,0,0,1-.818.818H40.579c-.053-.548-.123-1.094-.221-1.636H51.8a.819.819,0,0,1,.818.818ZM44.241,20.42H39.956a3.428,3.428,0,0,0-1.576-2.16v-4.2l3.685-.968ZM18.5,13.091,27.3,15.4a11.806,11.806,0,0,0,5.964,0l3.5-.921V18.26a3.427,3.427,0,0,0-1.576,2.16H16.322ZM9.309,30.018A4.656,4.656,0,0,1,7.95,26.674,4.734,4.734,0,0,1,12.7,22.031H34.79c-.1.542-.168,1.088-.221,1.636H12.639a3.053,3.053,0,0,0,0,6.107H51.8a.819.819,0,0,1,0,1.636H12.639a4.655,4.655,0,0,1-3.33-1.391Zm-4.581,3.82a.819.819,0,0,1,.818-.818h45.6a4.689,4.689,0,1,1-.061,9.378H46.861a.806.806,0,0,0,0,1.611h8.157a.818.818,0,0,1,0,1.636H17.409V44.01H42.614a.806.806,0,0,0,0-1.611H17.409V40.763H51.147a3.053,3.053,0,0,0,0-6.107H5.545a.818.818,0,0,1-.818-.818Zm.818,8.56a.818.818,0,0,1,0-1.636h6.421V42.4Zm49.473,10.99H9.416a4.694,4.694,0,0,1-4.688-4.735A4.734,4.734,0,0,1,9.477,44.01h2.489v1.636H9.416a3.053,3.053,0,0,0,0,6.107h45.6a.818.818,0,0,1,0,1.636Z"/>
    </g>
  </g>
</svg>
