<svg xmlns="http://www.w3.org/2000/svg" xmlns:xlink="http://www.w3.org/1999/xlink" width="113" height="113" viewBox="0 0 113 113">
  <defs>
    <filter id="Trazado_982547" x="0" y="0" width="113" height="113" filterUnits="userSpaceOnUse">
      <feOffset dy="3" input="SourceAlpha"/>
      <feGaussianBlur stdDeviation="3" result="blur"/>
      <feFlood flood-opacity="0.161"/>
      <feComposite operator="in" in2="blur"/>
      <feComposite in="SourceGraphic"/>
    </filter>
  </defs>
  <g id="Grupo_1241030" data-name="Grupo 1241030" transform="translate(-846.371 -13169.168)">
    <g id="Grupo_1240430" data-name="Grupo 1240430" transform="translate(855.371 13175.168)">
      <g id="Grupo_1239772" data-name="Grupo 1239772">
        <g id="Grupo_1236602" data-name="Grupo 1236602">
          <g id="Grupo_1236144" data-name="Grupo 1236144">
            <g id="Grupo_1235105" data-name="Grupo 1235105" transform="translate(0 0)">
              <g id="Grupo_1223793" data-name="Grupo 1223793">
                <g id="Grupo_1208028" data-name="Grupo 1208028">
                  <g id="Grupo_1177675" data-name="Grupo 1177675">
                    <g id="Grupo_1176928" data-name="Grupo 1176928">
                      <g id="Grupo_1172322" data-name="Grupo 1172322">
                        <g id="Grupo_1164700" data-name="Grupo 1164700">
                          <g id="Grupo_1160931" data-name="Grupo 1160931">
                            <g id="Grupo_1160749" data-name="Grupo 1160749">
                              <g id="Grupo_1158891" data-name="Grupo 1158891">
                                <g id="Grupo_1157406" data-name="Grupo 1157406">
                                  <g id="Grupo_1155793" data-name="Grupo 1155793">
                                    <g id="Grupo_1154704" data-name="Grupo 1154704">
                                      <g id="Grupo_1150790" data-name="Grupo 1150790">
                                        <g id="Grupo_1154214" data-name="Grupo 1154214">
                                          <g id="Grupo_1152583" data-name="Grupo 1152583">
                                            <g id="Grupo_1146973" data-name="Grupo 1146973">
                                              <g id="Grupo_1146954" data-name="Grupo 1146954">
                                                <g transform="matrix(1, 0, 0, 1, -9, -6)" filter="url(#Trazado_982547)">
                                                  <g id="Trazado_982547-2" data-name="Trazado 982547" transform="translate(9 6)" fill="#d9d5e3">
                                                    <path d="M 47.5000114440918 93.49987030029297 C 41.28938293457031 93.49987030029297 35.26534652709961 92.28384399414062 29.5951976776123 89.88558959960938 C 24.11773109436035 87.56881713867188 19.19814491271973 84.25183868408203 14.97310447692871 80.02680206298828 C 10.74805164337158 75.80176544189453 7.43107795715332 70.88218688964844 5.114304542541504 65.40472412109375 C 2.716038227081299 59.73458862304688 1.500011444091797 53.71054840087891 1.500011444091797 47.49993515014648 C 1.500011444091797 41.28932189941406 2.716038227081299 35.26528167724609 5.114304542541504 29.59514808654785 C 7.43107795715332 24.1176815032959 10.74805164337158 19.1981086730957 14.97310447692871 14.97306823730469 C 19.19814491271973 10.74802875518799 24.11773109436035 7.431055068969727 29.5951976776123 5.11428165435791 C 35.26534652709961 2.716028451919556 41.28938293457031 1.500001788139343 47.5000114440918 1.500001788139343 C 53.71063995361328 1.500001788139343 59.73467636108398 2.716028451919556 65.40482330322266 5.11428165435791 C 70.88229370117188 7.431055068969727 75.8018798828125 10.74802875518799 80.02691650390625 14.97306823730469 C 84.25196838378906 19.1981086730957 87.56894683837891 24.1176815032959 89.88571929931641 29.59514808654785 C 92.28398132324219 35.26528167724609 93.50001525878906 41.28932189941406 93.50001525878906 47.49993515014648 C 93.50001525878906 53.71054840087891 92.28398132324219 59.73458862304688 89.88571929931641 65.40472412109375 C 87.56894683837891 70.88218688964844 84.25196838378906 75.80176544189453 80.02691650390625 80.02680206298828 C 75.8018798828125 84.25183868408203 70.88229370117188 87.56881713867188 65.40482330322266 89.88558959960938 C 59.73467636108398 92.28384399414062 53.71063995361328 93.49987030029297 47.5000114440918 93.49987030029297 Z" stroke="none"/>
                                                    <path d="M 47.5000114440918 3 C 41.49122619628906 3 35.66378021240234 4.1761474609375 30.17951965332031 6.495796203613281 C 24.880859375 8.7369384765625 20.12153625488281 11.94596862792969 16.03376770019531 16.03373718261719 C 11.94598388671875 20.12149047851562 8.736968994140625 24.88081359863281 6.495811462402344 30.17947387695312 C 4.176162719726562 35.66371917724609 3.000007629394531 41.49116516113281 3.000007629394531 47.49993515014648 C 3.000007629394531 53.50870513916016 4.176162719726562 59.33615112304688 6.495811462402344 64.82039642333984 C 8.736968994140625 70.11905670166016 11.94598388671875 74.87837982177734 16.03376770019531 78.96613311767578 C 20.12153625488281 83.05390167236328 24.880859375 86.26293182373047 30.17951965332031 88.50407409667969 C 35.66378021240234 90.82372283935547 41.49122619628906 91.99987030029297 47.5000114440918 91.99987030029297 C 53.50879669189453 91.99987030029297 59.33624267578125 90.82372283935547 64.82050323486328 88.50407409667969 C 70.11916351318359 86.26293182373047 74.87848663330078 83.05390167236328 78.96625518798828 78.96613311767578 C 83.05403900146484 74.87837982177734 86.2630615234375 70.11905670166016 88.50421142578125 64.82039642333984 C 90.82386016845703 59.33615112304688 92.00001525878906 53.50870513916016 92.00001525878906 47.49993515014648 C 92.00001525878906 41.49116516113281 90.82386016845703 35.66371917724609 88.50421142578125 30.17947387695312 C 86.2630615234375 24.88081359863281 83.05403900146484 20.12149047851562 78.96625518798828 16.03373718261719 C 74.87848663330078 11.94596862792969 70.11916351318359 8.7369384765625 64.82050323486328 6.495796203613281 C 59.33624267578125 4.1761474609375 53.50879669189453 3 47.5000114440918 3 M 47.5000114440918 0 C 73.73353576660156 0 95.00001525878906 21.26644134521484 95.00001525878906 47.49993515014648 C 95.00001525878906 73.73342895507812 73.73353576660156 94.99987030029297 47.5000114440918 94.99987030029297 C 21.26648712158203 94.99987030029297 7.62939453125e-06 73.73342895507812 7.62939453125e-06 47.49993515014648 C 7.62939453125e-06 21.26644134521484 21.26648712158203 0 47.5000114440918 0 Z" stroke="none" fill="#453179"/>
                                                  </g>
                                                </g>
                                              </g>
                                            </g>
                                          </g>
                                        </g>
                                      </g>
                                    </g>
                                  </g>
                                </g>
                              </g>
                            </g>
                          </g>
                        </g>
                      </g>
                    </g>
                  </g>
                </g>
              </g>
            </g>
          </g>
        </g>
      </g>
    </g>
    <g id="cerebro_3_" data-name="cerebro (3)" transform="translate(869.29 13191.678)">
      <path id="Trazado_1219270" data-name="Trazado 1219270" d="M14.024,25.526a.866.866,0,0,0,.418-.922,9.805,9.805,0,0,1,9.621-11.667h.023A.881.881,0,0,0,24.9,12.4a7.8,7.8,0,0,1,7.051-4.71,8.041,8.041,0,0,1,8.04,7.949V58.756a8.041,8.041,0,0,1-8.04,7.949A7.8,7.8,0,0,1,24.9,61.994a.882.882,0,0,0-.816-.536h-.023a9.805,9.805,0,0,1-9.621-11.667.868.868,0,0,0-.418-.922,13.442,13.442,0,0,1,0-23.344Zm0,0" transform="translate(-6.299 -6.246)" fill="#60b8ff"/>
      <path id="Trazado_1219271" data-name="Trazado 1219271" d="M28.856,62a.882.882,0,0,0-.816-.536h-.023A9.805,9.805,0,0,1,18.4,49.795a.868.868,0,0,0-.418-.922,13.442,13.442,0,0,1,0-23.344.867.867,0,0,0,.418-.922A9.805,9.805,0,0,1,28.017,12.94h.023a.882.882,0,0,0,.816-.536,7.816,7.816,0,0,1,5.167-4.452,7.622,7.622,0,0,0-2.07-.258A7.8,7.8,0,0,0,24.9,12.4a.882.882,0,0,1-.816.536h-.023a9.805,9.805,0,0,0-9.621,11.667.866.866,0,0,1-.418.922,13.442,13.442,0,0,0,0,23.344.867.867,0,0,1,.418.922,9.805,9.805,0,0,0,9.621,11.667h.023A.883.883,0,0,1,24.9,62a7.8,7.8,0,0,0,7.051,4.711,7.641,7.641,0,0,0,2.069-.258A7.815,7.815,0,0,1,28.856,62Zm0,0" transform="translate(-6.299 -6.25)" fill="#22a7ff"/>
      <path id="Trazado_1219272" data-name="Trazado 1219272" d="M281.692,25.526a.866.866,0,0,1-.418-.922,9.805,9.805,0,0,0-9.621-11.667h-.023a.881.881,0,0,1-.816-.536,7.8,7.8,0,0,0-7.051-4.71,7.928,7.928,0,0,0-7.908,7.949V58.756a7.928,7.928,0,0,0,7.908,7.949,7.8,7.8,0,0,0,7.051-4.711.882.882,0,0,1,.816-.536h.023a9.805,9.805,0,0,0,9.621-11.667.868.868,0,0,1,.418-.922,13.442,13.442,0,0,0,0-23.344Zm0,0" transform="translate(-222.294 -6.246)" fill="#ff646f"/>
      <path id="Trazado_1219273" data-name="Trazado 1219273" d="M259.809,58.755V15.639a8,8,0,0,1,5.844-7.69,7.787,7.787,0,0,0-1.889-.26,7.928,7.928,0,0,0-7.908,7.949V58.755a7.928,7.928,0,0,0,7.908,7.949,7.784,7.784,0,0,0,1.889-.26,8,8,0,0,1-5.844-7.69Zm0,0" transform="translate(-222.294 -6.246)" fill="#ff4755"/>
      <path id="Trazado_1219274" data-name="Trazado 1219274" d="M179.831,96.31a11.435,11.435,0,0,0-5.772,21.136,1.766,1.766,0,0,1,.837,1.5V120.6a1.759,1.759,0,0,0,1.759,1.759h6.907a1.759,1.759,0,0,0,1.759-1.759v-1.661a1.77,1.77,0,0,1,.84-1.5,11.435,11.435,0,0,0-6.329-21.134Zm0,0" transform="translate(-146.546 -83.239)" fill="#ffe55a"/>
      <path id="Trazado_1219275" data-name="Trazado 1219275" d="M178.706,120.6v-1.661a1.766,1.766,0,0,0-.837-1.5,11.434,11.434,0,0,1,4.15-20.979,11.436,11.436,0,0,0-7.961,20.98,1.765,1.765,0,0,1,.837,1.5V120.6a1.758,1.758,0,0,0,1.759,1.758h3.81A1.758,1.758,0,0,1,178.706,120.6Zm0,0" transform="translate(-146.546 -83.239)" fill="#ffd500"/>
      <path id="Trazado_1219276" data-name="Trazado 1219276" d="M233.781,350.348v1.93a1.818,1.818,0,0,0,1.813,1.813h2.165a1.818,1.818,0,0,0,1.813-1.813v-1.93Zm0,0" transform="translate(-203.115 -303.956)" fill="#4f66d1"/>
      <path id="Trazado_1219277" data-name="Trazado 1219277" d="M237.591,352.278v-1.93h-3.81v1.93a1.818,1.818,0,0,0,1.813,1.813h2.165a1.8,1.8,0,0,0,.822-.2,1.818,1.818,0,0,1-.99-1.613Zm0,0" transform="translate(-203.115 -303.956)" fill="#314dca"/>
      <path id="Trazado_1219278" data-name="Trazado 1219278" d="M227.283,322.645h-5.892a1.818,1.818,0,0,0-1.813,1.813v.271a1.818,1.818,0,0,0,1.813,1.813h5.892a1.818,1.818,0,0,0,1.812-1.813v-.271A1.818,1.818,0,0,0,227.283,322.645Zm0,0" transform="translate(-190.776 -279.887)" fill="#d9edff"/>
      <path id="Trazado_1219279" data-name="Trazado 1219279" d="M227.283,329.109h-5.892a1.812,1.812,0,0,1-1.464-.75,1.8,1.8,0,0,0-.349,1.063v.271a1.818,1.818,0,0,0,1.813,1.813h5.892a1.818,1.818,0,0,0,1.812-1.813v-.271a1.8,1.8,0,0,0-.349-1.063,1.811,1.811,0,0,1-1.463.75Zm0,0" transform="translate(-190.776 -284.852)" fill="#b4dbff"/>
      <path id="Trazado_1219280" data-name="Trazado 1219280" d="M227.283,293.941h-5.892a1.818,1.818,0,0,0-1.813,1.813v.271a1.818,1.818,0,0,0,1.813,1.813h5.892a1.818,1.818,0,0,0,1.812-1.813v-.271A1.818,1.818,0,0,0,227.283,293.941Zm0,0" transform="translate(-190.776 -254.949)" fill="#d9edff"/>
      <path id="Trazado_1219281" data-name="Trazado 1219281" d="M227.283,300.406h-5.892a1.812,1.812,0,0,1-1.464-.75,1.8,1.8,0,0,0-.349,1.063v.271a1.818,1.818,0,0,0,1.813,1.813h5.892a1.818,1.818,0,0,0,1.812-1.813v-.271a1.8,1.8,0,0,0-.349-1.063,1.811,1.811,0,0,1-1.463.75Zm0,0" transform="translate(-190.776 -259.914)" fill="#b4dbff"/>
      <path id="Trazado_1219282" data-name="Trazado 1219282" d="M59.979,18.506A10.8,10.8,0,0,0,49.417,5.745,8.8,8.8,0,0,0,44.2.964a.984.984,0,1,0-.633,1.864,7.467,7.467,0,0,1,4.817,7.178.984.984,0,0,0,1.969,0,10.02,10.02,0,0,0-.278-2.262,8.818,8.818,0,0,1,8.054,9.8,10.515,10.515,0,0,0-2.463-.769,4.707,4.707,0,0,0-2.255-3.164.984.984,0,0,0-.986,1.7,2.719,2.719,0,0,1,0,4.709.984.984,0,1,0,.986,1.7,4.7,4.7,0,0,0,2.207-2.96c3.355.716,9.584,4.812,9.584,12.22a12.5,12.5,0,0,1-6.2,10.77A12.758,12.758,0,0,1,55.623,43.2a4.7,4.7,0,0,0-2.207-2.961.984.984,0,1,0-.986,1.7,2.722,2.722,0,0,1,0,4.709.984.984,0,1,0,.986,1.7,4.7,4.7,0,0,0,2.254-3.164,10.559,10.559,0,0,0,2.462-.769,8.818,8.818,0,0,1-8.055,9.81,10.047,10.047,0,0,0,.28-2.27.984.984,0,0,0-1.969,0c0,3.93-2.8,7.49-6.912,7.547a6.945,6.945,0,0,1-6.91-6.965V51.156h.1a2.8,2.8,0,0,0,2.8-2.8v-.843a2.811,2.811,0,0,0,1.864-2.637V44.74a2.826,2.826,0,0,0-.669-1.813,2.834,2.834,0,0,0,.669-1.813v-.139a2.828,2.828,0,0,0-.458-1.532,2.746,2.746,0,0,0,.911-2.039V35.742a.787.787,0,0,1,.378-.664A12.5,12.5,0,0,0,45.692,27.3a.984.984,0,1,0-1.919-.436,10.523,10.523,0,0,1-4.661,6.544h0a2.769,2.769,0,0,0-1.1,1.29c0,.008-.007.014-.009.022-.245.609-.2.9-.2,2.683a.775.775,0,0,1-.774.774H34.564V33.4a4,4,0,0,0,3.123-3.895v-1.42a.984.984,0,0,0-.305-1.92H29.728a.984.984,0,0,0-.255,1.934v1.406A4,4,0,0,0,32.6,33.4v4.775H30.127a.775.775,0,0,1-.774-.774,19.118,19.118,0,0,0-.022-2.014,2.74,2.74,0,0,0-1.278-1.979A10.446,10.446,0,1,1,43.864,22.664a.984.984,0,0,0,1.937-.351,12.421,12.421,0,0,0-11.237-10.15V9.432a6.989,6.989,0,0,1,5-6.707A.984.984,0,1,0,39.021.833a8.9,8.9,0,0,0-5.445,4.53,8.732,8.732,0,0,0-15.833.382A10.8,10.8,0,0,0,7.181,18.506a14.441,14.441,0,0,0,0,24.967A10.8,10.8,0,0,0,17.744,56.234a8.732,8.732,0,0,0,15.837.374,8.732,8.732,0,0,0,15.837-.374A10.8,10.8,0,0,0,59.979,43.473a14.44,14.44,0,0,0,0-24.967Zm-28.537,11V28.136h4.277v1.372A2.025,2.025,0,0,1,33.7,31.53h-.232a2.025,2.025,0,0,1-2.023-2.022Zm4.05,18.852a.83.83,0,0,1-.829.829H32.5a.83.83,0,0,1-.829-.829v-.684h3.822Zm1.035-8.214a.83.83,0,0,1,.829.829v.139a.83.83,0,0,1-.829.829H30.634a.829.829,0,0,1-.828-.829v-.139a.829.829,0,0,1,.828-.829Zm0,3.765a.83.83,0,0,1,.829.829v.14a.832.832,0,0,1-.879.829h-5.79a.832.832,0,0,1-.879-.829v-.14a.83.83,0,0,1,.829-.829Zm-10.84,15.6c-4.121-.057-6.912-3.625-6.912-7.546a.984.984,0,1,0-1.969,0,10.054,10.054,0,0,0,.28,2.27A8.819,8.819,0,0,1,9.03,44.425a10.534,10.534,0,0,0,2.462.769,4.7,4.7,0,0,0,2.254,3.164.984.984,0,0,0,.986-1.7,2.722,2.722,0,0,1,0-4.709.984.984,0,1,0-.986-1.7A4.707,4.707,0,0,0,11.538,43.2c-3.287-.7-9.584-4.692-9.584-12.213,0-7.588,6.42-11.544,9.584-12.22a4.707,4.707,0,0,0,2.207,2.961.984.984,0,1,0,.986-1.7,2.722,2.722,0,0,1,0-4.709.984.984,0,0,0-.986-1.7,4.7,4.7,0,0,0-2.254,3.164,10.519,10.519,0,0,0-2.463.769,8.818,8.818,0,0,1,8.054-9.8,10.02,10.02,0,0,0-.278,2.262.984.984,0,1,0,1.968,0,9.385,9.385,0,0,1,.743-3.4l0-.008.006-.012a6.824,6.824,0,0,1,6.253-4.117A6.951,6.951,0,0,1,32.6,9.432V12.16a12.419,12.419,0,0,0-5.586,22.92.78.78,0,0,1,.375.662V37.4a2.746,2.746,0,0,0,.911,2.039,2.82,2.82,0,0,0-.458,1.532v.139a2.833,2.833,0,0,0,.669,1.813,2.847,2.847,0,0,0-.669,1.813v.139A2.812,2.812,0,0,0,29.7,47.516v.843a2.8,2.8,0,0,0,2.8,2.8h.1v1.391a6.945,6.945,0,0,1-6.91,6.965Zm0,0" transform="translate(0 0)"/>
    </g>
  </g>
</svg>
