<svg xmlns="http://www.w3.org/2000/svg" xmlns:xlink="http://www.w3.org/1999/xlink" width="108" height="108" viewBox="0 0 108 108">
  <defs>
    <filter id="Trazado_904820" x="0" y="0" width="108" height="108" filterUnits="userSpaceOnUse">
      <feOffset dy="3" input="SourceAlpha"/>
      <feGaussianBlur stdDeviation="3" result="blur"/>
      <feFlood flood-opacity="0.161"/>
      <feComposite operator="in" in2="blur"/>
      <feComposite in="SourceGraphic"/>
    </filter>
  </defs>
  <g id="Grupo_1240897" data-name="Grupo 1240897" transform="translate(-620.058 -4987.806)">
    <g id="Grupo_1226207" data-name="Grupo 1226207" transform="translate(629.058 4993.806)">
      <g id="Grupo_1223550" data-name="Grupo 1223550">
        <g id="Grupo_1223164" data-name="Grupo 1223164" transform="translate(0 0)">
          <g id="Grupo_1203639" data-name="Grupo 1203639">
            <g id="Grupo_1202437" data-name="Grupo 1202437">
              <g id="Grupo_1177315" data-name="Grupo 1177315">
                <g id="Grupo_1173585" data-name="Grupo 1173585">
                  <g id="Grupo_1173428" data-name="Grupo 1173428">
                    <g id="Grupo_1171958" data-name="Grupo 1171958">
                      <g id="Grupo_1167341" data-name="Grupo 1167341">
                        <g id="Grupo_1166792" data-name="Grupo 1166792">
                          <g transform="matrix(1, 0, 0, 1, -9, -6)" filter="url(#Trazado_904820)">
                            <g id="Trazado_904820-2" data-name="Trazado 904820" transform="translate(9 6)" fill="#fdfbec">
                              <path d="M 44.99999618530273 88.49999237060547 C 39.12687301635742 88.49999237060547 33.43022155761719 87.35006713867188 28.06829643249512 85.08216857910156 C 22.88852119445801 82.89130401611328 18.23629570007324 79.75457763671875 14.24084663391113 75.75914001464844 C 10.24540901184082 71.76369476318359 7.108683586120605 67.11146545410156 4.917821407318115 61.93169403076172 C 2.649921178817749 56.56976699829102 1.499996185302734 50.87311553955078 1.499996185302734 44.99999237060547 C 1.499996185302734 39.12686920166016 2.649921178817749 33.43021774291992 4.917821407318115 28.06829261779785 C 7.108683586120605 22.88851737976074 10.24540901184082 18.23630523681641 14.24084663391113 14.24085521697998 C 18.23629570007324 10.24540519714355 22.88852119445801 7.108692169189453 28.06829643249512 4.917829990386963 C 33.43022155761719 2.649929761886597 39.12687301635742 1.500004887580872 44.99999618530273 1.500004887580872 C 50.87311935424805 1.500004887580872 56.56977081298828 2.649929761886597 61.93169784545898 4.917829990386963 C 67.11147308349609 7.108692169189453 71.76369476318359 10.24540519714355 75.75914764404297 14.24085521697998 C 79.75458526611328 18.23630523681641 82.89131164550781 22.88851737976074 85.08216857910156 28.06829261779785 C 87.35007476806641 33.43021774291992 88.5 39.12686920166016 88.5 44.99999237060547 C 88.5 50.87311553955078 87.35007476806641 56.56976699829102 85.08216857910156 61.93169403076172 C 82.89131164550781 67.11146545410156 79.75458526611328 71.76369476318359 75.75914764404297 75.75914001464844 C 71.76369476318359 79.75457763671875 67.11147308349609 82.89130401611328 61.93169784545898 85.08216857910156 C 56.56977081298828 87.35006713867188 50.87311935424805 88.49999237060547 44.99999618530273 88.49999237060547 Z" stroke="none"/>
                              <path d="M 44.99999618530273 2.999992370605469 C 39.32870864868164 2.999992370605469 33.82865142822266 4.11004638671875 28.65262603759766 6.299331665039062 C 23.65165710449219 8.414566040039062 19.15968322753906 11.44333648681641 15.301513671875 15.30150604248047 C 11.44333648681641 19.15967559814453 8.414566040039062 23.65164947509766 6.299339294433594 28.65262222290039 C 4.110054016113281 33.82864761352539 2.999992370605469 39.32870483398438 2.999992370605469 44.99999237060547 C 2.999992370605469 50.67127990722656 4.110054016113281 56.17132186889648 6.299339294433594 61.34736633300781 C 8.414566040039062 66.34833526611328 11.44333648681641 70.84029388427734 15.301513671875 74.69846343994141 C 19.15968322753906 78.55663299560547 23.65165710449219 81.58540344238281 28.65262603759766 83.70063781738281 C 33.82865142822266 85.88992309570312 39.32870864868164 86.99997711181641 44.99999618530273 86.99997711181641 C 50.67128372192383 86.99997711181641 56.17134094238281 85.88992309570312 61.34736633300781 83.70063781738281 C 66.34834289550781 81.58540344238281 70.84030914306641 78.55663299560547 74.69847869873047 74.69846343994141 C 78.55665588378906 70.84029388427734 81.58542633056641 66.34833526611328 83.70065307617188 61.34736633300781 C 85.88993835449219 56.17132186889648 87 50.67127990722656 87 44.99999237060547 C 87 39.32870483398438 85.88993835449219 33.82864761352539 83.70065307617188 28.65262222290039 C 81.58542633056641 23.65164947509766 78.55665588378906 19.15967559814453 74.69847869873047 15.30150604248047 C 70.84030914306641 11.44333648681641 66.34834289550781 8.414566040039062 61.34736633300781 6.299331665039062 C 56.17134094238281 4.11004638671875 50.67128372192383 2.999992370605469 44.99999618530273 2.999992370605469 M 44.99999618530273 -7.62939453125e-06 C 69.85281372070312 -7.62939453125e-06 90 20.14717864990234 90 44.99999237060547 C 90 69.85279083251953 69.85281372070312 89.99997711181641 44.99999618530273 89.99997711181641 C 20.14717864990234 89.99997711181641 -7.62939453125e-06 69.85279083251953 -7.62939453125e-06 44.99999237060547 C -7.62939453125e-06 20.14717864990234 20.14717864990234 -7.62939453125e-06 44.99999618530273 -7.62939453125e-06 Z" stroke="none" fill="#83793c"/>
                            </g>
                          </g>
                        </g>
                      </g>
                    </g>
                  </g>
                </g>
              </g>
            </g>
          </g>
        </g>
      </g>
    </g>
    <g id="sentidos_1_" data-name="sentidos (1)" transform="translate(644.461 5004)">
      <g id="Grupo_1240886" data-name="Grupo 1240886" transform="translate(5.364 12.416)">
        <circle id="Elipse_12798" data-name="Elipse 12798" cx="23.602" cy="23.602" r="23.602" fill="#02c7dd"/>
      </g>
      <g id="Grupo_1240887" data-name="Grupo 1240887" transform="translate(16.175 13.867)">
        <path id="Trazado_1218861" data-name="Trazado 1218861" d="M160.865,74.888a23.608,23.608,0,0,1-20.958,41.989,23.606,23.606,0,1,0,20.958-41.989Z" transform="translate(-139.907 -74.888)" fill="#07b2cd"/>
      </g>
      <g id="Grupo_1240888" data-name="Grupo 1240888" transform="translate(18.528 6.757)">
        <path id="Trazado_1218862" data-name="Trazado 1218862" d="M160.263,20.033a3.866,3.866,0,0,0,.907,1.656c1.572,2.015,5.065,4.987,9.531,4.987,4.541,0,8.077-3.073,9.609-5.088a3.632,3.632,0,0,0,.829-1.554,3.632,3.632,0,0,0-.829-1.554c-1.532-2.016-5.068-5.088-9.609-5.088-4.263,0-7.64,2.707-9.3,4.707A4.514,4.514,0,0,0,160.263,20.033Z" transform="translate(-160.263 -13.391)" fill="#dcf5f8"/>
      </g>
      <g id="Grupo_1240889" data-name="Grupo 1240889" transform="translate(26.12 10.553)">
        <circle id="Elipse_12799" data-name="Elipse 12799" cx="2.847" cy="2.847" r="2.847" fill="#017297"/>
      </g>
      <g id="Grupo_1240890" data-name="Grupo 1240890" transform="translate(42.628 20.354)">
        <path id="Trazado_1218863" data-name="Trazado 1218863" d="M384.323,143.828a4.883,4.883,0,0,0-2.012-2.577,4.332,4.332,0,0,1-2-3.1l-.541-4.325a3.225,3.225,0,0,0-6.4,0l-.541,4.325a4.332,4.332,0,0,1-2,3.1,4.882,4.882,0,0,0-2.012,2.577,1.786,1.786,0,0,0,1.695,2.351h1.729a2.972,2.972,0,0,1,2.378,1.189,2.444,2.444,0,0,0,3.91,0,2.972,2.972,0,0,1,2.378-1.189h1.729A1.786,1.786,0,0,0,384.323,143.828Z" transform="translate(-368.718 -130.997)" fill="#ffe5c2"/>
      </g>
      <g id="Grupo_1240891" data-name="Grupo 1240891" transform="translate(35.038 45.776)">
        <path id="Trazado_1218864" data-name="Trazado 1218864" d="M310.286,367.968a5.482,5.482,0,0,1-5.375-4.407l-1.787-8.933a3.127,3.127,0,0,1,4.8-3.215,4.256,4.256,0,0,0,4.722,0,3.127,3.127,0,0,1,4.8,3.215l-1.787,8.933A5.482,5.482,0,0,1,310.286,367.968Z" transform="translate(-303.063 -350.889)" fill="#e94444"/>
      </g>
      <g id="Grupo_1240892" data-name="Grupo 1240892" transform="translate(0.867 18.676)">
        <path id="Trazado_1218865" data-name="Trazado 1218865" d="M7.5,132.482a4.706,4.706,0,0,0,9.4.289c0-.049.005-.1.007-.148a8.224,8.224,0,0,1,2.114-5.188A6.588,6.588,0,1,0,7.5,123.071Z" transform="translate(-7.5 -116.483)" fill="#ffdfcf"/>
      </g>
      <g id="Grupo_1240893" data-name="Grupo 1240893" transform="translate(22.151 31.577)">
        <path id="Trazado_1218866" data-name="Trazado 1218866" d="M201.98,234.465V228.38a.305.305,0,0,0-.305-.305h-6.526a.305.305,0,0,0-.305.305v6.085a.305.305,0,0,1-.305.305H191.9a.305.305,0,0,0-.24.494l6.509,8.307a.306.306,0,0,0,.481,0l6.509-8.307a.305.305,0,0,0-.24-.494h-2.635A.305.305,0,0,1,201.98,234.465Z" transform="translate(-191.597 -228.075)" fill="#ffc344"/>
      </g>
      <g id="Grupo_1240894" data-name="Grupo 1240894" transform="translate(8.404 44.827)">
        <path id="Trazado_1218867" data-name="Trazado 1218867" d="M83.829,342.681H78.717a2.037,2.037,0,0,0-2.037,2.036v3.673a2.036,2.036,0,0,0-2.872.008l-.822.822a1.018,1.018,0,0,0,0,1.44L78.23,355.9h0l.027.027a1.8,1.8,0,0,1,.531,1.277v2.359a.611.611,0,0,0,.611.611h5.1a.611.611,0,0,0,.611-.611V357.22a1.842,1.842,0,0,1,.549-1.307,5.255,5.255,0,0,0,1.559-3.743v-6.095A3.394,3.394,0,0,0,83.829,342.681Z" transform="translate(-72.688 -342.681)" fill="#eb9c8d"/>
      </g>
      <g id="Grupo_1240895" data-name="Grupo 1240895" transform="translate(25.398 24.369)">
        <path id="Trazado_1218868" data-name="Trazado 1218868" d="M226.511,169.523h-6.526a.305.305,0,0,1-.305-.305v-3.185a.305.305,0,0,1,.305-.305h6.526a.305.305,0,0,1,.305.305v3.185A.305.305,0,0,1,226.511,169.523Z" transform="translate(-219.68 -165.728)" fill="#ffc344"/>
      </g>
      <g id="Grupo_1240896" data-name="Grupo 1240896" transform="translate(0 5.89)">
        <path id="Trazado_1218869" data-name="Trazado 1218869" d="M225.85,42.435a3.714,3.714,0,1,0-3.714,3.714A3.718,3.718,0,0,0,225.85,42.435Zm-5.693,0a1.98,1.98,0,1,1,1.98,1.98A1.982,1.982,0,0,1,220.156,42.435Z" transform="translate(-193.17 -34.925)"/>
        <path id="Trazado_1218870" data-name="Trazado 1218870" d="M59.056,32.91a5.773,5.773,0,0,0-2.369-3.034,3.464,3.464,0,0,1-1.609-2.48l-.541-4.325a4.089,4.089,0,0,0-6.693-2.622A24.647,24.647,0,0,0,40.062,14.2a2.015,2.015,0,0,0,.209-.8,5.194,5.194,0,0,0-1.334-2.491c-.981-1.177-4.6-5.019-9.971-5.019a11.546,11.546,0,0,0-4.566.965.867.867,0,0,0,.683,1.594,9.822,9.822,0,0,1,3.882-.825A11.846,11.846,0,0,1,37.6,12.019a5.849,5.849,0,0,1,.917,1.38,5.126,5.126,0,0,1-.637,1.03c-1.664,2.189-5,4.746-8.918,4.746-3.852,0-7.173-2.506-8.847-4.653a5.48,5.48,0,0,1-.708-1.123,5.845,5.845,0,0,1,.917-1.38,13.108,13.108,0,0,1,1.564-1.569.867.867,0,0,0-1.122-1.322A14.867,14.867,0,0,0,19,10.909,5.193,5.193,0,0,0,17.661,13.4a2.016,2.016,0,0,0,.208.8,24.357,24.357,0,0,0-6.45,4.76A7.445,7.445,0,0,0,0,25.264v9.411A5.593,5.593,0,0,0,1.772,38.75,5.513,5.513,0,0,0,4.854,40.2a24.46,24.46,0,0,0,4.012,9.773l-.778.778a1.885,1.885,0,0,0,0,2.666l5.244,5.244.029.028h0a.94.94,0,0,1,.275.662v2.359a1.48,1.48,0,0,0,1.478,1.478h5.1A1.48,1.48,0,0,0,21.7,61.714V59.388a24.609,24.609,0,0,0,14.542,0,6.349,6.349,0,0,0,12.247-.768l1.787-8.933a3.994,3.994,0,0,0-.009-1.615A24.473,24.473,0,0,0,53.418,36.93,2.116,2.116,0,0,1,54.81,36.4h1.729a2.654,2.654,0,0,0,2.517-3.493ZM1.734,34.675V25.264a5.721,5.721,0,0,1,5.719-5.721q.119,0,.239,0a5.721,5.721,0,0,1,4.048,9.5,9.111,9.111,0,0,0-2.332,5.738c0,.04,0,.081-.005.121a3.839,3.839,0,0,1-7.67-.237ZM48.573,49.346l-1.787,8.933a4.615,4.615,0,0,1-9.051,0l-1.787-8.933a2.261,2.261,0,0,1,3.47-2.324,5.129,5.129,0,0,0,1.975.789v9.052a.867.867,0,0,0,1.734,0V47.812a5.128,5.128,0,0,0,1.975-.789,2.261,2.261,0,0,1,3.4,1.164c0,.017.01.034.016.051A2.257,2.257,0,0,1,48.573,49.346Zm8.712-15.059a.91.91,0,0,1-.746.382H54.81A3.857,3.857,0,0,0,51.739,36.2a1.577,1.577,0,0,1-2.523,0,3.858,3.858,0,0,0-3.071-1.536H44.416a.919.919,0,0,1-.872-1.21,4.033,4.033,0,0,1,1.655-2.12,5.193,5.193,0,0,0,2.4-3.728.867.867,0,0,0-1.721-.215,3.464,3.464,0,0,1-1.609,2.48A5.773,5.773,0,0,0,41.9,32.91,2.653,2.653,0,0,0,44.416,36.4h1.729a2.115,2.115,0,0,1,1.684.842,3.283,3.283,0,0,0,2.649,1.324,3.328,3.328,0,0,0,1.1-.185A22.749,22.749,0,0,1,49.3,46.2q-.057-.062-.117-.122a4,4,0,0,0-5.04-.5,3.386,3.386,0,0,1-1.831.571h-.1a3.385,3.385,0,0,1-1.831-.571,3.994,3.994,0,0,0-6.132,4.107l1.6,8.005a22.882,22.882,0,0,1-13.175.179,6.091,6.091,0,0,0,1.132-3.554V54.04a.867.867,0,0,0-1.734,0v.277a4.374,4.374,0,0,1-1.3,3.127,2.692,2.692,0,0,0-.806,1.923v2.091H15.371v-2.1a2.686,2.686,0,0,0-.786-1.891l-.027-.027-.026-.025L9.315,52.194a.151.151,0,0,1,0-.214l.822-.822a1.172,1.172,0,0,1,1.649,0l0,0,2.369,2.369a2.366,2.366,0,0,0,2.188.631,1.256,1.256,0,0,1,.266-.028,1.235,1.235,0,0,1,1.187.876.867.867,0,1,0,1.658-.509,2.96,2.96,0,0,0-2.845-2.1,2.992,2.992,0,0,0-.634.068.64.64,0,0,1-.594-.163l-2.123-2.123V46.864a1.171,1.171,0,0,1,1.169-1.169h.382V49.04a.867.867,0,1,0,1.734,0V45.694h3a2.53,2.53,0,0,1,2.527,2.527v1.656a.867.867,0,0,0,1.734,0V48.221a4.266,4.266,0,0,0-4.261-4.261H14.432a2.907,2.907,0,0,0-2.9,2.9v2.275a2.937,2.937,0,0,0-1.131,0,22.725,22.725,0,0,1-3.791-8.987,5.58,5.58,0,0,0,4.528-5.137c0-.058.006-.117.008-.174a7.376,7.376,0,0,1,1.9-4.639,7.426,7.426,0,0,0-.267-10.142,22.632,22.632,0,0,1,6.043-4.391,13.5,13.5,0,0,0,10.151,5.24c4.44,0,8.2-2.779,10.151-5.239a22.9,22.9,0,0,1,7.644,6.2,4.072,4.072,0,0,0-.344,1.2l-.026.207a.867.867,0,1,0,1.721.215l.026-.207a2.358,2.358,0,0,1,4.679,0l.541,4.325a5.193,5.193,0,0,0,2.4,3.728,4.033,4.033,0,0,1,1.655,2.12.908.908,0,0,1-.126.828Z" transform="translate(0 -5.89)"/>
        <path id="Trazado_1218871" data-name="Trazado 1218871" d="M198.281,227.272h-2.074v-5.523a1.174,1.174,0,0,0-1.173-1.173h-6.526a1.174,1.174,0,0,0-1.173,1.173v5.523h-2.074a1.173,1.173,0,0,0-.923,1.9l6.509,8.306a1.173,1.173,0,0,0,1.846,0l6.509-8.307a1.173,1.173,0,0,0-.923-1.9Zm-6.509,8.568-5.355-6.834H187.9a1.174,1.174,0,0,0,1.173-1.173V222.31h5.4v5.523a1.174,1.174,0,0,0,1.173,1.173h1.482Z" transform="translate(-162.806 -195.756)"/>
        <path id="Trazado_1218872" data-name="Trazado 1218872" d="M35.472,155.79a.867.867,0,0,0-.867-.867.041.041,0,0,1-.031-.012.039.039,0,0,1-.012-.029v-2.458a.637.637,0,0,1,.188-.454l.021-.021a2.376,2.376,0,0,0,0-3.361l-.021-.021a.637.637,0,0,1-.188-.453V145.47a1.928,1.928,0,0,1,1.925-1.926l.084,0a1.925,1.925,0,0,1,1.36,3.2.867.867,0,1,0,1.3,1.15,3.659,3.659,0,0,0-2.6-6.08l-.146,0a3.664,3.664,0,0,0-3.659,3.66v2.644a2.359,2.359,0,0,0,.7,1.68l.021.021a.642.642,0,0,1,0,.908l-.021.021a2.359,2.359,0,0,0-.7,1.68v2.458a1.777,1.777,0,0,0,1.777,1.776A.868.868,0,0,0,35.472,155.79Z" transform="translate(-29.032 -126.096)"/>
        <path id="Trazado_1218873" data-name="Trazado 1218873" d="M213.353,163.758h6.526a1.174,1.174,0,0,0,1.173-1.173V159.4a1.174,1.174,0,0,0-1.173-1.173h-6.526a1.174,1.174,0,0,0-1.173,1.173v3.185A1.174,1.174,0,0,0,213.353,163.758Zm.562-3.8h5.4v2.061h-5.4Z" transform="translate(-187.649 -140.616)"/>
      </g>
    </g>
  </g>
</svg>
