<svg xmlns="http://www.w3.org/2000/svg" xmlns:xlink="http://www.w3.org/1999/xlink" width="97.533" height="97.533" viewBox="0 0 97.533 97.533">
  <defs>
    <filter id="Trazado_982547" x="0" y="0" width="97.533" height="97.533" filterUnits="userSpaceOnUse">
      <feOffset dy="3" input="SourceAlpha"/>
      <feGaussianBlur stdDeviation="3" result="blur"/>
      <feFlood flood-opacity="0.161"/>
      <feComposite operator="in" in2="blur"/>
      <feComposite in="SourceGraphic"/>
    </filter>
  </defs>
  <g id="Grupo_1240911" data-name="Grupo 1240911" transform="translate(-1029.967 -5853.233)">
    <g id="Grupo_1226210" data-name="Grupo 1226210" transform="translate(839 4953.233)">
      <g id="Grupo_1203701" data-name="Grupo 1203701" transform="translate(199.967 906)">
        <g id="Grupo_1203355" data-name="Grupo 1203355" transform="translate(0)">
          <g id="Grupo_1202156" data-name="Grupo 1202156">
            <g id="Grupo_1177900" data-name="Grupo 1177900">
              <g id="Grupo_1172010" data-name="Grupo 1172010">
                <g id="Grupo_1171046" data-name="Grupo 1171046">
                  <g id="Grupo_1148525" data-name="Grupo 1148525">
                    <g transform="matrix(1, 0, 0, 1, -9, -6)" filter="url(#Trazado_982547)">
                      <g id="Trazado_982547-2" data-name="Trazado 982547" transform="translate(9 6)" fill="#fdfbec">
                        <path d="M 39.7666015625 78.033203125 C 34.59997940063477 78.033203125 29.58870124816895 77.02164459228516 24.87196731567383 75.02663421630859 C 20.31538963317871 73.099365234375 16.22284507751465 70.34000396728516 12.70802402496338 66.82518005371094 C 9.193202018737793 63.31035614013672 6.433835029602051 59.21781158447266 4.506568431854248 54.66123580932617 C 2.511557102203369 49.94449996948242 1.500001549720764 44.93322372436523 1.500001549720764 39.7666015625 C 1.500001549720764 34.59997940063477 2.511557102203369 29.58870124816895 4.506568431854248 24.87196731567383 C 6.433835029602051 20.31538963317871 9.193202018737793 16.22284507751465 12.70802402496338 12.70802402496338 C 16.22284507751465 9.193202018737793 20.31538963317871 6.433835029602051 24.87196731567383 4.506568431854248 C 29.58870124816895 2.511557102203369 34.59997940063477 1.500001549720764 39.7666015625 1.500001549720764 C 44.93322372436523 1.500001549720764 49.94449996948242 2.511557102203369 54.66123580932617 4.506568431854248 C 59.21781158447266 6.433835029602051 63.31035614013672 9.193202018737793 66.82518005371094 12.70802402496338 C 70.34000396728516 16.22284507751465 73.099365234375 20.31538963317871 75.02663421630859 24.87196731567383 C 77.02164459228516 29.58870124816895 78.033203125 34.59997940063477 78.033203125 39.7666015625 C 78.033203125 44.93322372436523 77.02164459228516 49.94449996948242 75.02663421630859 54.66123580932617 C 73.099365234375 59.21781158447266 70.34000396728516 63.31035614013672 66.82518005371094 66.82518005371094 C 63.31035614013672 70.34000396728516 59.21781158447266 73.099365234375 54.66123580932617 75.02663421630859 C 49.94449996948242 77.02164459228516 44.93322372436523 78.033203125 39.7666015625 78.033203125 Z" stroke="none"/>
                        <path d="M 39.7666015625 3 C 34.80181503295898 3 29.98714065551758 3.971687316894531 25.45630264282227 5.888076782226562 C 21.07851409912109 7.739715576171875 17.146240234375 10.39113616943359 13.76869201660156 13.76869201660156 C 10.39113616943359 17.146240234375 7.739715576171875 21.07851409912109 5.888076782226562 25.45630264282227 C 3.971687316894531 29.98714065551758 3 34.80181503295898 3 39.7666015625 C 3 44.73138809204102 3.971687316894531 49.54606628417969 5.888076782226562 54.076904296875 C 7.739715576171875 58.45468902587891 10.39113616943359 62.386962890625 13.76869201660156 65.76451110839844 C 17.146240234375 69.14206695556641 21.07851409912109 71.79348754882812 25.45630264282227 73.64512634277344 C 29.98714065551758 75.56151580810547 34.80181503295898 76.533203125 39.7666015625 76.533203125 C 44.73138809204102 76.533203125 49.54606628417969 75.56151580810547 54.076904296875 73.64512634277344 C 58.45468902587891 71.79348754882812 62.386962890625 69.14206695556641 65.76451110839844 65.76451110839844 C 69.14206695556641 62.386962890625 71.79348754882812 58.45468902587891 73.64512634277344 54.076904296875 C 75.56151580810547 49.54606628417969 76.533203125 44.73138809204102 76.533203125 39.7666015625 C 76.533203125 34.80181503295898 75.56151580810547 29.98714065551758 73.64512634277344 25.45630264282227 C 71.79348754882812 21.07851409912109 69.14206695556641 17.146240234375 65.76451110839844 13.76869201660156 C 62.386962890625 10.39113616943359 58.45468902587891 7.739715576171875 54.076904296875 5.888076782226562 C 49.54606628417969 3.971687316894531 44.73138809204102 3 39.7666015625 3 M 39.7666015625 0 C 61.72908782958984 0 79.533203125 17.80411529541016 79.533203125 39.7666015625 C 79.533203125 61.72908782958984 61.72908782958984 79.533203125 39.7666015625 79.533203125 C 17.80411529541016 79.533203125 0 61.72908782958984 0 39.7666015625 C 0 17.80411529541016 17.80411529541016 0 39.7666015625 0 Z" stroke="none" fill="#83793c"/>
                      </g>
                    </g>
                  </g>
                </g>
              </g>
            </g>
          </g>
        </g>
      </g>
    </g>
    <g id="salud-mental_5_" data-name="salud-mental (5)" transform="translate(1033.502 5874.188)">
      <g id="Grupo_1240909" data-name="Grupo 1240909" transform="translate(23.339 0.728)">
        <path id="Trazado_1218900" data-name="Trazado 1218900" d="M73.354,23.865C72.113,15.887,65.71,12.016,58.484,10.5c0,0,.181.435-.013-.032-.521-.11-1.2-.3-1.884-.4-3.378-.463-7.268-.894-10.808.059q-.851.229-1.7.536h.008a17.944,17.944,0,0,0-2.645,1.209,13.5,13.5,0,0,0-7.174,11.246,11.077,11.077,0,0,1-1.052,3.371c-.21.9.748,1.825,1.13,2.715a1.311,1.311,0,0,1-.065,1.156,10.512,10.512,0,0,1-2.96,3.267c-.689.531-1.215,1-1.213,1.831,0,.964.605,1.593,1.9,1.991,2.17.667.146,2.239-.394,2.622a.574.574,0,0,0-.228.335.845.845,0,0,0,.367.89,8.537,8.537,0,0,1,1.03.954.194.194,0,0,1-.022.278,1.393,1.393,0,0,0-.582,1.156.766.766,0,0,0,.525.68,3.222,3.222,0,0,1,.784.378.714.714,0,0,1,.228.883,2.953,2.953,0,0,0-.456,2.45c.456,1.852,2.01,2.537,3.568,2.792a27.655,27.655,0,0,0,5.663-.513c4.069-.551,5.939,2.808,7.139,5.7h0a1.78,1.78,0,0,0,.291.593c.457.624,1.815.7,2.616.469l13.4-3.563a1.954,1.954,0,0,0,1.342-2.574c-1.162-3.131-2.411-7.5-.88-9.271.073-.081.014-.019.17-.176,4.53-4.1,6.258-6.835,6.758-11.042,0,0-.544,0,0,0a26.992,26.992,0,0,0,.033-6.632Z" transform="translate(-30.109 -9.365)" fill="#fed2a4"/>
        <path id="Trazado_1218901" data-name="Trazado 1218901" d="M207.889,37.61a18.868,18.868,0,0,0,2.889-3.745c1.48-2.526,1.775-5.691,1.8-8.788a17.622,17.622,0,0,0-.669-5.138,14.909,14.909,0,0,0-5.419-7.624h0a23.884,23.884,0,0,0-9.526-4.135l0,0c-.52-.11-1.328-.258-2.017-.355a25.809,25.809,0,0,0-11.281.68,27.591,27.591,0,0,1,8.955-.1c.689.1,1.5.244,2.017.355l0,0c7.225,1.513,14.158,5.795,15.4,13.773a21.456,21.456,0,0,1,.213,3.124c0,1.272-.09,2.5-.2,3.633a13.076,13.076,0,0,1-2.468,6.516,36.779,36.779,0,0,1-2.84,2.816,4.08,4.08,0,0,0-.293.3c-1.585,1.829-1.361,5.393.682,10.9a.5.5,0,0,1-.025.41.492.492,0,0,1-.316.25l-16.2,4.316a2.131,2.131,0,0,0,1.651.882,1.628,1.628,0,0,0,.459-.065l14.448-3.725a1.954,1.954,0,0,0,1.342-2.574c-1.162-3.13-2.478-7.672-.948-9.44l.03-.034c.437-.456.391-.286,2.313-2.234Z" transform="translate(-168.783 -7.511)" fill="#ffbd86"/>
        <g id="Grupo_1240908" data-name="Grupo 1240908" transform="translate(8.02 4.178)">
          <path id="Trazado_1218902" data-name="Trazado 1218902" d="M295.318,256.36l-.365-3.913,9.535,1.509a9.747,9.747,0,0,1-.264,1.55c-.069.321.223.68.08.963a3.8,3.8,0,0,1-6.26.8.2.2,0,0,0-.183-.066,2.867,2.867,0,0,1-.9,0A3.089,3.089,0,0,1,295.318,256.36Z" transform="translate(-277.305 -232.886)" fill="#dc4955"/>
          <path id="Trazado_1218903" data-name="Trazado 1218903" d="M292.446,243.877a3.744,3.744,0,0,1-.321.908,7.278,7.278,0,0,1-1.89.25h0a7.418,7.418,0,0,1-3.828-1.069,5.655,5.655,0,0,1-3.059.9h-.023c-.072-.06-.5-.161-.55-.225l-1.307-5.129,11.065,2.871A8.69,8.69,0,0,1,292.446,243.877Z" transform="translate(-265.126 -221.203)" fill="#d82f3c"/>
          <path id="Trazado_1218904" data-name="Trazado 1218904" d="M242.82,257.292l2.369,7.865a.694.694,0,0,1-.772.89l-1.985-.37a1.557,1.557,0,0,1-1.2-.95l-.352-.446-2.7-6.683Z" transform="translate(-226.04 -237.261)" fill="#df646e"/>
          <path id="Trazado_1218905" data-name="Trazado 1218905" d="M269.789,266.017l-2.37-.375a1.559,1.559,0,0,1-1.2-.951l-.225-.557,2.637.5a.387.387,0,0,0,.443-.491l-2.063-6.934,1.163-.077,2.386,8a.694.694,0,0,1-.772.89Z" transform="translate(-251.154 -237.115)" fill="#dc4955"/>
          <path id="Trazado_1218906" data-name="Trazado 1218906" d="M143.936,61.105a4.424,4.424,0,0,0-3.406-5.384.483.483,0,0,1-.363-.326,4.725,4.725,0,0,0-7.235-2.409.481.481,0,0,1-.668-.1,5.581,5.581,0,0,0-8.63-.428.48.48,0,0,1-.548.124,4.249,4.249,0,0,0-5.827,2.834.484.484,0,0,1-.356.352,5.009,5.009,0,0,0-3.347,7.02.481.481,0,0,1-.029.464,4.376,4.376,0,0,0,6.78,5.44h.006a3.335,3.335,0,0,0,2.913,2.813,3.537,3.537,0,0,0,1.39-.055,2.711,2.711,0,0,0,1.831.918,2.959,2.959,0,0,0,2.563-.666,3.509,3.509,0,0,0,1.495.557,3.719,3.719,0,0,0,3.567-1.113h0a5.612,5.612,0,0,0,.585.49,5.733,5.733,0,0,0,2.716.732,5,5,0,0,0,5.691-4.233,5.251,5.251,0,0,0-.643-3.835.481.481,0,0,1,.07-.584A4.865,4.865,0,0,0,143.936,61.105Z" transform="translate(-112.86 -50.618)" fill="#df646e"/>
          <path id="Trazado_1218907" data-name="Trazado 1218907" d="M346.055,112.815a.481.481,0,0,0-.07.584,5.612,5.612,0,0,1-8.149,7.363,5.694,5.694,0,0,0,6.417-8.357.487.487,0,0,1,.071-.593,4.78,4.78,0,0,0-.021-6.792,4.762,4.762,0,0,1,3.08,5.192A4.7,4.7,0,0,1,346.055,112.815Z" transform="translate(-316.032 -99.747)" fill="#dc4955"/>
          <g id="Grupo_1240907" data-name="Grupo 1240907" transform="translate(5.06 14.141)">
            <path id="Trazado_1218908" data-name="Trazado 1218908" d="M180.934,203.456a4.669,4.669,0,0,1-4.716.3,3.515,3.515,0,0,1-4.587-.357,4.28,4.28,0,0,1-4.83-4.009,2.975,2.975,0,0,1-1.728-2.859l1.452.075a1.522,1.522,0,0,0,1.173,1.562.727.727,0,0,1,.559.766,2.825,2.825,0,0,0,3.478,2.968.726.726,0,0,1,.751.268,2.061,2.061,0,0,0,3.127.189.727.727,0,0,1,.926-.1,3.178,3.178,0,0,0,1.281.5c1.536.244,3.3-.177,3.811-1.647Z" transform="translate(-165.07 -196.527)" fill="#dc4955"/>
          </g>
        </g>
        <path id="Trazado_1218909" data-name="Trazado 1218909" d="M217.089,127.837a1.045,1.045,0,0,1-1.476,0l-.486-.291-4.6-4.59a3.265,3.265,0,0,1-.96-2.391,3.674,3.674,0,0,1,3.674-3.674,3.739,3.739,0,0,1,2.949,1.495.194.194,0,0,0,.314,0,3.651,3.651,0,0,1,2.95-1.495,3.553,3.553,0,0,1,1.776.476,3.846,3.846,0,0,1,1.541,3.464c0,1.1-.653,2.125-1.1,2.2-.506.087.005-.005,0,0Z" transform="translate(-192.178 -106.29)" fill="#dc4955"/>
        <path id="Trazado_1218910" data-name="Trazado 1218910" d="M274.91,124.2a3.652,3.652,0,0,1-.952,2.3l-.016.016-5.075,5.067a1.043,1.043,0,0,1-1.476,0l-.486-.485,5.679-5.745.015-.016a3.652,3.652,0,0,0,.952-2.3,3.776,3.776,0,0,0-.717-2.207A3.8,3.8,0,0,1,274.91,124.2Z" transform="translate(-243.956 -109.847)" fill="#d82f3c"/>
      </g>
      <g id="Grupo_1240910" data-name="Grupo 1240910" transform="translate(22.612)">
        <path id="Trazado_1218911" data-name="Trazado 1218911" d="M61.074,154.655a.727.727,0,1,0-1.387.437c.2.626.427,1.291.681,1.977a1.227,1.227,0,0,1-.842,1.617L45.078,162.41a1.229,1.229,0,0,1-1.441-.725c-.862-2.123-2.88-7.1-8.014-6.4-.36.049-.719.1-1.073.149a20.924,20.924,0,0,1-4.375.367c-1.725-.282-2.672-1-2.98-2.248a2.335,2.335,0,0,1,.384-1.922,1.437,1.437,0,0,0-.449-1.836,3.983,3.983,0,0,0-1-.482c-.007-.157.067-.4.443-.667a.727.727,0,0,0,.151-1.032,12.164,12.164,0,0,0-1.391-1.346c.6-.428,1.752-1.4,1.6-2.468-.063-.448-.37-1.054-1.482-1.4-1.217-.374-1.386-.845-1.387-1.3s.273-.748.93-1.253a11.314,11.314,0,0,0,3.15-3.487,2.047,2.047,0,0,0,.1-1.8,7.174,7.174,0,0,0-.547-.975c-.3-.479-.616-.975-.543-1.287a3.88,3.88,0,0,1,.271-.659,7.23,7.23,0,0,0,.8-2.829c.031-.483.086-.962.162-1.424a.727.727,0,0,0-1.434-.237c-.084.509-.144,1.036-.179,1.566a5.8,5.8,0,0,1-.662,2.3,4.836,4.836,0,0,0-.373.951,3.182,3.182,0,0,0,.729,2.393,6.06,6.06,0,0,1,.441.773.584.584,0,0,1-.031.513,9.673,9.673,0,0,1-2.769,3.047,3.037,3.037,0,0,0-1.5,2.408c0,1.29.815,2.193,2.413,2.684a1.185,1.185,0,0,1,.466.224,3.182,3.182,0,0,1-1.167,1.179.728.728,0,0,0-.2.2,1.55,1.55,0,0,0,.407,2.123c.242.193.44.369.6.517a1.953,1.953,0,0,0-.139,2.294c.269.365.709.286,1.293.65a3.7,3.7,0,0,0-.5,2.925c.452,1.836,1.85,2.958,4.157,3.336a20.1,20.1,0,0,0,4.812-.362c.352-.049.708-.1,1.066-.148,3.529-.477,5.2,2.364,6.472,5.507a2.689,2.689,0,0,0,2.487,1.67,2.662,2.662,0,0,0,.664-.084l14.448-3.724a2.681,2.681,0,0,0,1.842-3.531C61.485,155.9,61.264,155.258,61.074,154.655Z" transform="translate(-22.612 -114.281)"/>
        <path id="Trazado_1218912" data-name="Trazado 1218912" d="M109.416,4.043A28.829,28.829,0,0,0,94.263,0,22.2,22.2,0,0,0,84.006,2.354a14.691,14.691,0,0,0-6.823,7.094.727.727,0,0,0,1.332.582c2.309-5.29,8.343-8.576,15.748-8.576a27.345,27.345,0,0,1,14.369,3.814,14.388,14.388,0,0,1,6.991,12.611c0,6.6-.868,9.3-6.611,14.5-1.03.932-1.336,2.584-.935,5.05a.727.727,0,0,0,1.435-.233c-.307-1.887-.142-3.179.475-3.739,6.065-5.489,7.09-8.7,7.09-15.58a15.781,15.781,0,0,0-7.661-13.835Z" transform="translate(-71.839 0)"/>
        <path id="Trazado_1218913" data-name="Trazado 1218913" d="M109.665,65.845a5.045,5.045,0,0,0,.79.062,5.138,5.138,0,0,0,2.7-.77,4.272,4.272,0,0,0,4.458,2.5,3.5,3.5,0,0,0,.591.479L120.48,73.7a2.3,2.3,0,0,0,1.758,1.394l2.37.375a1.44,1.44,0,0,0,.226.018,1.422,1.422,0,0,0,1.355-1.839l-.846-2.752a3.84,3.84,0,0,0,.885.044,4.461,4.461,0,0,0,2.465,1.259,4.516,4.516,0,0,0,.709.056,4.471,4.471,0,0,0,4.4-3.77c.021-.135.035-.27.045-.406a6.4,6.4,0,0,0,1.064-.627,6.34,6.34,0,0,0,1.842-8.159,5.451,5.451,0,0,0-2.715-9.02,5.453,5.453,0,0,0-8.111-2.778,6.274,6.274,0,0,0-3.2-2.129.727.727,0,0,0-.4,1.4,4.836,4.836,0,0,1,2.81,2.143.727.727,0,0,0,1.1.167,4,4,0,0,1,6.52,2.009.727.727,0,0,0,.6.539l.03,0a4,4,0,0,1,1.965,6.992.727.727,0,0,0-.131.962,4.886,4.886,0,0,1-6.946,6.673,4.678,4.678,0,0,0,.42-.895.727.727,0,1,0-1.374-.475,3.2,3.2,0,0,1-4.81,1.613.727.727,0,0,0-.926.1,2.062,2.062,0,0,1-3.127-.189.726.726,0,0,0-.751-.268,2.807,2.807,0,0,1-1.105.044,2.836,2.836,0,0,1-2.373-3.012.727.727,0,0,0-.559-.766,1.524,1.524,0,0,1-.495-2.753.727.727,0,0,0-.806-1.21,2.979,2.979,0,0,0,.4,5.184,3.611,3.611,0,0,1-2.887.787,3.654,3.654,0,0,1-3.034-4.175,3.611,3.611,0,0,1,.638-1.555.727.727,0,0,0,.048-.771,4.243,4.243,0,0,1-.466-2.712,4.287,4.287,0,0,1,3.473-3.546.727.727,0,0,0,.587-.585A3.522,3.522,0,0,1,116.28,48.6a.727.727,0,0,0,.916-.187,4.864,4.864,0,0,1,2.216-1.573.727.727,0,1,0-.478-1.373,6.317,6.317,0,0,0-2.5,1.605,4.976,4.976,0,0,0-6.617,3.251,5.743,5.743,0,0,0-4.177,4.643,5.678,5.678,0,0,0,.428,3.237,5.046,5.046,0,0,0-.648,1.8,5.11,5.11,0,0,0,4.242,5.838ZM131.2,68.662a6.285,6.285,0,0,0,1.1-.1,3.014,3.014,0,0,1-5.235,1.14.727.727,0,0,0-.7-.25,2.1,2.1,0,0,1-1.557-.3l-.207-.672a4.652,4.652,0,0,0,2.742-1.118,6.3,6.3,0,0,0,2.852,1.219,6.431,6.431,0,0,0,1.005.079Zm-9-.674a4.6,4.6,0,0,0,.831.325l1.755,5.71-2.319-.367a.835.835,0,0,1-.639-.507L120,68.671A3.673,3.673,0,0,0,122.2,67.988Z" transform="translate(-97.34 -40.942)"/>
        <path id="Trazado_1218914" data-name="Trazado 1218914" d="M214.064,116.49a.727.727,0,0,0,1.027,1.029c.993-1.017,1.832-1.616,1.994-3.648a4.446,4.446,0,0,0-4.4-4.477,4.362,4.362,0,0,0-3.107,1.29,4.361,4.361,0,0,0-3.106-1.29,4.406,4.406,0,0,0-4.4,4.4,4,4,0,0,0,1.173,2.906l5.082,5.075a1.774,1.774,0,0,0,2.5,0l1.853-1.851a.727.727,0,0,0-1.027-1.029l-1.853,1.851a.318.318,0,0,1-.449,0l-5.084-5.076a2.574,2.574,0,0,1-.745-1.875,2.941,2.941,0,0,1,5.437-1.562.727.727,0,0,0,1.232,0,2.927,2.927,0,0,1,2.491-1.385,3.028,3.028,0,0,1,2.946,3.025c-.076,1.341-.855,1.884-1.567,2.619Z" transform="translate(-184.678 -98.791)"/>
      </g>
    </g>
  </g>
</svg>
