<svg xmlns="http://www.w3.org/2000/svg" xmlns:xlink="http://www.w3.org/1999/xlink" width="108" height="108" viewBox="0 0 108 108">
  <defs>
    <filter id="Trazado_904820" x="0" y="0" width="108" height="108" filterUnits="userSpaceOnUse">
      <feOffset dy="3" input="SourceAlpha"/>
      <feGaussianBlur stdDeviation="3" result="blur"/>
      <feFlood flood-opacity="0.161"/>
      <feComposite operator="in" in2="blur"/>
      <feComposite in="SourceGraphic"/>
    </filter>
  </defs>
  <g id="Grupo_1240799" data-name="Grupo 1240799" transform="translate(-620.058 -456.088)">
    <g id="Grupo_1226156" data-name="Grupo 1226156" transform="translate(105 -374.912)">
      <g id="Grupo_1223550" data-name="Grupo 1223550" transform="translate(524.058 837)">
        <g id="Grupo_1223164" data-name="Grupo 1223164">
          <g id="Grupo_1203639" data-name="Grupo 1203639">
            <g id="Grupo_1202437" data-name="Grupo 1202437">
              <g id="Grupo_1177315" data-name="Grupo 1177315">
                <g id="Grupo_1173585" data-name="Grupo 1173585">
                  <g id="Grupo_1173428" data-name="Grupo 1173428" transform="translate(0 0)">
                    <g id="Grupo_1171958" data-name="Grupo 1171958">
                      <g id="Grupo_1167341" data-name="Grupo 1167341">
                        <g id="Grupo_1166792" data-name="Grupo 1166792">
                          <g transform="matrix(1, 0, 0, 1, -9, -6)" filter="url(#Trazado_904820)">
                            <g id="Trazado_904820-2" data-name="Trazado 904820" transform="translate(9 6)" fill="#effbfe">
                              <path d="M 44.99999618530273 88.49999237060547 C 39.12687301635742 88.49999237060547 33.43022155761719 87.35006713867188 28.06829643249512 85.08216857910156 C 22.88852119445801 82.89130401611328 18.23629570007324 79.75457763671875 14.24084663391113 75.75914001464844 C 10.24540901184082 71.76369476318359 7.108683586120605 67.11146545410156 4.917821407318115 61.93169403076172 C 2.649921178817749 56.56976699829102 1.499996185302734 50.87311553955078 1.499996185302734 44.99999237060547 C 1.499996185302734 39.12686920166016 2.649921178817749 33.43021774291992 4.917821407318115 28.06829261779785 C 7.108683586120605 22.88851737976074 10.24540901184082 18.23630523681641 14.24084663391113 14.24085521697998 C 18.23629570007324 10.24540519714355 22.88852119445801 7.108692169189453 28.06829643249512 4.917829990386963 C 33.43022155761719 2.649929761886597 39.12687301635742 1.500004887580872 44.99999618530273 1.500004887580872 C 50.87311935424805 1.500004887580872 56.56977081298828 2.649929761886597 61.93169784545898 4.917829990386963 C 67.11147308349609 7.108692169189453 71.76369476318359 10.24540519714355 75.75914764404297 14.24085521697998 C 79.75458526611328 18.23630523681641 82.89131164550781 22.88851737976074 85.08216857910156 28.06829261779785 C 87.35007476806641 33.43021774291992 88.5 39.12686920166016 88.5 44.99999237060547 C 88.5 50.87311553955078 87.35007476806641 56.56976699829102 85.08216857910156 61.93169403076172 C 82.89131164550781 67.11146545410156 79.75458526611328 71.76369476318359 75.75914764404297 75.75914001464844 C 71.76369476318359 79.75457763671875 67.11147308349609 82.89130401611328 61.93169784545898 85.08216857910156 C 56.56977081298828 87.35006713867188 50.87311935424805 88.49999237060547 44.99999618530273 88.49999237060547 Z" stroke="none"/>
                              <path d="M 44.99999618530273 2.999992370605469 C 39.32870864868164 2.999992370605469 33.82865142822266 4.11004638671875 28.65262603759766 6.299331665039062 C 23.65165710449219 8.414566040039062 19.15968322753906 11.44333648681641 15.301513671875 15.30150604248047 C 11.44333648681641 19.15967559814453 8.414566040039062 23.65164947509766 6.299339294433594 28.65262222290039 C 4.110054016113281 33.82864761352539 2.999992370605469 39.32870483398438 2.999992370605469 44.99999237060547 C 2.999992370605469 50.67127990722656 4.110054016113281 56.17132186889648 6.299339294433594 61.34736633300781 C 8.414566040039062 66.34833526611328 11.44333648681641 70.84029388427734 15.301513671875 74.69846343994141 C 19.15968322753906 78.55663299560547 23.65165710449219 81.58540344238281 28.65262603759766 83.70063781738281 C 33.82865142822266 85.88992309570312 39.32870864868164 86.99997711181641 44.99999618530273 86.99997711181641 C 50.67128372192383 86.99997711181641 56.17134094238281 85.88992309570312 61.34736633300781 83.70063781738281 C 66.34834289550781 81.58540344238281 70.84030914306641 78.55663299560547 74.69847869873047 74.69846343994141 C 78.55665588378906 70.84029388427734 81.58542633056641 66.34833526611328 83.70065307617188 61.34736633300781 C 85.88993835449219 56.17132186889648 87 50.67127990722656 87 44.99999237060547 C 87 39.32870483398438 85.88993835449219 33.82864761352539 83.70065307617188 28.65262222290039 C 81.58542633056641 23.65164947509766 78.55665588378906 19.15967559814453 74.69847869873047 15.30150604248047 C 70.84030914306641 11.44333648681641 66.34834289550781 8.414566040039062 61.34736633300781 6.299331665039062 C 56.17134094238281 4.11004638671875 50.67128372192383 2.999992370605469 44.99999618530273 2.999992370605469 M 44.99999618530273 -7.62939453125e-06 C 69.85281372070312 -7.62939453125e-06 90 20.14717864990234 90 44.99999237060547 C 90 69.85279083251953 69.85281372070312 89.99997711181641 44.99999618530273 89.99997711181641 C 20.14717864990234 89.99997711181641 -7.62939453125e-06 69.85279083251953 -7.62939453125e-06 44.99999237060547 C -7.62939453125e-06 20.14717864990234 20.14717864990234 -7.62939453125e-06 44.99999618530273 -7.62939453125e-06 Z" stroke="none" fill="#497f88"/>
                            </g>
                          </g>
                        </g>
                      </g>
                    </g>
                  </g>
                </g>
              </g>
            </g>
          </g>
        </g>
      </g>
    </g>
    <g id="aprender-en-linea_5_" data-name="aprender-en-linea (5)" transform="translate(644.72 444.036)">
      <path id="Trazado_1215265" data-name="Trazado 1215265" d="M62.854,423.23H9.1a1.6,1.6,0,0,1-1.6-1.6V419.1a1.6,1.6,0,0,1,1.6-1.6H62.854a1.6,1.6,0,0,1,1.6,1.6v2.521A1.6,1.6,0,0,1,62.854,423.23Z" transform="translate(-6.64 -336.893)" fill="#a9dbf5"/>
      <path id="Trazado_1215266" data-name="Trazado 1215266" d="M463.938,417.5H460.5a1.6,1.6,0,0,1,1.6,1.6v2.521a1.6,1.6,0,0,1-1.6,1.6h3.438a1.6,1.6,0,0,0,1.6-1.6V419.1A1.6,1.6,0,0,0,463.938,417.5Z" transform="translate(-407.725 -336.893)" fill="#88c3e0"/>
      <path id="Trazado_1215267" data-name="Trazado 1215267" d="M87.988,151.88H43.293A2.292,2.292,0,0,1,41,149.589v-29.8a2.292,2.292,0,0,1,2.292-2.292H87.987a2.292,2.292,0,0,1,2.292,2.292v29.8A2.292,2.292,0,0,1,87.988,151.88Z" transform="translate(-36.301 -71.275)" fill="#4380a0"/>
      <path id="Trazado_1215268" data-name="Trazado 1215268" d="M426.73,149.588a2.292,2.292,0,0,1-2.292,2.292H421a2.292,2.292,0,0,0,2.292-2.292v-29.8A2.292,2.292,0,0,0,421,117.5h3.432a2.291,2.291,0,0,1,2.292,2.292Z" transform="translate(-372.752 -71.275)" fill="#3b7191"/>
      <path id="Trazado_1215269" data-name="Trazado 1215269" d="M113.4,175H71V147.5h42.4Z" transform="translate(-62.863 -97.836)" fill="#bbf7ff"/>
      <path id="Trazado_1215270" data-name="Trazado 1215270" d="M410.995,147.5h3.438V175h-3.438Z" transform="translate(-363.893 -97.836)" fill="#8bf0ff"/>
      <path id="Trazado_1215271" data-name="Trazado 1215271" d="M125.847,116.469h-16.2a.642.642,0,0,1-.642-.642V95.879a.642.642,0,0,1,.642-.642h16.2Z" transform="translate(-96.508 -51.563)" fill="#f75632"/>
      <path id="Trazado_1215272" data-name="Trazado 1215272" d="M272.2,116.469H256V95.237h16.2a.642.642,0,0,1,.642.642v19.948A.642.642,0,0,1,272.2,116.469Z" transform="translate(-226.661 -51.563)" fill="#e33629"/>
      <path id="Trazado_1215273" data-name="Trazado 1215273" d="M148.436,71.547l-13.491-4.665a.642.642,0,0,1-.432-.607V45.142a.642.642,0,0,1,.852-.607l13.071,4.52Z" transform="translate(-119.097 -6.641)" fill="#f3f3f3"/>
      <path id="Trazado_1215274" data-name="Trazado 1215274" d="M256,71.547l13.491-4.665a.642.642,0,0,0,.432-.607V45.142a.642.642,0,0,0-.852-.607L256,49.056Z" transform="translate(-226.661 -6.641)" fill="#e4e4e4"/>
      <path id="Trazado_1215275" data-name="Trazado 1215275" d="M221.569,420.25h-7.282A1.287,1.287,0,0,1,213,418.963V417.5h9.856v1.463A1.287,1.287,0,0,1,221.569,420.25Z" transform="translate(-188.589 -336.893)" fill="#88c3e0"/>
      <g id="Grupo_1240539" data-name="Grupo 1240539" transform="translate(0 37)">
        <path id="Trazado_1215276" data-name="Trazado 1215276" d="M56.213,79.747H54.492a3.132,3.132,0,0,0,.346-1.434v-29.8a3.155,3.155,0,0,0-3.152-3.152h-4.64v-1.05a1.5,1.5,0,0,0-1.5-1.5H44.121V38.5a1.5,1.5,0,0,0-1.993-1.419l-2.707.936a.86.86,0,1,0,.562,1.625l2.419-.836V59.479L30.2,63.7V43.027l6.319-2.185a.86.86,0,0,0-.562-1.625l-6.617,2.288-12.79-4.423A1.5,1.5,0,0,0,14.556,38.5v4.313H13.134a1.5,1.5,0,0,0-1.5,1.5v1.051H6.991a3.155,3.155,0,0,0-3.152,3.152v3.057a.86.86,0,1,0,1.719,0V48.518a1.434,1.434,0,0,1,1.433-1.433h4.641V48.8h-3.5a.86.86,0,0,0-.86.86v27.5a.859.859,0,0,0,.86.86h42.4a.859.859,0,0,0,.86-.86v-27.5a.859.859,0,0,0-.86-.86H47.045V47.084h4.64a1.434,1.434,0,0,1,1.433,1.433v29.8a1.434,1.434,0,0,1-1.433,1.433H6.992a1.434,1.434,0,0,1-1.433-1.433V55.253a.86.86,0,0,0-1.719,0V78.315a3.13,3.13,0,0,0,.346,1.433H2.464A2.467,2.467,0,0,0,0,82.211v2.521A2.467,2.467,0,0,0,2.464,87.2H36.637a.86.86,0,0,0,0-1.719H2.464a.746.746,0,0,1-.745-.745V82.211a.746.746,0,0,1,.745-.745H23.551v.6A2.149,2.149,0,0,0,25.7,84.217H32.98a2.149,2.149,0,0,0,2.147-2.147v-.6H56.213a.746.746,0,0,1,.745.745v2.521a.746.746,0,0,1-.745.745H40.389a.86.86,0,0,0,0,1.719H56.213a2.467,2.467,0,0,0,2.464-2.464V82.211a2.467,2.467,0,0,0-2.464-2.464Zm-13.1-18.695a1.5,1.5,0,0,0,1.011-1.419v-15.1h1.2V64.046H34.454ZM16.275,38.806l12.2,4.22V63.7l-12.2-4.22Zm-2.924,5.727h1.2v15.1a1.5,1.5,0,0,0,1.011,1.419l8.656,2.993H13.351ZM49.68,50.523V76.308H9V50.524h2.636v13.74a1.5,1.5,0,0,0,1.5,1.5h32.41a1.5,1.5,0,0,0,1.5-1.5V50.523ZM33.407,82.07a.428.428,0,0,1-.427.428H25.7a.428.428,0,0,1-.428-.428v-.6h8.137Z" transform="translate(0 -37)"/>
        <path id="Trazado_1215277" data-name="Trazado 1215277" d="M173.428,309.387h-22.58a.86.86,0,0,0,0,1.719h22.58a.86.86,0,1,0,0-1.719Z" transform="translate(-132.8 -278.17)"/>
        <path id="Trazado_1215278" data-name="Trazado 1215278" d="M165.492,341.2H150.849a.86.86,0,0,0,0,1.719h14.643a.86.86,0,1,0,0-1.719Z" transform="translate(-132.8 -306.339)"/>
      </g>
    </g>
  </g>
</svg>
