<svg xmlns="http://www.w3.org/2000/svg" xmlns:xlink="http://www.w3.org/1999/xlink" width="103" height="103" viewBox="0 0 103 103">
  <defs>
    <filter id="Trazado_904820" x="0" y="0" width="103" height="103" filterUnits="userSpaceOnUse">
      <feOffset dy="3" input="SourceAlpha"/>
      <feGaussianBlur stdDeviation="3" result="blur"/>
      <feFlood flood-opacity="0.161"/>
      <feComposite operator="in" in2="blur"/>
      <feComposite in="SourceGraphic"/>
    </filter>
  </defs>
  <g id="Grupo_1240912" data-name="Grupo 1240912" transform="translate(-171 -6986)">
    <g id="Grupo_1226212" data-name="Grupo 1226212" transform="translate(0 5678.221)">
      <g id="Grupo_1224992" data-name="Grupo 1224992" transform="translate(180 1313.779)">
        <g id="Grupo_1223798" data-name="Grupo 1223798" transform="translate(0 0)">
          <g id="Grupo_1223164" data-name="Grupo 1223164" transform="translate(0 0)">
            <g id="Grupo_1203639" data-name="Grupo 1203639">
              <g id="Grupo_1202437" data-name="Grupo 1202437">
                <g id="Grupo_1177315" data-name="Grupo 1177315">
                  <g id="Grupo_1173585" data-name="Grupo 1173585">
                    <g id="Grupo_1173428" data-name="Grupo 1173428">
                      <g id="Grupo_1171958" data-name="Grupo 1171958">
                        <g id="Grupo_1167341" data-name="Grupo 1167341">
                          <g id="Grupo_1166792" data-name="Grupo 1166792">
                            <g transform="matrix(1, 0, 0, 1, -9, -6)" filter="url(#Trazado_904820)">
                              <g id="Trazado_904820-2" data-name="Trazado 904820" transform="translate(9 6)" fill="#ebe9f0">
                                <path d="M 42.49993515014648 83.49986267089844 C 36.96432495117188 83.49986267089844 31.59508895874023 82.41603851318359 26.5413703918457 80.27849578857422 C 21.65931129455566 78.21355438232422 17.27445220947266 75.25711059570312 13.50860595703125 71.49126434326172 C 9.742758750915527 67.72541046142578 6.786311626434326 63.34055328369141 4.721370220184326 58.45849609375 C 2.583829164505005 53.40477752685547 1.500005722045898 48.03554153442383 1.500005722045898 42.49993133544922 C 1.500005722045898 36.96430969238281 2.583829164505005 31.59507179260254 4.721370220184326 26.54136657714844 C 6.786311626434326 21.6593074798584 9.742758750915527 17.27444839477539 13.50860595703125 13.50860214233398 C 17.27445220947266 9.742754936218262 21.65931129455566 6.786295890808105 26.5413703918457 4.721366405487061 C 31.59508895874023 2.583825349807739 36.96432495117188 1.500001907348633 42.49993515014648 1.500001907348633 C 48.03555679321289 1.500001907348633 53.40479278564453 2.583825349807739 58.45849990844727 4.721366405487061 C 63.34056854248047 6.786295890808105 67.72542572021484 9.742754936218262 71.49127960205078 13.50860214233398 C 75.25712585449219 17.27444839477539 78.21356964111328 21.6593074798584 80.27851104736328 26.54136657714844 C 82.41605377197266 31.59507179260254 83.4998779296875 36.96430969238281 83.4998779296875 42.49993133544922 C 83.4998779296875 48.03554153442383 82.41605377197266 53.40477752685547 80.27851104736328 58.45849609375 C 78.21356964111328 63.34055328369141 75.25712585449219 67.72541046142578 71.49127960205078 71.49126434326172 C 67.72542572021484 75.25711059570312 63.34056854248047 78.21355438232422 58.45849990844727 80.27849578857422 C 53.40479278564453 82.41603851318359 48.03555679321289 83.49986267089844 42.49993515014648 83.49986267089844 Z" stroke="none"/>
                                <path d="M 42.49993515014648 3 C 37.16616058349609 3 31.99352264404297 4.043960571289062 27.12569427490234 6.102867126464844 C 22.42242813110352 8.092185974121094 18.19784545898438 10.94068908691406 14.56926727294922 14.56926727294922 C 10.94069671630859 18.19783782958984 8.092185974121094 22.42242431640625 6.102867126464844 27.12569046020508 C 4.043960571289062 31.9935188293457 3 37.16615676879883 3 42.49993133544922 C 3 47.83370590209961 4.043960571289062 53.00634384155273 6.102867126464844 57.87417221069336 C 8.092185974121094 62.57743835449219 10.94069671630859 66.80202484130859 14.56926727294922 70.43059539794922 C 18.19784545898438 74.05917358398438 22.42242813110352 76.90767669677734 27.12569427490234 78.89699554443359 C 31.99352264404297 80.95590209960938 37.16616058349609 81.99986267089844 42.49993515014648 81.99986267089844 C 47.83370971679688 81.99986267089844 53.00634765625 80.95590209960938 57.87417602539062 78.89699554443359 C 62.57744216918945 76.90767669677734 66.80203247070312 74.05917358398438 70.43060302734375 70.43059539794922 C 74.05917358398438 66.80202484130859 76.90768432617188 62.57743835449219 78.89700317382812 57.87417221069336 C 80.95590972900391 53.00634384155273 81.99987030029297 47.83370590209961 81.99987030029297 42.49993133544922 C 81.99987030029297 37.16615676879883 80.95590972900391 31.9935188293457 78.89700317382812 27.12569046020508 C 76.90768432617188 22.42242431640625 74.05917358398438 18.19783782958984 70.43060302734375 14.56926727294922 C 66.80203247070312 10.94068908691406 62.57744216918945 8.092185974121094 57.87417602539062 6.102867126464844 C 53.00634765625 4.043960571289062 47.83370971679688 3 42.49993515014648 3 M 42.49993515014648 0 C 65.97200012207031 0 84.99987030029297 19.02786254882812 84.99987030029297 42.49993133544922 C 84.99987030029297 65.97200012207031 65.97200012207031 84.99986267089844 42.49993515014648 84.99986267089844 C 19.02787017822266 84.99986267089844 0 65.97200012207031 0 42.49993133544922 C 0 19.02786254882812 19.02787017822266 0 42.49993515014648 0 Z" stroke="none" fill="#c6c0d6"/>
                              </g>
                            </g>
                          </g>
                        </g>
                      </g>
                    </g>
                  </g>
                </g>
              </g>
            </g>
          </g>
        </g>
      </g>
    </g>
    <g id="cognitivo_6_" data-name="cognitivo (6)" transform="translate(191.088 7003.24)">
      <g id="color" transform="translate(2.53 2.53)">
        <path id="Trazado_1218915" data-name="Trazado 1218915" d="M59.456,26.715l-4.662-1.382A24.058,24.058,0,0,0,51.7,17.885l2.352-4.25A28.761,28.761,0,0,0,48.13,7.715l-4.25,2.352a24.056,24.056,0,0,0-7.448-3.095L35.05,2.309a28.222,28.222,0,0,0-8.335,0L25.333,6.972a24.056,24.056,0,0,0-7.448,3.095l-4.25-2.352a28.761,28.761,0,0,0-5.921,5.921l2.352,4.25a24.058,24.058,0,0,0-3.095,7.448L2.309,26.715a28.213,28.213,0,0,0,0,8.335l4.662,1.382a24.059,24.059,0,0,0,3.095,7.448L7.715,48.13a28.763,28.763,0,0,0,5.921,5.921l4.25-2.352a24.053,24.053,0,0,0,7.448,3.095l1.382,4.663a28.214,28.214,0,0,0,8.335,0l1.382-4.662A24.053,24.053,0,0,0,43.88,51.7l4.25,2.352a28.763,28.763,0,0,0,5.921-5.921L51.7,43.88a24.059,24.059,0,0,0,3.095-7.448l4.662-1.382a28.213,28.213,0,0,0,0-8.335Zm-20.9,14.462a4,4,0,0,1,.578,2.084,4.126,4.126,0,0,1-8.252,0,4.126,4.126,0,0,1-8.252,0,4,4,0,0,1,.578-2.084,7.213,7.213,0,0,1-2.888-13.6,5.152,5.152,0,0,1,2.311-8.974v-.1a4.126,4.126,0,0,1,8.252,0,4.126,4.126,0,1,1,8.252,0v.1a5.152,5.152,0,0,1,2.311,8.974,7.213,7.213,0,0,1-2.888,13.6Z" transform="translate(-2 -2)" fill="#43b3ff"/>
        <path id="Trazado_1218916" data-name="Trazado 1218916" d="M31.116,34.8a4,4,0,0,1,.578,2.084,4.126,4.126,0,0,1-8.252,0,4.126,4.126,0,0,1-8.252,0,4,4,0,0,1,.578-2.084,7.213,7.213,0,0,1-2.888-13.6,5.152,5.152,0,0,1,2.311-8.974v-.1a4.126,4.126,0,1,1,8.252,0,4.126,4.126,0,1,1,8.252,0v.1A5.152,5.152,0,0,1,34,21.2a7.213,7.213,0,0,1-2.888,13.6Z" transform="translate(5.441 4.378)" fill="#f45151"/>
      </g>
      <g id="outline" transform="translate(1.501 1.501)">
        <path id="Trazado_1218917" data-name="Trazado 1218917" d="M35.579,61.017a1.057,1.057,0,0,1-1.062-1.032,1.073,1.073,0,0,1,.147-.546l1.31-4.41a1.032,1.032,0,0,1,.762-.711,23.1,23.1,0,0,0,7.128-2.964,1.024,1.024,0,0,1,1.046-.028l3.661,2.027a27.554,27.554,0,0,0,4.783-4.783l-2.027-3.661a1.029,1.029,0,0,1,.028-1.046,23.1,23.1,0,0,0,2.964-7.128,1.032,1.032,0,0,1,.711-.762l4.025-1.195a27.487,27.487,0,0,0,0-6.734l-4.025-1.193a1.032,1.032,0,0,1-.711-.762,23.07,23.07,0,0,0-2.964-7.128,1.031,1.031,0,0,1-.028-1.047l2.027-3.661A27.514,27.514,0,0,0,48.57,9.474L44.91,11.5a1.031,1.031,0,0,1-1.046-.028,23.073,23.073,0,0,0-7.128-2.963,1.033,1.033,0,0,1-.762-.713L34.78,3.771a27.486,27.486,0,0,0-6.734,0L26.853,7.8a1.032,1.032,0,0,1-.762.713,23.023,23.023,0,0,0-7.128,2.963,1.036,1.036,0,0,1-1.047.028L14.256,9.474a27.473,27.473,0,0,0-4.782,4.782L11.5,17.916a1.031,1.031,0,0,1-.028,1.047,23.042,23.042,0,0,0-2.963,7.128,1.032,1.032,0,0,1-.713.762L3.771,28.045a27.486,27.486,0,0,0,0,6.734L7.8,35.974a1.033,1.033,0,0,1,.713.762,23.073,23.073,0,0,0,2.963,7.128,1.029,1.029,0,0,1,.028,1.046L9.474,48.57a27.514,27.514,0,0,0,4.782,4.783l3.661-2.027a1.022,1.022,0,0,1,1.047.028,23.05,23.05,0,0,0,7.128,2.964,1.032,1.032,0,0,1,.762.711l1.323,4.463a.993.993,0,0,1,.132.494,1,1,0,0,1-1,1.032h-.061a1.032,1.032,0,0,1-.989-.737l-1.213-4.092a25.106,25.106,0,0,1-6.653-2.766l-3.725,2.063a1.03,1.03,0,0,1-1.116-.077,29.626,29.626,0,0,1-6.132-6.131,1.032,1.032,0,0,1-.076-1.116L9.4,44.434a25.074,25.074,0,0,1-2.766-6.651L2.546,36.568a1.033,1.033,0,0,1-.727-.836,29.5,29.5,0,0,1,0-8.64,1.033,1.033,0,0,1,.727-.836l4.092-1.213A25.073,25.073,0,0,1,9.4,18.391L7.342,14.665a1.032,1.032,0,0,1,.076-1.116A29.581,29.581,0,0,1,13.55,7.418a1.024,1.024,0,0,1,1.116-.076L18.391,9.4a25.093,25.093,0,0,1,6.653-2.766l1.213-4.092a1.033,1.033,0,0,1,.836-.727,29.567,29.567,0,0,1,8.64,0,1.033,1.033,0,0,1,.836.727l1.215,4.092A25.074,25.074,0,0,1,44.434,9.4l3.727-2.062a1.024,1.024,0,0,1,1.116.076,29.626,29.626,0,0,1,6.131,6.132,1.03,1.03,0,0,1,.077,1.116l-2.063,3.725a25.054,25.054,0,0,1,2.766,6.653l4.092,1.213a1.031,1.031,0,0,1,.725.836,29.428,29.428,0,0,1,0,8.64,1.031,1.031,0,0,1-.725.836l-4.092,1.215a25.041,25.041,0,0,1-2.766,6.651l2.063,3.727a1.03,1.03,0,0,1-.077,1.116,29.67,29.67,0,0,1-6.131,6.131,1.03,1.03,0,0,1-1.116.077l-3.727-2.063a25.041,25.041,0,0,1-6.651,2.766l-1.215,4.092a1.032,1.032,0,0,1-.989.737Z" transform="translate(-1.501 -1.501)"/>
        <path id="Trazado_1218918" data-name="Trazado 1218918" d="M39.446,28.131a8.226,8.226,0,0,0-3.315-6.592,6.165,6.165,0,0,0-2.944-9.566A5.123,5.123,0,0,0,23.973,9.6a5.123,5.123,0,0,0-9.214,2.378,6.165,6.165,0,0,0-2.944,9.566,8.22,8.22,0,0,0,3.052,14.6,5.134,5.134,0,0,0,9.106,4.334,5.125,5.125,0,0,0,9.106-4.334,8.242,8.242,0,0,0,6.366-8.013Zm-19.6,12.378a3.095,3.095,0,1,1,0-6.189,1.032,1.032,0,0,0,0-2.063,5.129,5.129,0,0,0-4.016,1.961A6.163,6.163,0,0,1,13.9,22.643a6.006,6.006,0,0,1,2.852-.7,1.032,1.032,0,1,0,0-2.063,8.165,8.165,0,0,0-3.1.613,4.072,4.072,0,0,1,1.274-6.36,5.153,5.153,0,0,0,.457,1.106,1.032,1.032,0,1,0,1.787-1.032,3.1,3.1,0,1,1,5.775-1.548V37.414A3.1,3.1,0,0,1,19.847,40.509Zm12.268-6.291A5.129,5.129,0,0,0,28.1,32.257a1.032,1.032,0,0,0,0,2.063A3.095,3.095,0,1,1,25,37.414V12.658a3.095,3.095,0,1,1,5.775,1.548,1.032,1.032,0,0,0,1.787,1.032,5.153,5.153,0,0,0,.457-1.106A4.072,4.072,0,0,1,34.3,20.493a8.167,8.167,0,0,0-3.105-.614,1.032,1.032,0,1,0,0,2.063,6.006,6.006,0,0,1,2.852.7,6.163,6.163,0,0,1-1.93,11.575Z" transform="translate(5.939 4.875)"/>
        <ellipse id="Elipse_12804" data-name="Elipse 12804" cx="1.236" cy="0.618" rx="1.236" ry="0.618" transform="translate(28.424 58.084)"/>
      </g>
    </g>
  </g>
</svg>
