<svg xmlns="http://www.w3.org/2000/svg" xmlns:xlink="http://www.w3.org/1999/xlink" width="400" height="323" viewBox="0 0 400 323">
  <defs>
    <clipPath id="clip-path">
      <rect id="Rectángulo_423946" data-name="Rectángulo 423946" width="400" height="323" transform="translate(180 7728)" fill="#fff" stroke="#707070" stroke-width="1"/>
    </clipPath>
    <linearGradient id="linear-gradient" x1="0.369" y1="0.009" x2="0.801" y2="2.007" gradientUnits="objectBoundingBox">
      <stop offset="0" stop-color="#46736e"/>
      <stop offset="0.996" stop-color="#2f4f4f"/>
    </linearGradient>
    <clipPath id="clip-path-2">
      <path id="Trazado_1218926" data-name="Trazado 1218926" d="M445.075,1188.175c2.106-.341,6.386-2.94,7.223-4.077,5.567-7.569,16.91-21.064,16.008-30.956-.154-1.689-7.769-3.018-8.879-4.537-4.649-2.025-6.388-2.44-9.862-6.536-10.257-12.1,11.478-36.122-14.943-43.474-19.353-5.385-35.325,1.735-34.219-28.077s-24.221-83.258-54.964-61.5c-17.644,12.487,1.467,37.194-7.209,56.15-8.245,18.012-.26,32.367,18.916,42.4s9.377,18.538,4.444,35.563c-5.926,20.45,25.323,23.037,39.852,23C413.141,1166.1,442.951,1173.921,445.075,1188.175Z" transform="translate(-335 -1003.942)"/>
    </clipPath>
    <linearGradient id="linear-gradient-2" x1="0.394" y1="0.672" x2="-0.206" y2="1.113" gradientUnits="objectBoundingBox">
      <stop offset="0" stop-color="#799b91"/>
      <stop offset="1" stop-color="#3e6764"/>
    </linearGradient>
    <clipPath id="clip-path-3">
      <path id="Trazado_1218933" data-name="Trazado 1218933" d="M625.271,758.546c2.416.666,8.259-.013,9.708-.818,9.65-5.358,28.369-14.216,32.248-25.221.662-1.879-6.819-7.026-7.26-9.192-3.973-4.439-5.627-5.732-7.331-11.808-5.032-17.937,29.94-32.954,5.324-53.74-18.031-15.225-38.572-15.44-22.8-46.733s14.893-100.765-28.587-92.581c-24.954,4.7-16.641,40.436-35.185,56.431-17.622,15.2-16.123,34.437-.558,54.541s.938,24.387-12.663,40.152c-16.339,18.937,15.764,37,31.3,44.07C601.975,719.342,629.981,742.285,625.271,758.546Z" transform="translate(-553.656 -517.788)"/>
    </clipPath>
    <linearGradient id="linear-gradient-3" x1="0.406" y1="0.072" x2="0.779" y2="1.8" xlink:href="#linear-gradient-2"/>
    <clipPath id="clip-path-4">
      <path id="Trazado_1218940" data-name="Trazado 1218940" d="M1385.967,1188.175c-2.106-.341-6.386-2.94-7.223-4.077-5.567-7.569-16.91-21.064-16.008-30.956.154-1.689,7.769-3.018,8.879-4.537,4.65-2.025,6.388-2.44,9.862-6.536,10.256-12.1-11.478-36.122,14.943-43.474,19.353-5.385,35.325,1.735,34.219-28.077s24.221-83.258,54.964-61.5c17.644,12.487-1.467,37.194,7.209,56.15,8.245,18.012.26,32.367-18.916,42.4s-9.377,18.538-4.444,35.563c5.926,20.45-25.323,23.037-39.851,23C1417.9,1166.1,1388.092,1173.921,1385.967,1188.175Z" transform="translate(-1362.686 -1003.942)"/>
    </clipPath>
    <linearGradient id="linear-gradient-4" x1="0" y1="0.5" x2="1" y2="0.5" xlink:href="#linear-gradient"/>
    <clipPath id="clip-path-5">
      <path id="Trazado_1218947" data-name="Trazado 1218947" d="M1388.081,1021.906c-2.238.617-7.652-.012-9-.758-8.941-4.964-26.285-13.172-29.879-23.367-.614-1.741,6.318-6.51,6.727-8.516,3.681-4.113,5.214-5.311,6.793-10.94,4.662-16.619-27.74-30.533-4.933-49.791,16.706-14.106,35.738-14.306,21.121-43.3s-13.8-93.361,26.487-85.778c23.12,4.352,15.419,37.465,32.6,52.284,16.327,14.082,14.938,31.906.517,50.533s-.87,22.6,11.733,37.2c15.138,17.545-14.606,34.278-29,40.831C1409.665,985.584,1383.716,1006.841,1388.081,1021.906Z" transform="translate(-1349.168 -798.84)"/>
    </clipPath>
    <linearGradient id="linear-gradient-5" x1="0.513" y1="1.192" x2="0.493" y2="0.553" gradientUnits="objectBoundingBox">
      <stop offset="0" stop-color="#f6af9a"/>
      <stop offset="0.996" stop-color="#f89f8a"/>
    </linearGradient>
    <linearGradient id="linear-gradient-6" x1="0.5" y1="-1.274" x2="0.5" y2="-0.189" gradientUnits="objectBoundingBox">
      <stop offset="0" stop-color="#ef9f8e"/>
      <stop offset="1" stop-color="#e68273"/>
    </linearGradient>
    <linearGradient id="linear-gradient-7" x1="0.415" y1="2.192" x2="0.641" y2="-1.392" gradientUnits="objectBoundingBox">
      <stop offset="0" stop-color="#cbaf85"/>
      <stop offset="1" stop-color="#ba7c44"/>
    </linearGradient>
    <linearGradient id="linear-gradient-8" x1="0.444" y1="0.849" x2="0.576" y2="-0.356" xlink:href="#linear-gradient-7"/>
    <linearGradient id="linear-gradient-9" x1="0.422" y1="1.319" x2="0.875" y2="-2.769" xlink:href="#linear-gradient-7"/>
    <linearGradient id="linear-gradient-10" x1="0.402" y1="1.534" x2="0.854" y2="-2.554" xlink:href="#linear-gradient-7"/>
    <linearGradient id="linear-gradient-11" x1="0.425" y1="0.687" x2="0.693" y2="-0.203" gradientUnits="objectBoundingBox">
      <stop offset="0" stop-color="#3b3138"/>
      <stop offset="1" stop-color="#241f21"/>
    </linearGradient>
    <linearGradient id="linear-gradient-12" x1="0.464" y1="0.589" x2="0.756" y2="-0.579" gradientUnits="objectBoundingBox">
      <stop offset="0" stop-color="#5d535a"/>
      <stop offset="1" stop-color="#464143"/>
    </linearGradient>
    <linearGradient id="linear-gradient-13" x1="0.516" y1="1.253" x2="0.529" y2="1.883" xlink:href="#linear-gradient-7"/>
    <linearGradient id="linear-gradient-14" x1="0.593" y1="-0.409" x2="0.43" y2="0.959" xlink:href="#linear-gradient-5"/>
    <linearGradient id="linear-gradient-15" x1="-9.138" y1="1.346" x2="-9.125" y2="1.976" xlink:href="#linear-gradient-7"/>
    <linearGradient id="linear-gradient-16" x1="0.361" y1="-0.484" x2="0.591" y2="0.926" xlink:href="#linear-gradient-5"/>
    <linearGradient id="linear-gradient-17" x1="0" y1="0.5" x2="1" y2="0.5" xlink:href="#linear-gradient-11"/>
    <linearGradient id="linear-gradient-18" y1="0.5" x2="1" y2="0.5" gradientUnits="objectBoundingBox">
      <stop offset="0" stop-color="#96888e"/>
      <stop offset="1" stop-color="#706369"/>
    </linearGradient>
    <linearGradient id="linear-gradient-19" y1="0.5" x2="1" y2="0.5" gradientUnits="objectBoundingBox">
      <stop offset="0" stop-color="#95afc7"/>
      <stop offset="1" stop-color="#7595b6"/>
    </linearGradient>
    <linearGradient id="linear-gradient-21" x1="-1.978" y1="-0.022" x2="-1.272" y2="0.114" gradientUnits="objectBoundingBox">
      <stop offset="0" stop-color="#e4d6ca"/>
      <stop offset="1" stop-color="#d4bdac"/>
    </linearGradient>
    <linearGradient id="linear-gradient-22" x1="-3.405" y1="-0.475" x2="-2.495" y2="-0.256" xlink:href="#linear-gradient-21"/>
    <linearGradient id="linear-gradient-23" x1="-1.026" y1="0.183" x2="-0.462" y2="0.281" xlink:href="#linear-gradient-21"/>
    <linearGradient id="linear-gradient-24" x1="-0.665" y1="0.339" x2="2.089" y2="0.636" gradientUnits="objectBoundingBox">
      <stop offset="0" stop-color="#f3e9e1"/>
      <stop offset="1" stop-color="#e1d1c5"/>
    </linearGradient>
    <linearGradient id="linear-gradient-25" x1="-1.618" y1="0.214" x2="1.833" y2="0.625" xlink:href="#linear-gradient-24"/>
    <linearGradient id="linear-gradient-26" x1="-3.217" y1="-0.067" x2="1.403" y2="0.6" xlink:href="#linear-gradient-24"/>
    <linearGradient id="linear-gradient-27" x1="-1.602" y1="0.326" x2="-0.271" y2="0.453" xlink:href="#linear-gradient-21"/>
    <linearGradient id="linear-gradient-28" x1="-1.346" y1="0.304" x2="0.369" y2="0.509" xlink:href="#linear-gradient-21"/>
    <linearGradient id="linear-gradient-29" x1="-1.723" y1="0.336" x2="-0.661" y2="0.428" xlink:href="#linear-gradient-21"/>
    <linearGradient id="linear-gradient-30" x1="-1.348" y1="0.4" x2="1.189" y2="0.567" xlink:href="#linear-gradient-24"/>
    <linearGradient id="linear-gradient-31" x1="-1.112" y1="0.403" x2="2.067" y2="0.635" xlink:href="#linear-gradient-24"/>
    <linearGradient id="linear-gradient-32" x1="-0.716" y1="0.411" x2="3.54" y2="0.787" xlink:href="#linear-gradient-24"/>
  </defs>
  <g id="Enmascarar_grupo_1211470" data-name="Enmascarar grupo 1211470" transform="translate(-180 -7728)" clip-path="url(#clip-path)">
    <g id="Illustration" transform="translate(-108.184 7417.289)">
      <g id="Grupo_1240956" data-name="Grupo 1240956" transform="translate(335 340.955)">
        <path id="Trazado_1218919" data-name="Trazado 1218919" d="M408.649,353.363c-10.29,14.73,1.775,38.611-13.493,49.69-14.862,10.784-33.12-6.892-47.127,2.39-20.778,13.77-16.984,76.781,13.4,115.931,9.136,11.773,16.77,16.354,20.15,29.67,7.26,28.592-18.255,45.6-13.4,59.741,10.933,31.84,179.066,58.558,246.529-37.133,31.508-44.691,36.222-109.226,8.071-158.241C571.907,326.842,431.737,320.311,408.649,353.363Z" transform="translate(-335 -330.137)" fill="#f9efe4"/>
        <g id="Grupo_1240917" data-name="Grupo 1240917" transform="translate(0 106.269)">
          <g id="Grupo_1240916" data-name="Grupo 1240916">
            <g id="Grupo_1240915" data-name="Grupo 1240915">
              <path id="Trazado_1218920" data-name="Trazado 1218920" d="M445.075,1188.175c2.106-.341,6.386-2.94,7.223-4.077,5.567-7.569,16.91-21.064,16.008-30.956-.154-1.689-7.769-3.018-8.879-4.537-4.649-2.025-6.388-2.44-9.862-6.536-10.257-12.1,11.478-36.122-14.943-43.474-19.353-5.385-35.325,1.735-34.219-28.077s-24.221-83.258-54.964-61.5c-17.644,12.487,1.467,37.194-7.209,56.15-8.245,18.012-.26,32.367,18.916,42.4s9.377,18.538,4.444,35.563c-5.926,20.45,25.323,23.037,39.852,23C413.141,1166.1,442.951,1173.921,445.075,1188.175Z" transform="translate(-335 -1003.942)" fill="url(#linear-gradient)"/>
              <g id="Grupo_1240914" data-name="Grupo 1240914" clip-path="url(#clip-path-2)">
                <g id="Grupo_1240913" data-name="Grupo 1240913" transform="translate(-3.981 -4.23)">
                  <path id="Trazado_1218921" data-name="Trazado 1218921" d="M549.971,1148.446l.185-.414C486.4,1119.454,446.5,1056.144,443.44,978.678l-.454.018c1.452,36.713,11.6,71.564,29.356,100.785A173.98,173.98,0,0,0,549.971,1148.446Z" transform="translate(-420.927 -978.678)" fill="#fcfdfe"/>
                  <path id="Trazado_1218922" data-name="Trazado 1218922" d="M472.517,1853.576c17.958-6.537,48.309-7.674,67.658-2.533l.116-.438c-19.425-5.16-49.9-4.019-67.929,2.546Z" transform="translate(-445.385 -1701.94)" fill="#fcfdfe"/>
                  <path id="Trazado_1218923" data-name="Trazado 1218923" d="M943.992,1626.468l.293-.347c-7.944-6.721-12.186-17.2-12.606-31.146-.308-10.226,1.407-22.043,5.1-35.124l-.437-.123c-3.7,13.125-5.425,24.989-5.115,35.26C931.649,1609.067,935.945,1619.659,943.992,1626.468Z" transform="translate(-827.399 -1462.452)" fill="#fcfdfe"/>
                  <path id="Trazado_1218924" data-name="Trazado 1218924" d="M360.28,1470.72l.31-.331c-14.323-13.439-34.749-16.5-49.362-16.7l-.006.454C325.755,1454.339,346.063,1457.379,360.28,1470.72Z" transform="translate(-311.222 -1374.162)" fill="#fcfdfe"/>
                  <path id="Trazado_1218925" data-name="Trazado 1218925" d="M495.933,1050.253l.451-.047c-2.307-22.006,9.761-41.85,17.159-51.721l-.363-.272C505.742,1008.135,493.61,1028.093,495.933,1050.253Z" transform="translate(-464.767 -994.943)" fill="#fcfdfe"/>
                </g>
              </g>
            </g>
          </g>
        </g>
        <g id="Grupo_1240922" data-name="Grupo 1240922" transform="translate(36.606 24.88)">
          <g id="Grupo_1240921" data-name="Grupo 1240921">
            <g id="Grupo_1240920" data-name="Grupo 1240920">
              <path id="Trazado_1218927" data-name="Trazado 1218927" d="M625.271,758.546c2.416.666,8.259-.013,9.708-.818,9.65-5.358,28.369-14.216,32.248-25.221.662-1.879-6.819-7.026-7.26-9.192-3.973-4.439-5.627-5.732-7.331-11.808-5.032-17.937,29.94-32.954,5.324-53.74-18.031-15.225-38.572-15.44-22.8-46.733s14.893-100.765-28.587-92.581c-24.954,4.7-16.641,40.436-35.185,56.431-17.622,15.2-16.123,34.437-.558,54.541s.938,24.387-12.663,40.152c-16.339,18.937,15.764,37,31.3,44.07C601.975,719.342,629.981,742.285,625.271,758.546Z" transform="translate(-553.656 -517.788)" fill="url(#linear-gradient-2)"/>
              <g id="Grupo_1240919" data-name="Grupo 1240919" clip-path="url(#clip-path-3)">
                <g id="Grupo_1240918" data-name="Grupo 1240918" transform="translate(-3.179 -5.509)">
                  <path id="Trazado_1218928" data-name="Trazado 1218928" d="M879.874,718.524l.4-.351c-54.1-61.731-65.706-148.867-31.055-233.089l-.493-.2c-16.422,39.916-22.642,82.1-17.989,122A204.366,204.366,0,0,0,879.874,718.524Z" transform="translate(-779.922 -484.881)" fill="#fcfdfe"/>
                  <path id="Trazado_1218929" data-name="Trazado 1218929" d="M534.665,1464.168c22.377,1.81,55.344,15.454,73.489,30.415l.339-.411c-18.217-15.02-51.316-28.717-73.785-30.535Z" transform="translate(-534.665 -1299.779)" fill="#fcfdfe"/>
                  <path id="Trazado_1218930" data-name="Trazado 1218930" d="M1051.475,1434.306l.482-.227c-5.193-11.066-4.592-24.333,1.786-39.431,4.677-11.071,12.293-22.85,22.638-35.012l-.406-.345c-10.38,12.2-18.025,24.029-22.723,35.149C1046.813,1409.684,1046.215,1423.1,1051.475,1434.306Z" transform="translate(-962.003 -1212.902)" fill="#fcfdfe"/>
                  <path id="Trazado_1218931" data-name="Trazado 1218931" d="M615.406,969.724l.494-.2c-8.716-21.363-29.029-34.632-44.534-42l-.229.482C586.557,935.331,606.755,948.52,615.406,969.724Z" transform="translate(-565.031 -853.417)" fill="#fcfdfe"/>
                  <path id="Trazado_1218932" data-name="Trazado 1218932" d="M842.052,629.81l.505.17c8.309-24.629,30.91-39.912,43.643-46.831l-.254-.468C873.144,589.637,850.419,605.008,842.052,629.81Z" transform="translate(-790.591 -566.308)" fill="#fcfdfe"/>
                </g>
              </g>
            </g>
          </g>
        </g>
        <g id="Grupo_1240927" data-name="Grupo 1240927" transform="translate(172.049 106.269)">
          <g id="Grupo_1240926" data-name="Grupo 1240926">
            <g id="Grupo_1240925" data-name="Grupo 1240925">
              <path id="Trazado_1218934" data-name="Trazado 1218934" d="M1385.967,1188.175c-2.106-.341-6.386-2.94-7.223-4.077-5.567-7.569-16.91-21.064-16.008-30.956.154-1.689,7.769-3.018,8.879-4.537,4.65-2.025,6.388-2.44,9.862-6.536,10.256-12.1-11.478-36.122,14.943-43.474,19.353-5.385,35.325,1.735,34.219-28.077s24.221-83.258,54.964-61.5c17.644,12.487-1.467,37.194,7.209,56.15,8.245,18.012.26,32.367-18.916,42.4s-9.377,18.538-4.444,35.563c5.926,20.45-25.323,23.037-39.851,23C1417.9,1166.1,1388.092,1173.921,1385.967,1188.175Z" transform="translate(-1362.686 -1003.942)" fill="url(#linear-gradient-3)"/>
              <g id="Grupo_1240924" data-name="Grupo 1240924" clip-path="url(#clip-path-4)">
                <g id="Grupo_1240923" data-name="Grupo 1240923" transform="translate(8.107 -4.23)">
                  <path id="Trazado_1218935" data-name="Trazado 1218935" d="M1411.3,1148.446l-.185-.414c63.759-28.579,103.654-91.889,106.717-169.355l.453.018c-1.452,36.713-11.6,71.564-29.356,100.785A173.979,173.979,0,0,1,1411.3,1148.446Z" transform="translate(-1411.112 -978.678)" fill="#fcfdfe"/>
                  <path id="Trazado_1218936" data-name="Trazado 1218936" d="M1683.906,1853.576c-17.958-6.537-48.309-7.674-67.658-2.533l-.116-.438c19.424-5.16,49.9-4.019,67.929,2.546Z" transform="translate(-1581.808 -1701.94)" fill="#fcfdfe"/>
                  <path id="Trazado_1218937" data-name="Trazado 1218937" d="M1485.143,1626.468l-.293-.347c7.944-6.721,12.186-17.2,12.606-31.146.308-10.226-1.407-22.043-5.1-35.124l.437-.123c3.7,13.125,5.425,24.989,5.115,35.26C1497.485,1609.067,1493.189,1619.659,1485.143,1626.468Z" transform="translate(-1472.505 -1462.452)" fill="#fcfdfe"/>
                  <path id="Trazado_1218938" data-name="Trazado 1218938" d="M1888.457,1470.72l-.311-.331c14.323-13.439,34.749-16.5,49.362-16.7l.006.454C1922.98,1454.339,1902.673,1457.379,1888.457,1470.72Z" transform="translate(-1808.284 -1374.162)" fill="#fcfdfe"/>
                  <path id="Trazado_1218939" data-name="Trazado 1218939" d="M1909.289,1050.253l-.451-.047c2.307-22.006-9.761-41.85-17.159-51.721l.363-.272C1899.48,1008.135,1911.612,1028.093,1909.289,1050.253Z" transform="translate(-1811.224 -994.943)" fill="#fcfdfe"/>
                </g>
              </g>
            </g>
          </g>
        </g>
        <g id="Grupo_1240932" data-name="Grupo 1240932" transform="translate(169.786 71.932)">
          <g id="Grupo_1240931" data-name="Grupo 1240931">
            <g id="Grupo_1240930" data-name="Grupo 1240930">
              <path id="Trazado_1218941" data-name="Trazado 1218941" d="M1388.081,1021.906c-2.238.617-7.652-.012-9-.758-8.941-4.964-26.285-13.172-29.879-23.367-.614-1.741,6.318-6.51,6.727-8.516,3.681-4.113,5.214-5.311,6.793-10.94,4.662-16.619-27.74-30.533-4.933-49.791,16.706-14.106,35.738-14.306,21.121-43.3s-13.8-93.361,26.487-85.778c23.12,4.352,15.419,37.465,32.6,52.284,16.327,14.082,14.938,31.906.517,50.533s-.87,22.6,11.733,37.2c15.138,17.545-14.606,34.278-29,40.831C1409.665,985.584,1383.716,1006.841,1388.081,1021.906Z" transform="translate(-1349.168 -798.84)" fill="url(#linear-gradient-4)"/>
              <g id="Grupo_1240929" data-name="Grupo 1240929" clip-path="url(#clip-path-5)">
                <g id="Grupo_1240928" data-name="Grupo 1240928" transform="translate(2.237 -5.106)">
                  <path id="Trazado_1218942" data-name="Trazado 1218942" d="M1440.524,984.817l-.371-.325c50.121-57.194,60.877-137.927,28.773-215.961l.457-.188c15.215,36.983,20.979,76.068,16.667,113.031A189.355,189.355,0,0,1,1440.524,984.817Z" transform="translate(-1427.158 -768.342)" fill="#fcfdfe"/>
                  <path id="Trazado_1218943" data-name="Trazado 1218943" d="M1655.348,1675.682c-20.733,1.677-51.277,14.319-68.089,28.18l-.314-.381c16.878-13.916,47.546-26.607,68.363-28.291Z" transform="translate(-1549.375 -1523.371)" fill="#fcfdfe"/>
                  <path id="Trazado_1218944" data-name="Trazado 1218944" d="M1385.606,1648.01l-.447-.21c4.812-10.253,4.255-22.545-1.655-36.534-4.333-10.257-11.39-21.171-20.975-32.439l.376-.32c9.617,11.306,16.7,22.263,21.053,32.566C1389.925,1625.2,1390.479,1637.623,1385.606,1648.01Z" transform="translate(-1362.529 -1442.874)" fill="#fcfdfe"/>
                  <path id="Trazado_1218945" data-name="Trazado 1218945" d="M1714.466,1217.557l-.457-.186c8.076-19.793,26.9-32.087,41.262-38.916l.212.446C1741.2,1185.693,1722.482,1197.911,1714.466,1217.557Z" transform="translate(-1655.166 -1109.796)" fill="#fcfdfe"/>
                  <path id="Trazado_1218946" data-name="Trazado 1218946" d="M1507.307,902.623l-.468.158c-7.7-22.819-28.639-36.979-40.436-43.389l.236-.434C1478.5,865.4,1499.554,879.644,1507.307,902.623Z" transform="translate(-1449.013 -843.787)" fill="#fcfdfe"/>
                </g>
              </g>
            </g>
          </g>
        </g>
        <g id="Grupo_1240935" data-name="Grupo 1240935" transform="translate(16.861 83.002)">
          <g id="Grupo_1240934" data-name="Grupo 1240934" transform="translate(22.978)">
            <path id="Trazado_1218948" data-name="Trazado 1218948" d="M575.931,1706.8c-8.629-14.3,3.549-37.723,11.221-48.341,22.36-30.949,63.443-31.995,97.125-32.853,33.086-.843,65.025-1.656,88.4,22.083,15.27,15.508,29.311,43.958,19.947,59.111-9.849,15.937-37.2,3.586-102.235,3.368C618.854,1709.925,586.706,1724.647,575.931,1706.8Z" transform="translate(-572.964 -1498.004)" fill="url(#linear-gradient-5)"/>
            <path id="Trazado_1218949" data-name="Trazado 1218949" d="M1092.18,1638.891c0,6.125-14.954,13.476-33.4,13.476s-33.4-7.35-33.4-13.476,14.955-3.387,33.4-3.387S1092.18,1632.767,1092.18,1638.891Z" transform="translate(-949.636 -1505.997)" fill="url(#linear-gradient-6)"/>
            <path id="Trazado_1218950" data-name="Trazado 1218950" d="M1085.185,1403.56c-5.079,0,6.645,35.687-11.819,40.586a2.032,2.032,0,0,0-.454,3.754c4.956,2.686,14.24,6.088,29.466,6.088a37.577,37.577,0,0,0,20.884-6.257,2.031,2.031,0,0,0-.219-3.492c-5.693-2.933-13.594-12.264-11.236-39.766Z" transform="translate(-988.325 -1313.392)" fill="url(#linear-gradient-7)"/>
            <path id="Trazado_1218951" data-name="Trazado 1218951" d="M1059.37,1046.757c.076.448,1.612,33.021,9.057,49.289,2.137,4.669,12.737,4.109,19.6,3.547,5.958-.488,15.3,1.687,17.93-2.427,10.576-16.539,8.783-57.5,8.783-57.5s-5.419-13.629-27.638-13.256S1059.37,1046.757,1059.37,1046.757Z" transform="translate(-977.939 -999.373)" fill="url(#linear-gradient-8)"/>
            <path id="Trazado_1218952" data-name="Trazado 1218952" d="M1022.355,1221.881s-4.648-5.4-9.028-6.122-7.233,10.624-1.258,18.006,12.881,1.26,12.881,1.26Z" transform="translate(-935.726 -1157.004)" fill="url(#linear-gradient-9)"/>
            <path id="Trazado_1218953" data-name="Trazado 1218953" d="M1348.063,1221.881s4.648-5.4,9.028-6.122,7.233,10.624,1.258,18.006-12.881,1.26-12.881,1.26Z" transform="translate(-1216.14 -1157.004)" fill="url(#linear-gradient-10)"/>
            <path id="Trazado_1218954" data-name="Trazado 1218954" d="M1019.455,929.438c.585,1.074,1.256,2.073,1.708,1.955,1.878-.49-5.367-18.795,1.307-25.2,3.45-3.314,7.337-.294,21.47-.934,14.233-.644,17.874-4.049,22.177-1.441,3.92,2.376,7.428,9.162,4.521,29.259l2.427-.56c-1.09-6.583.1-10.736,1.46-13.354.992-1.91,2.787-4.372,2.648-7.93-.087-2.2-.817-2.3-.937-4.109-.352-5.293,5.687-6.718,5.978-11.947.224-4.026-3.249-4.94-2.614-9.148.54-3.578,3.251-4.247,2.823-6.832-.463-2.79-4.1-4.866-6.646-5.59-2.6-.738-3.541.081-5.065-.971-2.464-1.7-1.28-4.717-3.061-5.837-3.171-1.994-9.475,5.971-13.55,3.988-2.467-1.2-1.517-4.784-3.7-5.653-4.22-1.679-11.676,10.142-14.675,8.573-1.436-.751-.051-3.631-2.065-5.751-2.365-2.489-8.042-2.485-10.63.15-2.413,2.456-.364,5.39-2.918,8.5-2.293,2.794-4.943,1.645-7.531,3.884-4.4,3.8-2.866,12.413-2.32,15.484,1.881,10.575,7.736,12.715,6.422,19.926-.336,1.845-1.119,3.9-.56,6.908A14.183,14.183,0,0,0,1019.455,929.438Z" transform="translate(-936.464 -864.966)" fill="url(#linear-gradient-11)"/>
            <g id="Grupo_1240933" data-name="Grupo 1240933" transform="translate(73.093 16.208)" opacity="0.3">
              <path id="Trazado_1218955" data-name="Trazado 1218955" d="M1073.544,987.2c-.52-5.2,3.509-7.619,2.832-11.328-.543-2.979-3.914-5.658-7.08-6.23-6.754-1.22-11.126,8.724-17.842,7.646-5.193-.833-4.617-7.106-10.478-9.629-9.29-4-19.027,8.191-25.2,4.815-1.856-1.015-3.734-3.622-3.867-10.7-3.543,4.069-2.152,11.9-1.637,14.8,1.88,10.575,7.736,12.715,6.422,19.925-.336,1.845-1.119,3.9-.56,6.908a14.185,14.185,0,0,0,3.332,6.633c.585,1.074,1.256,2.073,1.708,1.955,1.878-.49-5.367-18.795,1.307-25.2,3.45-3.313,7.336-.294,21.47-.933,14.233-.644,17.874-4.049,22.177-1.441,3.919,2.376,7.427,9.162,4.521,29.259l2.427-.56c-1.09-6.583.1-10.736,1.46-13.354.409-.787.953-1.67,1.443-2.682a23.89,23.89,0,0,0-1.014-5.632C1074.237,989.108,1073.711,988.877,1073.544,987.2Z" transform="translate(-1009.561 -961.781)" fill="url(#linear-gradient-12)"/>
            </g>
          </g>
          <path id="Trazado_1218956" data-name="Trazado 1218956" d="M730.644,1157.615l-19.66,34.055,11.8,2.834c2.294-5.9,10.158-9.83,14.417-11.141s15.03-18.783,16.783-21.132a5.131,5.131,0,0,0,.681-1.193,1.458,1.458,0,0,0-2.3-1.626,40.724,40.724,0,0,1-9.625,6.158,1.318,1.318,0,0,1-1.534-2.053c2.75-3.283,8.611-8.213,20.227-10.942,5.5-1.292,7.879-6.862,7.879-6.862Z" transform="translate(-664.899 -1098.713)" fill="url(#linear-gradient-13)"/>
          <path id="Trazado_1218957" data-name="Trazado 1218957" d="M481.8,1396.64l15.728,6.782s-27.377,76.266-15.909,121.812c0,0-46.814-.432-45.89-38.955C437.133,1427.515,481.8,1396.64,481.8,1396.64Z" transform="translate(-435.712 -1307.63)" fill="url(#linear-gradient-14)"/>
          <path id="Trazado_1218958" data-name="Trazado 1218958" d="M1447.775,1157.616l19.66,34.056-11.8,2.834c-2.294-5.9-10.158-9.83-14.417-11.141s-15.03-18.783-16.783-21.132a5.125,5.125,0,0,1-.681-1.193,1.458,1.458,0,0,1,2.3-1.626,40.723,40.723,0,0,0,9.625,6.158,1.319,1.319,0,0,0,1.534-2.053c-2.75-3.284-8.611-8.213-20.227-10.942-5.5-1.292-7.879-6.862-7.879-6.862Z" transform="translate(-1246.15 -1098.714)" fill="url(#linear-gradient-15)"/>
          <path id="Trazado_1218959" data-name="Trazado 1218959" d="M1679.282,1396.64l-15.728,6.782s27.377,76.266,15.909,121.812c0,0,46.814-.432,45.89-38.955C1723.945,1427.515,1679.282,1396.64,1679.282,1396.64Z" transform="translate(-1457.995 -1307.63)" fill="url(#linear-gradient-16)"/>
        </g>
        <g id="Grupo_1240955" data-name="Grupo 1240955" transform="translate(31.48 0)">
          <g id="Grupo_1240942" data-name="Grupo 1240942" transform="translate(60.628 13.506)">
            <g id="Grupo_1240936" data-name="Grupo 1240936" transform="translate(46.307 22.623)">
              <path id="Trazado_1218960" data-name="Trazado 1218960" d="M1175.695,610.489c7.667.081,13.872-5.563,13.856-12.606s-6.245-12.817-13.912-12.9-13.873,5.561-13.858,12.6S1168.025,610.408,1175.695,610.489Z" transform="translate(-1161.781 -584.984)" fill="url(#linear-gradient-17)"/>
            </g>
            <g id="Grupo_1240938" data-name="Grupo 1240938">
              <path id="Trazado_1218961" data-name="Trazado 1218961" d="M973.857,549.917c-23.946,13.7-50.648,7.55-68.65-5.64A122.176,122.176,0,0,1,889.5,530.27c-1.8-1.866-5.158-4.167-4.127-7.2.481-1.416,1.9-2.7,2.895-3.874a112.43,112.43,0,0,1,8.891-9.393,89.6,89.6,0,0,1,16.963-12.236A79.068,79.068,0,0,0,897.944,510.1a36.041,36.041,0,0,0-7.47,11.469c-1.23,3.119-.338,3.976,1.553,5.947,10.148,10.571,22.112,21.818,37.84,26.362a61.244,61.244,0,0,0,46.695-5.508Z" transform="translate(-885.178 -489.58)" fill="#97a6b7"/>
              <g id="Grupo_1240937" data-name="Grupo 1240937" transform="translate(2.709)">
                <path id="Trazado_1218962" data-name="Trazado 1218962" d="M1015.837,482.39c-15.2-19.566-32.593-32.12-56.609-32.527l-.452-.006c-23.869-.253-41.165,11.708-56.594,30.793a3.649,3.649,0,0,0,.191,4.826c16.177,17.67,33.672,30.77,57.046,31.018q.663.007,1.332,0c22.83-.234,37.861-11.444,54.854-29.3A3.638,3.638,0,0,0,1015.837,482.39Zm-26.465,20.022h-8.986v7.457H940.808v-3.633h-5.162v-3.824h-8.222V468h10.094a27.38,27.38,0,0,1,21.423-9.551A28.185,28.185,0,0,1,980.019,468h9.353Z" transform="translate(-901.361 -449.852)" fill="url(#linear-gradient-18)"/>
              </g>
              <path id="Trazado_1218963" data-name="Trazado 1218963" d="M1351.978,811.211l-2.7,1.547a58.669,58.669,0,0,0,9.056-3.868l2.7-1.547a58.607,58.607,0,0,1-9.056,3.868Z" transform="translate(-1271.577 -747.494)" fill="#97a6b7"/>
              <path id="Trazado_1218964" data-name="Trazado 1218964" d="M1406.078,802.074l-2.7,1.547q.97-.512,1.927-1.06l2.7-1.547q-.959.547-1.927,1.06Z" transform="translate(-1316.62 -742.224)" fill="#97a6b7"/>
            </g>
            <g id="Grupo_1240939" data-name="Grupo 1240939" transform="translate(33.046 10.443)">
              <path id="Trazado_1218965" data-name="Trazado 1218965" d="M1082.57,536.875c-.03-13.768,12.1-24.8,27.093-24.643s27.17,11.45,27.2,25.218-12.1,24.8-27.091,24.644S1082.6,550.645,1082.57,536.875Zm27.12-12.464c-7.669-.081-13.873,5.561-13.858,12.6s6.245,12.819,13.914,12.9,13.872-5.563,13.856-12.606-6.245-12.817-13.912-12.9Z" transform="translate(-1082.57 -512.23)" fill="url(#linear-gradient-19)"/>
            </g>
            <g id="Grupo_1240941" data-name="Grupo 1240941" transform="translate(0 3.898)">
              <path id="Trazado_1218966" data-name="Trazado 1218966" d="M973.857,567.469c-23.946,12.914-50.648,7.118-68.65-5.317a120.129,120.129,0,0,1-15.71-13.2c-1.8-1.759-5.158-3.928-4.127-6.786.481-1.335,1.9-2.545,2.895-3.653a108.912,108.912,0,0,1,8.891-8.855,89.652,89.652,0,0,1,16.963-11.535,78.664,78.664,0,0,0-16.174,11.813,33.847,33.847,0,0,0-7.47,10.813c-1.23,2.94-.338,3.749,1.553,5.607,10.148,9.966,22.112,20.568,37.84,24.853a64.551,64.551,0,0,0,46.695-5.193Z" transform="translate(-885.178 -510.587)" fill="url(#linear-gradient-18)"/>
              <g id="Grupo_1240940" data-name="Grupo 1240940" transform="translate(2.709)">
                <path id="Trazado_1218967" data-name="Trazado 1218967" d="M960.746,535.959q-.669.007-1.332,0c-23.373-.233-40.868-12.584-57.046-29.242a3.3,3.3,0,0,1-.191-4.549c15.429-17.992,32.725-29.268,56.594-29.03l.452.006c24.016.384,41.414,12.219,56.609,30.665a3.284,3.284,0,0,1-.234,4.533C998.609,525.17,983.577,535.738,960.746,535.959Zm-1.808-54.724c-14.871-.148-26.9,10.169-26.873,23.044s12.11,23.433,26.981,23.581,26.9-10.168,26.871-23.044-12.111-23.433-26.979-23.581Z" transform="translate(-901.357 -473.134)" fill="#fff"/>
              </g>
              <path id="Trazado_1218968" data-name="Trazado 1218968" d="M1351.978,813.8l-2.7,1.459a60.618,60.618,0,0,0,9.056-3.647l2.7-1.459a60.542,60.542,0,0,1-9.056,3.647Z" transform="translate(-1271.577 -753.732)" fill="#a3a3a3"/>
              <path id="Trazado_1218969" data-name="Trazado 1218969" d="M1406.078,805.186l-2.7,1.459q.97-.483,1.927-1l2.7-1.459q-.959.516-1.927,1Z" transform="translate(-1316.62 -748.764)" fill="#9e9e9e"/>
            </g>
          </g>
          <g id="Grupo_1240948" data-name="Grupo 1240948">
            <g id="Grupo_1240943" data-name="Grupo 1240943" transform="translate(1.805 0.13)">
              <path id="Trazado_1218970" data-name="Trazado 1218970" d="M659.62,451.085a46.636,46.636,0,0,0-13.669,33.228c.025,12.555,3.817,23.786,12.69,32.624,1.837,1.831,5.918,2.376,7.748.538a4.7,4.7,0,0,0-.013-6.64,37.612,37.612,0,0,1-.1-53.124,4.691,4.691,0,0,0,.8-5.551h0a6.5,6.5,0,0,0-5.284-3.535,9.579,9.579,0,0,0,.466,1.134A4.666,4.666,0,0,0,659.62,451.085Z" transform="translate(-627.178 -435.454)" fill="url(#linear-gradient-21)"/>
              <path id="Trazado_1218971" data-name="Trazado 1218971" d="M763.1,530.03c-10.963,11.006-12.169,28.235-1.164,39.2,1.837,1.831,6.052,2.469,7.882.631a4.7,4.7,0,0,0-.013-6.64,18.8,18.8,0,0,1-.052-26.563,4.684,4.684,0,0,0,.1-6.514l0,0a7.863,7.863,0,0,0-5.046-2.617c.555.439,1.03.813,1.444,1.131A4.674,4.674,0,0,0,763.1,530.03Z" transform="translate(-717.35 -501.145)" fill="url(#linear-gradient-22)"/>
              <path id="Trazado_1218972" data-name="Trazado 1218972" d="M556.009,370.96a4.672,4.672,0,0,0-3.057,1.369,65.291,65.291,0,0,0-19.135,46.521c.034,17.576,5.462,33.283,17.883,45.656,1.837,1.831,6.244,2.615,8.073.777a4.7,4.7,0,0,0-.013-6.64,56.416,56.416,0,0,1-.155-79.687,4.68,4.68,0,0,0,.9-5.35h0s-.014-.039-.045-.109a6.37,6.37,0,0,0-4.891-3.542Q555.812,370.489,556.009,370.96Z" transform="translate(-533.816 -369.954)" fill="url(#linear-gradient-23)"/>
            </g>
            <g id="Grupo_1240947" data-name="Grupo 1240947">
              <g id="Grupo_1240944" data-name="Grupo 1240944">
                <path id="Trazado_1218973" data-name="Trazado 1218973" d="M550.195,373.863a4.678,4.678,0,0,1-1.369,3.323,56.417,56.417,0,0,0,.155,79.687,4.7,4.7,0,0,1-6.628,6.653,65.3,65.3,0,0,1-19.316-46.446h0a65.291,65.291,0,0,1,19.135-46.52,4.7,4.7,0,0,1,8.022,3.3Z" transform="translate(-523.037 -369.176)" fill="url(#linear-gradient-24)"/>
              </g>
              <g id="Grupo_1240945" data-name="Grupo 1240945" transform="translate(18.773 13.255)">
                <path id="Trazado_1218974" data-name="Trazado 1218974" d="M656.864,453.04a4.678,4.678,0,0,1-1.369,3.322,37.612,37.612,0,0,0,.1,53.124,4.7,4.7,0,1,1-6.627,6.653,47,47,0,0,1-.129-66.4,4.7,4.7,0,0,1,8.022,3.3Z" transform="translate(-635.173 -448.353)" fill="url(#linear-gradient-25)"/>
              </g>
              <g id="Grupo_1240946" data-name="Grupo 1240946" transform="translate(37.549 26.51)">
                <path id="Trazado_1218975" data-name="Trazado 1218975" d="M763.548,532.213a4.679,4.679,0,0,1-1.369,3.323,18.8,18.8,0,0,0,.052,26.563,4.7,4.7,0,0,1-6.628,6.653,28.206,28.206,0,0,1-.077-39.842,4.7,4.7,0,0,1,8.022,3.3Z" transform="translate(-747.326 -527.526)" fill="url(#linear-gradient-26)"/>
              </g>
            </g>
          </g>
          <g id="Grupo_1240954" data-name="Grupo 1240954" transform="translate(183.757)">
            <g id="Grupo_1240949" data-name="Grupo 1240949" transform="translate(0 0.13)">
              <path id="Trazado_1218976" data-name="Trazado 1218976" d="M1707.966,451.085a46.635,46.635,0,0,1,13.669,33.228c-.024,12.555-3.817,23.786-12.69,32.624-1.837,1.831-5.918,2.376-7.748.538a4.7,4.7,0,0,1,.013-6.64,37.612,37.612,0,0,0,.1-53.124,4.691,4.691,0,0,1-.8-5.551h0a6.5,6.5,0,0,1,5.284-3.535,9.568,9.568,0,0,1-.466,1.134A4.665,4.665,0,0,1,1707.966,451.085Z" transform="translate(-1686.573 -435.454)" fill="url(#linear-gradient-27)"/>
              <path id="Trazado_1218977" data-name="Trazado 1218977" d="M1628.743,530.03c10.963,11.006,12.169,28.235,1.164,39.2-1.837,1.831-6.052,2.469-7.882.631a4.694,4.694,0,0,1,.013-6.64,18.8,18.8,0,0,0,.052-26.563,4.685,4.685,0,0,1-.1-6.514l0,0a7.863,7.863,0,0,1,5.046-2.617c-.555.439-1.03.813-1.444,1.131A4.677,4.677,0,0,1,1628.743,530.03Z" transform="translate(-1620.656 -501.145)" fill="url(#linear-gradient-28)"/>
              <path id="Trazado_1218978" data-name="Trazado 1218978" d="M1784.133,370.96a4.672,4.672,0,0,1,3.057,1.369,65.29,65.29,0,0,1,19.135,46.521c-.034,17.576-5.462,33.283-17.883,45.656-1.837,1.831-6.244,2.615-8.074.777a4.7,4.7,0,0,1,.013-6.64,56.416,56.416,0,0,0,.155-79.687,4.68,4.68,0,0,1-.9-5.35h0s.014-.039.045-.109a6.369,6.369,0,0,1,4.891-3.542C1784.409,370.31,1784.265,370.645,1784.133,370.96Z" transform="translate(-1752.491 -369.954)" fill="url(#linear-gradient-29)"/>
            </g>
            <g id="Grupo_1240953" data-name="Grupo 1240953" transform="translate(1.805)">
              <g id="Grupo_1240950" data-name="Grupo 1240950" transform="translate(26.509)">
                <path id="Trazado_1218979" data-name="Trazado 1218979" d="M1789.946,373.863a4.679,4.679,0,0,0,1.369,3.323,56.416,56.416,0,0,1-.155,79.687,4.7,4.7,0,0,0,6.628,6.653,65.3,65.3,0,0,0,19.316-46.446h0a65.29,65.29,0,0,0-19.135-46.52,4.7,4.7,0,0,0-8.022,3.3Z" transform="translate(-1789.778 -369.176)" fill="url(#linear-gradient-30)"/>
              </g>
              <g id="Grupo_1240951" data-name="Grupo 1240951" transform="translate(13.254 13.255)">
                <path id="Trazado_1218980" data-name="Trazado 1218980" d="M1710.722,453.04a4.679,4.679,0,0,0,1.369,3.322,37.612,37.612,0,0,1-.1,53.124,4.7,4.7,0,1,0,6.627,6.653,47,47,0,0,0,.129-66.4,4.7,4.7,0,0,0-8.022,3.3Z" transform="translate(-1710.606 -448.353)" fill="url(#linear-gradient-31)"/>
              </g>
              <g id="Grupo_1240952" data-name="Grupo 1240952" transform="translate(0 26.51)">
                <path id="Trazado_1218981" data-name="Trazado 1218981" d="M1631.5,532.213a4.68,4.68,0,0,0,1.369,3.323,18.8,18.8,0,0,1-.052,26.563,4.7,4.7,0,0,0,6.628,6.653,28.206,28.206,0,0,0,.077-39.842,4.7,4.7,0,0,0-8.022,3.3Z" transform="translate(-1631.435 -527.526)" fill="url(#linear-gradient-32)"/>
              </g>
            </g>
          </g>
        </g>
      </g>
    </g>
  </g>
</svg>
