<svg xmlns="http://www.w3.org/2000/svg" xmlns:xlink="http://www.w3.org/1999/xlink" width="108" height="108" viewBox="0 0 108 108">
  <defs>
    <filter id="Trazado_904820" x="0" y="0" width="108" height="108" filterUnits="userSpaceOnUse">
      <feOffset dy="3" input="SourceAlpha"/>
      <feGaussianBlur stdDeviation="3" result="blur"/>
      <feFlood flood-opacity="0.161"/>
      <feComposite operator="in" in2="blur"/>
      <feComposite in="SourceGraphic"/>
    </filter>
  </defs>
  <g id="Grupo_1240958" data-name="Grupo 1240958" transform="translate(-200.058 -8387)">
    <g id="Grupo_1226222" data-name="Grupo 1226222" transform="translate(209.059 8393)">
      <g id="Grupo_1223550" data-name="Grupo 1223550" transform="translate(0 0)">
        <g id="Grupo_1223164" data-name="Grupo 1223164">
          <g id="Grupo_1203639" data-name="Grupo 1203639">
            <g id="Grupo_1202437" data-name="Grupo 1202437">
              <g id="Grupo_1177315" data-name="Grupo 1177315">
                <g id="Grupo_1173585" data-name="Grupo 1173585">
                  <g id="Grupo_1173428" data-name="Grupo 1173428">
                    <g id="Grupo_1171958" data-name="Grupo 1171958">
                      <g id="Grupo_1167341" data-name="Grupo 1167341">
                        <g id="Grupo_1166792" data-name="Grupo 1166792">
                          <g transform="matrix(1, 0, 0, 1, -9, -6)" filter="url(#Trazado_904820)">
                            <g id="Trazado_904820-2" data-name="Trazado 904820" transform="translate(9 6)" fill="#ebe9f0">
                              <path d="M 44.99999618530273 88.49999237060547 C 39.12687301635742 88.49999237060547 33.43022155761719 87.35006713867188 28.06829643249512 85.08216857910156 C 22.88852119445801 82.89130401611328 18.23629570007324 79.75457763671875 14.24084663391113 75.75914001464844 C 10.24540901184082 71.76369476318359 7.108683586120605 67.11146545410156 4.917821407318115 61.93169403076172 C 2.649921178817749 56.56976699829102 1.499996185302734 50.87311553955078 1.499996185302734 44.99999237060547 C 1.499996185302734 39.12686920166016 2.649921178817749 33.43021774291992 4.917821407318115 28.06829261779785 C 7.108683586120605 22.88851737976074 10.24540901184082 18.23630523681641 14.24084663391113 14.24085521697998 C 18.23629570007324 10.24540519714355 22.88852119445801 7.108692169189453 28.06829643249512 4.917829990386963 C 33.43022155761719 2.649929761886597 39.12687301635742 1.500004887580872 44.99999618530273 1.500004887580872 C 50.87311935424805 1.500004887580872 56.56977081298828 2.649929761886597 61.93169784545898 4.917829990386963 C 67.11147308349609 7.108692169189453 71.76369476318359 10.24540519714355 75.75914764404297 14.24085521697998 C 79.75458526611328 18.23630523681641 82.89131164550781 22.88851737976074 85.08216857910156 28.06829261779785 C 87.35007476806641 33.43021774291992 88.5 39.12686920166016 88.5 44.99999237060547 C 88.5 50.87311553955078 87.35007476806641 56.56976699829102 85.08216857910156 61.93169403076172 C 82.89131164550781 67.11146545410156 79.75458526611328 71.76369476318359 75.75914764404297 75.75914001464844 C 71.76369476318359 79.75457763671875 67.11147308349609 82.89130401611328 61.93169784545898 85.08216857910156 C 56.56977081298828 87.35006713867188 50.87311935424805 88.49999237060547 44.99999618530273 88.49999237060547 Z" stroke="none"/>
                              <path d="M 44.99999618530273 2.999992370605469 C 39.32870864868164 2.999992370605469 33.82865142822266 4.11004638671875 28.65262603759766 6.299331665039062 C 23.65165710449219 8.414566040039062 19.15968322753906 11.44333648681641 15.301513671875 15.30150604248047 C 11.44333648681641 19.15967559814453 8.414566040039062 23.65164947509766 6.299339294433594 28.65262222290039 C 4.110054016113281 33.82864761352539 2.999992370605469 39.32870483398438 2.999992370605469 44.99999237060547 C 2.999992370605469 50.67127990722656 4.110054016113281 56.17132186889648 6.299339294433594 61.34736633300781 C 8.414566040039062 66.34833526611328 11.44333648681641 70.84029388427734 15.301513671875 74.69846343994141 C 19.15968322753906 78.55663299560547 23.65165710449219 81.58540344238281 28.65262603759766 83.70063781738281 C 33.82865142822266 85.88992309570312 39.32870864868164 86.99997711181641 44.99999618530273 86.99997711181641 C 50.67128372192383 86.99997711181641 56.17134094238281 85.88992309570312 61.34736633300781 83.70063781738281 C 66.34834289550781 81.58540344238281 70.84030914306641 78.55663299560547 74.69847869873047 74.69846343994141 C 78.55665588378906 70.84029388427734 81.58542633056641 66.34833526611328 83.70065307617188 61.34736633300781 C 85.88993835449219 56.17132186889648 87 50.67127990722656 87 44.99999237060547 C 87 39.32870483398438 85.88993835449219 33.82864761352539 83.70065307617188 28.65262222290039 C 81.58542633056641 23.65164947509766 78.55665588378906 19.15967559814453 74.69847869873047 15.30150604248047 C 70.84030914306641 11.44333648681641 66.34834289550781 8.414566040039062 61.34736633300781 6.299331665039062 C 56.17134094238281 4.11004638671875 50.67128372192383 2.999992370605469 44.99999618530273 2.999992370605469 M 44.99999618530273 -7.62939453125e-06 C 69.85281372070312 -7.62939453125e-06 90 20.14717864990234 90 44.99999237060547 C 90 69.85279083251953 69.85281372070312 89.99997711181641 44.99999618530273 89.99997711181641 C 20.14717864990234 89.99997711181641 -7.62939453125e-06 69.85279083251953 -7.62939453125e-06 44.99999237060547 C -7.62939453125e-06 20.14717864990234 20.14717864990234 -7.62939453125e-06 44.99999618530273 -7.62939453125e-06 Z" stroke="none" fill="#453179"/>
                            </g>
                          </g>
                        </g>
                      </g>
                    </g>
                  </g>
                </g>
              </g>
            </g>
          </g>
        </g>
      </g>
    </g>
    <g id="cognitivo_7_" data-name="cognitivo (7)" transform="translate(221.273 8405.188)">
      <path id="Trazado_1218982" data-name="Trazado 1218982" d="M237.97,107.028a16.576,16.576,0,0,0-17.018,16.57c0,.027,1.456,2.911,1.456,2.911l-1.456,13.341h5.66V148.1h9.7v6.426H254.1V123.773A16.688,16.688,0,0,0,237.97,107.028Z" transform="translate(-194.261 -94.469)" fill="#fdd8a8"/>
      <path id="Trazado_1218983" data-name="Trazado 1218983" d="M225.22,228.392a6.912,6.912,0,0,0,0-12.392l-3.778-1.868a16.611,16.611,0,0,0-.49,4.012c0,.027,1.456,2.911,1.456,2.911L221.4,230.28Z" transform="translate(-194.261 -189.015)" fill="#ffc477"/>
      <path id="Trazado_1218984" data-name="Trazado 1218984" d="M30.682,148.585,1.746,162.891V126.115L30.682,140.42a4.554,4.554,0,0,1,2.536,4.083h0A4.554,4.554,0,0,1,30.682,148.585Z" transform="translate(-0.767 -111.322)" fill="#bcf4e2"/>
      <g id="Grupo_1240957" data-name="Grupo 1240957" transform="translate(33.227 12.553)">
        <rect id="Rectángulo_423947" data-name="Rectángulo 423947" width="8.409" height="2.357" transform="translate(8.827 40.98)" fill="#ffc477"/>
        <path id="Trazado_1218985" data-name="Trazado 1218985" d="M292.682,126.353v-7.794c0-1.332,1.425-3.132,2.367-4.323a10.5,10.5,0,0,0,1.864-3.663,16.341,16.341,0,0,0-9.755-3.544,16.51,16.51,0,0,0-10.481,3.38,10.509,10.509,0,0,0,1.9,3.825c.832,1.055,2.379,3.018,2.379,4.326v7.794Z" transform="translate(-276.677 -107.022)" fill="#ffc477"/>
      </g>
      <path id="Trazado_1218986" data-name="Trazado 1218986" d="M310.073,51.845a8.133,8.133,0,1,0-14.524,5.043c1.265,1.6,2.886,3.743,2.886,5.786h7.01c0-2.095,1.576-4.144,2.876-5.786A8.1,8.1,0,0,0,310.073,51.845Z" transform="translate(-258.571 -38.585)" fill="#fdd844"/>
      <circle id="Elipse_12805" data-name="Elipse 12805" cx="4.184" cy="4.184" r="4.184" transform="translate(39.185 9.017)" fill="#34e5e2"/>
      <path id="Trazado_1218987" data-name="Trazado 1218987" d="M30.682,275.735,1.746,290.04V292.4l28.936-14.305a4.544,4.544,0,0,0,2.379-5.261A4.553,4.553,0,0,1,30.682,275.735Z" transform="translate(-0.767 -240.829)" fill="#70f2c3"/>
      <path id="Trazado_1218988" data-name="Trazado 1218988" d="M449.671,135.042l-1.15,1.343a15.938,15.938,0,0,1,5.575,12.122v30.751h1.768V148.507A17.7,17.7,0,0,0,449.671,135.042Z" transform="translate(-395.137 -119.202)"/>
      <path id="Trazado_1218989" data-name="Trazado 1218989" d="M226.016,134.821l-1.125-1.364a17.394,17.394,0,0,0-5.679,8.638l1.7.489A15.633,15.633,0,0,1,226.016,134.821Z" transform="translate(-192.725 -117.803)"/>
      <rect id="Rectángulo_423948" data-name="Rectángulo 423948" width="1.768" height="1.768" transform="translate(15.671 23.043) rotate(-153.691)"/>
      <rect id="Rectángulo_423949" data-name="Rectángulo 423949" width="1.768" height="1.768" transform="translate(9.12 19.804) rotate(-153.691)"/>
      <rect id="Rectángulo_423950" data-name="Rectángulo 423950" width="1.768" height="1.768" transform="translate(12.396 21.423) rotate(-153.691)"/>
      <rect id="Rectángulo_423951" data-name="Rectángulo 423951" width="1.768" height="1.768" transform="translate(29.559 27.937) rotate(116.309)"/>
      <rect id="Rectángulo_423952" data-name="Rectángulo 423952" width="1.768" height="1.768" transform="translate(2.57 16.565) rotate(-153.691)"/>
      <rect id="Rectángulo_423953" data-name="Rectángulo 423953" width="1.768" height="1.768" transform="translate(22.222 26.281) rotate(-153.691)"/>
      <rect id="Rectángulo_423954" data-name="Rectángulo 423954" width="1.768" height="1.768" transform="translate(25.497 27.901) rotate(-153.691)"/>
      <rect id="Rectángulo_423955" data-name="Rectángulo 423955" width="1.768" height="1.768" transform="translate(5.845 18.184) rotate(-153.691)"/>
      <rect id="Rectángulo_423956" data-name="Rectángulo 423956" width="1.768" height="1.768" transform="translate(18.946 24.663) rotate(-153.691)"/>
      <path id="Trazado_1218990" data-name="Trazado 1218990" d="M220.078,359.543h-5.558l.266-2.442-1.758-.192-.48,4.4h5.762v8.247h9.7V375.1h1.768v-5.542h7.525V367.79H220.078Z" transform="translate(-186.843 -315.045)"/>
      <rect id="Rectángulo_423957" data-name="Rectángulo 423957" width="1.768" height="1.768" transform="translate(5.964 48.119) rotate(63.691)"/>
      <rect id="Rectángulo_423958" data-name="Rectángulo 423958" width="1.768" height="1.768" transform="translate(2.686 49.736) rotate(63.691)"/>
      <rect id="Rectángulo_423959" data-name="Rectángulo 423959" width="1.768" height="1.768" transform="translate(22.339 40.02) rotate(63.691)"/>
      <rect id="Rectángulo_423960" data-name="Rectángulo 423960" width="1.768" height="1.768" transform="translate(27.307 37.567) rotate(-26.309)"/>
      <rect id="Rectángulo_423961" data-name="Rectángulo 423961" width="1.768" height="1.768" transform="translate(26.401 39.985) rotate(153.691)"/>
      <rect id="Rectángulo_423962" data-name="Rectángulo 423962" width="1.768" height="1.768" transform="translate(15.791 43.261) rotate(63.691)"/>
      <rect id="Rectángulo_423963" data-name="Rectángulo 423963" width="1.768" height="1.768" transform="translate(19.064 41.64) rotate(63.691)"/>
      <rect id="Rectángulo_423964" data-name="Rectángulo 423964" width="1.768" height="1.768" transform="translate(12.516 44.881) rotate(63.691)"/>
      <rect id="Rectángulo_423965" data-name="Rectángulo 423965" width="1.768" height="1.768" transform="translate(9.238 46.496) rotate(63.691)"/>
      <path id="Trazado_1218991" data-name="Trazado 1218991" d="M450.02,61.657l1.659-.612a13.242,13.242,0,0,0-.781-1.723l-1.554.843A11.455,11.455,0,0,1,450.02,61.657Z" transform="translate(-395.864 -52.364)"/>
      <path id="Trazado_1218992" data-name="Trazado 1218992" d="M411.242,14.059a13.343,13.343,0,0,0-1.606-1l-.827,1.563a11.535,11.535,0,0,1,1.392.869Z" transform="translate(-360.084 -11.526)"/>
      <path id="Trazado_1218993" data-name="Trazado 1218993" d="M293.189,18.387l-.932-1.5a13.391,13.391,0,0,0-1.533,1.108l1.135,1.356A11.625,11.625,0,0,1,293.189,18.387Z" transform="translate(-255.85 -14.904)"/>
      <path id="Trazado_1218994" data-name="Trazado 1218994" d="M459.388,92.546l1.765-.1a13.283,13.283,0,0,0-.242-1.877l-1.733.351A11.507,11.507,0,0,1,459.388,92.546Z" transform="translate(-404.545 -79.946)"/>
      <path id="Trazado_1218995" data-name="Trazado 1218995" d="M383.789,2.5a13.2,13.2,0,0,0-1.83-.49l-.333,1.736a11.428,11.428,0,0,1,1.584.424Z" transform="translate(-336.089 -1.779)"/>
      <path id="Trazado_1218996" data-name="Trazado 1218996" d="M321.3,5.436l-.451-1.709a13.191,13.191,0,0,0-1.791.614l.692,1.627A11.406,11.406,0,0,1,321.3,5.436Z" transform="translate(-280.856 -3.29)"/>
      <path id="Trazado_1218997" data-name="Trazado 1218997" d="M271.093,39.5l-1.326-1.17a13.424,13.424,0,0,0-1.148,1.5l1.478.971A11.646,11.646,0,0,1,271.093,39.5Z" transform="translate(-236.337 -33.834)"/>
      <path id="Trazado_1218998" data-name="Trazado 1218998" d="M352.487,1.769q.3,0,.593.007l.065-1.767Q352.8,0,352.463,0c-.4.006-.809.03-1.208.072l.185,1.758C351.786,1.795,352.138,1.774,352.487,1.769Z" transform="translate(-309.28 0)"/>
      <path id="Trazado_1218999" data-name="Trazado 1218999" d="M256.906,66.94,255.3,66.2a13.249,13.249,0,0,0-.663,1.774l1.7.5A11.455,11.455,0,0,1,256.906,66.94Z" transform="translate(-223.993 -58.439)"/>
      <path id="Trazado_1219000" data-name="Trazado 1219000" d="M251.862,100.042c0-.042,0-.083,0-.125a11.537,11.537,0,0,1,.1-1.513l-1.753-.232a13.345,13.345,0,0,0-.115,1.745q0,.071,0,.143Z" transform="translate(-219.984 -86.657)"/>
      <path id="Trazado_1219001" data-name="Trazado 1219001" d="M433.286,32.745,432.042,34a11.644,11.644,0,0,1,1.081,1.234l1.409-1.068A13.407,13.407,0,0,0,433.286,32.745Z" transform="translate(-380.591 -28.904)"/>
      <path id="Trazado_1219002" data-name="Trazado 1219002" d="M295.16,36.177A9.027,9.027,0,0,0,288.2,50.784c1.008,1.279,2.7,3.419,2.7,5.239v.884h8.778v-.884c0-1.845,1.552-3.806,2.685-5.237a9.017,9.017,0,0,0-7.2-14.608Zm5.816,13.511c-1.137,1.437-2.644,3.341-2.993,5.451h-1.811v-6.3l2.275-3.371-1.465-.989-1.694,2.509-1.694-2.509-1.465.989,2.275,3.371v6.3h-1.817c-.376-2.127-1.985-4.168-3-5.449a7.258,7.258,0,0,1,5.593-11.744,7.249,7.249,0,0,1,5.791,11.743Z" transform="translate(-251.918 -31.933)"/>
      <rect id="Rectángulo_423966" data-name="Rectángulo 423966" width="8.267" height="1.768" transform="translate(39.236 25.902)"/>
      <rect id="Rectángulo_423967" data-name="Rectángulo 423967" width="8.267" height="1.768" transform="translate(39.236 28.598)"/>
      <rect id="Rectángulo_423968" data-name="Rectángulo 423968" width="1.768" height="1.768" transform="translate(26.455 32.297)"/>
      <rect id="Rectángulo_423969" data-name="Rectángulo 423969" width="1.768" height="1.768" transform="translate(15.493 32.297)"/>
      <rect id="Rectángulo_423970" data-name="Rectángulo 423970" width="1.768" height="1.768" transform="translate(11.839 32.297)"/>
      <rect id="Rectángulo_423971" data-name="Rectángulo 423971" width="1.768" height="1.768" transform="translate(19.147 32.297)"/>
      <rect id="Rectángulo_423972" data-name="Rectángulo 423972" width="1.768" height="1.768" transform="translate(22.801 32.297)"/>
      <rect id="Rectángulo_423973" data-name="Rectángulo 423973" width="1.768" height="1.768" transform="translate(8.185 32.297)"/>
      <rect id="Rectángulo_423974" data-name="Rectángulo 423974" width="1.768" height="1.768" transform="translate(0.877 32.297)"/>
      <rect id="Rectángulo_423975" data-name="Rectángulo 423975" width="1.768" height="1.768" transform="translate(4.531 32.297)"/>
    </g>
  </g>
</svg>
