<svg xmlns="http://www.w3.org/2000/svg" xmlns:xlink="http://www.w3.org/1999/xlink" width="400" height="323" viewBox="0 0 400 323">
  <defs>
    <clipPath id="clip-path">
      <rect id="Rectángulo_423976" data-name="Rectángulo 423976" width="400" height="323" transform="translate(1020 10076)" fill="#fff" stroke="#707070" stroke-width="1"/>
    </clipPath>
    <clipPath id="clip-path-2">
      <rect id="Rectángulo_423996" data-name="Rectángulo 423996" width="313.109" height="323.063" fill="none"/>
    </clipPath>
  </defs>
  <g id="Enmascarar_grupo_1211471" data-name="Enmascarar grupo 1211471" transform="translate(-1020 -10076)" clip-path="url(#clip-path)">
    <g id="Grupo_1240981" data-name="Grupo 1240981" transform="translate(1063.445 10076)">
      <g id="Grupo_1240980" data-name="Grupo 1240980" clip-path="url(#clip-path-2)">
        <g id="Grupo_1240979" data-name="Grupo 1240979">
          <g id="Grupo_1240978" data-name="Grupo 1240978" clip-path="url(#clip-path-2)">
            <path id="Trazado_1219105" data-name="Trazado 1219105" d="M174.533,43.536l26.084,4.655s-10.974-7.69-8.826-25.952C191.791,22.239,187.965,38.832,174.533,43.536Z" transform="translate(-58.266 -7.424)" fill="none" stroke="#f3de50" stroke-linecap="round" stroke-linejoin="round" stroke-width="1.417"/>
            <line id="Línea_685" data-name="Línea 685" x1="9.122" y2="51.111" transform="translate(110.774 36.76)" fill="none" stroke="#f3de50" stroke-linecap="round" stroke-linejoin="round" stroke-width="1.417"/>
            <line id="Línea_686" data-name="Línea 686" x1="10.294" y2="57.677" transform="translate(128.428 40.119)" fill="none" stroke="#f3de50" stroke-linecap="round" stroke-linejoin="round" stroke-width="1.417"/>
            <path id="Trazado_1219106" data-name="Trazado 1219106" d="M191.819,79.041l-9.068-1.618,1.319-7.392a4.606,4.606,0,1,1,9.068,1.618Z" transform="translate(-61.009 -22.111)" fill="none" stroke="#f3de50" stroke-linecap="round" stroke-linejoin="round" stroke-width="1.417"/>
            <path id="Rectángulo_423987" data-name="Rectángulo 423987" d="M.273,0H2.1a.274.274,0,0,1,.274.274V4.7a.274.274,0,0,1-.274.274H.274A.274.274,0,0,1,0,4.7V.273A.273.273,0,0,1,.273,0Z" transform="matrix(0.176, -0.984, 0.984, 0.176, 118.136, 61.356)" fill="none" stroke="#fff" stroke-linecap="round" stroke-linejoin="round" stroke-width="1.417"/>
            <rect id="Rectángulo_423988" data-name="Rectángulo 423988" width="2.375" height="4.976" rx="0.274" transform="matrix(0.176, -0.984, 0.984, 0.176, 120.458, 64.435)" fill="none" stroke="#fff" stroke-linecap="round" stroke-linejoin="round" stroke-width="1.417"/>
            <path id="Rectángulo_423989" data-name="Rectángulo 423989" d="M.273,0H2.1a.274.274,0,0,1,.274.274V4.7a.274.274,0,0,1-.274.274H.274A.274.274,0,0,1,0,4.7V.273A.273.273,0,0,1,.273,0Z" transform="matrix(0.176, -0.984, 0.984, 0.176, 113.205, 80.291)" fill="none" stroke="#fff" stroke-linecap="round" stroke-linejoin="round" stroke-width="1.417"/>
            <path id="Rectángulo_423990" data-name="Rectángulo 423990" d="M.273,0H2.1a.274.274,0,0,1,.274.274V4.7a.274.274,0,0,1-.274.274H.273A.273.273,0,0,1,0,4.7V.273A.273.273,0,0,1,.273,0Z" transform="matrix(0.176, -0.984, 0.984, 0.176, 124.501, 85.868)" fill="none" stroke="#fff" stroke-linecap="round" stroke-linejoin="round" stroke-width="1.417"/>
            <path id="Rectángulo_423991" data-name="Rectángulo 423991" d="M.273,0H2.1a.274.274,0,0,1,.274.274V4.7a.274.274,0,0,1-.274.274H.274A.274.274,0,0,1,0,4.7V.273A.273.273,0,0,1,.273,0Z" transform="matrix(0.176, -0.984, 0.984, 0.176, 131.338, 43.379)" fill="none" stroke="#fff" stroke-linecap="round" stroke-linejoin="round" stroke-width="1.417"/>
            <rect id="Rectángulo_423992" data-name="Rectángulo 423992" width="2.375" height="4.976" rx="0.274" transform="matrix(0.176, -0.984, 0.984, 0.176, 121.357, 87.72)" fill="none" stroke="#fff" stroke-linecap="round" stroke-linejoin="round" stroke-width="1.417"/>
            <line id="Línea_687" data-name="Línea 687" y1="14.342" x2="2.559" transform="translate(133.525 0.472)" fill="none" stroke="#f3de50" stroke-linecap="round" stroke-linejoin="round" stroke-width="1.417"/>
            <path id="Trazado_1219107" data-name="Trazado 1219107" d="M195.421,2.253a6.792,6.792,0,0,0-5.4-1.282c-1.7.335-3.2,1.309-4.844,1.84a8.441,8.441,0,0,1-6.232-.342,14.486,14.486,0,0,0,8.073,5.2,8.4,8.4,0,0,0,3.3.2,20.262,20.262,0,0,1,2.21-.432,2.107,2.107,0,0,1,1.967.85" transform="translate(-59.738 -0.284)" fill="none" stroke="#f3de50" stroke-linecap="round" stroke-linejoin="round" stroke-width="1.417"/>
            <path id="Trazado_1219108" data-name="Trazado 1219108" d="M344.761,119.026q14.8,4.53,29.893,8c1.318-7.163,6.223-13.066,11.031-18.536,1.275-1.451,2.613-3.018,2.87-4.932a3.207,3.207,0,0,0-4.1-3.708,19.557,19.557,0,0,0-7.522,5.183,4.124,4.124,0,0,0-1.172,1.853,1.6,1.6,0,0,0,.832,1.857c.827.308,1.7-.371,2.183-1.107a11.9,11.9,0,0,0,1.284-3.069c1.138-3.644,2.516-7.66,1.378-11.447a7.242,7.242,0,0,0-4.653-4.994c-4.324-1.23-8.33,2.845-10.3,6.886a5.019,5.019,0,0,0-.694,2.883,1.921,1.921,0,0,0,2.072,1.711c.819-.181,1.29-1.016,1.661-1.767,1.61-3.272,3.252-6.659,3.444-10.3s-1.446-7.639-4.791-9.092c-3.276-1.422-7.257.029-9.7,2.637s-3.625,6.134-4.463,9.6c-.482,1.99-.25,4.9,1.791,5.058,1.3.1,2.289-1.169,2.763-2.386,1.357-3.481-.007-8.276-3.614-9.249-2.414-.652-5.02.61-6.658,2.5a19.5,19.5,0,0,0-3.306,6.678,7.1,7.1,0,0,0-.54,3.9c.316,1.294,1.694,2.419,2.944,1.961,1.317-.482,1.575-2.383.842-3.579a7.2,7.2,0,0,0-3.354-2.432c-2.761-1.271-6.6-2.294-8.365.179-1.721,2.408.3,5.584,1.539,8.275a15.345,15.345,0,0,1-.768,14.047" transform="translate(-112.121 -26.003)" fill="none" stroke="#f3de50" stroke-linecap="round" stroke-linejoin="round" stroke-width="1.417"/>
            <path id="Trazado_1219109" data-name="Trazado 1219109" d="M369.638,119.949s-7.874,3.713-3.076,10.124C366.561,130.073,374.08,127.865,369.638,119.949Z" transform="translate(-121.855 -40.044)" fill="none" stroke="#fff" stroke-linecap="round" stroke-linejoin="round" stroke-width="1.417"/>
            <path id="Trazado_1219110" data-name="Trazado 1219110" d="M388.4,129.828s-4.9,2.312-1.915,6.3C386.482,136.131,391.162,134.756,388.4,129.828Z" transform="translate(-128.7 -43.342)" fill="none" stroke="#fff" stroke-linecap="round" stroke-linejoin="round" stroke-width="1.417"/>
            <path id="Trazado_1219111" data-name="Trazado 1219111" d="M350.179,118.214s-4.9,2.312-1.915,6.3C348.263,124.517,352.944,123.142,350.179,118.214Z" transform="translate(-115.941 -39.464)" fill="none" stroke="#fff" stroke-linecap="round" stroke-linejoin="round" stroke-width="1.417"/>
            <path id="Trazado_1219112" data-name="Trazado 1219112" d="M80,121.147,73.613,52.058l35.62,63.8s-2.925,13.186-27.792,10.326" transform="translate(-24.575 -17.379)" fill="none" stroke="#f3de50" stroke-linecap="round" stroke-linejoin="round" stroke-width="1.417"/>
            <path id="Trazado_1219113" data-name="Trazado 1219113" d="M58.448,52.517c-1.633-.614-3.419.248-4.932,1.12a21.239,21.239,0,0,0-6.587,5.189,18.206,18.206,0,0,0-2.962,7.125c-.887,3.964-1.188,8.033-1.866,12.036a28.474,28.474,0,0,1-4.06,11.385c-2.286,3.357-5.926,5.979-9.979,6.229l8.516,8.426a2.1,2.1,0,0,0,.843.594,1.924,1.924,0,0,0,1.124-.115c5.085-1.686,8.226-6.981,9.164-12.255s.126-10.679-.2-16.026a29.676,29.676,0,0,1,.44-8.548A18.1,18.1,0,0,1,58.614,55.209" transform="translate(-9.368 -17.463)" fill="none" stroke="#f3de50" stroke-linecap="round" stroke-linejoin="round" stroke-width="1.417"/>
            <path id="Trazado_1219114" data-name="Trazado 1219114" d="M48.163,106.9l6.283,8.768c.749-1.069,2.165-1.378,3.3-2.019,2.237-1.26,3.39-3.844,3.924-6.355,1.739-8.186-1.547-16.484-4.224-24.414a20.4,20.4,0,0,1-1.465-7.6c.32-5.489,4.692-9.847,9.2-12.993" transform="translate(-16.079 -20.792)" fill="none" stroke="#f3de50" stroke-linecap="round" stroke-linejoin="round" stroke-width="1.417"/>
            <path id="Trazado_1219115" data-name="Trazado 1219115" d="M270.255,41.268,273.6,44.63a1.275,1.275,0,0,0,1.134.356l4.668-.85a1.278,1.278,0,0,1,1.365,1.839L278.6,50.2a1.277,1.277,0,0,0,.013,1.188l2.25,4.176a1.276,1.276,0,0,1-1.327,1.866l-4.684-.753a1.276,1.276,0,0,0-1.126.378l-3.276,3.431a1.277,1.277,0,0,1-2.185-.685l-.73-4.688a1.276,1.276,0,0,0-.709-.954L262.552,52.1a1.277,1.277,0,0,1-.023-2.29l4.232-2.144a1.276,1.276,0,0,0,.689-.968l.634-4.7A1.277,1.277,0,0,1,270.255,41.268Z" transform="translate(-87.409 -13.651)" fill="none" stroke="#f3de50" stroke-linecap="round" stroke-linejoin="round" stroke-width="1.417"/>
            <path id="Trazado_1219116" data-name="Trazado 1219116" d="M281.169,65.074l19.569,52.994a2.435,2.435,0,0,1-4.569,1.687c-.015-.043-.032-.093-.045-.135l-16.43-54.05a.779.779,0,0,1,1.476-.5Z" transform="translate(-93.361 -21.554)" fill="none" stroke="#f3de50" stroke-linecap="round" stroke-linejoin="round" stroke-width="1.417"/>
            <path id="Trazado_1219117" data-name="Trazado 1219117" d="M237.834,298.884c-27.248-11.323-69.29-4.143-73.861-3.313-4.571-.83-46.612-8.01-73.861,3.313C61.267,310.871,40.355,359.063,43.24,420.4H284.706c2.885-61.336-18.028-109.528-46.872-121.515" transform="translate(-14.346 -97.67)" fill="#1b6eb0"/>
            <path id="Trazado_1219118" data-name="Trazado 1219118" d="M57.979,323.479s-72.355,66.5-55.408,107.24h98.072s-12.135-94.774-42.664-107.24" transform="translate(0 -107.99)" fill="#1b6eb0"/>
            <path id="Trazado_1219119" data-name="Trazado 1219119" d="M178.55,445.652H234.8l8.757-37.305s-9.542-26.782-10.91-40.137c.274,2.884,3.168,51.219-110.712,57.4l-35.752,6.5L85.4,445.652H178.55Z" transform="translate(-28.508 -122.923)" fill="#185d8c"/>
            <path id="Trazado_1219120" data-name="Trazado 1219120" d="M312.375,345.556s-5,27.249,5.816,55.228l-9.246,37.305" transform="translate(-103.138 -115.36)" fill="none" stroke="#1f3251" stroke-linecap="round" stroke-linejoin="round" stroke-width="1"/>
            <path id="Trazado_1219121" data-name="Trazado 1219121" d="M304.841,349.813a122.62,122.62,0,0,0,8.4,41.094" transform="translate(-101.768 -116.781)" fill="none" stroke="#1f3251" stroke-linecap="round" stroke-linejoin="round" stroke-width="1"/>
            <path id="Trazado_1219122" data-name="Trazado 1219122" d="M86.182,405.822s-30.27-.5-47.817,3.1-26.2,24.758-26.2,24.758" transform="translate(-4.061 -135.471)" fill="none" stroke="#1f3251" stroke-linecap="round" stroke-linejoin="round" stroke-width="1"/>
            <path id="Trazado_1219123" data-name="Trazado 1219123" d="M108.541,405.826s-24.726-1.266-28.478,18.285S85,456.944,88.358,458.2h15.8s11.682-10.258,9.479-34.093c-1.773-19.2-5.1-18.285-5.1-18.285" transform="translate(-26.42 -135.475)" fill="#1f3251"/>
            <path id="Trazado_1219124" data-name="Trazado 1219124" d="M47.478,408.649S32.452,405,19.652,420.568" transform="translate(-6.561 -136.299)" fill="none" stroke="#1f3251" stroke-linecap="round" stroke-linejoin="round" stroke-width="1"/>
            <path id="Trazado_1219125" data-name="Trazado 1219125" d="M105.523,345.556s-.36,27.405-10.637,40.138" transform="translate(-31.677 -115.36)" fill="none" stroke="#1f3251" stroke-linecap="round" stroke-linejoin="round" stroke-width="1"/>
            <path id="Trazado_1219126" data-name="Trazado 1219126" d="M38.323,419.008s-15.312,13.1-11.254,33.577" transform="translate(-8.808 -139.881)" fill="none" stroke="#1f3251" stroke-linecap="round" stroke-linejoin="round" stroke-width="1"/>
            <path id="Trazado_1219127" data-name="Trazado 1219127" d="M111.831,360.09a98.74,98.74,0,0,1-6.945,16.727" transform="translate(-35.015 -120.212)" fill="none" stroke="#1f3251" stroke-linecap="round" stroke-linejoin="round" stroke-width="1"/>
            <path id="Trazado_1219128" data-name="Trazado 1219128" d="M94.88,421.369c7.462-7.071,16.266-12.54,25-17.959,3.053-1.893,6.458-3.864,10.006-3.3a15.164,15.164,0,0,1,5.463,2.475l20.724,12.949a10.781,10.781,0,0,1,3.278,2.714,3.67,3.67,0,0,1,.328,4.019,4.18,4.18,0,0,1-2.611,1.562,9.094,9.094,0,0,1-6.358-.857,6.868,6.868,0,0,0-2.892-1.23c-2.663-.085-3.539,3.543-5.515,5.329-1.406,1.271-3.412,1.569-5.292,1.812l-11.039,1.426c-2.792.36-5.728.7-8.341-.342a12.963,12.963,0,0,0-3.078-1.166c-1.572-.2-3.07.632-4.437,1.433l-9.327,5.464c-3.7,2.169-8.857,3.289-10.9-1.634-1.953-4.7,1.836-9.709,4.99-12.7" transform="translate(-29.83 -133.54)" fill="#eeb399"/>
            <path id="Trazado_1219129" data-name="Trazado 1219129" d="M167.324,426.938s-10-5.751-17.389-10.543" transform="translate(-50.054 -139.009)" fill="none" stroke="#b27f6b" stroke-linecap="round" stroke-linejoin="round" stroke-width="1"/>
            <path id="Trazado_1219130" data-name="Trazado 1219130" d="M140.254,424.309s6.859,5.7,13.606,6.147" transform="translate(-46.822 -141.651)" fill="none" stroke="#b27f6b" stroke-linecap="round" stroke-linejoin="round" stroke-width="1"/>
            <path id="Trazado_1219131" data-name="Trazado 1219131" d="M128.921,432.222a7.6,7.6,0,0,1-.723,7.481" transform="translate(-42.797 -144.292)" fill="none" stroke="#b27f6b" stroke-linecap="round" stroke-linejoin="round" stroke-width="1"/>
            <path id="Trazado_1219132" data-name="Trazado 1219132" d="M131.983,433.536s5.51,4.891,9.333,6.606" transform="translate(-44.061 -144.731)" fill="none" stroke="#b27f6b" stroke-linecap="round" stroke-linejoin="round" stroke-width="1"/>
            <path id="Trazado_1219133" data-name="Trazado 1219133" d="M237.356,289.378c-10.262,12.315-20.055,25.982-27.259,40.311-2.661,5.292-5.368,9.248-11.413,11.107-5.966,1.835-13.079-.017-16.879-4.969-1.966-2.562-2.975-5.713-4.531-8.544-4.513-8.212-13.292-13.229-18.6-20.953-4.12-6-5.942-13.327-10.022-19.35a15.741,15.741,0,0,0-5.022-5.009c-4.581-2.616-10.3-1.484-15.434-.277-.067-3.819,2.586-7.1,5.284-9.809a85.543,85.543,0,0,1,46.8-23.51,99.083,99.083,0,0,1,52.228,6.212c7.7,3.088,15.231,7.227,20.544,13.6,3.1,3.717,5.423,8.433,4.918,13.246a13.77,13.77,0,0,0-10.48-.442c-4.164,1.536-7.3,4.976-10.136,8.385" transform="translate(-42.797 -82.532)" fill="#136399"/>
            <path id="Trazado_1219134" data-name="Trazado 1219134" d="M189.384,265.209s-10.56,71.231,24.092,68.8,20.472-68.8,20.472-68.8Z" transform="translate(-62.718 -88.537)" fill="#dda18a"/>
            <path id="Trazado_1219135" data-name="Trazado 1219135" d="M142.822,192.123s-2.431,80.14,51.45,86.347S251.8,211.384,251.8,192.123c0,0-2.447-46-54.5-46.4s-54.85,34.993-54.481,46.4" transform="translate(-47.671 -48.645)" fill="#eeb399"/>
            <path id="Trazado_1219136" data-name="Trazado 1219136" d="M155.873,236.915a2.78,2.78,0,0,1,3.678.607,12.725,12.725,0,0,0,13.089,1.868c5.89,5.426,16.1,5.189,21.729-.5a11.955,11.955,0,0,0,16.068.67,16.044,16.044,0,0,0,18.075-3.069,1.751,1.751,0,0,1,1.214-.714,1.732,1.732,0,0,1,.947.5,17.365,17.365,0,0,0,14.885,3.386,29.876,29.876,0,0,0,4.571-14,4.327,4.327,0,0,0-.483-2.765,4.6,4.6,0,0,0-2.018-1.4c-25.815-11.6-54.567-17.469-82.67-14.128-6.584.783-13.369,2.174-18.661,6.171-2.864,2.162-5.3,5.351-5.263,8.94.037,3.64,2.613,8.482,4.179,11.758,1.847,3.866,6.91,3.923,10.66,2.683" transform="translate(-47.082 -68.915)" fill="#dd9f87"/>
            <path id="Trazado_1219137" data-name="Trazado 1219137" d="M301.075,240.354a8.488,8.488,0,0,1,5.179-3.057,6.433,6.433,0,0,1,5.933,2.614,8.292,8.292,0,0,1,1.107,6.273,20.456,20.456,0,0,1-2.447,6.037,28.314,28.314,0,0,1-5.229,7.183,9.734,9.734,0,0,1-4.106,2.441,5.266,5.266,0,0,1-4.579-.827,6.736,6.736,0,0,1-2.069-4.694c-.544-5.643,2.583-11.768,6.211-15.969" transform="translate(-98.416 -79.203)" fill="#eeb399"/>
            <path id="Trazado_1219138" data-name="Trazado 1219138" d="M292.131,250.845a5.027,5.027,0,0,0,.427,2.4,2.084,2.084,0,0,0,1.983,1.2c1.139-.145,1.733-1.4,2.12-2.48q1.651-4.6,3.3-9.2l1.853-5.163a10.91,10.91,0,0,0,.788-3.152,3.692,3.692,0,0,0-1.089-2.958,4.539,4.539,0,0,0-2.454-.92c-4.039-.517-6.079,2.864-5.876,6.516.26,4.689-1.005,9.11-1.055,13.763" transform="translate(-97.524 -76.954)" fill="#4c1e11"/>
            <path id="Trazado_1219139" data-name="Trazado 1219139" d="M302.1,261.172s.311-13.165,9.122-18.555" transform="translate(-100.852 -80.995)" fill="none" stroke="#a5583d" stroke-linecap="round" stroke-linejoin="round" stroke-width="1"/>
            <path id="Trazado_1219140" data-name="Trazado 1219140" d="M308.806,245.932s-.011,10.657-5.6,11.071" transform="translate(-101.223 -82.101)" fill="none" stroke="#a5583d" stroke-linecap="round" stroke-linejoin="round" stroke-width="1"/>
            <path id="Trazado_1219141" data-name="Trazado 1219141" d="M137.665,240.354a8.488,8.488,0,0,0-5.179-3.057,6.432,6.432,0,0,0-5.932,2.614,8.289,8.289,0,0,0-1.108,6.273,20.474,20.474,0,0,0,2.447,6.037,28.314,28.314,0,0,0,5.229,7.183,9.738,9.738,0,0,0,4.106,2.441,5.266,5.266,0,0,0,4.579-.827,6.735,6.735,0,0,0,2.069-4.694c.544-5.643-2.583-11.768-6.211-15.969" transform="translate(-41.82 -79.203)" fill="#eeb399"/>
            <path id="Trazado_1219142" data-name="Trazado 1219142" d="M141.253,261.172s-.311-13.165-9.122-18.555" transform="translate(-44.11 -80.995)" fill="none" stroke="#a5583d" stroke-linecap="round" stroke-linejoin="round" stroke-width="1"/>
            <path id="Trazado_1219143" data-name="Trazado 1219143" d="M136.312,245.932s.011,10.657,5.6,11.071" transform="translate(-45.506 -82.101)" fill="none" stroke="#a5583d" stroke-linecap="round" stroke-linejoin="round" stroke-width="1"/>
            <path id="Trazado_1219144" data-name="Trazado 1219144" d="M148.438,250.845a5.033,5.033,0,0,1-.426,2.4,2.086,2.086,0,0,1-1.984,1.2c-1.139-.145-1.732-1.4-2.12-2.48q-1.651-4.6-3.3-9.2l-1.853-5.163a10.91,10.91,0,0,1-.788-3.152,3.692,3.692,0,0,1,1.089-2.958,4.539,4.539,0,0,1,2.454-.92c4.039-.517,6.079,2.864,5.876,6.516-.26,4.689,1.005,9.11,1.055,13.763" transform="translate(-46.056 -76.954)" fill="#4c1e11"/>
            <path id="Trazado_1219145" data-name="Trazado 1219145" d="M245.428,251.23a1.464,1.464,0,0,0-.063,1.879,2.132,2.132,0,0,0,1.035.475c4.327,1.092,8.729,2.04,12.786,3.9,1.155.53,2.277,1.132,3.442,1.639.928.4,2.2.66,2.792-.161a1.587,1.587,0,0,0-.046-1.714,4.272,4.272,0,0,0-1.326-1.222,33.836,33.836,0,0,0-9.156-4.334c-2.246-.676-7.69-2.658-9.463-.463" transform="translate(-81.807 -83.534)" fill="#4c1e11"/>
            <path id="Trazado_1219146" data-name="Trazado 1219146" d="M198.742,251.23a1.464,1.464,0,0,1,.063,1.879,2.132,2.132,0,0,1-1.035.475c-4.327,1.092-8.729,2.04-12.786,3.9-1.155.53-2.277,1.132-3.442,1.639-.928.4-2.2.66-2.792-.161a1.587,1.587,0,0,1,.046-1.714,4.265,4.265,0,0,1,1.326-1.222,33.836,33.836,0,0,1,9.156-4.334c2.246-.676,7.69-2.658,9.463-.463" transform="translate(-59.596 -83.534)" fill="#4c1e11"/>
            <path id="Trazado_1219147" data-name="Trazado 1219147" d="M256.344,275.7c0,2.29-1.29,4.146-2.882,4.146s-2.882-1.857-2.882-4.146,1.29-4.146,2.882-4.146,2.882,1.856,2.882,4.146" transform="translate(-83.653 -90.655)" fill="#441e12"/>
            <path id="Trazado_1219148" data-name="Trazado 1219148" d="M195.751,275.7c0,2.29-1.29,4.146-2.882,4.146s-2.882-1.857-2.882-4.146,1.29-4.146,2.882-4.146,2.882,1.856,2.882,4.146" transform="translate(-63.425 -90.655)" fill="#441e12"/>
            <path id="Trazado_1219149" data-name="Trazado 1219149" d="M202.451,129.493c-.742-1.813-2.645-3.3-4.566-2.917-3.078.621-3.513,4.8-3.224,7.921.016-2.62-1.693-5.387-4.278-5.819s-5.324,2.443-4.215,4.817a38.7,38.7,0,0,0-32.074,5.1,3.363,3.363,0,0,0-1.417,1.51,1.234,1.234,0,0,0,.8,1.651,26.575,26.575,0,0,0-14.416,9.131,11.9,11.9,0,0,0-2.743,5.516,5.758,5.758,0,0,0,2.059,5.549c-5.969,5.266-12.155,11.074-14.133,18.784a12.224,12.224,0,0,0,.03,7.069,6.829,6.829,0,0,0,5.071,4.581c-3.222,4.153-.831,11.052,4.058,12.981s10.868-.8,13.349-5.431c3.9,6.573,13.389,9.053,20.01,5.232,1.994,3.467,6.413,5.141,10.349,4.431a14.019,14.019,0,0,0,9.3-6.968c5.283,6.058,15.707,6.59,21.578,1.1a10.5,10.5,0,0,0,18.605-2.174c2.949,2.134,6.121,4.35,9.756,4.541s7.663-2.623,7.308-6.245a11.3,11.3,0,0,0,8.46-20.524,11.61,11.61,0,0,0-11.309-18.006,15.2,15.2,0,0,0-18.244-16.3c1.222-4.734-3.032-9.193-7.491-11.2a13.235,13.235,0,0,0-6.729-1.373,9.666,9.666,0,0,0-4.5,1.9c-1.279-1.179-.719-3.2-1.4-4.858" transform="translate(-41.308 -42.235)" fill="#4c1e11"/>
            <path id="Trazado_1219150" data-name="Trazado 1219150" d="M223.066,274.53a12.948,12.948,0,0,0,2.3,8.106c1.2,1.713,2.882,3.268,3.143,5.344a5.585,5.585,0,0,1-.685,3.238,7.019,7.019,0,0,1-4.3,3.554,5.736,5.736,0,0,1-5.345-1.269A4.86,4.86,0,0,1,217,288.24" transform="translate(-72.332 -91.649)" fill="none" stroke="#a5583d" stroke-linecap="round" stroke-linejoin="round" stroke-width="1"/>
            <path id="Trazado_1219151" data-name="Trazado 1219151" d="M227.936,310.168a9.238,9.238,0,0,1,3.245-.624,2.726,2.726,0,0,1,2.537,1.8,3.11,3.11,0,0,1-.107,1.616,7.522,7.522,0,0,1-5.283,5.114,14.758,14.758,0,0,1-3.07.331c-3.108.116-6.438.365-9.493-.3a8.549,8.549,0,0,1-2.648-.944,3.728,3.728,0,0,1-1.732-2.142,2.409,2.409,0,0,1,.8-2.535,4.009,4.009,0,0,1,2.272-.533,50.39,50.39,0,0,0,13.484-1.783" transform="translate(-70.54 -103.335)" fill="#441e12"/>
            <path id="Trazado_1219152" data-name="Trazado 1219152" d="M219.724,321.168a46.64,46.64,0,0,0,8.346.092,14.765,14.765,0,0,0,3.07-.331,7.021,7.021,0,0,0,1.131-.405c-6.273-4.719-10.628-1.492-12.547.644" transform="translate(-73.352 -106.191)" fill="#f98787"/>
            <path id="Trazado_1219153" data-name="Trazado 1219153" d="M207.862,152.349a48.718,48.718,0,0,0-14.831-4.223c-5.9-.7-12.792.155-16.156,5.047a7.474,7.474,0,0,0-1.374,5.373,5.039,5.039,0,0,0,3.513,4.067,3.827,3.827,0,0,0,4.532-2.421,11.527,11.527,0,0,0-8.631-1.308,20.085,20.085,0,0,0-7.935,4c-4.348,3.391-7.941,8.316-8.037,13.829a6.448,6.448,0,0,0,1.043,3.993c1.2,1.611,3.345,2.151,5.328,2.481a6.332,6.332,0,0,0,3.542-.127,2.345,2.345,0,0,0,1.413-2.9c-5.178-2.426-12.087-2.585-15.917,1.661-2.113,2.342-2.908,5.591-3.194,8.733-.169,1.845-.149,3.843.9,5.368,1.917,2.777,6.012,2.569,9.348,2.058" transform="translate(-50.436 -49.379)" fill="none" stroke="#9b5849" stroke-linecap="round" stroke-linejoin="round" stroke-width="1"/>
            <path id="Trazado_1219154" data-name="Trazado 1219154" d="M222.748,157.328a20.153,20.153,0,0,0-12.527,4.569c-2.67,2.2-4.834,5.38-4.733,8.84s3.206,6.876,6.63,6.366a3.142,3.142,0,0,0,2.368-1.471c1.035-1.959-1.246-4.144-3.421-4.569-4.1-.8-8.306,1.444-11.072,4.581-2.266,2.573-3.852,6.128-2.885,9.418s5.343,5.475,8.059,3.383a1.012,1.012,0,0,0,.408-.522,1.037,1.037,0,0,0-.368-.889c-1.826-1.945-5.048-2.078-7.394-.809a11.34,11.34,0,0,0-4.85,6.15,10.771,10.771,0,0,0-.765,5.511c.8,4.816,6.308,7.668,11.171,7.244" transform="translate(-64.129 -52.522)" fill="none" stroke="#9b5849" stroke-linecap="round" stroke-linejoin="round" stroke-width="1"/>
            <path id="Trazado_1219155" data-name="Trazado 1219155" d="M239.628,162.238a6.029,6.029,0,0,1,6.589.768A10.738,10.738,0,0,1,249.681,169a11.969,11.969,0,0,1-.277,7.27,7.246,7.246,0,0,1-5.4,4.556,5.243,5.243,0,0,1-5.76-3.529,2.273,2.273,0,0,1,.4-2.189,2.367,2.367,0,0,1,1.707-.543c3.212.031,5.748,2.835,7.053,5.77a15.084,15.084,0,0,1,1.128,9.216,11.174,11.174,0,0,1-5.333,7.44,6.074,6.074,0,0,1-5.207.558c-1.66-.714-2.763-2.8-1.986-4.43.8-1.688,3.187-2.111,4.872-1.3a8.412,8.412,0,0,1,3.585,4.17,10.689,10.689,0,0,1,1.257,6.633c-.456,2.246-2.4,4.309-4.692,4.238" transform="translate(-78.703 -53.94)" fill="none" stroke="#9b5849" stroke-linecap="round" stroke-linejoin="round" stroke-width="1"/>
            <path id="Trazado_1219156" data-name="Trazado 1219156" d="M252.5,157.25c4.481.861,9.056,2.433,12.14,5.8s4.144,8.909,1.357,12.522c-1.22,1.581-3.313,2.683-5.223,2.1s-2.966-3.341-1.53-4.728a4.088,4.088,0,0,1,1.366-.793,12.479,12.479,0,0,1,11.99,1.429,10.217,10.217,0,0,1,3.494,11.265c-1.465,3.946-6.133,6.526-10.161,5.3a1.308,1.308,0,0,1-.793-.5c-.354-.6.292-1.3.905-1.629,4.414-2.392,10.732.33,12.026,5.181s-2.828,10.358-7.847,10.483" transform="translate(-84.292 -52.496)" fill="none" stroke="#9b5849" stroke-linecap="round" stroke-linejoin="round" stroke-width="1"/>
            <path id="Trazado_1219157" data-name="Trazado 1219157" d="M257.924,351.12a118.816,118.816,0,0,1,14.65-23.294" transform="translate(-86.105 -109.441)" fill="none" stroke="#1f3251" stroke-linecap="round" stroke-linejoin="round" stroke-width="1"/>
            <path id="Trazado_1219158" data-name="Trazado 1219158" d="M264.746,353.886a14.623,14.623,0,0,0-3.211,5.709" transform="translate(-87.31 -118.141)" fill="none" stroke="#1f3251" stroke-linecap="round" stroke-linejoin="round" stroke-width="1"/>
            <path id="Trazado_1219159" data-name="Trazado 1219159" d="M166.312,320.344a35.794,35.794,0,0,0,14.856,21.244" transform="translate(-55.521 -106.943)" fill="none" stroke="#1f3251" stroke-linecap="round" stroke-linejoin="round" stroke-width="1"/>
            <path id="Trazado_1219160" data-name="Trazado 1219160" d="M174.05,343.468a39.916,39.916,0,0,1,6.075,6.1" transform="translate(-58.105 -114.663)" fill="none" stroke="#1f3251" stroke-linecap="round" stroke-linejoin="round" stroke-width="1"/>
            <path id="Trazado_1219161" data-name="Trazado 1219161" d="M203.536,368.006c2.493,3.389,2.847,7.94,2.188,12.1s-2.213,8.112-3.216,12.2-1.424,8.512.151,12.415" transform="translate(-67.307 -122.854)" fill="none" stroke="#fff" stroke-linecap="round" stroke-linejoin="round" stroke-width="1.701"/>
            <path id="Trazado_1219162" data-name="Trazado 1219162" d="M242.518,372.872c-2.864,4.939-2.663,11.012-2.281,16.708s.8,11.707-1.715,16.831" transform="translate(-79.628 -124.479)" fill="none" stroke="#fff" stroke-linecap="round" stroke-linejoin="round" stroke-width="1.701"/>
            <path id="Trazado_1219164" data-name="Trazado 1219164" d="M279,461.79l5.764-18.194-59.619-11.722s-21.536-6.005-49.795,5.142c0,0-11.828-8.23-45.136-6.758L71.594,445.936V461.79l87.49-6.191s14.82,15.429,28.061,0Z" transform="translate(-23.901 -143.578)" fill="#fcecd4"/>
            <path id="Trazado_1219165" data-name="Trazado 1219165" d="M159.084,457.522s14.82,15.429,28.061,0L279,463.713l5.765-18.194-23.416-4.6c-59.441-10.114-86-1.977-86-1.977-30.424-8.314-79.68,2.706-97.262,7.183l-6.5,1.737v15.854Z" transform="translate(-23.901 -145.502)" fill="#efd8b9"/>
            <path id="Trazado_1219166" data-name="Trazado 1219166" d="M169.647,477.675q-.653,0-1.307-.053c-6.789-.548-11.535-5.283-13.539-7.7l-89.047,7.74a2.833,2.833,0,0,1-.491-5.644l90.6-7.875a2.837,2.837,0,0,1,2.609,1.26c.035.053,4.16,6.1,10.363,6.574,4.252.332,8.706-2.005,13.253-6.933a2.807,2.807,0,0,1,2.272-.9l97.621,6.58a2.832,2.832,0,0,1-.381,5.652l-96.3-6.49c-5.091,5.177-10.348,7.793-15.655,7.793" transform="translate(-20.924 -154.945)" fill="#f75454"/>
            <path id="Trazado_1219167" data-name="Trazado 1219167" d="M237.743,445.871a125.968,125.968,0,0,1,28.133-3.258" transform="translate(-79.368 -147.761)" fill="none" stroke="#bf9c71" stroke-linecap="round" stroke-linejoin="round" stroke-width="0.567"/>
            <path id="Trazado_1219168" data-name="Trazado 1219168" d="M259.571,448.485a265.243,265.243,0,0,1,44.86,2.01" transform="translate(-86.655 -149.651)" fill="none" stroke="#bf9c71" stroke-linecap="round" stroke-linejoin="round" stroke-width="0.567"/>
            <path id="Trazado_1219169" data-name="Trazado 1219169" d="M261.463,452.319q28.472,1.6,56.7,5.945" transform="translate(-87.286 -151.001)" fill="none" stroke="#bf9c71" stroke-linecap="round" stroke-linejoin="round" stroke-width="0.567"/>
            <path id="Trazado_1219170" data-name="Trazado 1219170" d="M294.53,443.694q23.909,3.281,47.49,8.539" transform="translate(-98.325 -148.122)" fill="none" stroke="#bf9c71" stroke-linecap="round" stroke-linejoin="round" stroke-width="0.567"/>
            <path id="Trazado_1219171" data-name="Trazado 1219171" d="M298.267,459.839q22.665,1.3,45.182,4.353" transform="translate(-99.573 -153.512)" fill="none" stroke="#bf9c71" stroke-linecap="round" stroke-linejoin="round" stroke-width="0.567"/>
            <path id="Trazado_1219172" data-name="Trazado 1219172" d="M207.975,444.923a75.756,75.756,0,0,0-21.595-1.8" transform="translate(-62.221 -147.884)" fill="none" stroke="#bf9c71" stroke-linecap="round" stroke-linejoin="round" stroke-width="0.567"/>
            <path id="Trazado_1219173" data-name="Trazado 1219173" d="M195.49,448.025a114.343,114.343,0,0,0-34.248.059" transform="translate(-53.829 -149.147)" fill="none" stroke="#bf9c71" stroke-linecap="round" stroke-linejoin="round" stroke-width="0.567"/>
            <path id="Trazado_1219174" data-name="Trazado 1219174" d="M177.18,453.75a417.985,417.985,0,0,0-56.724,4.934" transform="translate(-40.213 -151.479)" fill="none" stroke="#bf9c71" stroke-linecap="round" stroke-linejoin="round" stroke-width="0.567"/>
            <path id="Trazado_1219175" data-name="Trazado 1219175" d="M170.457,459.5q-28.131,1.335-56.1,4.846" transform="translate(-38.176 -153.4)" fill="none" stroke="#bf9c71" stroke-linecap="round" stroke-linejoin="round" stroke-width="0.567"/>
            <path id="Trazado_1219176" data-name="Trazado 1219176" d="M135.351,443.536q-25.785,3.079-51.254,8.308" transform="translate(-28.075 -148.069)" fill="none" stroke="#bf9c71" stroke-linecap="round" stroke-linejoin="round" stroke-width="0.567"/>
            <path id="Trazado_1219177" data-name="Trazado 1219177" d="M124.736,452.222a183.594,183.594,0,0,0-20.943,4.521" transform="translate(-34.65 -150.969)" fill="none" stroke="#bf9c71" stroke-linecap="round" stroke-linejoin="round" stroke-width="0.567"/>
            <path id="Trazado_1219178" data-name="Trazado 1219178" d="M216.4,457.876s4.375.1,5.469,3.413c0,0,4.22-5.441,7.971-5.674" transform="translate(-72.243 -152.102)" fill="none" stroke="#bf9c71" stroke-linecap="round" stroke-linejoin="round" stroke-width="0.567"/>
            <path id="Trazado_1219179" data-name="Trazado 1219179" d="M226.241,456.2a23.707,23.707,0,0,1,5.483-5.143" transform="translate(-75.528 -150.579)" fill="none" stroke="#bf9c71" stroke-linecap="round" stroke-linejoin="round" stroke-width="0.567"/>
            <path id="Trazado_1219180" data-name="Trazado 1219180" d="M227.884,451.81l2.03-1.721" transform="translate(-76.076 -150.257)" fill="none" stroke="#bf9c71" stroke-linecap="round" stroke-linejoin="round" stroke-width="0.567"/>
            <path id="Trazado_1219181" data-name="Trazado 1219181" d="M133.371,138.163l-6.167-1.15,6.187-1.065,1.15-6.167,1.065,6.187,6.167,1.15-6.187,1.065-1.15,6.167Z" transform="translate(-42.465 -43.326)" fill="#f3de50"/>
            <path id="Trazado_1219182" data-name="Trazado 1219182" d="M317.777,92.794l-6.167-1.15,6.187-1.065,1.15-6.167,1.065,6.187,6.167,1.15-6.187,1.065-1.15,6.167Z" transform="translate(-104.027 -28.18)" fill="#f3de50"/>
            <path id="Trazado_1219183" data-name="Trazado 1219183" d="M386.826,313.747l-6.167-1.15,6.187-1.065L388,305.364l1.065,6.187,6.167,1.151-6.187,1.065-1.15,6.167Z" transform="translate(-127.078 -101.942)" fill="#fff"/>
            <path id="Trazado_1219184" data-name="Trazado 1219184" d="M38.335,233.62l-4.544-.847,4.558-.785.848-4.544L39.982,232l4.544.847-4.558.785-.848,4.543Z" transform="translate(-11.281 -75.93)" fill="#fff"/>
            <path id="Trazado_1219185" data-name="Trazado 1219185" d="M340.4,143.72l-4.544-.847,4.558-.785.848-4.544.785,4.558,4.544.847-4.558.785-.848,4.543Z" transform="translate(-112.121 -45.917)" fill="#f3de50"/>
            <path id="Trazado_1219186" data-name="Trazado 1219186" d="M348.455,325.355l-4.544-.847,4.559-.785.847-4.543.785,4.558,4.544.847-4.558.785-.848,4.544Z" transform="translate(-114.811 -106.554)" fill="#fff"/>
            <path id="Trazado_1219187" data-name="Trazado 1219187" d="M403.217,220.092,400.6,219.6l2.622-.452.488-2.614.452,2.622,2.615.488-2.623.451-.488,2.615Z" transform="translate(-133.736 -72.289)" fill="#fff"/>
            <path id="Trazado_1219188" data-name="Trazado 1219188" d="M81.139,294.052l-2.614-.488,2.622-.452.488-2.614.452,2.622,2.615.488-2.623.451-.488,2.615Z" transform="translate(-26.215 -96.98)" fill="#fff"/>
            <path id="Trazado_1219189" data-name="Trazado 1219189" d="M235.316,378.793l-2.614-.488,2.622-.452.488-2.614.452,2.622,2.615.488-2.623.451-.488,2.615Z" transform="translate(-77.685 -125.269)" fill="#fff"/>
            <path id="Trazado_1219190" data-name="Trazado 1219190" d="M117.956,354.922l-2.614-.488,2.622-.452.488-2.614.452,2.622,2.615.488-2.623.452-.488,2.615Z" transform="translate(-38.506 -117.3)" fill="#fff"/>
            <path id="Trazado_1219191" data-name="Trazado 1219191" d="M161.773,98.9l-2.614-.488,2.622-.452.488-2.615.452,2.623,2.615.488-2.623.452-.488,2.615Z" transform="translate(-53.133 -31.83)" fill="#f3de50"/>
            <path id="Trazado_1219192" data-name="Trazado 1219192" d="M76.5,192.157l-2.614-.488,2.622-.452L77,188.6l.452,2.622,2.615.488-2.623.451-.488,2.615Z" transform="translate(-24.667 -62.963)" fill="#f3de50"/>
            <path id="Trazado_1219193" data-name="Trazado 1219193" d="M292.781,322.4l-2.614-.488,2.622-.452.488-2.614.452,2.622,2.615.488-2.623.451-.488,2.615Z" transform="translate(-96.869 -106.442)" fill="#fff"/>
            <path id="Trazado_1219194" data-name="Trazado 1219194" d="M298.564,181.215l-2.614-.488,2.622-.452.488-2.615.452,2.623,2.615.488-2.623.452-.488,2.615Z" transform="translate(-98.799 -59.31)" fill="#fff"/>
            <path id="Trazado_1219195" data-name="Trazado 1219195" d="M406.9,270.471l-2.614-.488,2.622-.452.488-2.614.452,2.622,2.615.488-2.623.452-.488,2.615Z" transform="translate(-134.966 -89.107)" fill="#fff"/>
            <path id="Trazado_1219196" data-name="Trazado 1219196" d="M429.572,303.579l-2.614-.488,2.622-.452.488-2.614.452,2.622,2.615.488-2.623.452-.488,2.615Z" transform="translate(-142.535 -100.16)" fill="#fff"/>
            <path id="Trazado_1219197" data-name="Trazado 1219197" d="M105.226,128.378l-2.614-.488,2.622-.452.488-2.615.452,2.623,2.615.488-2.623.452L105.678,131Z" transform="translate(-34.256 -41.671)" fill="#f3de50"/>
            <path id="Trazado_1219198" data-name="Trazado 1219198" d="M0,0H314L261.295,299.81s-7.293-.344-23.644-4.271c-9.867-2.37-27.611-7.482-41.171-8.727-8.52-.782-20.389-.537-29.388,1.579-6.076,1.429-9.36,4.812-15.332,4.9-3.315.049-3.446-1.4-5.611-2.45-2.09-1.005-6.057-1.725-9.325-2.449-8.262-1.83-19.086-1.579-19.086-1.579H107.062L47.315,303.351Z" transform="translate(-0.445)" fill="#453179" opacity="0.19"/>
          </g>
        </g>
      </g>
    </g>
  </g>
</svg>
