<svg xmlns="http://www.w3.org/2000/svg" xmlns:xlink="http://www.w3.org/1999/xlink" width="113" height="113" viewBox="0 0 113 113">
  <defs>
    <filter id="Trazado_982547" x="0" y="0" width="113" height="113" filterUnits="userSpaceOnUse">
      <feOffset dy="3" input="SourceAlpha"/>
      <feGaussianBlur stdDeviation="3" result="blur"/>
      <feFlood flood-opacity="0.161"/>
      <feComposite operator="in" in2="blur"/>
      <feComposite in="SourceGraphic"/>
    </filter>
  </defs>
  <g id="Grupo_1241013" data-name="Grupo 1241013" transform="translate(-355.344 -12683.168)">
    <g id="Grupo_1240425" data-name="Grupo 1240425" transform="translate(364.344 12689.168)">
      <g id="Grupo_1239772" data-name="Grupo 1239772" transform="translate(0 0)">
        <g id="Grupo_1236602" data-name="Grupo 1236602">
          <g id="Grupo_1236144" data-name="Grupo 1236144">
            <g id="Grupo_1235105" data-name="Grupo 1235105">
              <g id="Grupo_1223793" data-name="Grupo 1223793">
                <g id="Grupo_1208028" data-name="Grupo 1208028">
                  <g id="Grupo_1177675" data-name="Grupo 1177675">
                    <g id="Grupo_1176928" data-name="Grupo 1176928" transform="translate(0)">
                      <g id="Grupo_1172322" data-name="Grupo 1172322">
                        <g id="Grupo_1164700" data-name="Grupo 1164700">
                          <g id="Grupo_1160931" data-name="Grupo 1160931">
                            <g id="Grupo_1160749" data-name="Grupo 1160749">
                              <g id="Grupo_1158891" data-name="Grupo 1158891">
                                <g id="Grupo_1157406" data-name="Grupo 1157406">
                                  <g id="Grupo_1155793" data-name="Grupo 1155793">
                                    <g id="Grupo_1154704" data-name="Grupo 1154704">
                                      <g id="Grupo_1150790" data-name="Grupo 1150790">
                                        <g id="Grupo_1154214" data-name="Grupo 1154214" transform="translate(0)">
                                          <g id="Grupo_1152583" data-name="Grupo 1152583">
                                            <g id="Grupo_1146973" data-name="Grupo 1146973">
                                              <g id="Grupo_1146954" data-name="Grupo 1146954">
                                                <g transform="matrix(1, 0, 0, 1, -9, -6)" filter="url(#Trazado_982547)">
                                                  <g id="Trazado_982547-2" data-name="Trazado 982547" transform="translate(9 6)" fill="#d9d5e3">
                                                    <path d="M 47.50000762939453 93.49986267089844 C 41.28937911987305 93.49986267089844 35.26534271240234 92.28383636474609 29.59519386291504 89.88558197021484 C 24.11772727966309 87.56880950927734 19.19814109802246 84.25183868408203 14.97310066223145 80.02679443359375 C 10.74804782867432 75.8017578125 7.431074142456055 70.88218688964844 5.114300727844238 65.40471649169922 C 2.716034412384033 59.73458480834961 1.500007629394531 53.71054458618164 1.500007629394531 47.49993133544922 C 1.500007629394531 41.2893180847168 2.716034412384033 35.26527786254883 5.114300727844238 29.59514427185059 C 7.431074142456055 24.11767768859863 10.74804782867432 19.19810485839844 14.97310066223145 14.97306442260742 C 19.19814109802246 10.74802494049072 24.11772727966309 7.431051254272461 29.59519386291504 5.114277839660645 C 35.26534271240234 2.71602463722229 41.28937911987305 1.499997973442078 47.50000762939453 1.499997973442078 C 53.71063613891602 1.499997973442078 59.73467254638672 2.71602463722229 65.40482330322266 5.114277839660645 C 70.88228607177734 7.431051254272461 75.80187225341797 10.74802494049072 80.02691650390625 14.97306442260742 C 84.25196838378906 19.19810485839844 87.56893920898438 24.11767768859863 89.88571166992188 29.59514427185059 C 92.28398132324219 35.26527786254883 93.50000762939453 41.2893180847168 93.50000762939453 47.49993133544922 C 93.50000762939453 53.71054458618164 92.28398132324219 59.73458480834961 89.88571166992188 65.40471649169922 C 87.56893920898438 70.88218688964844 84.25196838378906 75.8017578125 80.02691650390625 80.02679443359375 C 75.80187225341797 84.25183868408203 70.88228607177734 87.56880950927734 65.40482330322266 89.88558197021484 C 59.73467254638672 92.28383636474609 53.71063613891602 93.49986267089844 47.50000762939453 93.49986267089844 Z" stroke="none"/>
                                                    <path d="M 47.50000762939453 2.999992370605469 C 41.4912223815918 2.999992370605469 35.66377639770508 4.1761474609375 30.17951202392578 6.495796203613281 C 24.88085174560547 8.736930847167969 20.12152862548828 11.94596099853516 16.03376007080078 16.03372955322266 C 11.94597625732422 20.12148284912109 8.736961364746094 24.88080596923828 6.495803833007812 30.17946624755859 C 4.176162719726562 35.66371536254883 3.000007629394531 41.49116134643555 3.000007629394531 47.49993133544922 C 3.000007629394531 53.50870132446289 4.176162719726562 59.33614730834961 6.495803833007812 64.82038879394531 C 8.736961364746094 70.11905670166016 11.94597625732422 74.87836456298828 16.03376007080078 78.96613311767578 C 20.12152862548828 83.05390167236328 24.88085174560547 86.26291656494141 30.17951202392578 88.50406646728516 C 35.66377639770508 90.82369995117188 41.4912223815918 91.99985504150391 47.50000762939453 91.99985504150391 C 53.50879287719727 91.99985504150391 59.33623886108398 90.82369995117188 64.82049560546875 88.50406646728516 C 70.11916351318359 86.26291656494141 74.87848663330078 83.05390167236328 78.96625518798828 78.96613311767578 C 83.05403900146484 74.87836456298828 86.26305389404297 70.11905670166016 88.50421142578125 64.82038879394531 C 90.8238525390625 59.33614730834961 92.00000762939453 53.50870132446289 92.00000762939453 47.49993133544922 C 92.00000762939453 41.49116134643555 90.8238525390625 35.66371536254883 88.50421142578125 30.17946624755859 C 86.26305389404297 24.88080596923828 83.05403900146484 20.12148284912109 78.96625518798828 16.03372955322266 C 74.87848663330078 11.94596099853516 70.11916351318359 8.736930847167969 64.82049560546875 6.495796203613281 C 59.33623886108398 4.1761474609375 53.50879287719727 2.999992370605469 47.50000762939453 2.999992370605469 M 47.50000762939453 -7.62939453125e-06 C 73.73352813720703 -7.62939453125e-06 95.00000762939453 21.26644134521484 95.00000762939453 47.49993133544922 C 95.00000762939453 73.73342132568359 73.73352813720703 94.99985504150391 47.50000762939453 94.99985504150391 C 21.26648712158203 94.99985504150391 7.62939453125e-06 73.73342132568359 7.62939453125e-06 47.49993133544922 C 7.62939453125e-06 21.26644134521484 21.26648712158203 -7.62939453125e-06 47.50000762939453 -7.62939453125e-06 Z" stroke="none" fill="#453179"/>
                                                  </g>
                                                </g>
                                              </g>
                                            </g>
                                          </g>
                                        </g>
                                      </g>
                                    </g>
                                  </g>
                                </g>
                              </g>
                            </g>
                          </g>
                        </g>
                      </g>
                    </g>
                  </g>
                </g>
              </g>
            </g>
          </g>
        </g>
      </g>
    </g>
    <g id="estudio_3_" data-name="estudio (3)" transform="translate(381.382 12680.713)">
      <g id="Grupo_1241012" data-name="Grupo 1241012" transform="translate(0.892 29.829)">
        <g id="Grupo_1241011" data-name="Grupo 1241011">
          <path id="Trazado_1219199" data-name="Trazado 1219199" d="M201.212,236.57h13.352v24.673H201.212Z" transform="translate(-178.161 -212.755)" fill="#88a8d8"/>
          <g id="Grupo_1241010" data-name="Grupo 1241010">
            <g id="Grupo_1241002" data-name="Grupo 1241002">
              <g id="Grupo_1240987" data-name="Grupo 1240987" transform="translate(0 4.461)">
                <g id="Grupo_1240986" data-name="Grupo 1240986">
                  <g id="Grupo_1240985" data-name="Grupo 1240985">
                    <g id="Grupo_1240984" data-name="Grupo 1240984">
                      <g id="Grupo_1240983" data-name="Grupo 1240983">
                        <g id="Grupo_1240982" data-name="Grupo 1240982">
                          <path id="Trazado_1219200" data-name="Trazado 1219200" d="M15.307,73.926a6.339,6.339,0,0,0-2.571.545L7.847,76.64a.583.583,0,0,0,0,1.066l4.889,2.169a6.34,6.34,0,0,0,2.571.545H58.5V73.926Z" transform="translate(-7.5 -73.926)" fill="#e07f84"/>
                          <path id="Trazado_1219201" data-name="Trazado 1219201" d="M451.952,73.926H448.54v6.495h3.412a3.247,3.247,0,0,0,0-6.495Z" transform="translate(-396.059 -73.926)" fill="#eac12e"/>
                        </g>
                        <path id="Trazado_1219202" data-name="Trazado 1219202" d="M14.524,80.744V74.351a6.332,6.332,0,0,0-1.788.494L7.847,77.015a.583.583,0,0,0,0,1.066l4.889,2.169A6.341,6.341,0,0,0,14.524,80.744Z" transform="translate(-7.5 -74.3)" fill="#a87f7f"/>
                        <path id="Trazado_1219203" data-name="Trazado 1219203" d="M426.667,73.926h3.789v6.495h-3.789Z" transform="translate(-376.788 -73.926)" fill="#edeaed"/>
                      </g>
                    </g>
                  </g>
                </g>
              </g>
              <g id="Grupo_1241001" data-name="Grupo 1241001" transform="translate(17.745)">
                <g id="Grupo_1241000" data-name="Grupo 1241000">
                  <g id="Grupo_1240999" data-name="Grupo 1240999">
                    <g id="Grupo_1240998" data-name="Grupo 1240998">
                      <g id="Grupo_1240997" data-name="Grupo 1240997">
                        <g id="Grupo_1240996" data-name="Grupo 1240996">
                          <g id="Grupo_1240995" data-name="Grupo 1240995">
                            <g id="Grupo_1240994" data-name="Grupo 1240994">
                              <g id="Grupo_1240993" data-name="Grupo 1240993">
                                <g id="Grupo_1240992" data-name="Grupo 1240992">
                                  <g id="Grupo_1240991" data-name="Grupo 1240991">
                                    <g id="Grupo_1240990" data-name="Grupo 1240990">
                                      <g id="Grupo_1240988" data-name="Grupo 1240988">
                                        <path id="Trazado_1219204" data-name="Trazado 1219204" d="M176,38.926h-1.062a1.661,1.661,0,0,0-1.661,1.661V39.523a1.661,1.661,0,0,0-1.661-1.661H170.56a1.661,1.661,0,0,0-1.661,1.661v-.846a1.661,1.661,0,0,0-1.661-1.661h-1.062a1.661,1.661,0,0,0-1.661,1.661V38.1a1.661,1.661,0,0,0-1.661-1.661h-1.062a1.661,1.661,0,0,0-1.661,1.661V44.52a2.873,2.873,0,0,1-2.873,2.873h-.631a6.432,6.432,0,0,0,2.344,4.973l1.508,1.187a3.811,3.811,0,0,1,1.453,2.994v1.172h13.352V54.985a3.812,3.812,0,0,1,.271-1.41l1.253-3.146a16.011,16.011,0,0,0,.856-5.166V40.587A1.661,1.661,0,0,0,176,38.926Z" transform="translate(-156.628 -36.437)" fill="#ffece4"/>
                                      </g>
                                      <g id="Grupo_1240989" data-name="Grupo 1240989" transform="translate(10.908 1.425)">
                                        <path id="Trazado_1219205" data-name="Trazado 1219205" d="M256.767,49.478H255.7a1.661,1.661,0,0,0-1.661,1.661V50.075a1.661,1.661,0,0,0-1.661-1.661h-1.062a1.654,1.654,0,0,0-1.15.465,1.655,1.655,0,0,1,.507,1.193v4.676a16.01,16.01,0,0,1-.856,5.166l-1.253,3.146a3.812,3.812,0,0,0-.271,1.41v3.8h7.749V65.537a3.812,3.812,0,0,1,.271-1.41l1.253-3.146a16.01,16.01,0,0,0,.856-5.166V51.139A1.661,1.661,0,0,0,256.767,49.478Z" transform="translate(-248.298 -48.414)" fill="#ffddce"/>
                                      </g>
                                      <path id="Trazado_1219206" data-name="Trazado 1219206" d="M248.3,236.57h7.749v24.673H248.3Z" transform="translate(-237.389 -212.755)" fill="#7296d1"/>
                                    </g>
                                  </g>
                                </g>
                              </g>
                            </g>
                          </g>
                        </g>
                      </g>
                    </g>
                  </g>
                </g>
              </g>
            </g>
            <g id="Grupo_1241009" data-name="Grupo 1241009" transform="translate(0.13 39.527)">
              <g id="Grupo_1241008" data-name="Grupo 1241008">
                <g id="Grupo_1241007" data-name="Grupo 1241007">
                  <g id="Grupo_1241004" data-name="Grupo 1241004" transform="translate(3.918)">
                    <path id="Trazado_1219207" data-name="Trazado 1219207" d="M67.076,373.593c-8.612-7.545-21.679-4.52-24.847-3.634a.97.97,0,0,0-.71.935v6.677H67.076Z" transform="translate(-41.519 -368.61)" fill="#f7f4f7"/>
                    <path id="Trazado_1219208" data-name="Trazado 1219208" d="M256.291,373.593c8.612-7.545,21.679-4.52,24.847-3.634a.97.97,0,0,1,.71.935v6.677H256.291Z" transform="translate(-230.734 -368.61)" fill="#edeaed"/>
                    <g id="Grupo_1241003" data-name="Grupo 1241003" transform="translate(42.462 0.054)">
                      <path id="Trazado_1219209" data-name="Trazado 1219209" d="M406.3,370.361a38.413,38.413,0,0,0-7.941-1.294l.192.053a.97.97,0,0,1,.71.935v7.919h7.749V371.3A.971.971,0,0,0,406.3,370.361Z" transform="translate(-398.362 -369.067)" fill="#e0dde0"/>
                    </g>
                  </g>
                  <g id="Grupo_1241006" data-name="Grupo 1241006" transform="translate(0 4.014)">
                    <path id="Trazado_1219210" data-name="Trazado 1219210" d="M55.337,407.634c-9.19-8.052-23.158-4.769-26.436-3.846a.969.969,0,0,0-.706.934v5.643H55.337Z" transform="translate(-25.862 -402.342)" fill="#edeaed"/>
                    <path id="Trazado_1219211" data-name="Trazado 1219211" d="M256.291,407.634c9.19-8.052,23.158-4.769,26.436-3.846a.969.969,0,0,1,.706.934v5.643H256.291Z" transform="translate(-226.816 -402.342)" fill="#e0dde0"/>
                    <g id="Grupo_1241005" data-name="Grupo 1241005" transform="translate(48.263 0.113)">
                      <path id="Trazado_1219212" data-name="Trazado 1219212" d="M421.828,404.626a40.686,40.686,0,0,0-7.648-1.333.969.969,0,0,1,.614.9V411.2h7.74v-5.643a.969.969,0,0,0-.706-.934Z" transform="translate(-414.18 -403.293)" fill="#d1ccd3"/>
                    </g>
                    <path id="Trazado_1219213" data-name="Trazado 1219213" d="M65.659,447.679H10.475a1.883,1.883,0,0,1,0-3.766H65.659a1.883,1.883,0,0,1,0,3.766Z" transform="translate(-8.592 -438.966)" fill="#eab14d"/>
                    <path id="Trazado_1219214" data-name="Trazado 1219214" d="M430.89,443.913h-7.736a1.883,1.883,0,0,1,1.883,1.883v1.883h5.853a1.883,1.883,0,0,0,0-3.766Z" transform="translate(-373.823 -438.966)" fill="#e8ae4d"/>
                  </g>
                </g>
              </g>
            </g>
          </g>
          <path id="Trazado_1219215" data-name="Trazado 1219215" d="M190.139,206.727v2.54a1.263,1.263,0,0,0,1.263,1.263h13.813a1.263,1.263,0,0,0,1.263-1.263v-2.54a1.263,1.263,0,0,0-1.263-1.263H191.4A1.263,1.263,0,0,0,190.139,206.727Z" transform="translate(-168.406 -185.351)" fill="#5884c9"/>
          <path id="Trazado_1219216" data-name="Trazado 1219216" d="M248.3,210.53h8.156a1.263,1.263,0,0,0,1.263-1.263v-2.54a1.263,1.263,0,0,0-1.263-1.263H248.3Z" transform="translate(-219.643 -185.351)" fill="#4478c1"/>
        </g>
      </g>
      <path id="Trazado_1219217" data-name="Trazado 1219217" d="M58.532,77.459V75.749a1.869,1.869,0,0,0-1.356-1.793l-.229-.063V71.639a1.87,1.87,0,0,0-1.362-1.794,34.726,34.726,0,0,0-17.4-.492V64.858a.892.892,0,0,0-1.785,0V69.9A19.884,19.884,0,0,0,30.5,73.174a19.825,19.825,0,0,0-5.662-3.184V55.9H36.4v4.8a.892.892,0,1,0,1.785,0V55.843a2.158,2.158,0,0,0,1.669-2.1v-2.54a2.158,2.158,0,0,0-1.669-2.1v-.73c0-1.454,1.461-3.142,2.108-6.7h16.49a4.14,4.14,0,1,0,0-8.28H40.5a2.556,2.556,0,0,0-2.484-1.972H36.953a2.538,2.538,0,0,0-1.092.245,2.555,2.555,0,0,0-2.229-1.31H32.57a2.537,2.537,0,0,0-1.194.3,2.553,2.553,0,0,0-2.127-1.143H28.187a2.537,2.537,0,0,0-1.332.375,2.549,2.549,0,0,0-1.99-.955H23.8a2.556,2.556,0,0,0-2.553,2.553V33.4H8.7a7.186,7.186,0,0,0-2.933.622L.877,36.188a1.476,1.476,0,0,0,0,2.7l4.889,2.169a7.189,7.189,0,0,0,2.933.622h9.1a7.3,7.3,0,0,0,2.627,4.782c1.033.936,2.193,1.338,2.541,2.8A2.156,2.156,0,0,0,21.733,51.2v2.54a2.159,2.159,0,0,0,1.318,1.986V69.418c-5.551-1.531-12.195-1.1-17.641.427a1.869,1.869,0,0,0-1.362,1.794v2.254l-.229.063a1.869,1.869,0,0,0-1.356,1.793v1.711a2.776,2.776,0,0,0,.443,5.516H58.089a2.775,2.775,0,0,0,.443-5.515ZM55.452,35.182h1.333a2.355,2.355,0,1,1,0,4.71H55.452Zm-3.789,0h2v4.71h-2Zm-11.1,0h9.311v1.462H40.568Zm0,3.473v-.225h9.311v1.462H40.522q.045-.616.046-1.237Zm-33.544.973c-.473-.154-.38-.147-4.786-2.091C6.643,35.592,6.55,35.6,7.024,35.446ZM56.691,75.674a.076.076,0,0,1,.055.075v1.675H33.7C40.256,73.45,49.452,73.636,56.691,75.674Zm-25.3-.925c6.327-5.289,15.956-5.355,23.714-3.186a.078.078,0,0,1,.058.075v1.816c-7.971-1.755-17.1-1.463-23.772,3.358Zm6.682-21a.371.371,0,0,1-.37.371H23.888a.371.371,0,0,1-.37-.371V51.2a.371.371,0,0,1,.37-.37H37.7a.371.371,0,0,1,.37.37v2.54ZM18.638,39.892H8.808V38.429h3.756a.892.892,0,1,0,0-1.785H8.808V35.182H21.25v1.462H16.723a.892.892,0,1,0,0,1.785h4.456a1.983,1.983,0,0,1-1.91,1.462Zm2.9,5.164A5.453,5.453,0,0,1,19.6,41.662a3.771,3.771,0,0,0,3.434-3.75c0-1.344,0-5.083,0-6.423a.769.769,0,0,1,.768-.768h1.062a.769.769,0,0,1,.768.768v.579a.892.892,0,0,0,1.785,0,.769.769,0,0,1,.768-.768h1.062a.769.769,0,0,1,.768.768v.846a.892.892,0,0,0,1.785,0,.769.769,0,0,1,.768-.768h1.062a.769.769,0,0,1,.768.768v1.064a.892.892,0,0,0,1.785,0,.769.769,0,0,1,.768-.768h1.062a.769.769,0,0,1,.768.768v4.676c0,5.082-2.38,7.327-2.38,9.722v.673H24.75c-.455-2.392-2.35-3.161-3.216-3.994ZM5.833,71.639a.078.078,0,0,1,.058-.075C13.658,69.391,23.33,69.5,29.6,74.749v2.064C22.92,71.98,13.783,71.707,5.833,73.455V71.639Zm-1.585,4.11a.076.076,0,0,1,.055-.075c7.261-2.044,16.448-2.217,23,1.75H4.247ZM58.089,81.19H2.905a.991.991,0,1,1,0-1.981H58.089a.991.991,0,0,1,0,1.981Z"/>
    </g>
  </g>
</svg>
