<svg xmlns="http://www.w3.org/2000/svg" xmlns:xlink="http://www.w3.org/1999/xlink" width="108" height="108" viewBox="0 0 108 108">
  <defs>
    <filter id="Trazado_904820" x="0" y="0" width="108" height="108" filterUnits="userSpaceOnUse">
      <feOffset dy="3" input="SourceAlpha"/>
      <feGaussianBlur stdDeviation="3" result="blur"/>
      <feFlood flood-opacity="0.161"/>
      <feComposite operator="in" in2="blur"/>
      <feComposite in="SourceGraphic"/>
    </filter>
  </defs>
  <g id="Grupo_1240538" data-name="Grupo 1240538" transform="translate(-620.058 -1669.88)">
    <g id="Grupo_1225970" data-name="Grupo 1225970" transform="translate(629.058 1675.88)">
      <g id="Grupo_1223550" data-name="Grupo 1223550" transform="translate(0 0)">
        <g id="Grupo_1223164" data-name="Grupo 1223164">
          <g id="Grupo_1203639" data-name="Grupo 1203639">
            <g id="Grupo_1202437" data-name="Grupo 1202437">
              <g id="Grupo_1177315" data-name="Grupo 1177315">
                <g id="Grupo_1173585" data-name="Grupo 1173585">
                  <g id="Grupo_1173428" data-name="Grupo 1173428">
                    <g id="Grupo_1171958" data-name="Grupo 1171958">
                      <g id="Grupo_1167341" data-name="Grupo 1167341">
                        <g id="Grupo_1166792" data-name="Grupo 1166792">
                          <g transform="matrix(1, 0, 0, 1, -9, -6)" filter="url(#Trazado_904820)">
                            <g id="Trazado_904820-2" data-name="Trazado 904820" transform="translate(9 6)" fill="#edf3fc">
                              <path d="M 44.99999618530273 88.49995422363281 C 39.12687301635742 88.49995422363281 33.43022155761719 87.35002899169922 28.06829643249512 85.08213043212891 C 22.88852119445801 82.89126586914062 18.23629570007324 79.75455474853516 14.24084663391113 75.75910186767578 C 10.24540901184082 71.76364898681641 7.108683586120605 67.11144256591797 4.917821407318115 61.93166351318359 C 2.649921178817749 56.56974029541016 1.499996185302734 50.87310028076172 1.499996185302734 44.99997711181641 C 1.499996185302734 39.12685394287109 2.649921178817749 33.43021392822266 4.917821407318115 28.06828880310059 C 7.108683586120605 22.88851547241211 10.24540901184082 18.23630142211914 14.24084663391113 14.24085235595703 C 18.23629570007324 10.24540233612061 22.88852119445801 7.108689785003662 28.06829643249512 4.917827129364014 C 33.43022155761719 2.649927139282227 39.12687301635742 1.500002145767212 44.99999618530273 1.500002145767212 C 50.87311935424805 1.500002145767212 56.56977081298828 2.649927139282227 61.93169784545898 4.917827129364014 C 67.11147308349609 7.108689785003662 71.76369476318359 10.24540233612061 75.75914764404297 14.24085235595703 C 79.75458526611328 18.23630142211914 82.89131164550781 22.88851547241211 85.08216857910156 28.06828880310059 C 87.35007476806641 33.43021392822266 88.5 39.12685394287109 88.5 44.99997711181641 C 88.5 50.87310028076172 87.35007476806641 56.56974029541016 85.08216857910156 61.93166351318359 C 82.89131164550781 67.11144256591797 79.75458526611328 71.76364898681641 75.75914764404297 75.75910186767578 C 71.76369476318359 79.75455474853516 67.11147308349609 82.89126586914062 61.93169784545898 85.08213043212891 C 56.56977081298828 87.35002899169922 50.87311935424805 88.49995422363281 44.99999618530273 88.49995422363281 Z" stroke="none"/>
                              <path d="M 44.99999618530273 2.999992370605469 C 39.32870864868164 2.999992370605469 33.82865142822266 4.11004638671875 28.65262603759766 6.299331665039062 C 23.65165710449219 8.414566040039062 19.15968322753906 11.44333648681641 15.301513671875 15.30150604248047 C 11.44333648681641 19.15967559814453 8.414566040039062 23.65163421630859 6.299339294433594 28.65260696411133 C 4.110054016113281 33.82864761352539 2.999992370605469 39.32868957519531 2.999992370605469 44.99997711181641 C 2.999992370605469 50.6712646484375 4.110054016113281 56.17130661010742 6.299339294433594 61.34733581542969 C 8.414566040039062 66.34830474853516 11.44333648681641 70.84026336669922 15.301513671875 74.69844818115234 C 19.15968322753906 78.55661773681641 23.65165710449219 81.58537292480469 28.65262603759766 83.70062255859375 C 33.82865142822266 85.889892578125 39.32870864868164 86.99994659423828 44.99999618530273 86.99994659423828 C 50.67128372192383 86.99994659423828 56.17134094238281 85.889892578125 61.34736633300781 83.70062255859375 C 66.34834289550781 81.58537292480469 70.84030914306641 78.55661773681641 74.69847869873047 74.69844818115234 C 78.55665588378906 70.84026336669922 81.58542633056641 66.34830474853516 83.70065307617188 61.34733581542969 C 85.88993835449219 56.17130661010742 87 50.6712646484375 87 44.99997711181641 C 87 39.32868957519531 85.88993835449219 33.82864761352539 83.70065307617188 28.65260696411133 C 81.58542633056641 23.65163421630859 78.55665588378906 19.15967559814453 74.69847869873047 15.30150604248047 C 70.84030914306641 11.44333648681641 66.34834289550781 8.414566040039062 61.34736633300781 6.299331665039062 C 56.17134094238281 4.11004638671875 50.67128372192383 2.999992370605469 44.99999618530273 2.999992370605469 M 44.99999618530273 -7.62939453125e-06 C 69.85281372070312 -7.62939453125e-06 90 20.14717864990234 90 44.99997711181641 C 90 69.85277557373047 69.85281372070312 89.99994659423828 44.99999618530273 89.99994659423828 C 20.14717864990234 89.99994659423828 -7.62939453125e-06 69.85277557373047 -7.62939453125e-06 44.99997711181641 C -7.62939453125e-06 20.14717864990234 20.14717864990234 -7.62939453125e-06 44.99999618530273 -7.62939453125e-06 Z" stroke="none" fill="#5692e8"/>
                            </g>
                          </g>
                        </g>
                      </g>
                    </g>
                  </g>
                </g>
              </g>
            </g>
          </g>
        </g>
      </g>
    </g>
    <g id="rompecabezas_4_" data-name="rompecabezas (4)" transform="translate(641.136 1671.055)">
      <g id="Grupo_1240536" data-name="Grupo 1240536" transform="translate(0.965 20.362)">
        <path id="Trazado_1215256" data-name="Trazado 1215256" d="M365.546,57.793a9.274,9.274,0,0,0-5.3-7.506,1.19,1.19,0,0,1-.649-1.3,8.2,8.2,0,0,0-8.114-9.705,1.2,1.2,0,0,1-1.124-.781,5.87,5.87,0,0,0-1.983-2.624h-1.858l-1.479,3.556V45.72l3.215.975-3.215,3.665v6.945l.889,1.376h.113a.82.82,0,0,1,.617.279h6.1a.82.82,0,0,1,.617-.279h11.345A.819.819,0,0,0,365.546,57.793Z" transform="translate(-301.633 -34.719)" fill="#ff636e"/>
        <path id="Trazado_1215257" data-name="Trazado 1215257" d="M89.565,138.122a2.89,2.89,0,0,0-2.911-2.741H85.6a.823.823,0,0,1-.823-.823v-3.672a6,6,0,0,0-1.625-4.106h-2.52l-5.659,3.29s-3.594,6.955-4.283,7.164-2.319,4.379-2.4,4.609-2.572,3.5-2.572,3.5l1,3.556-1,.633H83.2l1.573-.633v-7.005a.823.823,0,0,1,.823-.823h1.126A2.845,2.845,0,0,0,89.565,138.122Z" transform="translate(-58.224 -113.934)" fill="#ffe02f"/>
        <path id="Trazado_1215258" data-name="Trazado 1215258" d="M21.33,128.01a1.19,1.19,0,0,0,.649-1.3A8.2,8.2,0,0,1,30.093,117a1.2,1.2,0,0,0,1.124-.781,5.856,5.856,0,0,1,1.211-1.934,5.774,5.774,0,0,0-4.1-1.842,5.851,5.851,0,0,0-5.6,3.776A1.2,1.2,0,0,1,21.6,117a8.2,8.2,0,0,0-8.114,9.705,1.19,1.19,0,0,1-.649,1.3,9.269,9.269,0,0,0-5.339,8.4l1.227.633h8.488l-1.227-.633A9.269,9.269,0,0,1,21.33,128.01Z" transform="translate(-7.503 -101.441)" fill="#fbc700"/>
        <path id="Trazado_1215259" data-name="Trazado 1215259" d="M312.316,50.862h-6.182a.823.823,0,0,1-.823-.823V43.857a.823.823,0,0,1,.823-.823h1.126a2.845,2.845,0,0,0,2.843-2.949,2.89,2.89,0,0,0-2.911-2.741h-1.058a.823.823,0,0,1-.823-.823V32.849a6,6,0,0,1,2.4-4.8,5.822,5.822,0,0,0-3.617-1.153,5.916,5.916,0,0,0-5.723,5.949v3.672a.823.823,0,0,0,.823.823h1.058a2.889,2.889,0,0,1,2.911,2.741,2.845,2.845,0,0,1-2.843,2.949h-1.126a.823.823,0,0,0-.823.823v6.182a.823.823,0,0,0,.823.823h6.182a.823.823,0,0,1,.823.823v1.058a2.889,2.889,0,0,0,2.741,2.911,2.845,2.845,0,0,0,2.949-2.843V51.685a.823.823,0,0,1,.627-.8A.828.828,0,0,0,312.316,50.862Z" transform="translate(-260.959 -26.899)" fill="#ff4654"/>
        <path id="Trazado_1215260" data-name="Trazado 1215260" d="M201.956,298.772H190.611a.823.823,0,0,0-.823.823v1.058a2.89,2.89,0,0,1-2.741,2.911,2.845,2.845,0,0,1-2.949-2.843v-1.126a.823.823,0,0,0-.823-.823H176.27l-.887.917v5.889h-2.529l-2.143,2.779v2.4l2.186,2.155h2.444v2.829l.93,1.047a5.916,5.916,0,0,0,5.723,5.949,5.851,5.851,0,0,0,5.6-3.777,1.2,1.2,0,0,1,1.124-.781,8.2,8.2,0,0,0,8.114-9.705,1.19,1.19,0,0,1,.649-1.3,9.274,9.274,0,0,0,5.3-7.506A.82.82,0,0,0,201.956,298.772Z" transform="translate(-149.722 -263.808)" fill="#60b9fe"/>
        <path id="Trazado_1215261" data-name="Trazado 1215261" d="M76.945,265.466v-1.058A2.89,2.89,0,0,0,74.2,261.5a2.845,2.845,0,0,0-2.949,2.843v1.126a.823.823,0,0,1-.823.823h-3.72l-1,.633s1.972,6.688,2.486,7.631,4.63,7.459,4.63,7.974,3.258,3.944,3.258,3.944l7.064,1.938a6,6,0,0,0,1.625-4.106V280.63a.823.823,0,0,0-.823-.823H82.824a2.845,2.845,0,0,1-2.843-2.949,2.89,2.89,0,0,1,2.911-2.741H83.95a.823.823,0,0,0,.823-.823v-7.005H77.767a.823.823,0,0,1-.823-.823Z" transform="translate(-58.224 -231.324)" fill="#73d578"/>
        <g id="Grupo_1240535" data-name="Grupo 1240535" transform="translate(0 34.964)">
          <path id="Trazado_1215262" data-name="Trazado 1215262" d="M31.216,318.956a1.2,1.2,0,0,0-1.123-.781,8.2,8.2,0,0,1-8.114-9.705,1.19,1.19,0,0,0-.649-1.3,9.269,9.269,0,0,1-5.339-8.4H7.5a9.269,9.269,0,0,0,5.339,8.4,1.19,1.19,0,0,1,.649,1.3,8.2,8.2,0,0,0,8.114,9.705,1.2,1.2,0,0,1,1.124.781,5.851,5.851,0,0,0,5.6,3.776,5.773,5.773,0,0,0,4.1-1.842A5.856,5.856,0,0,1,31.216,318.956Z" transform="translate(-7.503 -298.771)" fill="#00c63a"/>
        </g>
      </g>
      <g id="Grupo_1240537" data-name="Grupo 1240537" transform="translate(0 19.397)">
        <path id="Trazado_1215263" data-name="Trazado 1215263" d="M319.292,43.344a10.272,10.272,0,0,0-5.848-8.288.227.227,0,0,1-.111-.251,9.167,9.167,0,0,0-8.976-10.85h-.1a.233.233,0,0,1-.21-.158,6.831,6.831,0,0,0-6.376-4.4l-.147,0a6.9,6.9,0,0,0-6.667,6.913v3.672a1.79,1.79,0,0,0,1.788,1.787h1.058a1.932,1.932,0,0,1,1.947,1.811,1.879,1.879,0,0,1-1.879,1.95h-1.126a1.789,1.789,0,0,0-1.787,1.787V43.5a1.789,1.789,0,0,0,1.787,1.787h6.041v.916a3.877,3.877,0,0,0,3.671,3.875,3.806,3.806,0,0,0,3.947-3.807v-.985h2.918a.965.965,0,0,0,0-1.929h-3.06a1.79,1.79,0,0,0-1.788,1.787v1.126a1.879,1.879,0,0,1-1.95,1.879,1.932,1.932,0,0,1-1.811-1.947V45.147a1.79,1.79,0,0,0-1.788-1.787H292.79v-5.9h.985a3.807,3.807,0,0,0,3.807-3.947,3.877,3.877,0,0,0-3.875-3.672h-.916v-3.53a4.965,4.965,0,0,1,4.779-4.984,4.9,4.9,0,0,1,4.678,3.154,2.168,2.168,0,0,0,2.014,1.4h.1a7.238,7.238,0,0,1,7.082,8.56,2.151,2.151,0,0,0,1.187,2.358,8.338,8.338,0,0,1,4.729,6.557h-3.627a.965.965,0,0,0,0,1.929h3.784a1.785,1.785,0,0,0,1.781-1.945Z" transform="translate(-253.455 -19.397)"/>
        <path id="Trazado_1215264" data-name="Trazado 1215264" d="M53.2,128.9H41.854a1.789,1.789,0,0,0-1.787,1.787v1.058a1.932,1.932,0,0,1-1.811,1.947,1.879,1.879,0,0,1-1.95-1.879v-1.126a1.789,1.789,0,0,0-1.787-1.787H28.478V123h.985a3.809,3.809,0,0,0,3.807-3.948,3.877,3.877,0,0,0-3.875-3.672h-.916v-3.53a6.9,6.9,0,0,0-6.667-6.913,6.82,6.82,0,0,0-6.523,4.4.233.233,0,0,1-.21.158h-.1A9.167,9.167,0,0,0,6,120.346a.227.227,0,0,1-.111.251,10.234,10.234,0,0,0,0,18.537.227.227,0,0,1,.111.25,9.168,9.168,0,0,0,8.977,10.85h.1a.233.233,0,0,1,.21.158A6.784,6.784,0,0,0,27.513,151.4a6.783,6.783,0,0,0,12.225-1.011.233.233,0,0,1,.21-.158h.1a9.084,9.084,0,0,0,4.341-1.1.965.965,0,1,0-.924-1.693,7.047,7.047,0,0,1-3.413.867h-.1a2.168,2.168,0,0,0-2.014,1.4,4.907,4.907,0,0,1-4.678,3.154,4.964,4.964,0,0,1-4.779-4.984v-3.672h0a1.789,1.789,0,0,0-1.787-1.787H25.564a1.879,1.879,0,0,1-1.879-1.95,1.932,1.932,0,0,1,1.947-1.811H26.69a1.79,1.79,0,0,0,1.778-1.6,1.821,1.821,0,0,0,.009-.182V130.83h5.9v.985a3.807,3.807,0,0,0,3.948,3.807A3.877,3.877,0,0,0,42,131.746v-.916H53.042a8.338,8.338,0,0,1-4.729,6.557,2.151,2.151,0,0,0-1.187,2.358,7.178,7.178,0,0,1-.83,4.906.964.964,0,0,0,1.674.959,9.109,9.109,0,0,0,1.051-6.225.227.227,0,0,1,.111-.25,10.272,10.272,0,0,0,5.848-8.288,1.774,1.774,0,0,0-.454-1.358A1.8,1.8,0,0,0,53.2,128.9Zm-26.65,7.828h-.916a3.877,3.877,0,0,0-3.875,3.672,3.807,3.807,0,0,0,3.807,3.947h.985v3.53a4.965,4.965,0,0,1-4.779,4.984,4.9,4.9,0,0,1-4.678-3.154,2.168,2.168,0,0,0-2.014-1.4h-.022a7.239,7.239,0,0,1-7.157-8.56,2.151,2.151,0,0,0-1.187-2.358,8.349,8.349,0,0,1-4.727-6.557H13.172a1.789,1.789,0,0,0,1.787-1.787v-1.058a1.882,1.882,0,1,1,3.761,0v1.058a1.789,1.789,0,0,0,1.787,1.787h6.041v5.9Zm1.787-15.656a1.79,1.79,0,0,0-1.787,1.787V128.9h-5.9v-.985a3.81,3.81,0,1,0-7.619.068v.916H1.986a8.35,8.35,0,0,1,4.727-6.557A2.151,2.151,0,0,0,7.9,119.986a7.238,7.238,0,0,1,7.082-8.56h.1a2.168,2.168,0,0,0,2.014-1.4,4.9,4.9,0,0,1,4.678-3.154,4.965,4.965,0,0,1,4.779,4.984v3.672a1.789,1.789,0,0,0,1.787,1.787h1.058a1.932,1.932,0,0,1,1.947,1.811,1.881,1.881,0,0,1-1.879,1.95H28.336Z" transform="translate(0 -93.937)"/>
      </g>
    </g>
  </g>
</svg>
