<svg xmlns="http://www.w3.org/2000/svg" xmlns:xlink="http://www.w3.org/1999/xlink" width="295" height="368" viewBox="0 0 295 368">
  <defs>
    <clipPath id="clip-path">
      <rect id="Rectángulo_423944" data-name="Rectángulo 423944" width="295" height="368" fill="#fff" stroke="#707070" stroke-width="1"/>
    </clipPath>
  </defs>
  <g id="Enmascarar_grupo_1211468" data-name="Enmascarar grupo 1211468" clip-path="url(#clip-path)">
    <g id="_388022138_557da358-e016-4ad7-91b8-79ee25ad3332" data-name="388022138_557da358-e016-4ad7-91b8-79ee25ad3332" transform="translate(0 63.074)">
      <g id="Grupo_1240885" data-name="Grupo 1240885" transform="translate(0)">
        <path id="Trazado_1218759" data-name="Trazado 1218759" d="M436.373,174.111c-.032.271-.064.553-.106.822a72.8,72.8,0,0,1-5.275,19.215q-1.294,2.972-2.872,5.837A48.823,48.823,0,0,1,414.7,215.333a41.789,41.789,0,0,1-10.727,5.8c-11.773,4.257-21.625-1.065-33.446-2.517a109.124,109.124,0,0,0-25.351-.535,64.194,64.194,0,0,0-24.1,7.479c-8.546,4.757-13.3,12.256-20.638,18.072a24.964,24.964,0,0,1-10.1,4.547,30.807,30.807,0,0,1-6.981,1.273,27.444,27.444,0,0,1-7.325-.5c-11.61-2.357-21.72-10.656-28.372-20.446a85.368,85.368,0,0,1-13.572-34.071,89.671,89.671,0,0,1-.806-23.162,92.485,92.485,0,0,1,17.081-45.4c28.14-38.91,82.807-63.26,129.744-46.793.436.156.862.311,1.3.477.265.083.538.189.8.293,1.376.518,2.747,1.089,4.093,1.688a74.538,74.538,0,0,1,10.148,5.5,70.076,70.076,0,0,1,7.251,5.434c2.651,2.282,5.189,4.635,7.569,7.065q2.837,2.863,5.392,5.895a85.687,85.687,0,0,1,10.105,14.731,74.809,74.809,0,0,1,3.714,7.887,78.6,78.6,0,0,1,3.652,11.344,101.014,101.014,0,0,1,2.915,23.649A86.809,86.809,0,0,1,436.373,174.111Z" transform="translate(-201.541 26.351)" fill="#edf3fc"/>
        <g id="Grupo_1240882" data-name="Grupo 1240882" transform="translate(0 4.977)">
          <path id="Trazado_1218760" data-name="Trazado 1218760" d="M353.538,203.46a109.714,109.714,0,0,1,15.3,22.1c6.755,13,23.934,56.256,12.026,60.249s-28.233-8.686-37.5-25.989-8.532-38.965-8.532-38.965Z" transform="translate(-157.267 -114.001)" fill="#e25b5c"/>
          <path id="Trazado_1218761" data-name="Trazado 1218761" d="M381.337,119.481c8.594,2.507,29.044,4.545,30.245,13.416s-7.852,14.793-10.631,23.3-6.2,15.773-6.766,24.708" transform="translate(-220.853 -96.533)" fill="none" stroke="#2e2c3f" stroke-linecap="round" stroke-linejoin="round" stroke-miterlimit="10" stroke-width="0.742"/>
          <path id="Trazado_1218762" data-name="Trazado 1218762" d="M390.5,169.01l-5.9,4.8s-4.842-6.958-6.014-14.833,1.854-15.745,1.08-19.455-.347-13.482-.347-13.482l15.256,16.911L393.006,155.9Z" transform="translate(-201.358 -97.897)" fill="#efa695"/>
          <g id="Grupo_1240867" data-name="Grupo 1240867" transform="translate(60.477 0.758)">
            <g id="Grupo_1240866" data-name="Grupo 1240866">
              <path id="Trazado_1218763" data-name="Trazado 1218763" d="M470.578,106.6s-22.325-6.248-18.315,38.1c2.652,29.339-39.088,8.462-24.561,66.956,8,32.2,57.291,16.893,57.291,16.893l16.779-108.067Z" transform="translate(-405.692 -94.549)" fill="#2e2c3f"/>
              <path id="Trazado_1218764" data-name="Trazado 1218764" d="M414.075,194.831l9.089-24.189,38.87,16.5-.559,45.582L435.748,249.5Z" transform="translate(-357.601 -107.933)" fill="#efa695"/>
              <path id="Trazado_1218765" data-name="Trazado 1218765" d="M441.2,201.184s-43.277,5.317-53.624,10.63c0,0,6.924,24.046,4.127,45.3s-6.977,94.283-6.977,94.283l113.572-1.474s5.543-61.769,7.221-79.946,6.888-62.116,6.888-62.116l-29.119-5.839s-2.746,24.43-15.625,47.819c0,0-9.473-11.605-14.716-24.329A231.65,231.65,0,0,0,441.2,201.184Z" transform="translate(-384.722 -114.286)" fill="#e25b5c"/>
              <circle id="Elipse_12790" data-name="Elipse 12790" cx="1.549" cy="1.549" r="1.549" transform="translate(74.885 149.632)" fill="#2e2c3f"/>
              <circle id="Elipse_12791" data-name="Elipse 12791" cx="1.549" cy="1.549" r="1.549" transform="translate(74.64 182.665)" fill="#2e2c3f"/>
              <circle id="Elipse_12792" data-name="Elipse 12792" cx="1.549" cy="1.549" r="1.549" transform="translate(74.78 167.005)" fill="#2e2c3f"/>
              <path id="Trazado_1218766" data-name="Trazado 1218766" d="M442.9,262.621s1.5,8.669.245,21.952c-.2,2.13-2.866,65.507-2.866,65.507" transform="translate(-359.962 -127.065)" fill="none" stroke="#2e2c3f" stroke-linecap="round" stroke-linejoin="round" stroke-miterlimit="10" stroke-width="0.742"/>
              <g id="Grupo_1240863" data-name="Grupo 1240863" transform="translate(47.247 78.544)">
                <path id="Trazado_1218767" data-name="Trazado 1218767" d="M405.336,247.736c.033.019,14.976-40.307,14.976-40.307.219-6.475-3.055-13.968-3.055-13.968l-.509-2.4s8.584,3.565,11.786,8.948,5.222,18.784,5.222,18.784l-9.648-.42a28.6,28.6,0,0,1-3.432,9.062C417.911,232.164,405.336,247.736,405.336,247.736Z" transform="translate(-369.647 -190.724)" fill="#e25b5c"/>
                <path id="Trazado_1218768" data-name="Trazado 1218768" d="M428.533,202.36c3.2,5.383,5.222,18.784,5.222,18.784l-9.648-.42a28.6,28.6,0,0,1-3.432,9.062c-2.764,4.729-15.339,20.3-15.339,20.3" transform="translate(-369.647 -193.075)" fill="none" stroke="#2e2c3f" stroke-linecap="round" stroke-linejoin="round" stroke-miterlimit="10" stroke-width="0.742"/>
                <path id="Trazado_1218769" data-name="Trazado 1218769" d="M476.908,247.648c-5.726-3.535-22.155-27.807-22.155-27.807l-9.829,3.269c-1.472-2.729-3.7-20.344-3.7-20.344,2.541-5.911,12.339-12.129,12.339-12.129s2.606,13.945,5.441,19.145c2.476,4.542,13.911,32.629,17.909,37.867Z" transform="translate(-441.219 -190.636)" fill="#e25b5c"/>
                <path id="Trazado_1218770" data-name="Trazado 1218770" d="M476.908,250.833c-5.726-3.535-22.155-27.807-22.155-27.807l-9.829,3.269c-1.472-2.729-3.7-20.344-3.7-20.344" transform="translate(-441.219 -193.822)" fill="none" stroke="#2e2c3f" stroke-linecap="round" stroke-linejoin="round" stroke-miterlimit="10" stroke-width="0.742"/>
              </g>
              <g id="Grupo_1240865" data-name="Grupo 1240865" transform="translate(52.918)">
                <g id="Grupo_1240864" data-name="Grupo 1240864">
                  <path id="Trazado_1218771" data-name="Trazado 1218771" d="M398.134,148.5s-.353,21.682,8.961,32.945,18.945,14.893,27.342,9.114c13.271-9.114,18.475-27.483,20.437-37.96.117-.611.223-1.186.317-1.738.211-1.245.423-2.889.6-4.815a92.1,92.1,0,0,0-.681-21.869c-.153-.975-.341-1.938-.54-2.889-2.055-9.666-6.53-18.252-15.457-20.26-19.4-4.369-34.037,4.921-39.064,19.767A54.817,54.817,0,0,0,398.134,148.5Z" transform="translate(-391.248 -93.228)" fill="#efa695"/>
                  <path id="Trazado_1218772" data-name="Trazado 1218772" d="M440.477,201.338s-3.706-7.536-10.263-.836C430.214,200.5,437.655,199.105,440.477,201.338Z" transform="translate(-401.742 -113.567)" fill="#fff"/>
                  <path id="Trazado_1218773" data-name="Trazado 1218773" d="M396.545,137.322c.364-3.7,2.983-6.859,6.072-8.938,4.04-2.724,8.879-3.958,13.613-5.132,3.453-.869,6.918-1.727,10.371-2.584a7.854,7.854,0,0,1,2.854-.352,5.626,5.626,0,0,1,3.77,2.619,92.091,92.091,0,0,1,.681,21.869,5.08,5.08,0,0,0-2.3.059,16.333,16.333,0,0,0-4.287,2.1,10.912,10.912,0,0,1-2.862,1.254,4.858,4.858,0,0,1-1.761.131l.022.03a5.506,5.506,0,0,1-1.529-.36,17.712,17.712,0,0,0-6.074-.435c-2.566.212-5.093.757-7.65,1.064a41.557,41.557,0,0,1-5.118.3,4.7,4.7,0,0,1-3.511-1.046,3.169,3.169,0,0,1-.523-3.123,5.255,5.255,0,0,1,2.027-2.564,4.362,4.362,0,0,1-2.267-.629A4.574,4.574,0,0,1,396.545,137.322Z" transform="translate(-368.832 -97.459)" fill="#f49582"/>
                  <path id="Trazado_1218774" data-name="Trazado 1218774" d="M424.591,202.854c9.316,11.269,18.942,14.886,27.341,9.115" transform="translate(-408.745 -114.634)" fill="none" stroke="#2e2c3f" stroke-linecap="round" stroke-linejoin="round" stroke-miterlimit="10" stroke-width="0.742"/>
                  <path id="Trazado_1218775" data-name="Trazado 1218775" d="M389.7,136.393a29.428,29.428,0,0,0,26.26,7.88c19.5-3.538,26.5-23.844,26.5-23.844s7.276,6.532,7.591,20.955c0,0,16.306-11.411,1.113-29.641,0,0-3.8-17.349-21.015-19.825s-29.211,5.445-36.589,16.862C383.779,123.93,389.7,136.393,389.7,136.393Z" transform="translate(-385.419 -91.464)" fill="#2e2c3f"/>
                  <path id="Trazado_1218776" data-name="Trazado 1218776" d="M452.876,126.1a25.782,25.782,0,0,1-17.712,23.917c-4.265,1.4-8.812,1.671-13.3,1.8a18.939,18.939,0,0,1-6.144-.523c-3.043-.939-5.719-3.364-8.9-3.2" transform="translate(-395.614 -98.669)" fill="none" stroke="#2e2c3f" stroke-linecap="round" stroke-linejoin="round" stroke-miterlimit="10" stroke-width="0.742"/>
                  <path id="Trazado_1218777" data-name="Trazado 1218777" d="M427.674,173.154c-1.141,8.1,4.132,12.034,1.5,12.844a5.423,5.423,0,0,1-4.316-.262" transform="translate(-386.944 -108.456)" fill="none" stroke="#2e2c3f" stroke-linecap="round" stroke-linejoin="round" stroke-miterlimit="10" stroke-width="0.742"/>
                  <path id="Trazado_1218778" data-name="Trazado 1218778" d="M476.515,153.232s-5.168-7.058-9.087-2.527,7.229,20.1,7.229,20.1Z" transform="translate(-466.592 -103.471)" fill="#efa695"/>
                </g>
                <ellipse id="Elipse_12793" data-name="Elipse 12793" cx="1.742" cy="2.61" rx="1.742" ry="2.61" transform="matrix(-0.969, -0.249, 0.249, -0.969, 54.894, 69.542)" fill="#2e2c3f"/>
                <ellipse id="Elipse_12794" data-name="Elipse 12794" cx="1.742" cy="2.61" rx="1.742" ry="2.61" transform="matrix(-0.969, -0.249, 0.249, -0.969, 29.395, 65.157)" fill="#2e2c3f"/>
              </g>
              <path id="Trazado_1218779" data-name="Trazado 1218779" d="M473.575,156.3s-2.49-3.012-3.716-1.8,2.82,8.363,3.855,10.159Z" transform="translate(-413.28 -104.517)" fill="#2e2c3f"/>
              <path id="Trazado_1218780" data-name="Trazado 1218780" d="M473.941,106.676a31.331,31.331,0,0,0-9.784,25.654" transform="translate(-409.056 -94.628)" fill="none" stroke="#fff" stroke-miterlimit="10" stroke-width="0.938"/>
            </g>
          </g>
          <g id="Grupo_1240870" data-name="Grupo 1240870" transform="translate(266.634 139.389)">
            <g id="Grupo_1240869" data-name="Grupo 1240869">
              <path id="Trazado_1218781" data-name="Trazado 1218781" d="M122.88,275.432l55.837-2.614,60.9,15.773-52.8,17.376-32.136-13.412Z" transform="translate(-110.714 -267.817)" fill="#dedef9"/>
              <path id="Trazado_1218782" data-name="Trazado 1218782" d="M126.385,391.923c.228,8.027-.156,16.439-.156,16.439l57.017-3.88a71.021,71.021,0,0,0,1.3-26.974c-.065-.446-.137-.883-.211-1.31a22.427,22.427,0,0,1,2.724-15.31l-3.975-14.98.479-2.431,2.717-13.728c.111-.486.215-1.049.31-1.677,1.167-7.581,1.251-24.635,1.228-31.971-.006-2.147-.02-3.463-.02-3.463-6.157-1.179-64.187.928-64.187.928l0,.44-.071,11.226-.006.792-.013,2.45-.137,21.087-.023,3.479-.293,18.172-.017.828-.166,10.291-.029,1.834s1.391,9.49,2.785,18.093a74.37,74.37,0,0,1,.72,8.779c.01.293.02.586.026.883Z" transform="translate(-58.899 -271.865)" fill="#dedef9"/>
              <path id="Trazado_1218783" data-name="Trazado 1218783" d="M194.188,364.409a104.334,104.334,0,0,1-.893,14.78L252.338,405s5.274-12.6,5.991-14.859a1.612,1.612,0,0,0,.082-.322c0-.065-.02-.45-.052-1.085-.219-4.187-1.091-19.334-1.665-27.769-.219-3.176-.394-5.4-.476-5.73s-.407-2.163-.851-4.808c-.075-.453-.153-.925-.238-1.42-1.111-6.718-2.733-17.1-3.29-22.312a18.369,18.369,0,0,1-.176-3c.173-1.378-.339-10.069-.88-18.253-.055-.87-.114-1.736-.169-2.587-.017-.2-.029-.4-.042-.6-.368-5.424-.71-10.125-.817-11.585v0c-.02-.3-.032-.463-.032-.463l-1.023-.274-51.524-13.812s1.179,26.15-1.688,38.63l4.385,1.013s-.179,2.15-.44,5.284c-.032.4-.068.814-.1,1.244-.707,8.466-1.87,22.241-1.984,22.824-.169.843-4.388-.336-4.388-.336s.984,7.408,1.192,16.709v0Q194.182,362.922,194.188,364.409Z" transform="translate(-185.008 -268.504)" fill="#c5c5ed"/>
              <path id="Trazado_1218784" data-name="Trazado 1218784" d="M237.184,335.115l-5.841.2-35.066,1.163-19.992.665-52.127-10.965" transform="translate(-109.293 -278.915)" fill="none" stroke="#a2a2f0" stroke-miterlimit="10" stroke-width="0.411"/>
              <path id="Trazado_1218785" data-name="Trazado 1218785" d="M239.475,375.781l-19.508,1.8L189,378.959l-5.968.268-59.213-15.35" transform="translate(-111.313 -286.757)" fill="none" stroke="#a2a2f0" stroke-miterlimit="10" stroke-width="0.411"/>
              <path id="Trazado_1218786" data-name="Trazado 1218786" d="M128.229,357.706l31.049,1.649.479-2.431Z" transform="translate(-35.092 -285.311)" fill="#a2a2f0"/>
              <path id="Trazado_1218787" data-name="Trazado 1218787" d="M153.339,302.957l28.509,5.482,39.137.337L182.1,311.054Z" transform="translate(-116.206 -274.086)" fill="#a2a2f0"/>
              <path id="Trazado_1218788" data-name="Trazado 1218788" d="M169.986,364.357l15.472,3,21.472.177-21.236,1.243Z" transform="translate(-115.336 -286.857)" fill="#a2a2f0"/>
              <path id="Trazado_1218789" data-name="Trazado 1218789" d="M166.472,414.518l15.472,3,21.471.177-21.236,1.243Z" transform="translate(-109.038 -297.291)" fill="#a2a2f0"/>
              <path id="Trazado_1218790" data-name="Trazado 1218790" d="M126.987,399.7l25.847-.153c-.065-.446-.137-.883-.211-1.31C144.97,398.636,126.987,399.7,126.987,399.7Z" transform="translate(-27.184 -293.905)" fill="#a2a2f0"/>
              <path id="Trazado_1218791" data-name="Trazado 1218791" d="M168.943,405.09s-27.7.675-22.1.675C147.435,405.764,159.665,406.271,168.943,405.09Z" transform="translate(-58.429 -295.33)" fill="#a2a2f0"/>
              <path id="Trazado_1218792" data-name="Trazado 1218792" d="M161.062,317.76s-27.7.675-22.1.675C139.554,318.435,151.784,318.941,161.062,317.76Z" transform="translate(-44.306 -277.165)" fill="#a2a2f0"/>
              <path id="Trazado_1218793" data-name="Trazado 1218793" d="M215.83,334.089l40.966,7.965c-1.626-.365-33.151-7.385-40.862-9.209C215.9,333.246,215.866,333.659,215.83,334.089Z" transform="translate(-201.51 -280.303)" fill="#a2a2f0"/>
              <path id="Trazado_1218794" data-name="Trazado 1218794" d="M226.937,383.912q.034,1.432.039,2.919l37.311,8.412C263.792,395.093,237.981,387.245,226.937,383.912Z" transform="translate(-217.797 -290.925)" fill="#a2a2f0"/>
              <path id="Trazado_1218795" data-name="Trazado 1218795" d="M259.971,373.767s-7.233,3.058-8.329,8.877l-28.172-10.5s3.539-6.326,7.085-6.326C230.976,365.818,259.971,373.767,259.971,373.767Z" transform="translate(-210.734 -287.161)" fill="#fff"/>
              <path id="Trazado_1218796" data-name="Trazado 1218796" d="M139.122,347.953,166.6,337.711l-35.066,1.163S138.025,342.132,139.122,347.953Z" transform="translate(-44.549 -281.315)" fill="#fff"/>
              <g id="Grupo_1240868" data-name="Grupo 1240868">
                <path id="Trazado_1218797" data-name="Trazado 1218797" d="M146.593,280.917s35.442-10.462,41.72-12.822a26.921,26.921,0,0,1,12.334-1.4s19.46,2.842,30.459,7.743,25.609,11.69,25.609,11.69-23.015,1.058-33.72,5.369-13.53,6.28-13.53,6.28-9.351-8.885-25.456-11.657S146.593,280.917,146.593,280.917Z" transform="translate(-146.593 -266.503)" fill="#fff"/>
                <path id="Trazado_1218798" data-name="Trazado 1218798" d="M183.23,271.743s17.768,2.819,27.282,8.371" transform="translate(-129.407 -267.593)" fill="none" stroke="#a2a2f0" stroke-linecap="round" stroke-linejoin="round" stroke-miterlimit="10" stroke-width="1.234"/>
                <path id="Trazado_1218799" data-name="Trazado 1218799" d="M195.614,275.213s17.768,2.819,27.282,8.371" transform="translate(-151.599 -268.315)" fill="none" stroke="#a2a2f0" stroke-linecap="round" stroke-linejoin="round" stroke-miterlimit="10" stroke-width="1.234"/>
                <path id="Trazado_1218800" data-name="Trazado 1218800" d="M207.039,278.834s19.4,3.078,29.792,9.141" transform="translate(-174.582 -269.068)" fill="none" stroke="#a2a2f0" stroke-linecap="round" stroke-linejoin="round" stroke-miterlimit="10" stroke-width="1.234"/>
              </g>
            </g>
            <path id="Trazado_1218801" data-name="Trazado 1218801" d="M131.774,382.558c1.984,2.511,9.617,11.868,13.647,12.419,4.659.635,30.528-6.734,30.528-6.734s-6.288.094-9.783-2.023a7.7,7.7,0,0,1-3.421-5.039Z" transform="translate(-54.091 -290.357)" fill="#fff"/>
          </g>
          <g id="Grupo_1240872" data-name="Grupo 1240872" transform="translate(174.93 22.185)">
            <path id="Trazado_1218802" data-name="Trazado 1218802" d="M386.877,213l-16.564-41.356-15.394,5.261,11.44,50.331Z" transform="translate(-350.045 -129.568)" fill="#efa695"/>
            <path id="Trazado_1218803" data-name="Trazado 1218803" d="M345.334,218.732s19.979,27.522,26.073,56.333c1.88,8.887.484,23.418-13.223,25.17s-23.413-14.446-26.842-32-8.146-41.212-8.146-41.212S340.806,229.933,345.334,218.732Z" transform="translate(-310.12 -139.362)" fill="#e25b5c"/>
            <path id="Trazado_1218804" data-name="Trazado 1218804" d="M375.725,302.413c-13.707,1.753-23.413-14.446-26.842-32s-8.146-41.212-8.146-41.212" transform="translate(-327.661 -141.539)" fill="none" stroke="#2e2c3f" stroke-linecap="round" stroke-linejoin="round" stroke-miterlimit="10" stroke-width="0.742"/>
            <path id="Trazado_1218805" data-name="Trazado 1218805" d="M374.847,212.111a19.435,19.435,0,0,1,4.333,8.743,29.19,29.19,0,0,1-24.4,6.462s-1.673-5.55-.608-7.678C354.168,219.637,368.689,220.169,374.847,212.111Z" transform="translate(-341.473 -137.985)" fill="#e25b5c"/>
            <path id="Trazado_1218806" data-name="Trazado 1218806" d="M379.18,222.829a29.19,29.19,0,0,1-24.4,6.462s-1.673-5.55-.608-7.678" transform="translate(-341.473 -139.962)" fill="none" stroke="#2e2c3f" stroke-linecap="round" stroke-linejoin="round" stroke-miterlimit="10" stroke-width="0.742"/>
            <g id="Grupo_1240871" data-name="Grupo 1240871" transform="translate(0)">
              <path id="Trazado_1218807" data-name="Trazado 1218807" d="M393.134,162.3s2.716-20.014,2.286-23.853-4.54-7.6-7.359-11.067-11.158-9.025-12.371-8.86-1.043,2.12-1.043,2.12-2.018.37-1.859,2.036,2.347,3.252,2.347,3.252a2.235,2.235,0,0,0,.236,3.324c1.792,1.834,7.367,5.377,7.367,5.377l3.334,6.488s-9.647,21.847-8.418,24.737,9.342,1.59,9.342,1.59Z" transform="translate(-372.779 -118.517)" fill="#efa695"/>
              <path id="Trazado_1218808" data-name="Trazado 1218808" d="M389.833,138.862l3.334,6.488s-9.647,21.847-8.418,24.737" transform="translate(-379.875 -122.749)" fill="none" stroke="#2e2c3f" stroke-linecap="round" stroke-linejoin="round" stroke-miterlimit="10" stroke-width="0.742"/>
              <path id="Trazado_1218809" data-name="Trazado 1218809" d="M377.5,127.876s8.165,3.63,9.382,4.635,7.207,8,7.207,8" transform="translate(-375.148 -120.464)" fill="none" stroke="#2e2c3f" stroke-linecap="round" stroke-linejoin="round" stroke-miterlimit="10" stroke-width="0.742"/>
              <path id="Trazado_1218810" data-name="Trazado 1218810" d="M376.772,121.2s7.272,4.157,9.364,5.747,8.293,9.211,8.293,9.211" transform="translate(-374.904 -119.075)" fill="none" stroke="#2e2c3f" stroke-linecap="round" stroke-linejoin="round" stroke-miterlimit="10" stroke-width="0.742"/>
            </g>
          </g>
          <g id="Grupo_1240874" data-name="Grupo 1240874" transform="translate(84.227 170.804)">
            <g id="Grupo_1240873" data-name="Grupo 1240873">
              <path id="Trazado_1218811" data-name="Trazado 1218811" d="M442.7,387.309l-.619,1.748a3.713,3.713,0,0,0,1.533,4.389l42.512,14.3h6.532l3.949-4.083-42.8-14.7Z" transform="translate(-441.869 -323.046)" fill="#2e2c3f"/>
              <path id="Trazado_1218812" data-name="Trazado 1218812" d="M464.242,404.617l-47.075-17.91,73.471-2.294Z" transform="translate(-416.334 -322.444)" fill="#2e2c3f"/>
              <line id="Línea_681" data-name="Línea 681" x1="47.592" y1="16.109" transform="translate(0.833 64.263)" fill="none" stroke="#fff" stroke-miterlimit="10" stroke-width="0.636"/>
              <path id="Trazado_1218813" data-name="Trazado 1218813" d="M383.811,388.342H251.9l25.954-79.562a3.784,3.784,0,0,1,3.6-2.611H405.4a3.786,3.786,0,0,1,3.6,4.959Z" transform="translate(-203.993 -306.169)" fill="#2e2c3f"/>
              <path id="Trazado_1218814" data-name="Trazado 1218814" d="M380.442,391.528H248.533l25.825-79.168a4.357,4.357,0,0,1,4.141-3.006H401.244a4.356,4.356,0,0,1,4.141,5.707Z" transform="translate(-197.741 -306.831)" fill="#2e2c3f"/>
              <ellipse id="Elipse_12795" data-name="Elipse 12795" cx="7.379" cy="9.464" rx="7.379" ry="9.464" transform="translate(137.848 54.598) rotate(-161.391)" fill="#fff"/>
            </g>
          </g>
          <g id="Grupo_1240876" data-name="Grupo 1240876" transform="translate(83.1 17.62)">
            <g id="Grupo_1240875" data-name="Grupo 1240875">
              <path id="Trazado_1218815" data-name="Trazado 1218815" d="M470.124,155.528a50.5,50.5,0,0,0-.379-9.815c-.76-5.333-1.745-9.084.505-13.454s4.739-9.585,7.482-12.08,11.41-6.817,12.611-7.322,2.119.967,1.624,2.44c0,0,5.34-3.217,6.1-1.754s-2.692,5.97-2.692,5.97,4.777-4.022,5.766-2.207-1.462,5-1.462,5,3.964-.48.663,4.928-7.927,14.2-8.418,17.978-.321,9.644-4.533,14.62c-1.545,9.988-11.543,73.863-15.535,80.337-4.332,7.026-28.151,11.326-28.151,11.326l-1.872-10.936Z" transform="translate(-441.839 -112.755)" fill="#efa695"/>
              <path id="Trazado_1218816" data-name="Trazado 1218816" d="M463.239,153.743c-.49,3.774-.321,9.644-4.533,14.62-.583,3.768-2.368,15.2-4.58,28.327" transform="translate(-413.149 -121.28)" fill="none" stroke="#2e2c3f" stroke-linecap="round" stroke-linejoin="round" stroke-miterlimit="10" stroke-width="0.742"/>
              <path id="Trazado_1218817" data-name="Trazado 1218817" d="M470.489,115.965s-8.219,5.918-11.313,10.049a63.484,63.484,0,0,0-5.1,8.025" transform="translate(-420.36 -113.422)" fill="none" stroke="#2e2c3f" stroke-linecap="round" stroke-linejoin="round" stroke-miterlimit="10" stroke-width="0.742"/>
              <path id="Trazado_1218818" data-name="Trazado 1218818" d="M463.477,121.287S456,128.6,453.528,132.1s-3.76,5.378-3.76,5.378" transform="translate(-409.936 -114.529)" fill="none" stroke="#2e2c3f" stroke-linecap="round" stroke-linejoin="round" stroke-miterlimit="10" stroke-width="0.742"/>
              <path id="Trazado_1218819" data-name="Trazado 1218819" d="M456.543,124.821s-9.055,10.287-12.209,16.749" transform="translate(-398.698 -115.264)" fill="none" stroke="#2e2c3f" stroke-linecap="round" stroke-linejoin="round" stroke-miterlimit="10" stroke-width="0.742"/>
            </g>
          </g>
          <path id="Trazado_1218820" data-name="Trazado 1218820" d="M469.4,222.764c4.219-12.072,12.895-12.931,17.878.849a99.4,99.4,0,0,0,10.009,19.3l14.172-30.757s3.687,8.762,23.149,8.61c0,0-11.265,72.335-29.706,86.382C467.571,335.582,465.177,234.835,469.4,222.764Z" transform="translate(-412.303 -115.811)" fill="#e25b5c"/>
          <path id="Trazado_1218821" data-name="Trazado 1218821" d="M497.1,228.807c1.026,2.965,1.711,13.912,1.622,14.108L512.9,212.158" transform="translate(-413.743 -115.81)" fill="none" stroke="#2e2c3f" stroke-linecap="round" stroke-linejoin="round" stroke-miterlimit="10" stroke-width="0.742"/>
          <path id="Trazado_1218822" data-name="Trazado 1218822" d="M523.95,223.029s-11.265,72.335-29.706,86.382c-12.183,9.281-20.646,4.8-26.37-5.87" transform="translate(-401.647 -118.072)" fill="none" stroke="#2e2c3f" stroke-linecap="round" stroke-linejoin="round" stroke-miterlimit="10" stroke-width="0.742"/>
          <path id="Trazado_1218823" data-name="Trazado 1218823" d="M470.235,208.2s-3.706,4.732-3.763,8.553c0,0,9.351,9.123,25.087,8.04,0,0,2.68-5.473,1.026-9.351C492.586,215.44,476.792,216.524,470.235,208.2Z" transform="translate(-369.714 -114.987)" fill="#e25b5c"/>
          <path id="Trazado_1218824" data-name="Trazado 1218824" d="M466.474,218.654s9.351,9.123,25.087,8.04c0,0,2.68-5.473,1.026-9.351" transform="translate(-369.715 -116.889)" fill="none" stroke="#2e2c3f" stroke-linecap="round" stroke-linejoin="round" stroke-miterlimit="10" stroke-width="0.742"/>
          <path id="Trazado_1218825" data-name="Trazado 1218825" d="M522.206,250.993s-5.993,14.819-7.21,22.878" transform="translate(-437.224 -123.888)" fill="none" stroke="#2e2c3f" stroke-linecap="round" stroke-linejoin="round" stroke-miterlimit="10" stroke-width="0.742"/>
          <path id="Trazado_1218826" data-name="Trazado 1218826" d="M458.031,111.1c.422-7.688-5.152-15.189-11.631-19.348-6-3.851-16.751,2.555-24.4,1.711-16.535-1.825-17.358,9.308-25.783,15.5" transform="translate(-278.996 -90.507)" fill="none" stroke="#2e2c3f" stroke-linecap="round" stroke-linejoin="round" stroke-miterlimit="10" stroke-width="0.742"/>
          <path id="Trazado_1218827" data-name="Trazado 1218827" d="M501.563,117.089c-4.221,1.643-8.48,4.122-10.378,8.234-1.6,3.468-1.24,7.528-.3,11.229s2.439,7.266,3.048,11.036a24.734,24.734,0,0,1-12.657,25.19" transform="translate(-389.88 -96.036)" fill="none" stroke="#2e2c3f" stroke-linecap="round" stroke-linejoin="round" stroke-miterlimit="10" stroke-width="0.742"/>
          <path id="Trazado_1218828" data-name="Trazado 1218828" d="M445.907,162.751s-4.39-2.338-7.983.513" transform="translate(-299.886 -105.346)" fill="none" stroke="#2e2c3f" stroke-linecap="round" stroke-linejoin="round" stroke-miterlimit="10" stroke-width="0.742"/>
          <path id="Trazado_1218829" data-name="Trazado 1218829" d="M412.779,167.824s-3.949-3.025-7.959-.8" transform="translate(-240.539 -106.253)" fill="none" stroke="#2e2c3f" stroke-linecap="round" stroke-linejoin="round" stroke-miterlimit="10" stroke-width="0.742"/>
          <g id="Grupo_1240879" data-name="Grupo 1240879" transform="translate(0 200.992)">
            <g id="Grupo_1240878" data-name="Grupo 1240878">
              <path id="Trazado_1218830" data-name="Trazado 1218830" d="M472.767,353.732l55.838-2.615,60.9,15.773-52.8,17.376-32.137-13.412Z" transform="translate(-471.077 -345.707)" fill="#dedef9"/>
              <path id="Trazado_1218831" data-name="Trazado 1218831" d="M472.736,440.588l7.7,2.031v.012h.024l5.967-.27,30.972-1.374,19.584-.687-4.046-16.1.47-2.431,2.724-13.718c.105-.493.212-1.057.306-1.68,1.163-7.587,1.257-24.641,1.233-31.97-.012-2.149-.024-3.465-.024-3.465-6.155-1.186-64.187.928-64.187.928v.435l-.07,11.228-.012.787-.012,2.454-.141,21.094-.024,3.477-.294,18.169-.012.822Z" transform="translate(-419.227 -349.755)" fill="#dedef9"/>
              <path id="Trazado_1218832" data-name="Trazado 1218832" d="M546.861,423.414a.221.221,0,0,1-.082.129l51.736,13.683,7.7,2.031c-.223-3.171-.4-5.391-.482-5.72s-.411-2.161-.846-4.815c-.082-.447-.153-.916-.246-1.421-1.1-6.719-2.725-17.1-3.288-22.3a20.392,20.392,0,0,1-.176-3.006c.176-1.374-.341-10.065-.881-18.252-.047-.869-.105-1.738-.165-2.584-.012-.2-.024-.4-.047-.6-.364-5.426-.7-10.124-.81-11.592-.024-.294-.036-.458-.036-.458l-1.022-.27L546.7,354.414s1.175,26.156-1.691,38.641l4.392,1.01s-.188,2.149-.447,5.285c-.036.4-.07.81-.105,1.245C548.141,409.061,546.979,422.826,546.861,423.414Z" transform="translate(-545.006 -346.392)" fill="#c5c5ed"/>
              <path id="Trazado_1218833" data-name="Trazado 1218833" d="M587.071,413.415l-5.841.2-35.067,1.163-19.992.664-52.127-10.965" transform="translate(-469.656 -356.805)" fill="none" stroke="#a2a2f0" stroke-miterlimit="10" stroke-width="0.411"/>
              <path id="Trazado_1218834" data-name="Trazado 1218834" d="M478.116,436.006l31.049,1.649.479-2.431Z" transform="translate(-395.455 -363.201)" fill="#a2a2f0"/>
              <path id="Trazado_1218835" data-name="Trazado 1218835" d="M503.226,381.257l28.51,5.482,39.137.337-38.884,2.278Z" transform="translate(-476.569 -351.976)" fill="#a2a2f0"/>
              <path id="Trazado_1218836" data-name="Trazado 1218836" d="M519.873,442.657l15.472,3,21.472.177-21.236,1.244Z" transform="translate(-475.699 -364.747)" fill="#a2a2f0"/>
              <path id="Trazado_1218837" data-name="Trazado 1218837" d="M510.949,396.06s-27.7.675-22.1.675C489.441,396.735,501.671,397.241,510.949,396.06Z" transform="translate(-404.669 -355.055)" fill="#a2a2f0"/>
              <path id="Trazado_1218838" data-name="Trazado 1218838" d="M565.717,412.389l40.966,7.965c-1.626-.365-33.151-7.385-40.862-9.209C565.788,411.546,565.753,411.959,565.717,412.389Z" transform="translate(-561.873 -358.192)" fill="#a2a2f0"/>
              <path id="Trazado_1218839" data-name="Trazado 1218839" d="M489.009,426.253l27.476-10.242-35.066,1.163S487.912,420.431,489.009,426.253Z" transform="translate(-404.911 -359.205)" fill="#fff"/>
              <g id="Grupo_1240877" data-name="Grupo 1240877" transform="translate(18.56)">
                <path id="Trazado_1218840" data-name="Trazado 1218840" d="M570.286,369.721s-32.5-17.585-38.154-21.2a26.917,26.917,0,0,0-11.775-3.925s-19.626-1.256-31.4,1.256-27.477,6.124-27.477,6.124,22.3,5.809,31.873,12.247,11.933,8.95,11.933,8.95,10.991-6.752,27.32-6.124S570.286,369.721,570.286,369.721Z" transform="translate(-461.478 -344.285)" fill="#fff"/>
                <path id="Trazado_1218841" data-name="Trazado 1218841" d="M553.7,349.6s-17.966-.928-28.425,2.53" transform="translate(-495.412 -345.367)" fill="none" stroke="#a2a2f0" stroke-linecap="round" stroke-linejoin="round" stroke-miterlimit="10" stroke-width="1.234"/>
                <path id="Trazado_1218842" data-name="Trazado 1218842" d="M542.3,355.56s-17.966-.927-28.425,2.53" transform="translate(-474.992 -346.607)" fill="none" stroke="#a2a2f0" stroke-linecap="round" stroke-linejoin="round" stroke-miterlimit="10" stroke-width="1.234"/>
                <path id="Trazado_1218843" data-name="Trazado 1218843" d="M531.39,362.127s-19.619-1.013-31.04,2.763" transform="translate(-453.369 -347.971)" fill="none" stroke="#a2a2f0" stroke-linecap="round" stroke-linejoin="round" stroke-miterlimit="10" stroke-width="1.234"/>
              </g>
            </g>
          </g>
          <g id="Grupo_1240881" data-name="Grupo 1240881" transform="translate(138.957 230.796)">
            <g id="Grupo_1240880" data-name="Grupo 1240880">
              <path id="Trazado_1218844" data-name="Trazado 1218844" d="M328.489,383.985l44.2-2.069,48.2,12.484L379.1,408.153l-25.437-10.615Z" transform="translate(-327.152 -381.916)" fill="#fff"/>
              <path id="Trazado_1218845" data-name="Trazado 1218845" d="M327.912,452.734l6.1,1.608v.01h.018l4.723-.214,24.515-1.087,15.5-.545.984-12.182-3.814-2.484,2.157-10.858c.084-.391.167-.836.242-1.33.92-6.006.995-19.5.976-25.305-.01-1.7-.018-2.743-.018-2.743-4.872-.939-50.805.734-50.805.734v.344l-.055,8.888-.01.623-.009,1.943-.112,16.7-.018,2.752-.232,14.382-.009.651Z" transform="translate(-285.558 -385.12)" fill="#dedef9"/>
              <path id="Trazado_1218846" data-name="Trazado 1218846" d="M387.135,439.14a.177.177,0,0,1-.065.1l40.951,10.831,6.1,1.609c-.177-2.51-.316-4.267-.381-4.528s-.326-1.711-.669-3.811c-.065-.353-.121-.725-.195-1.125-.874-5.317-2.157-13.535-2.6-17.654a16.209,16.209,0,0,1-.139-2.38c.139-1.087-.269-7.967-.7-14.447-.037-.688-.084-1.376-.13-2.045-.01-.158-.018-.316-.037-.474-.288-4.295-.558-8.013-.642-9.176-.018-.232-.028-.363-.028-.363l-.809-.214-40.784-10.942s.93,20.7-1.339,30.585l3.477.8s-.149,1.7-.353,4.183c-.028.316-.055.642-.084.985C388.148,427.779,387.228,438.675,387.135,439.14Z" transform="translate(-385.667 -382.458)" fill="#c5c5ed"/>
              <path id="Trazado_1218847" data-name="Trazado 1218847" d="M418.963,431.226l-4.624.155-27.756.92-15.825.526-41.26-8.679" transform="translate(-326.026 -390.7)" fill="none" stroke="#a2a2f0" stroke-miterlimit="10" stroke-width="0.326"/>
              <path id="Trazado_1218848" data-name="Trazado 1218848" d="M327.912,449.107l28.765,1.86-3.809-2.48Z" transform="translate(-262.484 -395.763)" fill="#a2a2f0"/>
              <path id="Trazado_1218849" data-name="Trazado 1218849" d="M352.6,405.772l22.566,4.339,30.977.267-30.777,1.8Z" transform="translate(-331.499 -386.878)" fill="#a2a2f0"/>
              <path id="Trazado_1218850" data-name="Trazado 1218850" d="M365.774,454.372l12.247,2.376,17,.14-16.809.984Z" transform="translate(-330.809 -396.987)" fill="#a2a2f0"/>
              <path id="Trazado_1218851" data-name="Trazado 1218851" d="M358.71,417.489s-21.923.534-17.492.534A128.762,128.762,0,0,0,358.71,417.489Z" transform="translate(-274.587 -389.315)" fill="#a2a2f0"/>
              <path id="Trazado_1218852" data-name="Trazado 1218852" d="M402.061,430.414l32.426,6.3c-1.287-.289-26.24-5.846-32.344-7.29C402.118,429.746,402.089,430.074,402.061,430.414Z" transform="translate(-399.019 -391.799)" fill="#a2a2f0"/>
              <path id="Trazado_1218853" data-name="Trazado 1218853" d="M341.345,441.388l21.747-8.107-27.755.92S340.476,436.78,341.345,441.388Z" transform="translate(-274.779 -392.6)" fill="#fff"/>
            </g>
          </g>
        </g>
        <g id="Grupo_1240884" data-name="Grupo 1240884" transform="translate(206.363)">
          <g id="Grupo_1240883" data-name="Grupo 1240883">
            <path id="Trazado_1218854" data-name="Trazado 1218854" d="M233.827,70.506a12.178,12.178,0,0,1,9.884-11.956,12.161,12.161,0,0,1,21.169-9.8,12.167,12.167,0,0,1,20.483,7.6A15,15,0,1,1,281.2,85.981a14.976,14.976,0,0,1-20.351,5.545,12.175,12.175,0,0,1-21.016-10.532A12.161,12.161,0,0,1,233.827,70.506Z" transform="translate(-233.827 -44.607)" fill="#7559d6"/>
            <circle id="Elipse_12796" data-name="Elipse 12796" cx="3.778" cy="3.778" r="3.778" transform="translate(8.552 52.442)" fill="#7559d6"/>
            <circle id="Elipse_12797" data-name="Elipse 12797" cx="2.525" cy="2.525" r="2.525" transform="translate(4.933 61.349)" fill="#7559d6"/>
          </g>
          <path id="Trazado_1218855" data-name="Trazado 1218855" d="M288.353,62.416a22.577,22.577,0,0,1,9.814,3.131c1.643.985,3.3,2.426,3.406,4.338.123,2.144-1.864,3.943-3.966,4.383s-4.27-.134-6.341-.7a4.991,4.991,0,0,1-1.619-.658,1.7,1.7,0,0,1-.774-1.487,1.659,1.659,0,0,1,1.135-1.284,4.125,4.125,0,0,1,1.786-.128,10.388,10.388,0,0,1,6.9,3.036c1.71,1.922,2.211,5.046.645,7.088-1.416,1.847-3.981,2.332-6.308,2.389a27.931,27.931,0,0,1-7.439-.824,10.805,10.805,0,0,1-5.145-2.549,4.942,4.942,0,0,1-1.284-5.313,4.482,4.482,0,0,1,4.625-2.371,6.4,6.4,0,0,1,4.429,3.072,6.275,6.275,0,0,1,.939,4.535,6.445,6.445,0,0,1-4.187,4.433,13.3,13.3,0,0,1-6.286.446c-2-.253-4.11-.79-5.453-2.294a6.707,6.707,0,0,1-1.14-6.069,19.815,19.815,0,0,1,2.866-5.721,9.389,9.389,0,0,1,1.617-2.057,3.166,3.166,0,0,1,2.4-.86,3.458,3.458,0,0,1,2.49,2.113,3.659,3.659,0,0,1,.166,3.13,3.556,3.556,0,0,1-3.636,1.629,5.86,5.86,0,0,1-4.707-3.895,6.627,6.627,0,0,1,1.1-6.086,7.639,7.639,0,0,1,5.572-2.829,8.175,8.175,0,0,1,3.888,15.573c-1.22.568-2.859.744-3.748-.266s-.517-2.578.077-3.778a4.372,4.372,0,0,1,2.909-2.673,4.267,4.267,0,0,1,3.245,1.255A12.032,12.032,0,1,1,270.7,89.432a5,5,0,0,1-1.435-1.8,2.335,2.335,0,0,1,.149-2.219,2.671,2.671,0,0,1,3.258-.5,5.2,5.2,0,0,1,2.836,4.557,6.75,6.75,0,0,1-2.255,5,9.686,9.686,0,0,1-5.069,2.316" transform="translate(-253.856 -52.513)" fill="none" stroke="#fff" stroke-linecap="round" stroke-linejoin="round" stroke-miterlimit="10" stroke-width="1.483"/>
        </g>
        <path id="Trazado_1218856" data-name="Trazado 1218856" d="M293.648,167.572a19.558,19.558,0,0,0,9.842,17.867s-10.224,2.675-14.714,1.529c0,0-9.841-9.172-11.657-16.243C277.118,170.725,289.826,171.011,293.648,167.572Z" transform="translate(-90.886 -18.83)" fill="#fff"/>
        <path id="Trazado_1218857" data-name="Trazado 1218857" d="M545.78,161.035s-6.845,6.652-19.089,2.892c0,0,3.856,7.809,8.484,10.7,0,0,6.652,5.11,18.606-3.182C553.781,171.447,545.394,166.145,545.78,161.035Z" transform="translate(-470.416 -15.678)" fill="#fff"/>
        <path id="Trazado_1218858" data-name="Trazado 1218858" d="M289.169,242.29s9.288,2.2,12.695,14.546c0,0,4.515-7.448,4.467-12.9,0,0,.735-8.356-12.68-13.984C293.652,229.947,293.686,239.87,289.169,242.29Z" transform="translate(-99.975 -48.904)" fill="#fff"/>
      </g>
      <path id="Trazado_1218859" data-name="Trazado 1218859" d="M462.521,61.76c-.3-.447-10.289-8.649-10.289-8.649l-.895,6.263L440.451,46.4l-1.79,7.456-9.1-6.412,10.886,12.973L442.39,54.3l11.632,11.632.447-9.245Z" transform="translate(-385.526 -10.873)" fill="#a2a2f0"/>
      <path id="Trazado_1218860" data-name="Trazado 1218860" d="M402.179,64.982c.144-.518-.163-13.44-.163-13.44l-5.329,3.41,2.724-16.715-6.817,3.51L391.516,30.67l-2.724,16.715,5.9-2.522-1.221,16.4,7.3-5.7Z" transform="translate(-304.108 -3.289)" fill="#a2a2f0"/>
    </g>
  </g>
</svg>
